<svg width="430" height="222" viewBox="0 0 430 222" fill="none" xmlns="http://www.w3.org/2000/svg">
<path d="M426.37 67.1L425.59 67.1L423.19 64.79C422.31 63.95 421.58 63.34 421 62.96C420.41 62.57 419.795 62.375 419.155 62.375C418.495 62.375 418.01 62.54 417.7 62.87C417.38 63.2 417.22 63.715 417.22 64.415C417.22 65.105 417.485 65.85 418.015 66.65L416.995 66.965C416.395 66.065 416.095 65.13 416.095 64.16C416.095 63.14 416.355 62.355 416.875 61.805C417.395 61.255 418.11 60.98 419.02 60.98C419.83 60.98 420.575 61.205 421.255 61.655C421.925 62.095 422.755 62.805 423.745 63.785L425.26 65.285L425.26 60.785L426.37 60.785L426.37 67.1ZM426.55 55.997C426.55 57.127 426.155 58.037 425.365 58.727C424.565 59.407 423.345 59.747 421.705 59.747L420.91 59.747C419.24 59.747 418.025 59.397 417.265 58.697C416.495 57.997 416.11 57.092 416.11 55.982C416.11 54.892 416.49 54.012 417.25 53.342C418 52.662 419.2 52.322 420.85 52.322L421.72 52.322C423.36 52.322 424.575 52.662 425.365 53.342C426.155 54.012 426.55 54.897 426.55 55.997ZM425.47 55.997C425.47 55.227 425.185 54.652 424.615 54.272C424.045 53.882 423.135 53.687 421.885 53.687L420.85 53.687C418.41 53.687 417.19 54.452 417.19 55.982C417.19 57.552 418.375 58.337 420.745 58.337L421.81 58.337C424.25 58.337 425.47 57.557 425.47 55.997ZM426.43 49.4748L417.61 49.4748L418.015 51.3048L417.25 51.3048L416.125 48.8748L416.125 48.1548L426.43 48.1548L426.43 49.4748ZM426.55 43.952C426.55 45.122 426.3 46.072 425.8 46.802L424.75 46.547C424.94 46.247 425.105 45.882 425.245 45.452C425.385 45.022 425.455 44.617 425.455 44.237C425.455 43.457 425.255 42.847 424.855 42.407C424.445 41.967 423.89 41.747 423.19 41.747C421.81 41.747 421.12 42.557 421.12 44.177C421.12 44.847 421.285 45.547 421.615 46.277L416.275 45.917L416.275 40.772L417.37 40.772L417.37 44.867L420.31 45.062C420.17 44.542 420.1 44.072 420.1 43.652C420.1 42.612 420.36 41.807 420.88 41.237C421.4 40.667 422.18 40.382 423.22 40.382C424.16 40.382 424.95 40.707 425.59 41.357C426.23 42.007 426.55 42.872 426.55 43.952ZM426.715 39.8127L425.245 39.8127L425.245 38.3577L426.715 38.3577L426.715 39.8127ZM426.55 32.8055C426.55 33.9355 426.155 34.8455 425.365 35.5355C424.565 36.2155 423.345 36.5555 421.705 36.5555L420.91 36.5555C419.24 36.5555 418.025 36.2055 417.265 35.5055C416.495 34.8055 416.11 33.9005 416.11 32.7905C416.11 31.7005 416.49 30.8205 417.25 30.1505C418 29.4705 419.2 29.1305 420.85 29.1305L421.72 29.1305C423.36 29.1305 424.575 29.4705 425.365 30.1505C426.155 30.8205 426.55 31.7055 426.55 32.8055ZM425.47 32.8055C425.47 32.0355 425.185 31.4605 424.615 31.0805C424.045 30.6905 423.135 30.4955 421.885 30.4955L420.85 30.4955C418.41 30.4955 417.19 31.2605 417.19 32.7905C417.19 34.3605 418.375 35.1455 420.745 35.1455L421.81 35.1455C424.25 35.1455 425.47 34.3655 425.47 32.8055ZM426.595 23.6434L424.42 23.6434L424.42 28.4734L423.505 28.4734L416.125 23.4034L416.125 22.3984L423.37 22.3984L423.37 20.7184L424.42 20.7184L424.42 22.3984L426.595 22.3984L426.595 23.6434ZM423.37 27.0934L423.37 23.6284L418.33 23.6284L423.37 27.0934ZM426.715 20.5002L425.245 20.5002L425.245 19.0452L426.715 19.0452L426.715 20.5002ZM426.37 17.348L425.59 17.348L423.19 15.038C422.31 14.198 421.58 13.588 421 13.208C420.41 12.818 419.795 12.623 419.155 12.623C418.495 12.623 418.01 12.788 417.7 13.118C417.38 13.448 417.22 13.963 417.22 14.663C417.22 15.353 417.485 16.098 418.015 16.898L416.995 17.213C416.395 16.313 416.095 15.378 416.095 14.408C416.095 13.388 416.355 12.603 416.875 12.053C417.395 11.503 418.11 11.228 419.02 11.228C419.83 11.228 420.575 11.453 421.255 11.903C421.925 12.343 422.755 13.053 423.745 14.033L425.26 15.533L425.26 11.033L426.37 11.033L426.37 17.348ZM416.11 7.01C416.11 5.87 416.49 4.99 417.25 4.37C418.01 3.75 419.105 3.44 420.535 3.44L421.195 3.44C422.965 3.44 424.3 3.785 425.2 4.475C426.1 5.165 426.55 6.135 426.55 7.385C426.55 7.875 426.49 8.345 426.37 8.795C426.24 9.245 426.09 9.595 425.92 9.845L424.96 9.515C425.29 8.955 425.455 8.27 425.455 7.46C425.455 6.61 425.17 5.965 424.6 5.525C424.02 5.075 423.055 4.825 421.705 4.775C422.425 5.425 422.785 6.245 422.785 7.235C422.785 8.115 422.495 8.85 421.915 9.44C421.335 10.02 420.57 10.31 419.62 10.31C418.62 10.31 417.785 10.015 417.115 9.425C416.445 8.835 416.11 8.03 416.11 7.01ZM417.175 6.995C417.175 7.625 417.39 8.12 417.82 8.48C418.25 8.83 418.815 9.005 419.515 9.005C420.245 9.005 420.795 8.82 421.165 8.45C421.525 8.07 421.705 7.565 421.705 6.935C421.705 6.515 421.585 6.11 421.345 5.72C421.105 5.32 420.825 5.005 420.505 4.775L420.22 4.775C419.27 4.775 418.525 4.96 417.985 5.33C417.445 5.69 417.175 6.245 417.175 6.995Z" fill="#E8E8E8"/>
<path d="M14.325 16.625L12.8 18.8C11.7 18.3 10.6083 17.4917 9.525 16.375C8.45833 15.2583 7.75 14.175 7.4 13.125C7.11667 14.275 6.475 15.4333 5.475 16.6C4.475 17.7667 3.33333 18.6583 2.05 19.275L0.225 17.15C2.025 16.1667 3.39167 14.9667 4.325 13.55C5.25833 12.1333 5.75833 10.3833 5.825 8.3H1.375V5.975H13.25V8.3H8.875C8.975 10.3333 9.48333 12.0167 10.4 13.35C11.3333 14.6667 12.6417 15.7583 14.325 16.625ZM18.175 0.699999V9.4H21.375V11.775H18.175V22.975H15.25V0.699999H18.175ZM3.95 4.35V2.025H10.65V4.35H3.95ZM39.5309 22.975H36.6309V0.699999H39.5309V22.975ZM23.2809 15.95C22.2642 14.5 21.7559 12.5833 21.7559 10.2C21.7559 7.81667 22.2642 5.89167 23.2809 4.425C24.3142 2.95833 25.7225 2.225 27.5059 2.225C29.3059 2.225 30.7142 2.95833 31.7309 4.425C32.7642 5.89167 33.2809 7.81667 33.2809 10.2C33.2809 12.5667 32.7642 14.4833 31.7309 15.95C30.7142 17.4 29.3059 18.125 27.5059 18.125C25.7225 18.125 24.3142 17.4 23.2809 15.95ZM30.4809 10.2C30.4809 8.46667 30.2059 7.1 29.6559 6.1C29.1059 5.08333 28.3892 4.575 27.5059 4.575C26.6559 4.575 25.9559 5.08333 25.4059 6.1C24.8725 7.1 24.6059 8.46667 24.6059 10.2C24.6059 11.9167 24.8725 13.275 25.4059 14.275C25.9559 15.275 26.6559 15.775 27.5059 15.775C28.3892 15.775 29.1059 15.275 29.6559 14.275C30.2059 13.275 30.4809 11.9167 30.4809 10.2ZM58.8867 0.699999V9.175H62.0867V11.6H58.8867V22.975H55.9617V0.699999H58.8867ZM54.4617 16.5C53.2284 16.8333 51.6201 17.0917 49.6367 17.275C47.6701 17.4583 45.9201 17.55 44.3867 17.55H42.3617V2.925H45.2617V15.05C48.7784 15.05 51.7451 14.7583 54.1617 14.175L54.4617 16.5ZM65.6426 15.625C69.4592 15.625 72.3926 15.4 74.4426 14.95C74.4759 15.2167 74.5259 15.6 74.5926 16.1C74.6759 16.6 74.7342 16.9833 74.7676 17.25C72.6676 17.7333 69.3676 17.975 64.8676 17.975H62.7426V2.65H72.9676V4.95H65.6426V9H72.5676V11.325H65.6426V15.625ZM79.2926 0.699999V9.1H82.3926V11.5H79.2926V22.975H76.3676V0.699999H79.2926ZM100.123 5.8C100.123 7.13333 99.4234 8.21667 98.0234 9.05C96.6401 9.88333 94.7484 10.3 92.3484 10.3C89.9484 10.3 88.0568 9.88333 86.6734 9.05C85.2901 8.21667 84.5984 7.13333 84.5984 5.8C84.5984 4.5 85.2901 3.43333 86.6734 2.6C88.0568 1.76667 89.9401 1.35 92.3234 1.35C94.7234 1.35 96.6234 1.76667 98.0234 2.6C99.4234 3.43333 100.123 4.5 100.123 5.8ZM93.9984 18.075H91.0984V14.05H82.2734V11.725H102.398V14.05H93.9984V18.075ZM100.073 22.375H84.8484V16.025H87.7484V20.075H100.073V22.375ZM97.0984 5.85C97.0984 5.16667 96.6651 4.61667 95.7984 4.2C94.9484 3.78333 93.7901 3.575 92.3234 3.575C90.8901 3.575 89.7401 3.78333 88.8734 4.2C88.0234 4.61667 87.5984 5.16667 87.5984 5.85C87.5984 6.5 88.0234 7.025 88.8734 7.425C89.7401 7.825 90.8901 8.025 92.3234 8.025C93.7901 8.025 94.9484 7.825 95.7984 7.425C96.6651 7.025 97.0984 6.5 97.0984 5.85Z" fill="white"/>
<path d="M0 116L430 116" stroke="#E8E8E8"/>
<path d="M0 186L430 186" stroke="#E8E8E8"/>
<path d="M0 151L430 151" stroke="#E8E8E8"/>
<path d="M0 221L430 221" stroke="#E8E8E8"/>
<path d="M6.74 49.38C4.9 49.38 3.46 48.8133 2.42 47.68C1.38 46.5333 0.86 44.8467 0.86 42.62V42.16C0.86 40.9867 1.02 39.9667 1.34 39.1C1.66 38.22 2.10667 37.5267 2.68 37.02C3.25333 36.5 3.9 36.12 4.62 35.88C5.35333 35.6267 6.16 35.5 7.04 35.5C8.36 35.5 9.46 35.7467 10.34 36.24V37.7C9.1 37.2333 7.95333 37 6.9 37C5.63333 37 4.62667 37.4 3.88 38.2C3.13333 38.9867 2.76 40.2133 2.76 41.88V42.6C2.76 46.12 4.17333 47.88 7 47.88C8.10667 47.88 9.27333 47.5933 10.5 47.02V48.52C9.5 49.0933 8.24667 49.38 6.74 49.38ZM15.4514 49.34C14.0247 49.34 12.9114 48.9067 12.1114 48.04C11.3247 47.16 10.9314 45.9467 10.9314 44.4V44.06C10.9314 42.5133 11.3447 41.2867 12.1714 40.38C12.9981 39.4733 14.0981 39.02 15.4714 39.02C16.8981 39.02 18.0114 39.46 18.8114 40.34C19.6114 41.22 20.0114 42.44 20.0114 44V44.32C20.0114 45.8667 19.5914 47.0933 18.7514 48C17.9247 48.8933 16.8247 49.34 15.4514 49.34ZM15.4914 47.94C16.3714 47.94 17.0447 47.6467 17.5114 47.06C17.9914 46.46 18.2314 45.6067 18.2314 44.5V43.96C18.2314 41.6 17.2981 40.42 15.4314 40.42C14.5647 40.42 13.8914 40.72 13.4114 41.32C12.9314 41.92 12.6914 42.7733 12.6914 43.88V44.44C12.6914 46.7733 13.6247 47.94 15.4914 47.94ZM21.1383 49.16V39.22H22.8583V49.16H21.1383ZM21.1383 37.26V35.48H22.8783V37.26H21.1383ZM24.6295 49.16V39.22H26.2495V40.08H26.3495C27.3362 39.3733 28.4495 39.02 29.6895 39.02C30.6762 39.02 31.4029 39.24 31.8695 39.68C32.3362 40.12 32.5695 40.8133 32.5695 41.76V49.16H30.8895V42.12C30.8895 41.5333 30.7562 41.12 30.4895 40.88C30.2229 40.6267 29.7095 40.5 28.9495 40.5C28.1362 40.5 27.2629 40.72 26.3295 41.16V49.16H24.6295ZM38.7689 49.16V35.72H40.5289V47.66H46.4489V49.16H38.7689ZM51.2913 49.34C49.8646 49.34 48.7513 48.9067 47.9513 48.04C47.1646 47.16 46.7713 45.9467 46.7713 44.4V44.06C46.7713 42.5133 47.1846 41.2867 48.0113 40.38C48.8379 39.4733 49.9379 39.02 51.3112 39.02C52.7379 39.02 53.8513 39.46 54.6513 40.34C55.4513 41.22 55.8513 42.44 55.8513 44V44.32C55.8513 45.8667 55.4313 47.0933 54.5913 48C53.7646 48.8933 52.6646 49.34 51.2913 49.34ZM51.3313 47.94C52.2113 47.94 52.8846 47.6467 53.3513 47.06C53.8313 46.46 54.0713 45.6067 54.0713 44.5V43.96C54.0713 41.6 53.1379 40.42 51.2713 40.42C50.4046 40.42 49.7313 40.72 49.2513 41.32C48.7713 41.92 48.5312 42.7733 48.5312 43.88V44.44C48.5312 46.7733 49.4646 47.94 51.3313 47.94ZM60.9381 49.34C59.4848 49.34 58.3515 48.9267 57.5381 48.1C56.7248 47.2733 56.3181 46.0467 56.3181 44.42V44.08C56.3181 42.4133 56.7581 41.1533 57.6381 40.3C58.5181 39.4467 59.6515 39.02 61.0381 39.02C62.1181 39.02 63.0181 39.24 63.7381 39.68V41.1C62.7781 40.6867 61.8381 40.48 60.9181 40.48C60.0248 40.48 59.3248 40.7733 58.8181 41.36C58.3248 41.9333 58.0781 42.76 58.0781 43.84V44.36C58.0781 45.5867 58.3315 46.4867 58.8381 47.06C59.3448 47.62 60.1048 47.9 61.1181 47.9C61.9448 47.9 62.8648 47.6667 63.8781 47.2V48.56C63.0648 49.08 62.0848 49.34 60.9381 49.34ZM64.7858 49.16V34.84H66.4858V49.16H64.7858ZM70.6658 49.16L66.6458 44.02L70.4658 39.22H72.3258L68.4258 43.9L72.6258 49.16H70.6658ZM77.4175 49.34C75.8708 49.34 74.6908 48.9 73.8775 48.02C73.0775 47.1267 72.6775 45.9 72.6775 44.34V44.04C72.6775 42.4 73.0908 41.1533 73.9175 40.3C74.7575 39.4467 75.8042 39.02 77.0575 39.02C79.7375 39.02 81.0775 40.5867 81.0775 43.72V44.68H74.4375C74.4908 45.8267 74.7908 46.6467 75.3375 47.14C75.8842 47.6333 76.6708 47.88 77.6975 47.88C78.8042 47.88 79.8308 47.6267 80.7775 47.12V48.38C79.9375 49.02 78.8175 49.34 77.4175 49.34ZM76.9775 40.4C76.3242 40.4 75.7508 40.6267 75.2575 41.08C74.7775 41.52 74.5042 42.26 74.4375 43.3H79.2775C79.2775 42.2867 79.0842 41.5533 78.6975 41.1C78.3242 40.6333 77.7508 40.4 76.9775 40.4ZM82.1803 49.16V39.22H83.8003V40.32H83.9003C84.1803 39.9733 84.567 39.6867 85.0603 39.46C85.567 39.22 86.0803 39.1 86.6003 39.1C86.8803 39.1 87.087 39.1267 87.2203 39.18V40.7C86.9403 40.66 86.687 40.64 86.4603 40.64C85.5136 40.64 84.6536 40.8933 83.8803 41.4V49.16H82.1803ZM97.9711 49.38C96.0111 49.38 94.4778 48.8333 93.3711 47.74C92.2778 46.6467 91.7311 44.98 91.7311 42.74V42.34C91.7311 41.1133 91.9044 40.0467 92.2511 39.14C92.5978 38.22 93.0778 37.5067 93.6911 37C94.3044 36.48 94.9778 36.1 95.7111 35.86C96.4444 35.62 97.2511 35.5 98.1311 35.5C99.4778 35.5 100.651 35.7733 101.651 36.32V37.82C100.411 37.2733 99.1911 37 97.9911 37C96.4711 37 95.3644 37.48 94.6711 38.44C93.9778 39.4 93.6311 40.6133 93.6311 42.08V42.7C93.6311 44.3667 93.9511 45.6533 94.5911 46.56C95.2311 47.4533 96.3778 47.9 98.0311 47.9C98.9378 47.9 99.7378 47.7733 100.431 47.52V44.04H97.6111V42.58H102.171V48.6C100.904 49.12 99.5044 49.38 97.9711 49.38ZM103.791 49.16V39.22H105.511V49.16H103.791ZM103.791 37.26V35.48H105.531V37.26H103.791ZM107.282 49.16V39.22H108.902V40.32H109.002C109.282 39.9733 109.669 39.6867 110.162 39.46C110.669 39.22 111.182 39.1 111.702 39.1C111.982 39.1 112.189 39.1267 112.322 39.18V40.7C112.042 40.66 111.789 40.64 111.562 40.64C110.615 40.64 109.755 40.8933 108.982 41.4V49.16H107.282ZM113.119 49.16V34.84H114.839V49.16H113.119ZM115.71 51.86L116.41 47.82H118.43L117.19 51.86H115.71ZM124.587 49.16V48.12L127.667 44.92C128.787 43.7467 129.6 42.7733 130.107 42C130.627 41.2133 130.887 40.3933 130.887 39.54C130.887 38.66 130.667 38.0133 130.227 37.6C129.787 37.1733 129.1 36.96 128.167 36.96C127.247 36.96 126.253 37.3133 125.187 38.02L124.767 36.66C125.967 35.86 127.213 35.46 128.507 35.46C129.867 35.46 130.913 35.8067 131.647 36.5C132.38 37.1933 132.747 38.1467 132.747 39.36C132.747 40.44 132.447 41.4333 131.847 42.34C131.26 43.2333 130.313 44.34 129.007 45.66L127.007 47.68H133.007V49.16H124.587ZM139.391 49.4C137.884 49.4 136.671 48.8733 135.751 47.82C134.844 46.7533 134.391 45.1267 134.391 42.94V41.88C134.391 39.6533 134.857 38.0333 135.791 37.02C136.724 35.9933 137.931 35.48 139.411 35.48C140.864 35.48 142.037 35.9867 142.931 37C143.837 38 144.291 39.6 144.291 41.8V42.96C144.291 45.1467 143.837 46.7667 142.931 47.82C142.037 48.8733 140.857 49.4 139.391 49.4ZM139.391 47.96C140.417 47.96 141.184 47.58 141.691 46.82C142.211 46.06 142.471 44.8467 142.471 43.18V41.8C142.471 38.5467 141.451 36.92 139.411 36.92C137.317 36.92 136.271 38.5 136.271 41.66V43.08C136.271 46.3333 137.311 47.96 139.391 47.96ZM148.087 49.24V37.48L145.647 38.02V37L148.887 35.5H149.847V49.24H148.087ZM157.951 49.46V46.56H151.511V45.34L158.271 35.5H159.611V45.16H161.851V46.56H159.611V49.46H157.951ZM153.351 45.16H157.971V38.44L153.351 45.16Z" fill="#E8E8E8"/>
<path d="M16.31 140.05H14.99V133.075H12.785V131.95H14.99V126.94H16.31V140.05ZM13.025 135.49L13.16 136.57C11.71 136.84 9.78 136.975 7.37 136.975H5.99V131.755H10.715V129.205H5.99V128.125H12.035V132.835H7.31V135.88C9.75 135.88 11.655 135.75 13.025 135.49ZM28.5535 134.845H27.2185V126.94H28.5535V134.845ZM25.9435 131.875L26.1385 132.985C24.5685 133.325 22.4285 133.525 19.7185 133.585H18.5185V127.81H19.8535V132.445C22.3035 132.445 24.3335 132.255 25.9435 131.875ZM28.6285 137.515C28.6285 138.305 28.2385 138.92 27.4585 139.36C26.6785 139.81 25.5785 140.035 24.1585 140.035C22.7585 140.035 21.6635 139.81 20.8735 139.36C20.0935 138.91 19.7035 138.295 19.7035 137.515C19.7035 136.735 20.0935 136.12 20.8735 135.67C21.6635 135.21 22.7585 134.98 24.1585 134.98C25.5785 134.98 26.6785 135.21 27.4585 135.67C28.2385 136.12 28.6285 136.735 28.6285 137.515ZM26.4535 138.595C27.0035 138.335 27.2785 137.975 27.2785 137.515C27.2785 137.055 27.0035 136.7 26.4535 136.45C25.9135 136.19 25.1485 136.06 24.1585 136.06C23.1985 136.06 22.4435 136.19 21.8935 136.45C21.3535 136.7 21.0835 137.055 21.0835 137.515C21.0835 137.975 21.3535 138.335 21.8935 138.595C22.4435 138.845 23.1985 138.97 24.1585 138.97C25.1485 138.97 25.9135 138.845 26.4535 138.595ZM31.827 135.865C34.597 135.865 36.587 135.72 37.797 135.43L37.917 136.51C36.547 136.79 34.487 136.945 31.737 136.975H30.507V128.155H36.777V129.22H31.827V131.86H36.447V132.94H31.827V135.865ZM40.152 126.94V132.055H42.192V133.165H40.152V140.05H38.832V126.94H40.152ZM53.0105 134.56H51.6755V126.94H53.0105V134.56ZM53.0105 139.87H44.4905V135.205H53.0105V139.87ZM51.6755 138.82V136.27H45.8105V138.82H51.6755ZM46.0355 127.675C46.9955 127.675 47.8105 127.975 48.4805 128.575C49.1505 129.165 49.4855 129.92 49.4855 130.84C49.4855 131.76 49.1555 132.505 48.4955 133.075C47.8355 133.645 47.0155 133.93 46.0355 133.93C45.0655 133.93 44.2455 133.645 43.5755 133.075C42.9155 132.505 42.5855 131.76 42.5855 130.84C42.5855 129.92 42.9155 129.165 43.5755 128.575C44.2455 127.975 45.0655 127.675 46.0355 127.675ZM46.0355 128.815C45.4155 128.815 44.9055 129.005 44.5055 129.385C44.1155 129.765 43.9205 130.245 43.9205 130.825C43.9205 131.415 44.1155 131.9 44.5055 132.28C44.9055 132.65 45.4155 132.835 46.0355 132.835C46.6555 132.835 47.1605 132.65 47.5505 132.28C47.9405 131.91 48.1355 131.43 48.1355 130.84C48.1355 130.25 47.9405 129.765 47.5505 129.385C47.1705 129.005 46.6655 128.815 46.0355 128.815Z" fill="#E8E8E8"/>
<path d="M15.875 173.5C15.875 174.29 15.48 174.91 14.69 175.36C13.91 175.81 12.83 176.035 11.45 176.035C10.07 176.035 8.985 175.81 8.195 175.36C7.415 174.91 7.025 174.29 7.025 173.5C7.025 172.7 7.415 172.075 8.195 171.625C8.985 171.165 10.07 170.935 11.45 170.935C12.83 170.935 13.91 171.165 14.69 171.625C15.48 172.075 15.875 172.7 15.875 173.5ZM5.6 164.935V163.84H12.755V164.935H9.89V165.295C9.89 166.175 10.195 166.965 10.805 167.665C11.425 168.355 12.14 168.82 12.95 169.06L12.215 170.125C11.615 169.885 11.035 169.51 10.475 169C9.915 168.48 9.5 167.925 9.23 167.335C9.02 167.955 8.61 168.565 8 169.165C7.39 169.765 6.74 170.205 6.05 170.485L5.255 169.45C6.155 169.13 6.925 168.585 7.565 167.815C8.215 167.035 8.54 166.205 8.54 165.325V164.935H5.6ZM14.51 173.5C14.51 173.03 14.235 172.67 13.685 172.42C13.145 172.16 12.4 172.03 11.45 172.03C10.5 172.03 9.755 172.16 9.215 172.42C8.675 172.67 8.405 173.03 8.405 173.5C8.405 173.96 8.675 174.32 9.215 174.58C9.755 174.83 10.5 174.955 11.45 174.955C12.4 174.955 13.145 174.83 13.685 174.58C14.235 174.32 14.51 173.96 14.51 173.5ZM17.675 167.5H15.695V171.01H14.375V162.94H15.695V166.39H17.675V167.5ZM28.5085 171.16H19.2685V166.945H26.8435V165.085H19.2685V164.02H28.1635V168.04H20.6035V170.08H28.5085V171.16ZM29.6335 174.325H17.7985V173.23H29.6335V174.325Z" fill="#E8E8E8"/>
<path d="M17.405 206.29H5.57V205.21H17.405V206.29ZM16.01 209.68C16.01 210.42 15.615 210.995 14.825 211.405C14.035 211.825 12.92 212.035 11.48 212.035C10.05 212.035 8.94 211.825 8.15 211.405C7.36 210.995 6.965 210.42 6.965 209.68C6.965 208.95 7.36 208.375 8.15 207.955C8.95 207.535 10.06 207.325 11.48 207.325C12.92 207.325 14.035 207.53 14.825 207.94C15.615 208.35 16.01 208.93 16.01 209.68ZM11.48 208.405C10.51 208.405 9.74 208.52 9.17 208.75C8.61 208.97 8.33 209.28 8.33 209.68C8.33 210.09 8.61 210.405 9.17 210.625C9.73 210.845 10.5 210.955 11.48 210.955C12.47 210.955 13.245 210.845 13.805 210.625C14.375 210.405 14.66 210.09 14.66 209.68C14.66 209.28 14.375 208.97 13.805 208.75C13.235 208.52 12.46 208.405 11.48 208.405ZM15.965 203.905H6.995V199.495H15.875V200.575H8.315V202.825H15.965V203.905ZM28.1035 211.87H19.2835V206.5H20.6185V208.105H26.7685V206.47H28.1035V211.87ZM28.0585 199.54C28.0585 201.37 27.9185 202.96 27.6385 204.31H29.6185V205.405H17.7835V204.31H26.3485C26.5885 203.2 26.7085 201.965 26.7085 200.605H19.3285V199.54H28.0585ZM26.7685 210.805V209.155H20.6185V210.805H26.7685Z" fill="#E8E8E8"/>
<path d="M230.125 140.065H228.79V135.385H223.57V134.305H235.405V135.385H230.125V140.065ZM234.055 132.55H225.055V127.585H226.39V131.47H234.055V132.55ZM236.099 128.995V127.915H243.269V128.995H240.404V129.52C240.404 130.39 240.724 131.18 241.364 131.89C242.004 132.59 242.729 133.065 243.539 133.315L242.804 134.38C242.204 134.14 241.609 133.76 241.019 133.24C240.429 132.71 240.004 132.155 239.744 131.575C239.544 132.185 239.119 132.795 238.469 133.405C237.819 134.015 237.144 134.465 236.444 134.755L235.694 133.705C236.594 133.385 237.379 132.835 238.049 132.055C238.719 131.265 239.054 130.43 239.054 129.55V128.995H236.099ZM237.779 135.4H246.569V140.05H245.219V136.48H237.779V135.4ZM246.554 134.71H245.219V131.395H242.789V130.315H245.219V126.94H246.554V134.71ZM260.162 132.175H258.212V136.75H256.907V126.94H258.212V131.065H260.162V132.175ZM258.677 139.72H249.857V135.895H251.177V138.64H258.677V139.72ZM256.172 134.395C254.862 134.595 253.467 134.72 251.987 134.77C250.667 134.84 249.322 134.875 247.952 134.875L247.757 133.765C248.967 133.765 249.887 133.755 250.517 133.735V130.93H251.837V133.705C253.497 133.655 254.892 133.545 256.022 133.375L256.172 134.395ZM255.107 127.93C255.107 130.06 254.982 131.59 254.732 132.52L253.442 132.31C253.662 131.57 253.772 130.47 253.772 129.01H248.657V127.93H255.107ZM271.326 134.665H270.051V131.365H268.551V134.545H267.306V127.18H268.551V130.285H270.051V126.94H271.326V134.665ZM265.926 127.915C265.896 131.005 264.281 133.3 261.081 134.8L260.256 133.78C261.466 133.32 262.451 132.66 263.211 131.8C263.971 130.93 264.406 129.995 264.516 128.995H260.841V127.915H265.926ZM271.326 140.065H270.006V136.405H262.476V135.34H271.326V140.065Z" fill="#E8E8E8"/>
<path d="M224.845 171.625H228.82V169.285H223.57V168.22H232.18C232.41 167.17 232.525 166.015 232.525 164.755H224.98V163.66H233.89C233.89 165.39 233.75 166.91 233.47 168.22H235.405V169.285H230.155V171.625H233.905V176.11H232.57V172.705H224.845V171.625ZM245.924 162.94V168.31H248.024V169.42H245.924V176.05H244.604V162.94H245.924ZM242.474 164.335C242.434 166.375 241.909 168.165 240.899 169.705C239.889 171.245 238.464 172.515 236.624 173.515L235.814 172.51C237.334 171.78 238.554 170.78 239.474 169.51C240.404 168.24 240.929 166.89 241.049 165.46H236.384V164.335H242.474Z" fill="#E8E8E8"/>
<path d="M225.445 207.745H225.985C228.325 207.745 230.145 207.605 231.445 207.325L231.595 208.405C230.235 208.685 228.235 208.835 225.595 208.855H224.125V200.32H230.32V201.415H225.445V207.745ZM233.695 198.94V204.055H235.735V205.165H233.695V212.05H232.375V198.94H233.695ZM247.634 206.29H235.799V205.21H247.634V206.29ZM246.194 211.87H237.239V207.565H246.194V211.87ZM244.874 210.82V208.615H238.574V210.82H244.874ZM245.024 199.945C245.824 200.395 246.224 201 246.224 201.76C246.224 202.52 245.824 203.13 245.024 203.59C244.224 204.04 243.119 204.265 241.709 204.265C240.299 204.265 239.194 204.04 238.394 203.59C237.604 203.13 237.209 202.52 237.209 201.76C237.209 201 237.604 200.395 238.394 199.945C239.194 199.495 240.299 199.27 241.709 199.27C243.129 199.27 244.234 199.495 245.024 199.945ZM243.989 202.795C244.559 202.535 244.844 202.19 244.844 201.76C244.844 201.33 244.559 200.985 243.989 200.725C243.429 200.465 242.669 200.335 241.709 200.335C240.759 200.335 240.004 200.465 239.444 200.725C238.884 200.985 238.604 201.33 238.604 201.76C238.604 202.19 238.884 202.535 239.444 202.795C240.004 203.055 240.759 203.185 241.709 203.185C242.659 203.185 243.419 203.055 243.989 202.795ZM260.877 207.685C261.657 208.125 262.047 208.735 262.047 209.515C262.047 210.295 261.657 210.905 260.877 211.345C260.097 211.795 258.997 212.02 257.577 212.02C256.177 212.02 255.082 211.795 254.292 211.345C253.512 210.905 253.122 210.295 253.122 209.515C253.122 208.735 253.512 208.125 254.292 207.685C255.082 207.235 256.177 207.01 257.577 207.01C258.997 207.01 260.097 207.235 260.877 207.685ZM261.972 206.86H260.637V204.625H258.702V203.575H260.637V202.24H258.702V201.205H260.637V198.94H261.972V206.86ZM259.872 210.55C260.422 210.3 260.697 209.955 260.697 209.515C260.697 209.075 260.422 208.73 259.872 208.48C259.332 208.23 258.567 208.105 257.577 208.105C256.617 208.105 255.862 208.23 255.312 208.48C254.772 208.73 254.502 209.075 254.502 209.515C254.502 209.955 254.772 210.3 255.312 210.55C255.862 210.79 256.617 210.91 257.577 210.91C258.567 210.91 259.332 210.79 259.872 210.55ZM258.687 204.925L258.792 205.945C258.172 206.065 257.092 206.165 255.552 206.245C254.262 206.325 252.857 206.375 251.337 206.395L251.187 205.225H252.882L252.537 201.745L253.842 201.595L254.082 205.21C254.822 205.19 255.382 205.17 255.762 205.15L256.017 201.565L257.322 201.715L256.947 205.09C257.597 205.06 258.177 205.005 258.687 204.925ZM258.417 200.905H251.562V199.825H258.417V200.905ZM274.201 211.87H265.756V207.28H274.201V211.87ZM263.746 200.98V199.885H270.916V200.98H268.051V201.49C268.051 202.36 268.371 203.15 269.011 203.86C269.651 204.56 270.376 205.035 271.186 205.285L270.451 206.35C269.841 206.11 269.241 205.73 268.651 205.21C268.071 204.68 267.651 204.125 267.391 203.545C267.191 204.155 266.766 204.765 266.116 205.375C265.466 205.985 264.791 206.435 264.091 206.725L263.341 205.69C264.241 205.36 265.026 204.805 265.696 204.025C266.366 203.235 266.701 202.4 266.701 201.52V200.98H263.746ZM272.866 210.805V208.33H267.076V210.805H272.866ZM274.201 206.62H272.866V203.35H270.421V202.27H272.866V198.94H274.201V206.62Z" fill="#E8E8E8"/>
<path d="M12.63 68.355H10.59V72.525H9.63V62.94H10.59V67.545H12.63V68.355ZM11.16 75.585H2.475V72.3H3.435V74.775H11.16V75.585ZM6.135 64.38H2.4V63.555H6.135V64.38ZM8.04 66.285H0.525V65.46H8.04V66.285ZM7.275 69.285C7.275 69.965 6.99 70.515 6.42 70.935C5.86 71.355 5.145 71.565 4.275 71.565C3.405 71.565 2.685 71.36 2.115 70.95C1.555 70.53 1.275 69.975 1.275 69.285C1.275 68.585 1.555 68.035 2.115 67.635C2.675 67.225 3.395 67.02 4.275 67.02C5.155 67.02 5.875 67.225 6.435 67.635C6.995 68.035 7.275 68.585 7.275 69.285ZM6.33 69.285C6.33 68.835 6.13 68.48 5.73 68.22C5.33 67.96 4.845 67.83 4.275 67.83C3.695 67.83 3.205 67.96 2.805 68.22C2.415 68.48 2.22 68.835 2.22 69.285C2.22 69.725 2.415 70.08 2.805 70.35C3.205 70.61 3.695 70.74 4.275 70.74C4.845 70.74 5.33 70.61 5.73 70.35C6.13 70.08 6.33 69.725 6.33 69.285ZM23.9885 67.815L23.5385 68.61C22.4185 68.41 21.4135 68.05 20.5235 67.53C19.6335 67 19.0285 66.435 18.7085 65.835C18.4485 66.435 17.8735 67 16.9835 67.53C16.0935 68.05 15.0685 68.405 13.9085 68.595L13.4585 67.815C14.6585 67.685 15.7485 67.315 16.7285 66.705C17.7185 66.085 18.2185 65.355 18.2285 64.515H13.9385V63.69H23.4635V64.515H19.2185C19.2285 65.345 19.7385 66.07 20.7485 66.69C21.7685 67.3 22.8485 67.675 23.9885 67.815ZM19.1735 73.185H18.2135V70.515H12.7985V69.69H24.6335V70.515H19.1735V73.185ZM23.3135 75.6H14.3735V71.85H15.3335V74.79H23.3135V75.6ZM35.692 76.05H34.732V62.94H35.692V76.05ZM31.237 64.65H27.472V63.81H31.237V64.65ZM33.187 66.465H25.567V65.64H33.187V66.465ZM32.497 69.33C32.497 69.99 32.212 70.52 31.642 70.92C31.082 71.32 30.337 71.52 29.407 71.52C28.487 71.52 27.737 71.32 27.157 70.92C26.587 70.51 26.302 69.98 26.302 69.33C26.302 68.67 26.587 68.145 27.157 67.755C27.727 67.355 28.477 67.155 29.407 67.155C30.337 67.155 31.082 67.35 31.642 67.74C32.212 68.13 32.497 68.66 32.497 69.33ZM30.907 70.305C31.277 70.065 31.462 69.74 31.462 69.33C31.462 68.92 31.277 68.6 30.907 68.37C30.537 68.13 30.037 68.01 29.407 68.01C28.787 68.01 28.282 68.13 27.892 68.37C27.512 68.6 27.322 68.92 27.322 69.33C27.322 69.74 27.512 70.065 27.892 70.305C28.282 70.545 28.787 70.665 29.407 70.665C30.037 70.665 30.537 70.545 30.907 70.305ZM33.967 73.095C33.267 73.185 31.752 73.305 29.422 73.455C27.692 73.525 26.312 73.56 25.282 73.56L25.117 72.69C26.467 72.71 27.877 72.685 29.347 72.615C31.607 72.495 33.117 72.385 33.877 72.285L33.967 73.095ZM52.506 67.2H50.466V70.425H49.506V62.94H50.466V66.39H52.506V67.2ZM50.481 75.855H42.321V71.115H50.481V75.855ZM49.521 75.045V71.94H43.281V75.045H49.521ZM40.956 63.885H46.956C46.816 65.615 46.211 67.03 45.141 68.13C44.071 69.23 42.651 70.055 40.881 70.605L40.371 69.78C41.761 69.48 42.976 68.86 44.016 67.92C45.066 66.97 45.681 65.9 45.861 64.71H40.956V63.885ZM63.0095 67.77H59.0645V69.51H64.5095V70.335H52.6745V69.51H58.1045V67.77H54.2195V63.48H62.9345V64.29H55.1795V66.945H63.0095V67.77ZM54.0095 71.82H62.9495V76.155H61.9895V72.645H54.0095V71.82ZM69.1134 75.9V63.42H69.9534V75.9H69.1134ZM85.1975 70.35H84.2375V62.94H85.1975V70.35ZM85.2125 75.855H76.9175V71.175H85.2125V75.855ZM84.2525 75.045V72H77.8625V75.045H84.2525ZM75.4625 63.885H81.3275C81.2475 64.995 80.9275 65.995 80.3675 66.885C79.8175 67.765 79.1175 68.49 78.2675 69.06C77.4175 69.62 76.4225 70.075 75.2825 70.425L74.8025 69.6C76.1925 69.3 77.4075 68.69 78.4475 67.77C79.4975 66.84 80.0975 65.82 80.2475 64.71H75.4625V63.885ZM97.8161 76.05H96.8561V62.94H97.8161V76.05ZM91.6511 65.07H88.3661V64.23H91.6511V65.07ZM93.2261 67.095H86.7911V66.27H93.2261V67.095ZM92.6861 70.41C92.6861 71.2 92.4311 71.835 91.9211 72.315C91.4211 72.795 90.7611 73.035 89.9411 73.035C89.1311 73.035 88.4661 72.785 87.9461 72.285C87.4361 71.785 87.1811 71.16 87.1811 70.41C87.1811 69.63 87.4361 69 87.9461 68.52C88.4561 68.04 89.1211 67.8 89.9411 67.8C90.7511 67.8 91.4111 68.04 91.9211 68.52C92.4311 69 92.6861 69.63 92.6861 70.41ZM91.2461 71.685C91.5861 71.355 91.7561 70.93 91.7561 70.41C91.7561 69.89 91.5861 69.47 91.2461 69.15C90.9061 68.82 90.4711 68.655 89.9411 68.655C89.4211 68.655 88.9861 68.82 88.6361 69.15C88.2961 69.48 88.1261 69.9 88.1261 70.41C88.1261 70.94 88.2961 71.37 88.6361 71.7C88.9861 72.02 89.4211 72.18 89.9411 72.18C90.4711 72.18 90.9061 72.015 91.2461 71.685ZM95.4761 75.36H94.5311V71.445H92.9411V70.635H94.5311V68.49H92.8511V67.665H94.5311V63.27H95.4761V75.36ZM105.38 76.065H104.42V71.22H99.0046V70.395H110.84V71.22H105.38V76.065ZM110.24 68.04L109.715 68.835C108.705 68.615 107.735 68.205 106.805 67.605C105.885 66.995 105.255 66.335 104.915 65.625C104.595 66.335 103.97 67 103.04 67.62C102.12 68.24 101.155 68.655 100.145 68.865L99.6196 68.07C100.88 67.9 101.995 67.44 102.965 66.69C103.935 65.93 104.42 65.13 104.42 64.29V63.525H105.41V64.29C105.41 65.11 105.93 65.91 106.97 66.69C108.02 67.47 109.11 67.92 110.24 68.04ZM120.079 72.72H114.964V64.245H115.924V67.59H119.134V64.245H120.079V72.72ZM125.464 76.05H124.504V69.225H122.704V75.36H121.759V63.27H122.704V68.4H124.504V62.94H125.464V76.05ZM119.134 71.895V68.415H115.924V71.895H119.134ZM135.907 64.35C136.727 64.86 137.137 65.545 137.137 66.405C137.137 67.265 136.727 67.955 135.907 68.475C135.087 68.995 133.967 69.255 132.547 69.255C131.127 69.255 130.012 68.995 129.202 68.475C128.392 67.955 127.987 67.265 127.987 66.405C127.987 65.545 128.392 64.86 129.202 64.35C130.012 63.83 131.127 63.57 132.547 63.57C133.967 63.57 135.087 63.83 135.907 64.35ZM132.547 64.455C131.427 64.455 130.542 64.63 129.892 64.98C129.252 65.33 128.932 65.805 128.932 66.405C128.932 67.015 129.252 67.495 129.892 67.845C130.532 68.185 131.417 68.355 132.547 68.355C133.687 68.355 134.577 68.185 135.217 67.845C135.867 67.495 136.192 67.015 136.192 66.405C136.192 65.805 135.867 65.33 135.217 64.98C134.577 64.63 133.687 64.455 132.547 64.455ZM133.027 76.065H132.067V71.4H126.652V70.59H138.487V71.4H133.027V76.065ZM143.091 75.9V63.42H143.931V75.9H143.091ZM159.175 70.35H158.215V62.94H159.175V70.35ZM159.19 75.855H150.895V71.175H159.19V75.855ZM158.23 75.045V72H151.84V75.045H158.23ZM149.44 63.885H155.305C155.225 64.995 154.905 65.995 154.345 66.885C153.795 67.765 153.095 68.49 152.245 69.06C151.395 69.62 150.4 70.075 149.26 70.425L148.78 69.6C150.17 69.3 151.385 68.69 152.425 67.77C153.475 66.84 154.075 65.82 154.225 64.71H149.44V63.885ZM172.589 74.085H160.754V73.26H165.434V68.64H166.394V73.26H172.589V74.085ZM170.924 64.365V66.12C170.924 68.32 170.754 70.15 170.414 71.61L169.469 71.445C169.769 70.265 169.919 68.66 169.919 66.63V65.19H161.984V64.365H170.924ZM184.817 70.575H172.982V69.75H184.817V70.575ZM183.377 75.615H174.557V71.85H175.517V74.805H183.377V75.615ZM182.177 64.035C182.947 64.445 183.332 65.06 183.332 65.88C183.332 66.7 182.947 67.32 182.177 67.74C181.407 68.15 180.312 68.355 178.892 68.355C177.482 68.355 176.392 68.15 175.622 67.74C174.852 67.32 174.467 66.7 174.467 65.88C174.467 65.06 174.852 64.445 175.622 64.035C176.402 63.615 177.497 63.405 178.907 63.405C180.317 63.405 181.407 63.615 182.177 64.035ZM178.907 64.215C177.837 64.215 176.992 64.355 176.372 64.635C175.762 64.915 175.457 65.33 175.457 65.88C175.457 66.42 175.762 66.835 176.372 67.125C176.982 67.405 177.822 67.545 178.892 67.545C179.972 67.545 180.822 67.405 181.442 67.125C182.072 66.835 182.387 66.42 182.387 65.88C182.387 65.33 182.077 64.915 181.457 64.635C180.837 64.355 179.987 64.215 178.907 64.215ZM194.056 72.72H188.941V64.245H189.901V67.59H193.111V64.245H194.056V72.72ZM199.441 76.05H198.481V69.225H196.681V75.36H195.736V63.27H196.681V68.4H198.481V62.94H199.441V76.05ZM193.111 71.895V68.415H189.901V71.895H193.111ZM209.885 64.35C210.705 64.86 211.115 65.545 211.115 66.405C211.115 67.265 210.705 67.955 209.885 68.475C209.065 68.995 207.945 69.255 206.525 69.255C205.105 69.255 203.99 68.995 203.18 68.475C202.37 67.955 201.965 67.265 201.965 66.405C201.965 65.545 202.37 64.86 203.18 64.35C203.99 63.83 205.105 63.57 206.525 63.57C207.945 63.57 209.065 63.83 209.885 64.35ZM206.525 64.455C205.405 64.455 204.52 64.63 203.87 64.98C203.23 65.33 202.91 65.805 202.91 66.405C202.91 67.015 203.23 67.495 203.87 67.845C204.51 68.185 205.395 68.355 206.525 68.355C207.665 68.355 208.555 68.185 209.195 67.845C209.845 67.495 210.17 67.015 210.17 66.405C210.17 65.805 209.845 65.33 209.195 64.98C208.555 64.63 207.665 64.455 206.525 64.455ZM207.005 76.065H206.045V71.4H200.63V70.59H212.465V71.4H207.005V76.065Z" fill="#E8E8E8" fill-opacity="0.8"/>
<path d="M145.753 166.2H143.278V165.39H145.753V161.94H146.713V169.56H145.753V166.2ZM146.728 174.855H138.403V170.25H146.728V174.855ZM145.768 174.045V171.06H139.348V174.045H145.768ZM142.453 168.795H136.708V162.675H137.668V164.91H141.493V162.675H142.453V168.795ZM141.493 167.985V165.72H137.668V167.985H141.493ZM148.996 164.1V163.29H156.091V164.1H153.001V164.46C153.001 164.95 153.116 165.41 153.346 165.84C153.576 166.27 153.876 166.635 154.246 166.935C154.616 167.225 154.991 167.47 155.371 167.67C155.761 167.86 156.151 168.01 156.541 168.12L156.061 168.87C155.311 168.61 154.601 168.23 153.931 167.73C153.261 167.23 152.796 166.665 152.536 166.035C152.316 166.715 151.891 167.33 151.261 167.88C150.631 168.43 149.906 168.865 149.086 169.185L148.591 168.45C149.011 168.3 149.411 168.115 149.791 167.895C150.181 167.665 150.551 167.39 150.901 167.07C151.251 166.74 151.531 166.35 151.741 165.9C151.951 165.45 152.056 164.975 152.056 164.475V164.1H148.996ZM158.926 175.05H157.966V161.94H158.926V175.05ZM156.991 171.915C155.931 172.045 154.426 172.175 152.476 172.305C151.166 172.395 149.841 172.45 148.501 172.47L148.351 171.6C149.391 171.6 150.626 171.57 152.056 171.51V168.555H153.016V171.45C154.966 171.32 156.266 171.205 156.916 171.105L156.991 171.915ZM164.7 174.9V162.42H165.54V174.9H164.7ZM180.529 169.23H171.694V163.29H180.394V164.115H172.654V168.42H180.529V169.23ZM181.969 173.22H170.134V172.41H181.969V173.22ZM194.573 168.105H192.383V175.05H191.423V161.94H192.383V167.28H194.573V168.105ZM190.313 171.36C188.033 171.7 185.558 171.87 182.888 171.87V166.935H187.808V163.995H182.888V163.17H188.768V167.745H183.848V171.03C184.718 171.03 185.788 170.99 187.058 170.91C188.338 170.82 189.383 170.695 190.193 170.535L190.313 171.36ZM201.041 171.66H195.116V163.335H201.041V171.66ZM200.081 170.835V164.16H196.076V170.835H200.081ZM206.831 168.105H204.611V175.05H203.651V161.94H204.611V167.28H206.831V168.105Z" fill="#969696"/>
<path d="M178.83 137.46V128.445L176.94 128.91V128.28L179.28 127.185H179.835V137.46H178.83ZM183.441 137.46V128.445L181.551 128.91V128.28L183.891 127.185H184.446V137.46H183.441ZM190.092 137.55C189.012 137.55 188.137 137.155 187.467 136.365C186.807 135.575 186.477 134.375 186.477 132.765V131.88C186.477 130.23 186.812 129.035 187.482 128.295C188.152 127.545 189.027 127.17 190.107 127.17C191.177 127.17 192.032 127.535 192.672 128.265C193.312 128.995 193.632 130.18 193.632 131.82V132.78C193.632 134.39 193.307 135.59 192.657 136.38C192.017 137.16 191.162 137.55 190.092 137.55ZM190.092 136.65C190.902 136.65 191.512 136.355 191.922 135.765C192.332 135.175 192.537 134.24 192.537 132.96V131.79C192.537 129.31 191.727 128.07 190.107 128.07C188.437 128.07 187.602 129.29 187.602 131.73V132.9C187.602 135.4 188.432 136.65 190.092 136.65ZM204.851 131.4H196.181V126.465H197.141V128.16H203.891V126.465H204.851V131.4ZM200.966 136.35H200.006V133.71H194.591V132.9H206.426V133.71H200.966V136.35ZM203.891 130.575V128.97H197.141V130.575H203.891ZM205.046 138.6H196.181V135.09H197.141V137.79H205.046V138.6Z" fill="#969696"/>
<path d="M132.005 208.62C132.005 209.37 131.615 209.96 130.835 210.39C130.055 210.82 128.96 211.035 127.55 211.035C126.13 211.035 125.03 210.82 124.25 210.39C123.48 209.96 123.095 209.37 123.095 208.62C123.095 207.86 123.48 207.265 124.25 206.835C125.03 206.405 126.13 206.19 127.55 206.19C128.96 206.19 130.055 206.405 130.835 206.835C131.615 207.265 132.005 207.86 132.005 208.62ZM130.1 209.805C130.71 209.525 131.015 209.13 131.015 208.62C131.015 208.11 130.71 207.715 130.1 207.435C129.49 207.155 128.64 207.015 127.55 207.015C126.45 207.015 125.595 207.155 124.985 207.435C124.375 207.715 124.07 208.11 124.07 208.62C124.07 209.13 124.375 209.525 124.985 209.805C125.605 210.085 126.46 210.225 127.55 210.225C128.64 210.225 129.49 210.085 130.1 209.805ZM128.84 204.705L128.33 205.47C127.72 205.29 127.11 204.95 126.5 204.45C125.89 203.94 125.43 203.385 125.12 202.785C124.91 203.385 124.49 203.975 123.86 204.555C123.24 205.125 122.54 205.55 121.76 205.83L121.235 205.095C122.115 204.845 122.9 204.355 123.59 203.625C124.29 202.885 124.64 202.13 124.64 201.36V201.24H121.7V200.43H128.51V201.24H125.615V201.345C125.615 202.075 125.95 202.775 126.62 203.445C127.29 204.105 128.03 204.525 128.84 204.705ZM131.9 197.94V206.13H130.94V203.01H128.375V202.185H130.94V197.94H131.9ZM126.86 199.155H123.365V198.345H126.86V199.155ZM144.774 204.525L144.234 205.305C143.124 204.945 142.094 204.37 141.144 203.58C140.194 202.79 139.594 202.065 139.344 201.405C139.134 202.075 138.564 202.805 137.634 203.595C136.704 204.375 135.659 204.935 134.499 205.275L133.974 204.495C134.704 204.345 135.439 204.04 136.179 203.58C136.929 203.12 137.564 202.55 138.084 201.87C138.604 201.19 138.864 200.52 138.864 199.86V198.96H139.854V199.86C139.854 200.83 140.394 201.785 141.474 202.725C142.554 203.655 143.654 204.255 144.774 204.525ZM145.284 209.37H133.449V208.545H138.864V205.185H139.824V208.545H145.284V209.37ZM151.152 200.505V199.725H155.397V197.94H156.357V207.435H155.397V202.95H151.152V202.155H155.397V200.505H151.152ZM153.057 205.185C151.237 205.505 149.027 205.665 146.427 205.665V198.915H147.387V204.825C149.447 204.825 151.292 204.675 152.922 204.375L153.057 205.185ZM156.777 210.66H147.987V206.865H148.947V209.85H156.777V210.66ZM169.966 203.055H167.926V207.81H166.966V197.94H167.926V202.245H169.966V203.055ZM168.496 210.735H159.796V206.94H160.741V209.91H168.496V210.735ZM166.081 205.275C164.771 205.475 163.351 205.605 161.821 205.665C160.591 205.735 159.286 205.77 157.906 205.77L157.726 204.9C159.056 204.9 160.036 204.89 160.666 204.87V201.9H161.626V204.84C163.516 204.77 164.961 204.65 165.961 204.48L166.081 205.275ZM165.016 198.99C165.016 200.95 164.876 202.45 164.596 203.49L163.666 203.34C163.906 202.47 164.026 201.29 164.026 199.8H158.596V198.99H165.016ZM182.194 202.32H180.154V205.77H179.194V197.94H180.154V201.495H182.194V202.32ZM180.169 210.855H171.799V206.55H180.169V210.855ZM179.209 210.045V207.36H172.744V210.045H179.209ZM177.874 204.885C175.804 205.175 173.399 205.315 170.659 205.305V201.465H175.399V199.53H170.644V198.72H176.359V202.29H171.619V204.465C173.969 204.515 176.014 204.38 177.754 204.06L177.874 204.885ZM193.163 210.87H183.908V207.975H191.693V206.79H183.818V205.965H187.778V204.675H182.363V203.85H194.198V204.675H188.738V205.965H192.653V208.785H184.868V210.06H193.163V210.87ZM192.608 202.755H183.968V198.375H184.928V199.74H191.648V198.375H192.608V202.755ZM191.648 201.93V200.55H184.928V201.93H191.648ZM204.611 197.94V203.535H206.831V204.36H204.611V211.05H203.651V197.94H204.611ZM201.161 199.365C201.121 201.415 200.571 203.19 199.511 204.69C198.451 206.19 197.051 207.41 195.311 208.35L194.726 207.585C196.376 206.765 197.661 205.715 198.581 204.435C199.511 203.145 200.036 201.73 200.156 200.19H195.161V199.365H201.161Z" fill="#969696"/>
<path d="M365.177 137.46V128.445L363.287 128.91V128.28L365.627 127.185H366.182V137.46H365.177ZM367.329 139.32L367.914 136.395H369.129L368.034 139.32H367.329ZM374.797 137.655V135.24H370.117V134.385L374.902 127.185H375.772V134.34H377.542V135.24H375.772V137.655H374.797ZM371.167 134.34H374.797V128.895L371.167 134.34ZM378.813 137.445L382.818 128.295H377.598V127.395H383.988V128.085L379.983 137.445H378.813ZM384.593 137.37V136.725L387.068 134.16C387.898 133.3 388.498 132.585 388.868 132.015C389.238 131.445 389.423 130.825 389.423 130.155C389.423 129.465 389.253 128.95 388.913 128.61C388.583 128.27 388.063 128.1 387.353 128.1C386.603 128.1 385.843 128.385 385.073 128.955L384.713 128.1C385.673 127.47 386.593 127.155 387.473 127.155C388.453 127.155 389.208 127.42 389.738 127.95C390.278 128.47 390.548 129.18 390.548 130.08C390.548 130.87 390.338 131.59 389.918 132.24C389.508 132.88 388.788 133.725 387.758 134.775L386.093 136.44H390.803V137.37H384.593ZM391.106 139.32L391.691 136.395H392.906L391.811 139.32H391.106ZM395.995 137.46V128.445L394.105 128.91V128.28L396.445 127.185H397V137.46H395.995ZM403.186 137.655V135.24H398.506V134.385L403.291 127.185H404.161V134.34H405.931V135.24H404.161V137.655H403.186ZM399.556 134.34H403.186V128.895L399.556 134.34ZM407.201 137.445L411.206 128.295H405.986V127.395H412.376V128.085L408.371 137.445H407.201ZM423.376 136.605C423.376 137.365 422.986 137.96 422.206 138.39C421.426 138.83 420.331 139.05 418.921 139.05C417.501 139.05 416.401 138.83 415.621 138.39C414.851 137.96 414.466 137.365 414.466 136.605C414.466 135.835 414.851 135.23 415.621 134.79C416.401 134.35 417.501 134.13 418.921 134.13C420.331 134.13 421.426 134.35 422.206 134.79C422.986 135.23 423.376 135.835 423.376 136.605ZM421.471 135.405C420.871 135.125 420.021 134.985 418.921 134.985C417.821 134.985 416.966 135.125 416.356 135.405C415.746 135.685 415.441 136.085 415.441 136.605C415.441 137.115 415.746 137.51 416.356 137.79C416.976 138.07 417.831 138.21 418.921 138.21C420.011 138.21 420.861 138.07 421.471 137.79C422.081 137.51 422.386 137.115 422.386 136.605C422.386 136.085 422.081 135.685 421.471 135.405ZM419.686 128.955V128.145H422.311V125.94H423.271V134.1H422.311V131.64H419.686V130.815H422.311V128.955H419.686ZM419.101 132.885H413.266V127.035H419.101V132.885ZM418.141 132.06V127.845H414.226V132.06H418.141Z" fill="#969696"/>
<path d="M412.423 167.355H410.383V171.525H409.423V161.94H410.383V166.545H412.423V167.355ZM410.953 174.585H402.268V171.3H403.228V173.775H410.953V174.585ZM405.928 163.38H402.193V162.555H405.928V163.38ZM407.833 165.285H400.318V164.46H407.833V165.285ZM407.068 168.285C407.068 168.965 406.783 169.515 406.213 169.935C405.653 170.355 404.938 170.565 404.068 170.565C403.198 170.565 402.478 170.36 401.908 169.95C401.348 169.53 401.068 168.975 401.068 168.285C401.068 167.585 401.348 167.035 401.908 166.635C402.468 166.225 403.188 166.02 404.068 166.02C404.948 166.02 405.668 166.225 406.228 166.635C406.788 167.035 407.068 167.585 407.068 168.285ZM406.123 168.285C406.123 167.835 405.923 167.48 405.523 167.22C405.123 166.96 404.638 166.83 404.068 166.83C403.488 166.83 402.998 166.96 402.598 167.22C402.208 167.48 402.013 167.835 402.013 168.285C402.013 168.725 402.208 169.08 402.598 169.35C402.998 169.61 403.488 169.74 404.068 169.74C404.638 169.74 405.123 169.61 405.523 169.35C405.923 169.08 406.123 168.725 406.123 168.285ZM414.001 170.775H418.021V168.21H412.591V167.385H421.396C421.676 166.295 421.816 164.98 421.816 163.44H414.181V162.615H422.821C422.821 164.525 422.671 166.115 422.371 167.385H424.426V168.21H418.981V170.775H422.836V175.155H421.876V171.585H414.001V170.775Z" fill="#969696"/>
<path d="M411.907 209.55C410.817 209.55 409.982 209.16 409.402 208.38C408.822 207.6 408.532 206.485 408.532 205.035V204.255C408.532 202.545 408.867 201.27 409.537 200.43C410.207 199.59 411.137 199.17 412.327 199.17C413.227 199.17 414.007 199.365 414.667 199.755L414.337 200.535C414.147 200.425 413.862 200.32 413.482 200.22C413.112 200.12 412.772 200.07 412.462 200.07C411.532 200.07 410.837 200.37 410.377 200.97C409.927 201.57 409.672 202.65 409.612 204.21C410.292 203.47 411.122 203.1 412.102 203.1C412.972 203.1 413.692 203.38 414.262 203.94C414.842 204.49 415.132 205.235 415.132 206.175C415.132 207.145 414.837 207.95 414.247 208.59C413.667 209.23 412.887 209.55 411.907 209.55ZM411.907 208.635C412.577 208.635 413.102 208.43 413.482 208.02C413.862 207.6 414.052 207.02 414.052 206.28C414.052 205.51 413.862 204.945 413.482 204.585C413.102 204.215 412.582 204.03 411.922 204.03C411.462 204.03 411.022 204.165 410.602 204.435C410.192 204.695 409.862 205.005 409.612 205.365V205.47C409.612 207.58 410.377 208.635 411.907 208.635ZM415.775 209.67V208.41H417.02V209.67H415.775ZM420.799 209.55C419.629 209.55 418.699 209.29 418.009 208.77L418.204 207.915C418.504 208.105 418.884 208.275 419.344 208.425C419.804 208.575 420.234 208.65 420.634 208.65C421.434 208.65 422.059 208.435 422.509 208.005C422.969 207.565 423.199 206.98 423.199 206.25C423.199 204.77 422.354 204.03 420.664 204.03C419.994 204.03 419.294 204.195 418.564 204.525L418.924 199.32H423.964V200.25H419.794L419.569 203.43C420.079 203.29 420.569 203.22 421.039 203.22C423.219 203.22 424.309 204.23 424.309 206.25C424.309 207.18 423.989 207.965 423.349 208.605C422.719 209.235 421.869 209.55 420.799 209.55Z" fill="#969696"/>
<path d="M215 124V144" stroke="#E8E8E8" stroke-width="2"/>
<path d="M215 159V179" stroke="#E8E8E8" stroke-width="2"/>
<path d="M215 194V214" stroke="#E8E8E8" stroke-width="2"/>
</svg>
