<svg width="430" height="222" viewBox="0 0 430 222" fill="none" xmlns="http://www.w3.org/2000/svg">
<path d="M426.37 67.1L425.59 67.1L423.19 64.79C422.31 63.95 421.58 63.34 421 62.96C420.41 62.57 419.795 62.375 419.155 62.375C418.495 62.375 418.01 62.54 417.7 62.87C417.38 63.2 417.22 63.715 417.22 64.415C417.22 65.105 417.485 65.85 418.015 66.65L416.995 66.965C416.395 66.065 416.095 65.13 416.095 64.16C416.095 63.14 416.355 62.355 416.875 61.805C417.395 61.255 418.11 60.98 419.02 60.98C419.83 60.98 420.575 61.205 421.255 61.655C421.925 62.095 422.755 62.805 423.745 63.785L425.26 65.285L425.26 60.785L426.37 60.785L426.37 67.1ZM426.55 55.997C426.55 57.127 426.155 58.037 425.365 58.727C424.565 59.407 423.345 59.747 421.705 59.747L420.91 59.747C419.24 59.747 418.025 59.397 417.265 58.697C416.495 57.997 416.11 57.092 416.11 55.982C416.11 54.892 416.49 54.012 417.25 53.342C418 52.662 419.2 52.322 420.85 52.322L421.72 52.322C423.36 52.322 424.575 52.662 425.365 53.342C426.155 54.012 426.55 54.897 426.55 55.997ZM425.47 55.997C425.47 55.227 425.185 54.652 424.615 54.272C424.045 53.882 423.135 53.687 421.885 53.687L420.85 53.687C418.41 53.687 417.19 54.452 417.19 55.982C417.19 57.552 418.375 58.337 420.745 58.337L421.81 58.337C424.25 58.337 425.47 57.557 425.47 55.997ZM426.43 49.4748L417.61 49.4748L418.015 51.3048L417.25 51.3048L416.125 48.8748L416.125 48.1548L426.43 48.1548L426.43 49.4748ZM426.595 42.077L424.42 42.077L424.42 46.907L423.505 46.907L416.125 41.837L416.125 40.832L423.37 40.832L423.37 39.152L424.42 39.152L424.42 40.832L426.595 40.832L426.595 42.077ZM423.37 45.527L423.37 42.062L418.33 42.062L423.37 45.527ZM426.715 38.9337L425.245 38.9337L425.245 37.4787L426.715 37.4787L426.715 38.9337ZM426.55 31.9266C426.55 33.0566 426.155 33.9666 425.365 34.6566C424.565 35.3366 423.345 35.6766 421.705 35.6766L420.91 35.6766C419.24 35.6766 418.025 35.3266 417.265 34.6266C416.495 33.9266 416.11 33.0216 416.11 31.9116C416.11 30.8216 416.49 29.9416 417.25 29.2716C418 28.5916 419.2 28.2516 420.85 28.2516L421.72 28.2516C423.36 28.2516 424.575 28.5916 425.365 29.2716C426.155 29.9416 426.55 30.8266 426.55 31.9266ZM425.47 31.9266C425.47 31.1566 425.185 30.5816 424.615 30.2016C424.045 29.8116 423.135 29.6166 421.885 29.6166L420.85 29.6166C418.41 29.6166 417.19 30.3816 417.19 31.9116C417.19 33.4816 418.375 34.2666 420.745 34.2666L421.81 34.2666C424.25 34.2666 425.47 33.4866 425.47 31.9266ZM426.43 25.4045L417.61 25.4045L418.015 27.2345L417.25 27.2345L416.125 24.8045L416.125 24.0845L426.43 24.0845L426.43 25.4045ZM426.715 22.5216L425.245 22.5216L425.245 21.0666L426.715 21.0666L426.715 22.5216ZM426.37 19.3695L425.59 19.3695L423.19 17.0595C422.31 16.2195 421.58 15.6095 421 15.2295C420.41 14.8395 419.795 14.6445 419.155 14.6445C418.495 14.6445 418.01 14.8095 417.7 15.1395C417.38 15.4695 417.22 15.9845 417.22 16.6845C417.22 17.3745 417.485 18.1195 418.015 18.9195L416.995 19.2345C416.395 18.3345 416.095 17.3995 416.095 16.4295C416.095 15.4095 416.355 14.6245 416.875 14.0745C417.395 13.5245 418.11 13.2495 419.02 13.2495C419.83 13.2495 420.575 13.4745 421.255 13.9245C421.925 14.3645 422.755 15.0745 423.745 16.0545L425.26 17.5545L425.26 13.0545L426.37 13.0545L426.37 19.3695ZM426.37 12.1215L425.59 12.1215L423.19 9.81148C422.31 8.97148 421.58 8.36148 421 7.98148C420.41 7.59148 419.795 7.39648 419.155 7.39648C418.495 7.39648 418.01 7.56148 417.7 7.89148C417.38 8.22148 417.22 8.73648 417.22 9.43648C417.22 10.1265 417.485 10.8715 418.015 11.6715L416.995 11.9865C416.395 11.0865 416.095 10.1515 416.095 9.18148C416.095 8.16148 416.355 7.37648 416.875 6.82648C417.395 6.27648 418.11 6.00148 419.02 6.00148C419.83 6.00148 420.575 6.22648 421.255 6.67648C421.925 7.11648 422.755 7.82648 423.745 8.80648L425.26 10.3065L425.26 5.80648L426.37 5.80648L426.37 12.1215Z" fill="#E8E8E8"/>
<path d="M21.325 7.85H18.15V13H15.2V0.699999H18.15V5.45H21.325V7.85ZM18.15 22.7H3.725V14.2H18.15V22.7ZM15.2 20.4V16.45H6.65V20.4H15.2ZM13.525 10.975C10.9417 11.6083 7.7 11.925 3.8 11.925H1.575V1.85H4.5V9.45C7.73333 9.45 10.6 9.175 13.1 8.625C13.1333 8.875 13.2 9.25833 13.3 9.775C13.4 10.2917 13.475 10.6917 13.525 10.975ZM34.5809 15.675L32.9559 17.8C31.9059 17.2833 30.8309 16.4083 29.7309 15.175C28.6309 13.9417 27.9225 12.8 27.6059 11.75C27.3225 12.9333 26.6642 14.1667 25.6309 15.45C24.6142 16.7167 23.4725 17.6583 22.2059 18.275L20.4059 16.1C24.1725 14.0333 26.0559 10.6583 26.0559 5.975V5.375H21.5559V2.975H33.4309V5.375H29.0809V5.95C29.0809 10.4167 30.9142 13.6583 34.5809 15.675ZM38.5559 0.699999V9.275H41.7309V11.7H38.5559V22.975H35.6309V0.699999H38.5559ZM62.1367 11.675H58.9117V22.975H56.0117V0.699999H58.9117V9.25H62.1367V11.675ZM53.0617 2.975C52.8451 10.1417 49.5201 15.4667 43.0867 18.95L41.3117 16.75C43.6951 15.65 45.6701 14.05 47.2367 11.95C48.8034 9.85 49.6867 7.66667 49.8867 5.4H42.6617V2.975H53.0617ZM84.61 0.699999V9.275H87.81V11.675H84.61V22.975H81.71V0.699999H84.61ZM80.61 15.475C80.41 15.725 80.1183 16.0917 79.735 16.575C79.3683 17.0583 79.085 17.4167 78.885 17.65C77.8683 17 76.8433 16.0833 75.81 14.9C74.7766 13.7167 74.085 12.5583 73.735 11.425C73.3683 12.675 72.685 13.9333 71.685 15.2C70.685 16.45 69.61 17.4167 68.46 18.1C67.6433 17.1 67.0433 16.3917 66.66 15.975C70.3433 13.6083 72.185 10.1583 72.185 5.625V2.575H75.21V5.475C75.21 7.64167 75.6766 9.575 76.61 11.275C77.56 12.975 78.8933 14.375 80.61 15.475ZM105.241 18.7C105.241 20.0333 104.566 21.0833 103.216 21.85C101.882 22.6167 100.016 23 97.6158 23C95.2158 23 93.3492 22.6167 92.0158 21.85C90.6825 21.0833 90.0158 20.0333 90.0158 18.7C90.0158 17.3667 90.6825 16.3167 92.0158 15.55C93.3658 14.7833 95.2325 14.4 97.6158 14.4C100.016 14.4 101.882 14.7917 103.216 15.575C104.566 16.3417 105.241 17.3833 105.241 18.7ZM100.366 12.675C99.4492 12.9083 98.1075 13.1 96.3408 13.25C94.5908 13.3833 92.9242 13.45 91.3408 13.45H88.3658V6.6H95.3158V4.45H88.2658V2.125H98.2658V8.775H91.3158V11.125C95.5492 11.125 98.4408 10.9083 99.9908 10.475L100.366 12.675ZM108.166 8.575H104.991V14.1H102.066V0.699999H104.991V6.2H108.166V8.575ZM97.6158 16.7C96.1825 16.7 95.0575 16.8833 94.2408 17.25C93.4242 17.6167 93.0158 18.1 93.0158 18.7C93.0158 19.3 93.4242 19.7833 94.2408 20.15C95.0575 20.5 96.1825 20.675 97.6158 20.675C99.0658 20.675 100.191 20.5 100.991 20.15C101.807 19.7833 102.216 19.3 102.216 18.7C102.216 18.1 101.807 17.6167 100.991 17.25C100.191 16.8833 99.0658 16.7 97.6158 16.7ZM120.722 6.175H107.797V3.925H120.722V6.175ZM111.172 3V0.799999H117.772V3H111.172ZM128.522 8.925H125.397V13.35H122.472V0.699999H125.397V6.525H128.522V8.925ZM125.947 22.925H110.722V17.65H122.447V16.6H110.697V14.425H125.397V19.625H113.647V20.725H125.947V22.925ZM119.747 10.2C119.747 11.2333 119.247 12.075 118.247 12.725C117.263 13.3583 116.005 13.675 114.472 13.675C112.922 13.675 111.638 13.3583 110.622 12.725C109.622 12.075 109.122 11.2333 109.122 10.2C109.122 9.18333 109.622 8.35 110.622 7.7C111.638 7.05 112.922 6.725 114.472 6.725C115.988 6.725 117.247 7.05 118.247 7.7C119.247 8.35 119.747 9.18333 119.747 10.2ZM112.022 10.2C112.022 10.6167 112.255 10.95 112.722 11.2C113.205 11.45 113.788 11.575 114.472 11.575C115.138 11.575 115.705 11.45 116.172 11.2C116.638 10.95 116.872 10.6167 116.872 10.2C116.872 9.81667 116.63 9.5 116.147 9.25C115.68 8.98333 115.122 8.85 114.472 8.85C113.788 8.85 113.205 8.975 112.722 9.225C112.255 9.475 112.022 9.8 112.022 10.2ZM152.92 22.975H150.22V11.775H148.52V21.95H145.87V1.1H148.52V9.425H150.22V0.699999H152.92V22.975ZM142.42 14.85C143.32 14.85 144.153 14.7167 144.92 14.45L145.27 16.7C143.687 17.0667 141.853 17.25 139.77 17.25V3.4H144.645V5.675H142.42V14.85ZM136.645 14.875C136.962 14.875 137.37 14.8417 137.87 14.775C138.37 14.6917 138.712 14.6083 138.895 14.525L139.295 16.775C137.978 17.0917 136.212 17.25 133.995 17.25V3.4H138.87V5.675H136.645V14.875Z" fill="white"/>
<path d="M0 116L430 116" stroke="#E8E8E8"/>
<path d="M0 186L430 186" stroke="#E8E8E8"/>
<path d="M0 151L430 151" stroke="#E8E8E8"/>
<path d="M0 221L430 221" stroke="#E8E8E8"/>
<path d="M1.64 49.16V35.72H4.22L7.92 46.84H7.98L11.64 35.72H14.22V49.16H12.44V38.06H12.38L8.66 49.16H7.02L3.3 38.06H3.26V49.16H1.64ZM18.6398 49.34C17.7065 49.34 16.9598 49.1 16.3998 48.62C15.8398 48.14 15.5598 47.44 15.5598 46.52C15.5598 44.84 16.5598 43.8733 18.5598 43.62L21.1998 43.3V42.38C21.1998 41.6333 21.0198 41.1333 20.6598 40.88C20.3132 40.6267 19.6798 40.5 18.7598 40.5C18.1065 40.5 17.3132 40.5933 16.3798 40.78V39.56C17.3265 39.2 18.3398 39.02 19.4198 39.02C21.7265 39.02 22.8798 40 22.8798 41.96V49.16H21.5198L21.3398 48.32H21.2398C20.6265 49 19.7598 49.34 18.6398 49.34ZM19.0598 48.02C19.9932 48.02 20.7065 47.7933 21.1998 47.34V44.6L18.9998 44.82C18.4132 44.8867 17.9865 45.0467 17.7198 45.3C17.4532 45.5533 17.3198 45.9467 17.3198 46.48C17.3198 46.9867 17.4732 47.3733 17.7798 47.64C18.0998 47.8933 18.5265 48.02 19.0598 48.02ZM24.5358 49.16V39.22H26.1558V40.08H26.2558C27.2424 39.3733 28.3558 39.02 29.5958 39.02C30.5824 39.02 31.3091 39.24 31.7758 39.68C32.2424 40.12 32.4758 40.8133 32.4758 41.76V49.16H30.7958V42.12C30.7958 41.5333 30.6624 41.12 30.3958 40.88C30.1291 40.6267 29.6158 40.5 28.8558 40.5C28.0424 40.5 27.1691 40.72 26.2358 41.16V49.16H24.5358ZM38.7352 49.16V35.72H40.4952V49.16H38.7352ZM42.5514 49.16V39.22H44.1714V40.08H44.2714C45.2581 39.3733 46.3714 39.02 47.6114 39.02C48.5981 39.02 49.3247 39.24 49.7914 39.68C50.2581 40.12 50.4914 40.8133 50.4914 41.76V49.16H48.8114V42.12C48.8114 41.5333 48.6781 41.12 48.4114 40.88C48.1447 40.6267 47.6314 40.5 46.8714 40.5C46.0581 40.5 45.1847 40.72 44.2514 41.16V49.16H42.5514ZM56.6908 49.16V35.72H58.4508V47.66H64.3708V49.16H56.6908ZM69.2131 49.34C67.7865 49.34 66.6731 48.9067 65.8731 48.04C65.0865 47.16 64.6931 45.9467 64.6931 44.4V44.06C64.6931 42.5133 65.1065 41.2867 65.9331 40.38C66.7598 39.4733 67.8598 39.02 69.2331 39.02C70.6598 39.02 71.7731 39.46 72.5731 40.34C73.3731 41.22 73.7731 42.44 73.7731 44V44.32C73.7731 45.8667 73.3531 47.0933 72.5131 48C71.6865 48.8933 70.5865 49.34 69.2131 49.34ZM69.2531 47.94C70.1331 47.94 70.8065 47.6467 71.2731 47.06C71.7531 46.46 71.9931 45.6067 71.9931 44.5V43.96C71.9931 41.6 71.0598 40.42 69.1931 40.42C68.3265 40.42 67.6531 40.72 67.1731 41.32C66.6931 41.92 66.4531 42.7733 66.4531 43.88V44.44C66.4531 46.7733 67.3865 47.94 69.2531 47.94ZM77.52 49.16L73.86 39.22H75.7L78.38 47H78.46L81.22 39.22H82.88L79.24 49.16H77.52ZM87.7456 49.34C86.199 49.34 85.019 48.9 84.2056 48.02C83.4056 47.1267 83.0056 45.9 83.0056 44.34V44.04C83.0056 42.4 83.419 41.1533 84.2456 40.3C85.0856 39.4467 86.1323 39.02 87.3856 39.02C90.0656 39.02 91.4056 40.5867 91.4056 43.72V44.68H84.7656C84.819 45.8267 85.119 46.6467 85.6656 47.14C86.2123 47.6333 86.999 47.88 88.0256 47.88C89.1323 47.88 90.159 47.6267 91.1056 47.12V48.38C90.2656 49.02 89.1456 49.34 87.7456 49.34ZM87.3056 40.4C86.6523 40.4 86.079 40.6267 85.5856 41.08C85.1056 41.52 84.8323 42.26 84.7656 43.3H89.6056C89.6056 42.2867 89.4123 41.5533 89.0256 41.1C88.6523 40.6333 88.079 40.4 87.3056 40.4ZM91.6084 51.86L92.3084 47.82H94.3284L93.0884 51.86H91.6084ZM100.485 49.16V48.12L103.565 44.92C104.685 43.7467 105.498 42.7733 106.005 42C106.525 41.2133 106.785 40.3933 106.785 39.54C106.785 38.66 106.565 38.0133 106.125 37.6C105.685 37.1733 104.998 36.96 104.065 36.96C103.145 36.96 102.152 37.3133 101.085 38.02L100.665 36.66C101.865 35.86 103.112 35.46 104.405 35.46C105.765 35.46 106.812 35.8067 107.545 36.5C108.278 37.1933 108.645 38.1467 108.645 39.36C108.645 40.44 108.345 41.4333 107.745 42.34C107.158 43.2333 106.212 44.34 104.905 45.66L102.905 47.68H108.905V49.16H100.485ZM115.289 49.4C113.783 49.4 112.569 48.8733 111.649 47.82C110.743 46.7533 110.289 45.1267 110.289 42.94V41.88C110.289 39.6533 110.756 38.0333 111.689 37.02C112.623 35.9933 113.829 35.48 115.309 35.48C116.763 35.48 117.936 35.9867 118.829 37C119.736 38 120.189 39.6 120.189 41.8V42.96C120.189 45.1467 119.736 46.7667 118.829 47.82C117.936 48.8733 116.756 49.4 115.289 49.4ZM115.289 47.96C116.316 47.96 117.083 47.58 117.589 46.82C118.109 46.06 118.369 44.8467 118.369 43.18V41.8C118.369 38.5467 117.349 36.92 115.309 36.92C113.216 36.92 112.169 38.5 112.169 41.66V43.08C112.169 46.3333 113.209 47.96 115.289 47.96ZM123.985 49.24V37.48L121.545 38.02V37L124.785 35.5H125.745V49.24H123.985ZM133.849 49.46V46.56H127.409V45.34L134.169 35.5H135.509V45.16H137.749V46.56H135.509V49.46H133.849ZM129.249 45.16H133.869V38.44L129.249 45.16Z" fill="#E8E8E8"/>
<path d="M16.31 140.05H14.99V133.075H12.785V131.95H14.99V126.94H16.31V140.05ZM13.025 135.49L13.16 136.57C11.71 136.84 9.78 136.975 7.37 136.975H5.99V131.755H10.715V129.205H5.99V128.125H12.035V132.835H7.31V135.88C9.75 135.88 11.655 135.75 13.025 135.49ZM28.5535 134.845H27.2185V126.94H28.5535V134.845ZM25.9435 131.875L26.1385 132.985C24.5685 133.325 22.4285 133.525 19.7185 133.585H18.5185V127.81H19.8535V132.445C22.3035 132.445 24.3335 132.255 25.9435 131.875ZM28.6285 137.515C28.6285 138.305 28.2385 138.92 27.4585 139.36C26.6785 139.81 25.5785 140.035 24.1585 140.035C22.7585 140.035 21.6635 139.81 20.8735 139.36C20.0935 138.91 19.7035 138.295 19.7035 137.515C19.7035 136.735 20.0935 136.12 20.8735 135.67C21.6635 135.21 22.7585 134.98 24.1585 134.98C25.5785 134.98 26.6785 135.21 27.4585 135.67C28.2385 136.12 28.6285 136.735 28.6285 137.515ZM26.4535 138.595C27.0035 138.335 27.2785 137.975 27.2785 137.515C27.2785 137.055 27.0035 136.7 26.4535 136.45C25.9135 136.19 25.1485 136.06 24.1585 136.06C23.1985 136.06 22.4435 136.19 21.8935 136.45C21.3535 136.7 21.0835 137.055 21.0835 137.515C21.0835 137.975 21.3535 138.335 21.8935 138.595C22.4435 138.845 23.1985 138.97 24.1585 138.97C25.1485 138.97 25.9135 138.845 26.4535 138.595ZM31.827 135.865C34.597 135.865 36.587 135.72 37.797 135.43L37.917 136.51C36.547 136.79 34.487 136.945 31.737 136.975H30.507V128.155H36.777V129.22H31.827V131.86H36.447V132.94H31.827V135.865ZM40.152 126.94V132.055H42.192V133.165H40.152V140.05H38.832V126.94H40.152ZM53.0105 134.56H51.6755V126.94H53.0105V134.56ZM53.0105 139.87H44.4905V135.205H53.0105V139.87ZM51.6755 138.82V136.27H45.8105V138.82H51.6755ZM46.0355 127.675C46.9955 127.675 47.8105 127.975 48.4805 128.575C49.1505 129.165 49.4855 129.92 49.4855 130.84C49.4855 131.76 49.1555 132.505 48.4955 133.075C47.8355 133.645 47.0155 133.93 46.0355 133.93C45.0655 133.93 44.2455 133.645 43.5755 133.075C42.9155 132.505 42.5855 131.76 42.5855 130.84C42.5855 129.92 42.9155 129.165 43.5755 128.575C44.2455 127.975 45.0655 127.675 46.0355 127.675ZM46.0355 128.815C45.4155 128.815 44.9055 129.005 44.5055 129.385C44.1155 129.765 43.9205 130.245 43.9205 130.825C43.9205 131.415 44.1155 131.9 44.5055 132.28C44.9055 132.65 45.4155 132.835 46.0355 132.835C46.6555 132.835 47.1605 132.65 47.5505 132.28C47.9405 131.91 48.1355 131.43 48.1355 130.84C48.1355 130.25 47.9405 129.765 47.5505 129.385C47.1705 129.005 46.6655 128.815 46.0355 128.815Z" fill="#E8E8E8"/>
<path d="M15.875 173.5C15.875 174.29 15.48 174.91 14.69 175.36C13.91 175.81 12.83 176.035 11.45 176.035C10.07 176.035 8.985 175.81 8.195 175.36C7.415 174.91 7.025 174.29 7.025 173.5C7.025 172.7 7.415 172.075 8.195 171.625C8.985 171.165 10.07 170.935 11.45 170.935C12.83 170.935 13.91 171.165 14.69 171.625C15.48 172.075 15.875 172.7 15.875 173.5ZM5.6 164.935V163.84H12.755V164.935H9.89V165.295C9.89 166.175 10.195 166.965 10.805 167.665C11.425 168.355 12.14 168.82 12.95 169.06L12.215 170.125C11.615 169.885 11.035 169.51 10.475 169C9.915 168.48 9.5 167.925 9.23 167.335C9.02 167.955 8.61 168.565 8 169.165C7.39 169.765 6.74 170.205 6.05 170.485L5.255 169.45C6.155 169.13 6.925 168.585 7.565 167.815C8.215 167.035 8.54 166.205 8.54 165.325V164.935H5.6ZM14.51 173.5C14.51 173.03 14.235 172.67 13.685 172.42C13.145 172.16 12.4 172.03 11.45 172.03C10.5 172.03 9.755 172.16 9.215 172.42C8.675 172.67 8.405 173.03 8.405 173.5C8.405 173.96 8.675 174.32 9.215 174.58C9.755 174.83 10.5 174.955 11.45 174.955C12.4 174.955 13.145 174.83 13.685 174.58C14.235 174.32 14.51 173.96 14.51 173.5ZM17.675 167.5H15.695V171.01H14.375V162.94H15.695V166.39H17.675V167.5ZM28.5085 171.16H19.2685V166.945H26.8435V165.085H19.2685V164.02H28.1635V168.04H20.6035V170.08H28.5085V171.16ZM29.6335 174.325H17.7985V173.23H29.6335V174.325Z" fill="#E8E8E8"/>
<path d="M17.405 206.29H5.57V205.21H17.405V206.29ZM16.01 209.68C16.01 210.42 15.615 210.995 14.825 211.405C14.035 211.825 12.92 212.035 11.48 212.035C10.05 212.035 8.94 211.825 8.15 211.405C7.36 210.995 6.965 210.42 6.965 209.68C6.965 208.95 7.36 208.375 8.15 207.955C8.95 207.535 10.06 207.325 11.48 207.325C12.92 207.325 14.035 207.53 14.825 207.94C15.615 208.35 16.01 208.93 16.01 209.68ZM11.48 208.405C10.51 208.405 9.74 208.52 9.17 208.75C8.61 208.97 8.33 209.28 8.33 209.68C8.33 210.09 8.61 210.405 9.17 210.625C9.73 210.845 10.5 210.955 11.48 210.955C12.47 210.955 13.245 210.845 13.805 210.625C14.375 210.405 14.66 210.09 14.66 209.68C14.66 209.28 14.375 208.97 13.805 208.75C13.235 208.52 12.46 208.405 11.48 208.405ZM15.965 203.905H6.995V199.495H15.875V200.575H8.315V202.825H15.965V203.905ZM28.1035 211.87H19.2835V206.5H20.6185V208.105H26.7685V206.47H28.1035V211.87ZM28.0585 199.54C28.0585 201.37 27.9185 202.96 27.6385 204.31H29.6185V205.405H17.7835V204.31H26.3485C26.5885 203.2 26.7085 201.965 26.7085 200.605H19.3285V199.54H28.0585ZM26.7685 210.805V209.155H20.6185V210.805H26.7685Z" fill="#E8E8E8"/>
<path d="M230.125 140.065H228.79V135.385H223.57V134.305H235.405V135.385H230.125V140.065ZM234.055 132.55H225.055V127.585H226.39V131.47H234.055V132.55ZM236.099 128.995V127.915H243.269V128.995H240.404V129.52C240.404 130.39 240.724 131.18 241.364 131.89C242.004 132.59 242.729 133.065 243.539 133.315L242.804 134.38C242.204 134.14 241.609 133.76 241.019 133.24C240.429 132.71 240.004 132.155 239.744 131.575C239.544 132.185 239.119 132.795 238.469 133.405C237.819 134.015 237.144 134.465 236.444 134.755L235.694 133.705C236.594 133.385 237.379 132.835 238.049 132.055C238.719 131.265 239.054 130.43 239.054 129.55V128.995H236.099ZM237.779 135.4H246.569V140.05H245.219V136.48H237.779V135.4ZM246.554 134.71H245.219V131.395H242.789V130.315H245.219V126.94H246.554V134.71ZM260.162 132.175H258.212V136.75H256.907V126.94H258.212V131.065H260.162V132.175ZM258.677 139.72H249.857V135.895H251.177V138.64H258.677V139.72ZM256.172 134.395C254.862 134.595 253.467 134.72 251.987 134.77C250.667 134.84 249.322 134.875 247.952 134.875L247.757 133.765C248.967 133.765 249.887 133.755 250.517 133.735V130.93H251.837V133.705C253.497 133.655 254.892 133.545 256.022 133.375L256.172 134.395ZM255.107 127.93C255.107 130.06 254.982 131.59 254.732 132.52L253.442 132.31C253.662 131.57 253.772 130.47 253.772 129.01H248.657V127.93H255.107ZM271.326 134.665H270.051V131.365H268.551V134.545H267.306V127.18H268.551V130.285H270.051V126.94H271.326V134.665ZM265.926 127.915C265.896 131.005 264.281 133.3 261.081 134.8L260.256 133.78C261.466 133.32 262.451 132.66 263.211 131.8C263.971 130.93 264.406 129.995 264.516 128.995H260.841V127.915H265.926ZM271.326 140.065H270.006V136.405H262.476V135.34H271.326V140.065Z" fill="#E8E8E8"/>
<path d="M224.845 171.625H228.82V169.285H223.57V168.22H232.18C232.41 167.17 232.525 166.015 232.525 164.755H224.98V163.66H233.89C233.89 165.39 233.75 166.91 233.47 168.22H235.405V169.285H230.155V171.625H233.905V176.11H232.57V172.705H224.845V171.625ZM245.924 162.94V168.31H248.024V169.42H245.924V176.05H244.604V162.94H245.924ZM242.474 164.335C242.434 166.375 241.909 168.165 240.899 169.705C239.889 171.245 238.464 172.515 236.624 173.515L235.814 172.51C237.334 171.78 238.554 170.78 239.474 169.51C240.404 168.24 240.929 166.89 241.049 165.46H236.384V164.335H242.474Z" fill="#E8E8E8"/>
<path d="M225.445 207.745H225.985C228.325 207.745 230.145 207.605 231.445 207.325L231.595 208.405C230.235 208.685 228.235 208.835 225.595 208.855H224.125V200.32H230.32V201.415H225.445V207.745ZM233.695 198.94V204.055H235.735V205.165H233.695V212.05H232.375V198.94H233.695ZM247.634 206.29H235.799V205.21H247.634V206.29ZM246.194 211.87H237.239V207.565H246.194V211.87ZM244.874 210.82V208.615H238.574V210.82H244.874ZM245.024 199.945C245.824 200.395 246.224 201 246.224 201.76C246.224 202.52 245.824 203.13 245.024 203.59C244.224 204.04 243.119 204.265 241.709 204.265C240.299 204.265 239.194 204.04 238.394 203.59C237.604 203.13 237.209 202.52 237.209 201.76C237.209 201 237.604 200.395 238.394 199.945C239.194 199.495 240.299 199.27 241.709 199.27C243.129 199.27 244.234 199.495 245.024 199.945ZM243.989 202.795C244.559 202.535 244.844 202.19 244.844 201.76C244.844 201.33 244.559 200.985 243.989 200.725C243.429 200.465 242.669 200.335 241.709 200.335C240.759 200.335 240.004 200.465 239.444 200.725C238.884 200.985 238.604 201.33 238.604 201.76C238.604 202.19 238.884 202.535 239.444 202.795C240.004 203.055 240.759 203.185 241.709 203.185C242.659 203.185 243.419 203.055 243.989 202.795ZM260.877 207.685C261.657 208.125 262.047 208.735 262.047 209.515C262.047 210.295 261.657 210.905 260.877 211.345C260.097 211.795 258.997 212.02 257.577 212.02C256.177 212.02 255.082 211.795 254.292 211.345C253.512 210.905 253.122 210.295 253.122 209.515C253.122 208.735 253.512 208.125 254.292 207.685C255.082 207.235 256.177 207.01 257.577 207.01C258.997 207.01 260.097 207.235 260.877 207.685ZM261.972 206.86H260.637V204.625H258.702V203.575H260.637V202.24H258.702V201.205H260.637V198.94H261.972V206.86ZM259.872 210.55C260.422 210.3 260.697 209.955 260.697 209.515C260.697 209.075 260.422 208.73 259.872 208.48C259.332 208.23 258.567 208.105 257.577 208.105C256.617 208.105 255.862 208.23 255.312 208.48C254.772 208.73 254.502 209.075 254.502 209.515C254.502 209.955 254.772 210.3 255.312 210.55C255.862 210.79 256.617 210.91 257.577 210.91C258.567 210.91 259.332 210.79 259.872 210.55ZM258.687 204.925L258.792 205.945C258.172 206.065 257.092 206.165 255.552 206.245C254.262 206.325 252.857 206.375 251.337 206.395L251.187 205.225H252.882L252.537 201.745L253.842 201.595L254.082 205.21C254.822 205.19 255.382 205.17 255.762 205.15L256.017 201.565L257.322 201.715L256.947 205.09C257.597 205.06 258.177 205.005 258.687 204.925ZM258.417 200.905H251.562V199.825H258.417V200.905ZM274.201 211.87H265.756V207.28H274.201V211.87ZM263.746 200.98V199.885H270.916V200.98H268.051V201.49C268.051 202.36 268.371 203.15 269.011 203.86C269.651 204.56 270.376 205.035 271.186 205.285L270.451 206.35C269.841 206.11 269.241 205.73 268.651 205.21C268.071 204.68 267.651 204.125 267.391 203.545C267.191 204.155 266.766 204.765 266.116 205.375C265.466 205.985 264.791 206.435 264.091 206.725L263.341 205.69C264.241 205.36 265.026 204.805 265.696 204.025C266.366 203.235 266.701 202.4 266.701 201.52V200.98H263.746ZM272.866 210.805V208.33H267.076V210.805H272.866ZM274.201 206.62H272.866V203.35H270.421V202.27H272.866V198.94H274.201V206.62Z" fill="#E8E8E8"/>
<path d="M12.63 68.355H10.59V72.525H9.63V62.94H10.59V67.545H12.63V68.355ZM11.16 75.585H2.475V72.3H3.435V74.775H11.16V75.585ZM6.135 64.38H2.4V63.555H6.135V64.38ZM8.04 66.285H0.525V65.46H8.04V66.285ZM7.275 69.285C7.275 69.965 6.99 70.515 6.42 70.935C5.86 71.355 5.145 71.565 4.275 71.565C3.405 71.565 2.685 71.36 2.115 70.95C1.555 70.53 1.275 69.975 1.275 69.285C1.275 68.585 1.555 68.035 2.115 67.635C2.675 67.225 3.395 67.02 4.275 67.02C5.155 67.02 5.875 67.225 6.435 67.635C6.995 68.035 7.275 68.585 7.275 69.285ZM6.33 69.285C6.33 68.835 6.13 68.48 5.73 68.22C5.33 67.96 4.845 67.83 4.275 67.83C3.695 67.83 3.205 67.96 2.805 68.22C2.415 68.48 2.22 68.835 2.22 69.285C2.22 69.725 2.415 70.08 2.805 70.35C3.205 70.61 3.695 70.74 4.275 70.74C4.845 70.74 5.33 70.61 5.73 70.35C6.13 70.08 6.33 69.725 6.33 69.285ZM23.2085 73.8C23.2085 74.52 22.8185 75.07 22.0385 75.45C21.2585 75.84 20.1485 76.035 18.7085 76.035C17.2785 76.035 16.1735 75.84 15.3935 75.45C14.6135 75.06 14.2235 74.51 14.2235 73.8C14.2235 73.1 14.6135 72.555 15.3935 72.165C16.1835 71.765 17.2885 71.565 18.7085 71.565C20.1585 71.565 21.2685 71.755 22.0385 72.135C22.8185 72.515 23.2085 73.07 23.2085 73.8ZM23.1335 67.86H19.1885V69.63H24.6335V70.44H12.7985V69.63H18.2285V67.86H14.3435V63.585H23.0585V64.395H15.3035V67.05H23.1335V67.86ZM18.7085 72.36C17.6285 72.36 16.7735 72.49 16.1435 72.75C15.5235 73 15.2135 73.35 15.2135 73.8C15.2135 74.26 15.5235 74.615 16.1435 74.865C16.7635 75.115 17.6185 75.24 18.7085 75.24C19.8085 75.24 20.6685 75.115 21.2885 74.865C21.9085 74.615 22.2185 74.26 22.2185 73.8C22.2185 73.35 21.9085 73 21.2885 72.75C20.6685 72.49 19.8085 72.36 18.7085 72.36ZM34.222 63.885C35.012 64.295 35.407 64.885 35.407 65.655C35.407 66.425 35.012 67.015 34.222 67.425C33.442 67.835 32.347 68.04 30.937 68.04C29.537 68.04 28.442 67.835 27.652 67.425C26.872 67.015 26.482 66.425 26.482 65.655C26.482 64.885 26.872 64.295 27.652 63.885C28.442 63.475 29.537 63.27 30.937 63.27C32.347 63.27 33.442 63.475 34.222 63.885ZM26.362 71.895H30.442V70.02H25.027V69.21H36.862V70.02H31.402V71.895H35.347V76.155H34.387V72.72H26.362V71.895ZM34.447 65.655C34.447 65.115 34.132 64.715 33.502 64.455C32.882 64.195 32.027 64.065 30.937 64.065C28.627 64.065 27.472 64.595 27.472 65.655C27.472 66.185 27.777 66.58 28.387 66.84C29.007 67.1 29.857 67.23 30.937 67.23C32.027 67.23 32.882 67.1 33.502 66.84C34.132 66.58 34.447 66.185 34.447 65.655ZM52.506 67.2H50.466V70.425H49.506V62.94H50.466V66.39H52.506V67.2ZM50.481 75.855H42.321V71.115H50.481V75.855ZM49.521 75.045V71.94H43.281V75.045H49.521ZM40.956 63.885H46.956C46.816 65.615 46.211 67.03 45.141 68.13C44.071 69.23 42.651 70.055 40.881 70.605L40.371 69.78C41.761 69.48 42.976 68.86 44.016 67.92C45.066 66.97 45.681 65.9 45.861 64.71H40.956V63.885ZM63.0095 67.77H59.0645V69.51H64.5095V70.335H52.6745V69.51H58.1045V67.77H54.2195V63.48H62.9345V64.29H55.1795V66.945H63.0095V67.77ZM54.0095 71.82H62.9495V76.155H61.9895V72.645H54.0095V71.82ZM69.1134 75.9V63.42H69.9534V75.9H69.1134ZM84.6725 73.935C84.6725 74.625 84.2875 75.145 83.5175 75.495C82.7475 75.855 81.7025 76.035 80.3825 76.035C79.0625 76.035 78.0225 75.855 77.2625 75.495C76.5025 75.145 76.1225 74.625 76.1225 73.935C76.1225 73.245 76.5025 72.725 77.2625 72.375C78.0225 72.015 79.0525 71.835 80.3525 71.835C81.6525 71.835 82.6975 72.015 83.4875 72.375C84.2775 72.735 84.6725 73.255 84.6725 73.935ZM82.7525 70.83C81.1625 71 79.7725 71.12 78.5825 71.19C77.0425 71.3 75.6925 71.355 74.5325 71.355L74.3525 70.515C75.4625 70.515 76.6675 70.48 77.9675 70.41V69.405C77.2375 69.355 76.6475 69.195 76.1975 68.925C75.7475 68.645 75.5225 68.255 75.5225 67.755C75.5225 67.195 75.7975 66.775 76.3475 66.495C76.9075 66.205 77.6125 66.06 78.4625 66.06C79.3225 66.06 80.0275 66.2 80.5775 66.48C81.1375 66.76 81.4175 67.18 81.4175 67.74C81.4175 68.25 81.1875 68.645 80.7275 68.925C80.2675 69.195 79.6675 69.355 78.9275 69.405V70.365C80.5175 70.275 81.7675 70.17 82.6775 70.05L82.7525 70.83ZM80.3825 72.675C79.4025 72.675 78.6225 72.785 78.0425 73.005C77.4625 73.225 77.1725 73.535 77.1725 73.935C77.1725 74.345 77.4625 74.66 78.0425 74.88C78.6225 75.09 79.4025 75.195 80.3825 75.195C82.5425 75.195 83.6225 74.775 83.6225 73.935C83.6225 73.515 83.3325 73.2 82.7525 72.99C82.1825 72.78 81.3925 72.675 80.3825 72.675ZM86.6075 68.205H84.5675V71.85H83.6075V62.94H84.5675V67.38H86.6075V68.205ZM79.9175 68.445C80.2975 68.285 80.4875 68.05 80.4875 67.74C80.4875 67.43 80.2975 67.2 79.9175 67.05C79.5375 66.9 79.0525 66.825 78.4625 66.825C77.8725 66.825 77.3875 66.9 77.0075 67.05C76.6375 67.2 76.4525 67.43 76.4525 67.74C76.4525 68.06 76.6375 68.295 77.0075 68.445C77.3875 68.595 77.8725 68.67 78.4625 68.67C79.0525 68.67 79.5375 68.595 79.9175 68.445ZM82.2275 65.64H74.8025V64.815H82.2275V65.64ZM80.2775 64.02H76.6925V63.165H80.2775V64.02ZM97.5611 73.605C97.5611 74.365 97.1761 74.96 96.4061 75.39C95.6461 75.83 94.5711 76.05 93.1811 76.05C91.7911 76.05 90.7161 75.83 89.9561 75.39C89.1961 74.96 88.8161 74.365 88.8161 73.605C88.8161 72.835 89.1961 72.23 89.9561 71.79C90.7161 71.35 91.7911 71.13 93.1811 71.13C94.5711 71.13 95.6461 71.35 96.4061 71.79C97.1761 72.23 97.5611 72.835 97.5611 73.605ZM93.1811 71.97C92.1111 71.97 91.2761 72.115 90.6761 72.405C90.0861 72.685 89.7911 73.085 89.7911 73.605C89.7911 74.115 90.0861 74.515 90.6761 74.805C91.2761 75.085 92.1111 75.225 93.1811 75.225C94.2511 75.225 95.0861 75.085 95.6861 74.805C96.2861 74.515 96.5861 74.115 96.5861 73.605C96.5861 73.085 96.2861 72.685 95.6861 72.405C95.0961 72.115 94.2611 71.97 93.1811 71.97ZM87.2411 64.77V63.96H94.1261V64.77H91.1561V65.565C91.1561 66.385 91.4861 67.16 92.1461 67.89C92.8161 68.61 93.5761 69.11 94.4261 69.39L93.8861 70.17C93.2161 69.9 92.5711 69.485 91.9511 68.925C91.3411 68.365 90.9061 67.79 90.6461 67.2C90.4861 67.8 90.0761 68.425 89.4161 69.075C88.7561 69.725 88.0561 70.215 87.3161 70.545L86.7761 69.81C87.6561 69.46 88.4461 68.875 89.1461 68.055C89.8461 67.235 90.1961 66.405 90.1961 65.565V64.77H87.2411ZM96.4961 67.125H93.8711V66.315H96.4961V62.94H97.4561V71.1H96.4961V67.125ZM109.685 72.465H108.725V62.94H109.685V72.465ZM109.955 75.585H101.21V71.58H102.17V74.775H109.955V75.585ZM105.77 70.125H99.6796V64.185H105.77V70.125ZM104.81 69.3V64.995H100.64V69.3H104.81ZM120.079 72.72H114.964V64.245H115.924V67.59H119.134V64.245H120.079V72.72ZM125.464 76.05H124.504V69.225H122.704V75.36H121.759V63.27H122.704V68.4H124.504V62.94H125.464V76.05ZM119.134 71.895V68.415H115.924V71.895H119.134ZM135.907 64.35C136.727 64.86 137.137 65.545 137.137 66.405C137.137 67.265 136.727 67.955 135.907 68.475C135.087 68.995 133.967 69.255 132.547 69.255C131.127 69.255 130.012 68.995 129.202 68.475C128.392 67.955 127.987 67.265 127.987 66.405C127.987 65.545 128.392 64.86 129.202 64.35C130.012 63.83 131.127 63.57 132.547 63.57C133.967 63.57 135.087 63.83 135.907 64.35ZM132.547 64.455C131.427 64.455 130.542 64.63 129.892 64.98C129.252 65.33 128.932 65.805 128.932 66.405C128.932 67.015 129.252 67.495 129.892 67.845C130.532 68.185 131.417 68.355 132.547 68.355C133.687 68.355 134.577 68.185 135.217 67.845C135.867 67.495 136.192 67.015 136.192 66.405C136.192 65.805 135.867 65.33 135.217 64.98C134.577 64.63 133.687 64.455 132.547 64.455ZM133.027 76.065H132.067V71.4H126.652V70.59H138.487V71.4H133.027V76.065ZM143.091 75.9V63.42H143.931V75.9H143.091ZM160.585 68.355H158.545V72.525H157.585V62.94H158.545V67.545H160.585V68.355ZM159.115 75.585H150.43V72.3H151.39V74.775H159.115V75.585ZM154.09 64.38H150.355V63.555H154.09V64.38ZM155.995 66.285H148.48V65.46H155.995V66.285ZM155.23 69.285C155.23 69.965 154.945 70.515 154.375 70.935C153.815 71.355 153.1 71.565 152.23 71.565C151.36 71.565 150.64 71.36 150.07 70.95C149.51 70.53 149.23 69.975 149.23 69.285C149.23 68.585 149.51 68.035 150.07 67.635C150.63 67.225 151.35 67.02 152.23 67.02C153.11 67.02 153.83 67.225 154.39 67.635C154.95 68.035 155.23 68.585 155.23 69.285ZM154.285 69.285C154.285 68.835 154.085 68.48 153.685 68.22C153.285 67.96 152.8 67.83 152.23 67.83C151.65 67.83 151.16 67.96 150.76 68.22C150.37 68.48 150.175 68.835 150.175 69.285C150.175 69.725 150.37 70.08 150.76 70.35C151.16 70.61 151.65 70.74 152.23 70.74C152.8 70.74 153.285 70.61 153.685 70.35C154.085 70.08 154.285 69.725 154.285 69.285ZM171.794 76.05H170.834V62.94H171.794V76.05ZM165.629 65.07H162.344V64.23H165.629V65.07ZM167.204 67.095H160.769V66.27H167.204V67.095ZM166.664 70.41C166.664 71.2 166.409 71.835 165.899 72.315C165.399 72.795 164.739 73.035 163.919 73.035C163.109 73.035 162.444 72.785 161.924 72.285C161.414 71.785 161.159 71.16 161.159 70.41C161.159 69.63 161.414 69 161.924 68.52C162.434 68.04 163.099 67.8 163.919 67.8C164.729 67.8 165.389 68.04 165.899 68.52C166.409 69 166.664 69.63 166.664 70.41ZM165.224 71.685C165.564 71.355 165.734 70.93 165.734 70.41C165.734 69.89 165.564 69.47 165.224 69.15C164.884 68.82 164.449 68.655 163.919 68.655C163.399 68.655 162.964 68.82 162.614 69.15C162.274 69.48 162.104 69.9 162.104 70.41C162.104 70.94 162.274 71.37 162.614 71.7C162.964 72.02 163.399 72.18 163.919 72.18C164.449 72.18 164.884 72.015 165.224 71.685ZM169.454 75.36H168.509V71.445H166.919V70.635H168.509V68.49H166.829V67.665H168.509V63.27H169.454V75.36ZM173.552 65.01V64.2H180.617V65.01H177.542V65.91C177.542 66.73 177.872 67.505 178.532 68.235C179.192 68.965 179.942 69.465 180.782 69.735L180.257 70.53C179.577 70.25 178.932 69.83 178.322 69.27C177.722 68.71 177.292 68.135 177.032 67.545C176.882 68.125 176.467 68.745 175.787 69.405C175.117 70.055 174.412 70.545 173.672 70.875L173.117 70.155C174.007 69.795 174.807 69.21 175.517 68.4C176.227 67.58 176.582 66.75 176.582 65.91V65.01H173.552ZM183.947 75.63H175.292V71.655H176.252V74.82H183.947V75.63ZM183.662 72.465H182.702V62.94H183.662V72.465ZM194.056 72.72H188.941V64.245H189.901V67.59H193.111V64.245H194.056V72.72ZM199.441 76.05H198.481V69.225H196.681V75.36H195.736V63.27H196.681V68.4H198.481V62.94H199.441V76.05ZM193.111 71.895V68.415H189.901V71.895H193.111ZM209.885 64.35C210.705 64.86 211.115 65.545 211.115 66.405C211.115 67.265 210.705 67.955 209.885 68.475C209.065 68.995 207.945 69.255 206.525 69.255C205.105 69.255 203.99 68.995 203.18 68.475C202.37 67.955 201.965 67.265 201.965 66.405C201.965 65.545 202.37 64.86 203.18 64.35C203.99 63.83 205.105 63.57 206.525 63.57C207.945 63.57 209.065 63.83 209.885 64.35ZM206.525 64.455C205.405 64.455 204.52 64.63 203.87 64.98C203.23 65.33 202.91 65.805 202.91 66.405C202.91 67.015 203.23 67.495 203.87 67.845C204.51 68.185 205.395 68.355 206.525 68.355C207.665 68.355 208.555 68.185 209.195 67.845C209.845 67.495 210.17 67.015 210.17 66.405C210.17 65.805 209.845 65.33 209.195 64.98C208.555 64.63 207.665 64.455 206.525 64.455ZM207.005 76.065H206.045V71.4H200.63V70.59H212.465V71.4H207.005V76.065Z" fill="#E8E8E8" fill-opacity="0.8"/>
<path d="M180.529 169.23H171.694V163.29H180.394V164.115H172.654V168.42H180.529V169.23ZM181.969 173.22H170.134V172.41H181.969V173.22ZM194.573 168.105H192.383V175.05H191.423V161.94H192.383V167.28H194.573V168.105ZM190.313 171.36C188.033 171.7 185.558 171.87 182.888 171.87V166.935H187.808V163.995H182.888V163.17H188.768V167.745H183.848V171.03C184.718 171.03 185.788 170.99 187.058 170.91C188.338 170.82 189.383 170.695 190.193 170.535L190.313 171.36ZM201.041 171.66H195.116V163.335H201.041V171.66ZM200.081 170.835V164.16H196.076V170.835H200.081ZM206.831 168.105H204.611V175.05H203.651V161.94H204.611V167.28H206.831V168.105Z" fill="#969696"/>
<path d="M176.193 137.46V128.445L174.303 128.91V128.28L176.643 127.185H177.198V137.46H176.193ZM179.079 137.37V136.725L181.554 134.16C182.384 133.3 182.984 132.585 183.354 132.015C183.724 131.445 183.909 130.825 183.909 130.155C183.909 129.465 183.739 128.95 183.399 128.61C183.069 128.27 182.549 128.1 181.839 128.1C181.089 128.1 180.329 128.385 179.559 128.955L179.199 128.1C180.159 127.47 181.079 127.155 181.959 127.155C182.939 127.155 183.694 127.42 184.224 127.95C184.764 128.47 185.034 129.18 185.034 130.08C185.034 130.87 184.824 131.59 184.404 132.24C183.994 132.88 183.274 133.725 182.244 134.775L180.579 136.44H185.289V137.37H179.079ZM190.092 137.55C189.012 137.55 188.137 137.155 187.467 136.365C186.807 135.575 186.477 134.375 186.477 132.765V131.88C186.477 130.23 186.812 129.035 187.482 128.295C188.152 127.545 189.027 127.17 190.107 127.17C191.177 127.17 192.032 127.535 192.672 128.265C193.312 128.995 193.632 130.18 193.632 131.82V132.78C193.632 134.39 193.307 135.59 192.657 136.38C192.017 137.16 191.162 137.55 190.092 137.55ZM190.092 136.65C190.902 136.65 191.512 136.355 191.922 135.765C192.332 135.175 192.537 134.24 192.537 132.96V131.79C192.537 129.31 191.727 128.07 190.107 128.07C188.437 128.07 187.602 129.29 187.602 131.73V132.9C187.602 135.4 188.432 136.65 190.092 136.65ZM204.851 131.4H196.181V126.465H197.141V128.16H203.891V126.465H204.851V131.4ZM200.966 136.35H200.006V133.71H194.591V132.9H206.426V133.71H200.966V136.35ZM203.891 130.575V128.97H197.141V130.575H203.891ZM205.046 138.6H196.181V135.09H197.141V137.79H205.046V138.6Z" fill="#969696"/>
<path d="M124.261 209.46V200.445L122.371 200.91V200.28L124.711 199.185H125.266V209.46H124.261ZM129.428 209.55C128.258 209.55 127.328 209.29 126.638 208.77L126.833 207.915C127.133 208.105 127.513 208.275 127.973 208.425C128.433 208.575 128.863 208.65 129.263 208.65C130.063 208.65 130.688 208.435 131.138 208.005C131.598 207.565 131.828 206.98 131.828 206.25C131.828 204.77 130.983 204.03 129.293 204.03C128.623 204.03 127.923 204.195 127.193 204.525L127.553 199.32H132.593V200.25H128.423L128.198 203.43C128.708 203.29 129.198 203.22 129.668 203.22C131.848 203.22 132.938 204.23 132.938 206.25C132.938 207.18 132.618 207.965 131.978 208.605C131.348 209.235 130.498 209.55 129.428 209.55ZM144.489 211.05H143.529V197.94H144.489V211.05ZM141.894 210.36H140.949V203.565H138.624V202.755H140.949V198.27H141.894V210.36ZM140.049 206.985L139.374 207.675C138.804 207.245 138.259 206.67 137.739 205.95C137.229 205.22 136.874 204.485 136.674 203.745C136.544 204.495 136.209 205.27 135.669 206.07C135.139 206.87 134.534 207.525 133.854 208.035L133.194 207.33C133.974 206.84 134.664 206.065 135.264 205.005C135.874 203.945 136.179 202.825 136.179 201.645V199.29H137.139V201.63C137.139 202.82 137.419 203.875 137.979 204.795C138.549 205.715 139.239 206.445 140.049 206.985ZM156.342 211.05H155.382V197.94H156.342V211.05ZM146.292 203.565C146.292 202.155 146.572 201.04 147.132 200.22C147.692 199.39 148.477 198.975 149.487 198.975C150.507 198.975 151.297 199.39 151.857 200.22C152.417 201.04 152.697 202.16 152.697 203.58C152.697 204.99 152.417 206.11 151.857 206.94C151.297 207.77 150.507 208.185 149.487 208.185C148.477 208.185 147.692 207.77 147.132 206.94C146.572 206.11 146.292 204.985 146.292 203.565ZM151.137 206.28C151.557 205.58 151.767 204.68 151.767 203.58C151.767 202.48 151.557 201.58 151.137 200.88C150.717 200.18 150.167 199.83 149.487 199.83C148.807 199.83 148.262 200.18 147.852 200.88C147.442 201.57 147.237 202.47 147.237 203.58C147.237 204.68 147.442 205.58 147.852 206.28C148.262 206.97 148.807 207.315 149.487 207.315C150.167 207.315 150.717 206.97 151.137 206.28ZM165.226 204.105L164.656 204.87C163.946 204.51 163.306 204.055 162.736 203.505C162.166 202.945 161.761 202.335 161.521 201.675C161.121 203.055 160.031 204.245 158.251 205.245L157.666 204.51C158.656 204.01 159.456 203.365 160.066 202.575C160.686 201.775 160.996 200.87 160.996 199.86V198.585H161.956V199.83C161.956 200.81 162.291 201.69 162.961 202.47C163.631 203.24 164.386 203.785 165.226 204.105ZM168.121 208.575C168.121 209.335 167.731 209.935 166.951 210.375C166.171 210.815 165.101 211.035 163.741 211.035C162.381 211.035 161.311 210.815 160.531 210.375C159.761 209.945 159.376 209.345 159.376 208.575C159.376 207.805 159.761 207.2 160.531 206.76C161.311 206.32 162.381 206.1 163.741 206.1C165.101 206.1 166.171 206.32 166.951 206.76C167.731 207.2 168.121 207.805 168.121 208.575ZM163.741 206.91C162.701 206.91 161.876 207.055 161.266 207.345C160.666 207.635 160.366 208.045 160.366 208.575C160.366 209.095 160.666 209.5 161.266 209.79C161.876 210.08 162.701 210.225 163.741 210.225C164.791 210.225 165.616 210.08 166.216 209.79C166.826 209.5 167.131 209.095 167.131 208.575C167.131 208.045 166.826 207.635 166.216 207.345C165.616 207.055 164.791 206.91 163.741 206.91ZM169.966 202.455H167.926V205.98H166.966V197.94H167.926V201.63H169.966V202.455ZM182.194 203.055H180.154V207.81H179.194V197.94H180.154V202.245H182.194V203.055ZM180.724 210.735H172.024V206.94H172.969V209.91H180.724V210.735ZM178.309 205.275C176.999 205.475 175.579 205.605 174.049 205.665C172.819 205.735 171.514 205.77 170.134 205.77L169.954 204.9C171.284 204.9 172.264 204.89 172.894 204.87V201.9H173.854V204.84C175.744 204.77 177.189 204.65 178.189 204.48L178.309 205.275ZM177.244 198.99C177.244 200.95 177.104 202.45 176.824 203.49L175.894 203.34C176.134 202.47 176.254 201.29 176.254 199.8H170.824V198.99H177.244ZM194.423 202.32H192.383V205.77H191.423V197.94H192.383V201.495H194.423V202.32ZM192.398 210.855H184.028V206.55H192.398V210.855ZM191.438 210.045V207.36H184.973V210.045H191.438ZM190.103 204.885C188.033 205.175 185.628 205.315 182.888 205.305V201.465H187.628V199.53H182.873V198.72H188.588V202.29H183.848V204.465C186.198 204.515 188.243 204.38 189.983 204.06L190.103 204.885ZM204.611 197.94V203.535H206.831V204.36H204.611V211.05H203.651V197.94H204.611ZM201.161 199.365C201.121 201.415 200.571 203.19 199.511 204.69C198.451 206.19 197.051 207.41 195.311 208.35L194.726 207.585C196.376 206.765 197.661 205.715 198.581 204.435C199.511 203.145 200.036 201.73 200.156 200.19H195.161V199.365H201.161Z" fill="#969696"/>
<path d="M360.753 137.46V128.445L358.863 128.91V128.28L361.203 127.185H361.758V137.46H360.753ZM362.905 139.32L363.49 136.395H364.705L363.61 139.32H362.905ZM369.068 127.17C370.178 127.17 371.028 127.545 371.618 128.295C372.208 129.045 372.503 130.125 372.503 131.535V132.195C372.503 133.905 372.178 135.225 371.528 136.155C370.878 137.085 369.953 137.55 368.753 137.55C367.753 137.55 366.943 137.34 366.323 136.92L366.638 136.155C367.218 136.485 367.908 136.65 368.708 136.65C369.568 136.65 370.223 136.33 370.673 135.69C371.123 135.05 371.373 134.03 371.423 132.63C370.763 133.4 369.933 133.785 368.933 133.785C368.073 133.785 367.343 133.495 366.743 132.915C366.153 132.335 365.858 131.58 365.858 130.65C365.858 129.69 366.153 128.87 366.743 128.19C367.333 127.51 368.108 127.17 369.068 127.17ZM369.083 128.085C368.423 128.085 367.898 128.315 367.508 128.775C367.118 129.225 366.923 129.815 366.923 130.545C366.923 131.315 367.123 131.895 367.523 132.285C367.923 132.665 368.453 132.855 369.113 132.855C369.573 132.855 370.008 132.725 370.418 132.465C370.838 132.195 371.173 131.88 371.423 131.52V131.25C371.423 129.14 370.643 128.085 369.083 128.085ZM376.866 137.565C375.836 137.565 375.001 137.315 374.361 136.815C373.731 136.305 373.416 135.635 373.416 134.805C373.416 134.195 373.636 133.66 374.076 133.2C374.526 132.74 375.071 132.385 375.711 132.135C374.381 131.645 373.716 130.82 373.716 129.66C373.716 128.93 374.001 128.33 374.571 127.86C375.141 127.39 375.891 127.155 376.821 127.155C377.751 127.155 378.501 127.375 379.071 127.815C379.641 128.255 379.926 128.855 379.926 129.615C379.926 130.165 379.741 130.63 379.371 131.01C379.001 131.38 378.496 131.735 377.856 132.075C379.496 132.615 380.316 133.5 380.316 134.73C380.316 135.54 380.001 136.215 379.371 136.755C378.751 137.295 377.916 137.565 376.866 137.565ZM376.866 136.65C377.516 136.65 378.061 136.485 378.501 136.155C378.951 135.815 379.176 135.38 379.176 134.85C379.176 134.25 378.981 133.8 378.591 133.5C378.201 133.19 377.521 132.875 376.551 132.555C375.971 132.775 375.486 133.07 375.096 133.44C374.716 133.81 374.526 134.26 374.526 134.79C374.526 135.35 374.746 135.8 375.186 136.14C375.626 136.48 376.186 136.65 376.866 136.65ZM377.046 131.685C378.196 131.165 378.771 130.485 378.771 129.645C378.771 129.175 378.601 128.795 378.261 128.505C377.931 128.215 377.451 128.07 376.821 128.07C376.231 128.07 375.756 128.21 375.396 128.49C375.036 128.76 374.856 129.14 374.856 129.63C374.856 130.59 375.586 131.275 377.046 131.685ZM385.15 137.55C384.07 137.55 383.195 137.155 382.525 136.365C381.865 135.575 381.535 134.375 381.535 132.765V131.88C381.535 130.23 381.87 129.035 382.54 128.295C383.21 127.545 384.085 127.17 385.165 127.17C386.235 127.17 387.09 127.535 387.73 128.265C388.37 128.995 388.69 130.18 388.69 131.82V132.78C388.69 134.39 388.365 135.59 387.715 136.38C387.075 137.16 386.22 137.55 385.15 137.55ZM385.15 136.65C385.96 136.65 386.57 136.355 386.98 135.765C387.39 135.175 387.595 134.24 387.595 132.96V131.79C387.595 129.31 386.785 128.07 385.165 128.07C383.495 128.07 382.66 129.29 382.66 131.73V132.9C382.66 135.4 383.49 136.65 385.15 136.65ZM389.304 139.32L389.889 136.395H391.104L390.009 139.32H389.304ZM394.193 137.46V128.445L392.303 128.91V128.28L394.643 127.185H395.198V137.46H394.193ZM397.079 137.37V136.725L399.554 134.16C400.384 133.3 400.984 132.585 401.354 132.015C401.724 131.445 401.909 130.825 401.909 130.155C401.909 129.465 401.739 128.95 401.399 128.61C401.069 128.27 400.549 128.1 399.839 128.1C399.089 128.1 398.329 128.385 397.559 128.955L397.199 128.1C398.159 127.47 399.079 127.155 399.959 127.155C400.939 127.155 401.694 127.42 402.224 127.95C402.764 128.47 403.034 129.18 403.034 130.08C403.034 130.87 402.824 131.59 402.404 132.24C401.994 132.88 401.274 133.725 400.244 134.775L398.579 136.44H403.289V137.37H397.079ZM408.092 137.55C407.012 137.55 406.137 137.155 405.467 136.365C404.807 135.575 404.477 134.375 404.477 132.765V131.88C404.477 130.23 404.812 129.035 405.482 128.295C406.152 127.545 407.027 127.17 408.107 127.17C409.177 127.17 410.032 127.535 410.672 128.265C411.312 128.995 411.632 130.18 411.632 131.82V132.78C411.632 134.39 411.307 135.59 410.657 136.38C410.017 137.16 409.162 137.55 408.092 137.55ZM408.092 136.65C408.902 136.65 409.512 136.355 409.922 135.765C410.332 135.175 410.537 134.24 410.537 132.96V131.79C410.537 129.31 409.727 128.07 408.107 128.07C406.437 128.07 405.602 129.29 405.602 131.73V132.9C405.602 135.4 406.432 136.65 408.092 136.65ZM423.376 136.605C423.376 137.365 422.986 137.96 422.206 138.39C421.426 138.83 420.331 139.05 418.921 139.05C417.501 139.05 416.401 138.83 415.621 138.39C414.851 137.96 414.466 137.365 414.466 136.605C414.466 135.835 414.851 135.23 415.621 134.79C416.401 134.35 417.501 134.13 418.921 134.13C420.331 134.13 421.426 134.35 422.206 134.79C422.986 135.23 423.376 135.835 423.376 136.605ZM421.471 135.405C420.871 135.125 420.021 134.985 418.921 134.985C417.821 134.985 416.966 135.125 416.356 135.405C415.746 135.685 415.441 136.085 415.441 136.605C415.441 137.115 415.746 137.51 416.356 137.79C416.976 138.07 417.831 138.21 418.921 138.21C420.011 138.21 420.861 138.07 421.471 137.79C422.081 137.51 422.386 137.115 422.386 136.605C422.386 136.085 422.081 135.685 421.471 135.405ZM419.686 128.955V128.145H422.311V125.94H423.271V134.1H422.311V131.64H419.686V130.815H422.311V128.955H419.686ZM419.101 132.885H413.266V127.035H419.101V132.885ZM418.141 132.06V127.845H414.226V132.06H418.141Z" fill="#969696"/>
<path d="M412.423 167.355H410.383V171.525H409.423V161.94H410.383V166.545H412.423V167.355ZM410.953 174.585H402.268V171.3H403.228V173.775H410.953V174.585ZM405.928 163.38H402.193V162.555H405.928V163.38ZM407.833 165.285H400.318V164.46H407.833V165.285ZM407.068 168.285C407.068 168.965 406.783 169.515 406.213 169.935C405.653 170.355 404.938 170.565 404.068 170.565C403.198 170.565 402.478 170.36 401.908 169.95C401.348 169.53 401.068 168.975 401.068 168.285C401.068 167.585 401.348 167.035 401.908 166.635C402.468 166.225 403.188 166.02 404.068 166.02C404.948 166.02 405.668 166.225 406.228 166.635C406.788 167.035 407.068 167.585 407.068 168.285ZM406.123 168.285C406.123 167.835 405.923 167.48 405.523 167.22C405.123 166.96 404.638 166.83 404.068 166.83C403.488 166.83 402.998 166.96 402.598 167.22C402.208 167.48 402.013 167.835 402.013 168.285C402.013 168.725 402.208 169.08 402.598 169.35C402.998 169.61 403.488 169.74 404.068 169.74C404.638 169.74 405.123 169.61 405.523 169.35C405.923 169.08 406.123 168.725 406.123 168.285ZM414.001 170.775H418.021V168.21H412.591V167.385H421.396C421.676 166.295 421.816 164.98 421.816 163.44H414.181V162.615H422.821C422.821 164.525 422.671 166.115 422.371 167.385H424.426V168.21H418.981V170.775H422.836V175.155H421.876V171.585H414.001V170.775Z" fill="#969696"/>
<path d="M413.688 199.17C414.798 199.17 415.648 199.545 416.238 200.295C416.828 201.045 417.123 202.125 417.123 203.535V204.195C417.123 205.905 416.798 207.225 416.148 208.155C415.498 209.085 414.573 209.55 413.373 209.55C412.373 209.55 411.563 209.34 410.943 208.92L411.258 208.155C411.838 208.485 412.528 208.65 413.328 208.65C414.188 208.65 414.843 208.33 415.293 207.69C415.743 207.05 415.993 206.03 416.043 204.63C415.383 205.4 414.553 205.785 413.553 205.785C412.693 205.785 411.963 205.495 411.363 204.915C410.773 204.335 410.478 203.58 410.478 202.65C410.478 201.69 410.773 200.87 411.363 200.19C411.953 199.51 412.728 199.17 413.688 199.17ZM413.703 200.085C413.043 200.085 412.518 200.315 412.128 200.775C411.738 201.225 411.543 201.815 411.543 202.545C411.543 203.315 411.743 203.895 412.143 204.285C412.543 204.665 413.073 204.855 413.733 204.855C414.193 204.855 414.628 204.725 415.038 204.465C415.458 204.195 415.793 203.88 416.043 203.52V203.25C416.043 201.14 415.263 200.085 413.703 200.085ZM417.855 209.67V208.41H419.1V209.67H417.855ZM422.324 209.46V200.445L420.434 200.91V200.28L422.774 199.185H423.329V209.46H422.324Z" fill="#969696"/>
<path d="M215 124V144" stroke="#E8E8E8" stroke-width="2"/>
<path d="M215 159V179" stroke="#E8E8E8" stroke-width="2"/>
<path d="M215 194V214" stroke="#E8E8E8" stroke-width="2"/>
</svg>
