<svg width="430" height="222" viewBox="0 0 430 222" fill="none" xmlns="http://www.w3.org/2000/svg">
<path d="M426.37 67.1L425.59 67.1L423.19 64.79C422.31 63.95 421.58 63.34 421 62.96C420.41 62.57 419.795 62.375 419.155 62.375C418.495 62.375 418.01 62.54 417.7 62.87C417.38 63.2 417.22 63.715 417.22 64.415C417.22 65.105 417.485 65.85 418.015 66.65L416.995 66.965C416.395 66.065 416.095 65.13 416.095 64.16C416.095 63.14 416.355 62.355 416.875 61.805C417.395 61.255 418.11 60.98 419.02 60.98C419.83 60.98 420.575 61.205 421.255 61.655C421.925 62.095 422.755 62.805 423.745 63.785L425.26 65.285L425.26 60.785L426.37 60.785L426.37 67.1ZM426.55 55.997C426.55 57.127 426.155 58.037 425.365 58.727C424.565 59.407 423.345 59.747 421.705 59.747L420.91 59.747C419.24 59.747 418.025 59.397 417.265 58.697C416.495 57.997 416.11 57.092 416.11 55.982C416.11 54.892 416.49 54.012 417.25 53.342C418 52.662 419.2 52.322 420.85 52.322L421.72 52.322C423.36 52.322 424.575 52.662 425.365 53.342C426.155 54.012 426.55 54.897 426.55 55.997ZM425.47 55.997C425.47 55.227 425.185 54.652 424.615 54.272C424.045 53.882 423.135 53.687 421.885 53.687L420.85 53.687C418.41 53.687 417.19 54.452 417.19 55.982C417.19 57.552 418.375 58.337 420.745 58.337L421.81 58.337C424.25 58.337 425.47 57.557 425.47 55.997ZM426.43 49.4748L417.61 49.4748L418.015 51.3048L417.25 51.3048L416.125 48.8748L416.125 48.1548L426.43 48.1548L426.43 49.4748ZM426.37 46.352L425.59 46.352L423.19 44.042C422.31 43.202 421.58 42.592 421 42.212C420.41 41.822 419.795 41.627 419.155 41.627C418.495 41.627 418.01 41.792 417.7 42.122C417.38 42.452 417.22 42.967 417.22 43.667C417.22 44.357 417.485 45.102 418.015 45.902L416.995 46.217C416.395 45.317 416.095 44.382 416.095 43.412C416.095 42.392 416.355 41.607 416.875 41.057C417.395 40.507 418.11 40.232 419.02 40.232C419.83 40.232 420.575 40.457 421.255 40.907C421.925 41.347 422.755 42.057 423.745 43.037L425.26 44.537L425.26 40.037L426.37 40.037L426.37 46.352ZM426.715 39.3439L425.245 39.3439L425.245 37.8889L426.715 37.8889L426.715 39.3439ZM426.55 32.3368C426.55 33.4668 426.155 34.3768 425.365 35.0668C424.565 35.7468 423.345 36.0868 421.705 36.0868L420.91 36.0868C419.24 36.0868 418.025 35.7368 417.265 35.0368C416.495 34.3368 416.11 33.4318 416.11 32.3218C416.11 31.2318 416.49 30.3518 417.25 29.6818C418 29.0018 419.2 28.6618 420.85 28.6618L421.72 28.6618C423.36 28.6618 424.575 29.0018 425.365 29.6818C426.155 30.3518 426.55 31.2368 426.55 32.3368ZM425.47 32.3368C425.47 31.5668 425.185 30.9918 424.615 30.6118C424.045 30.2218 423.135 30.0268 421.885 30.0268L420.85 30.0268C418.41 30.0268 417.19 30.7918 417.19 32.3218C417.19 33.8918 418.375 34.6768 420.745 34.6768L421.81 34.6768C424.25 34.6768 425.47 33.8968 425.47 32.3368ZM426.37 27.4496L425.59 27.4496L423.19 25.1396C422.31 24.2996 421.58 23.6896 421 23.3096C420.41 22.9196 419.795 22.7246 419.155 22.7246C418.495 22.7246 418.01 22.8896 417.7 23.2196C417.38 23.5496 417.22 24.0646 417.22 24.7646C417.22 25.4546 417.485 26.1996 418.015 26.9996L416.995 27.3146C416.395 26.4146 416.095 25.4796 416.095 24.5096C416.095 23.4896 416.355 22.7046 416.875 22.1546C417.395 21.6046 418.11 21.3296 419.02 21.3296C419.83 21.3296 420.575 21.5546 421.255 22.0046C421.925 22.4446 422.755 23.1546 423.745 24.1346L425.26 25.6346L425.26 21.1346L426.37 21.1346L426.37 27.4496ZM426.715 20.4416L425.245 20.4416L425.245 18.9866L426.715 18.9866L426.715 20.4416ZM426.55 13.4345C426.55 14.5645 426.155 15.4745 425.365 16.1645C424.565 16.8445 423.345 17.1845 421.705 17.1845L420.91 17.1845C419.24 17.1845 418.025 16.8345 417.265 16.1345C416.495 15.4345 416.11 14.5295 416.11 13.4195C416.11 12.3295 416.49 11.4495 417.25 10.7795C418 10.0995 419.2 9.75945 420.85 9.75945L421.72 9.75945C423.36 9.75945 424.575 10.0995 425.365 10.7795C426.155 11.4495 426.55 12.3345 426.55 13.4345ZM425.47 13.4345C425.47 12.6645 425.185 12.0895 424.615 11.7095C424.045 11.3195 423.135 11.1245 421.885 11.1245L420.85 11.1245C418.41 11.1245 417.19 11.8895 417.19 13.4195C417.19 14.9895 418.375 15.7745 420.745 15.7745L421.81 15.7745C424.25 15.7745 425.47 14.9945 425.47 13.4345ZM426.37 8.54726L425.59 8.54726L423.19 6.23726C422.31 5.39726 421.58 4.78726 421 4.40726C420.41 4.01726 419.795 3.82226 419.155 3.82226C418.495 3.82226 418.01 3.98726 417.7 4.31727C417.38 4.64727 417.22 5.16227 417.22 5.86227C417.22 6.55227 417.485 7.29727 418.015 8.09727L416.995 8.41227C416.395 7.51227 416.095 6.57727 416.095 5.60727C416.095 4.58727 416.355 3.80227 416.875 3.25227C417.395 2.70226 418.11 2.42726 419.02 2.42726C419.83 2.42726 420.575 2.65226 421.255 3.10227C421.925 3.54226 422.755 4.25226 423.745 5.23226L425.26 6.73226L425.26 2.23226L426.37 2.23226L426.37 8.54726Z" fill="#E8E8E8"/>
<path d="M19.15 22.7H4.525V14.2H19.15V22.7ZM16.25 20.425V16.45H7.475V20.425H16.25ZM19.15 13H16.25V8.225H13.075V5.75H16.25V0.699999H19.15V13ZM11.95 12.15H1.525V1.95H4.475V4.925H9.05V1.925H11.95V12.15ZM9.05 9.8V7.2H4.475V9.8H9.05ZM34.9059 5.025H30.2809C30.3809 6.30833 30.9225 7.425 31.9059 8.375C32.9059 9.325 34.1059 9.98333 35.5059 10.35C35.2725 10.75 34.7642 11.525 33.9809 12.675C33.0309 12.3917 32.0309 11.8667 30.9809 11.1C29.9475 10.3333 29.2142 9.50833 28.7809 8.625C28.4142 9.54167 27.6975 10.4417 26.6309 11.325C25.5642 12.1917 24.4559 12.8417 23.3059 13.275L21.7309 10.975C23.2975 10.4917 24.5892 9.725 25.6059 8.675C26.6225 7.625 27.1642 6.40833 27.2309 5.025H22.4809V2.7H34.9059V5.025ZM39.8559 0.699999V22.975H36.9559V0.699999H39.8559ZM35.8559 18.125C31.6392 18.6417 26.8559 18.9 21.5059 18.9C21.4559 18.6333 21.3892 18.2417 21.3059 17.725C21.2225 17.1917 21.1559 16.8 21.1059 16.55C23.2225 16.55 25.2809 16.525 27.2809 16.475V12.075H30.2559V16.375C32.5225 16.225 34.3309 16.0583 35.6809 15.875L35.8559 18.125ZM55.2617 18.025C53.4117 18.3083 50.7451 18.5333 47.2617 18.7C45.0117 18.8 43.1201 18.85 41.5867 18.85L41.2117 16.45C43.6117 16.45 45.4034 16.4333 46.5867 16.4V12.7C45.2534 12.45 44.1784 11.875 43.3617 10.975C42.5617 10.075 42.1617 8.96667 42.1617 7.65C42.1617 6.11667 42.7201 4.84167 43.8367 3.825C44.9534 2.79167 46.3451 2.275 48.0117 2.275C49.6784 2.275 51.0701 2.78333 52.1867 3.8C53.3201 4.81667 53.8867 6.1 53.8867 7.65C53.8867 8.95 53.4784 10.05 52.6617 10.95C51.8617 11.8333 50.8117 12.4083 49.5117 12.675V16.25C51.8784 16.1167 53.6951 15.9583 54.9617 15.775L55.2617 18.025ZM59.1367 0.699999V9.625H62.0117V12.025H59.1367V22.975H56.2367V0.699999H59.1367ZM45.0117 7.625C45.0117 8.475 45.3034 9.15 45.8867 9.65C46.4701 10.1333 47.1784 10.375 48.0117 10.375C48.8284 10.375 49.5201 10.1333 50.0867 9.65C50.6701 9.15 50.9617 8.475 50.9617 7.625C50.9617 6.725 50.6701 6.01667 50.0867 5.5C49.5201 4.96667 48.8284 4.7 48.0117 4.7C47.1784 4.7 46.4701 4.975 45.8867 5.525C45.3034 6.05833 45.0117 6.75833 45.0117 7.625ZM65.7676 7.45C65.7676 8.3 66.0509 9 66.6176 9.55C67.2009 10.1 67.9842 10.375 68.9676 10.375C69.9509 10.375 70.7342 10.1 71.3176 9.55C71.9009 9 72.1926 8.3 72.1926 7.45C72.1926 6.63333 71.9009 5.95833 71.3176 5.425C70.7342 4.875 69.9509 4.6 68.9676 4.6C68.0009 4.6 67.2259 4.875 66.6426 5.425C66.0592 5.95833 65.7676 6.63333 65.7676 7.45ZM80.6926 0.699999V22.975H77.7926V0.699999H80.6926ZM62.7676 7.475C62.7676 5.89167 63.3342 4.60833 64.4676 3.625C65.6009 2.625 67.1009 2.125 68.9676 2.125C70.8342 2.125 72.3259 2.625 73.4426 3.625C74.5759 4.60833 75.1426 5.89167 75.1426 7.475C75.1426 9.04167 74.5759 10.325 73.4426 11.325C72.3259 12.325 70.8342 12.825 68.9676 12.825C67.1176 12.825 65.6176 12.325 64.4676 11.325C63.3342 10.325 62.7676 9.04167 62.7676 7.475ZM76.8676 17.275C74.6676 17.5583 72.1592 17.775 69.3426 17.925C66.0092 18.0583 63.6759 18.1167 62.3426 18.1L61.9176 15.6C64.6509 15.6 67.0676 15.5583 69.1676 15.475C72.0676 15.375 74.5509 15.1917 76.6176 14.925L76.8676 17.275ZM88.3658 4.875V2.475H100.116V4.875H95.8408C95.8575 6.49167 96.3408 7.90833 97.2908 9.125C98.2575 10.325 99.4242 11.1417 100.791 11.575L99.1908 13.875C98.3075 13.5417 97.3908 12.95 96.4408 12.1C95.5075 11.25 94.8158 10.3333 94.3658 9.35C94.0325 10.4167 93.3575 11.45 92.3408 12.45C91.3408 13.4333 90.2908 14.1167 89.1908 14.5L87.4658 12.2C89.0992 11.6 90.3992 10.6583 91.3658 9.375C92.3492 8.09167 92.8408 6.61667 92.8408 4.95V4.875H88.3658ZM106.016 16.85H103.091V8.975H99.7408V6.625H103.091V0.699999H106.016V16.85ZM106.491 22.375H91.1158V15.35H94.0658V20.075H106.491V22.375ZM127.122 18.55C127.122 19.9167 126.413 20.9917 124.997 21.775C123.58 22.5583 121.638 22.95 119.172 22.95C116.722 22.95 114.788 22.5583 113.372 21.775C111.972 20.9917 111.272 19.9167 111.272 18.55C111.272 17.1667 111.972 16.0833 113.372 15.3C114.788 14.5 116.722 14.1 119.172 14.1C121.655 14.1 123.597 14.5 124.997 15.3C126.413 16.0833 127.122 17.1667 127.122 18.55ZM126.922 14H124.147V8.55H122.347V13.25H119.622V1.1H122.347V6.2H124.147V0.699999H126.922V14ZM118.172 4.725H114.847V4.775C114.847 6.19167 115.213 7.45 115.947 8.55C116.68 9.65 117.663 10.4083 118.897 10.825L117.422 13.025C116.705 12.775 115.938 12.275 115.122 11.525C114.322 10.775 113.78 10.0333 113.497 9.3C113.213 10.15 112.688 11 111.922 11.85C111.155 12.6833 110.297 13.2917 109.347 13.675L107.647 11.5C109.097 10.9 110.188 10.0083 110.922 8.825C111.655 7.64167 112.022 6.3 112.022 4.8V4.725H108.547V2.4H118.172V4.725ZM122.822 20.1C123.705 19.7333 124.147 19.2167 124.147 18.55C124.147 17.8833 123.705 17.3667 122.822 17C121.938 16.6333 120.722 16.45 119.172 16.45C117.655 16.45 116.455 16.6333 115.572 17C114.705 17.3667 114.272 17.8833 114.272 18.55C114.272 19.2167 114.705 19.7333 115.572 20.1C116.455 20.45 117.655 20.625 119.172 20.625C120.722 20.625 121.938 20.45 122.822 20.1ZM129.503 9.75V6.8H132.553V9.75H129.503ZM129.503 18.8V15.85H132.553V18.8H129.503ZM156.655 0.699999V9.175H159.855V11.6H156.655V22.975H153.73V0.699999H156.655ZM152.23 16.5C150.997 16.8333 149.389 17.0917 147.405 17.275C145.439 17.4583 143.689 17.55 142.155 17.55H140.13V2.925H143.03V15.05C146.547 15.05 149.514 14.7583 151.93 14.175L152.23 16.5ZM179.786 14.5H159.661V12.15H179.786V14.5ZM177.461 22.375H162.211V16.025H165.111V20.075H177.461V22.375ZM168.986 10.35H161.386V1.625H164.086V3.85H166.286V1.575H168.986V10.35ZM166.286 8V6.075H164.086V8H166.286ZM178.061 10.35H170.461V1.625H173.161V3.85H175.386V1.575H178.061V10.35ZM175.386 8V6.075H173.161V8H175.386ZM197.592 22.7H182.617V15.025H197.592V22.7ZM197.692 8.625H191.517V10.95H200.167V13.3H180.042V10.95H188.592V8.625H182.742V1.175H185.692V6.3H197.692V8.625ZM194.692 20.425V17.25H185.517V20.425H194.692ZM218.198 8.2H203.098V1.075H218.023V3.4H206.023V5.875H218.198V8.2ZM220.548 11.925H200.423V9.575H220.548V11.925ZM218.698 22.875H202.998V17.075H214.973V15.725H202.848V13.425H217.898V19.175H205.898V20.475H218.698V22.875ZM226.896 4.875V2.475H238.646V4.875H234.371C234.388 6.49167 234.871 7.90833 235.821 9.125C236.788 10.325 237.954 11.1417 239.321 11.575L237.721 13.875C236.838 13.5417 235.921 12.95 234.971 12.1C234.038 11.25 233.346 10.3333 232.896 9.35C232.563 10.4167 231.888 11.45 230.871 12.45C229.871 13.4333 228.821 14.1167 227.721 14.5L225.996 12.2C227.629 11.6 228.929 10.6583 229.896 9.375C230.879 8.09167 231.371 6.61667 231.371 4.95V4.875H226.896ZM244.546 16.85H241.621V8.975H238.271V6.625H241.621V0.699999H244.546V16.85ZM245.021 22.375H229.646V15.35H232.596V20.075H245.021V22.375ZM264.927 13.7H262.002V7.65H258.202V5.325H262.002V0.699999H264.927V13.7ZM259.827 10.575L258.152 12.85C257.235 12.4833 256.294 11.8833 255.327 11.05C254.36 10.2 253.652 9.29167 253.202 8.325C252.885 9.425 252.21 10.4583 251.177 11.425C250.16 12.375 249.11 13.0333 248.027 13.4L246.277 11.075C247.927 10.475 249.235 9.55 250.202 8.3C251.169 7.03333 251.652 5.575 251.652 3.925V1.725H254.677V3.775C254.677 5.40833 255.177 6.83333 256.177 8.05C257.194 9.26667 258.41 10.1083 259.827 10.575ZM265.077 18.475C265.077 19.8417 264.402 20.925 263.052 21.725C261.702 22.5417 259.819 22.95 257.402 22.95C255.035 22.95 253.177 22.5417 251.827 21.725C250.494 20.925 249.827 19.8417 249.827 18.475C249.827 17.075 250.494 15.975 251.827 15.175C253.16 14.3583 255.019 13.95 257.402 13.95C259.819 13.95 261.702 14.3583 263.052 15.175C264.402 15.975 265.077 17.075 265.077 18.475ZM257.402 16.3C255.969 16.3 254.844 16.4917 254.027 16.875C253.227 17.2583 252.827 17.7917 252.827 18.475C252.827 19.1417 253.227 19.6667 254.027 20.05C254.844 20.4167 255.969 20.6 257.402 20.6C258.885 20.6 260.027 20.4167 260.827 20.05C261.644 19.6667 262.052 19.1417 262.052 18.475C262.052 17.7917 261.644 17.2583 260.827 16.875C260.027 16.4917 258.885 16.3 257.402 16.3ZM285.308 22.975H282.383V0.699999H285.308V22.975ZM280.708 15.725L279.008 17.925C278.058 17.3417 277.091 16.45 276.108 15.25C275.141 14.05 274.474 12.8917 274.108 11.775C273.741 13.0417 273.049 14.3083 272.033 15.575C271.016 16.825 269.933 17.7667 268.783 18.4L267.008 16.25C270.691 13.8667 272.533 10.4417 272.533 5.975V2.575H275.558V5.825C275.558 10.2083 277.274 13.5083 280.708 15.725ZM306.214 22.975H303.414V11.8H301.439V21.95H298.689V1.1H301.439V9.475H303.414V0.699999H306.214V22.975ZM290.839 15.3C293.455 15.3833 295.605 15.2167 297.289 14.8L297.564 17.1C296.08 17.5 293.572 17.7 290.039 17.7H287.914V3.35H296.339V5.675C295.739 5.675 294.822 5.675 293.589 5.675C292.372 5.65833 291.455 5.65 290.839 5.65V15.3Z" fill="white"/>
<path d="M0 116L430 116" stroke="#E8E8E8"/>
<path d="M0 186L430 186" stroke="#E8E8E8"/>
<path d="M0 151L430 151" stroke="#E8E8E8"/>
<path d="M0 221L430 221" stroke="#E8E8E8"/>
<path d="M1.64 49.16V35.72H3.72L9.88 46.16H9.92V35.72H11.54V49.16H9.72L3.3 38.16H3.26V49.16H1.64ZM15.9836 49.34C15.0503 49.34 14.3036 49.1 13.7436 48.62C13.1836 48.14 12.9036 47.44 12.9036 46.52C12.9036 44.84 13.9036 43.8733 15.9036 43.62L18.5436 43.3V42.38C18.5436 41.6333 18.3636 41.1333 18.0036 40.88C17.6569 40.6267 17.0236 40.5 16.1036 40.5C15.4503 40.5 14.6569 40.5933 13.7236 40.78V39.56C14.6703 39.2 15.6836 39.02 16.7636 39.02C19.0703 39.02 20.2236 40 20.2236 41.96V49.16H18.8636L18.6836 48.32H18.5836C17.9703 49 17.1036 49.34 15.9836 49.34ZM16.4036 48.02C17.3369 48.02 18.0503 47.7933 18.5436 47.34V44.6L16.3436 44.82C15.7569 44.8867 15.3303 45.0467 15.0636 45.3C14.7969 45.5533 14.6636 45.9467 14.6636 46.48C14.6636 46.9867 14.8169 47.3733 15.1236 47.64C15.4436 47.8933 15.8703 48.02 16.4036 48.02ZM21.8795 49.16V39.22H23.4995V40.08H23.5995C24.6262 39.3733 25.6329 39.02 26.6195 39.02C27.7262 39.02 28.5195 39.3867 28.9995 40.12H29.0995C30.2195 39.3867 31.3195 39.02 32.3995 39.02C34.2262 39.02 35.1395 39.9333 35.1395 41.76V49.16H33.4595V42.12C33.4595 41.5333 33.3329 41.12 33.0795 40.88C32.8262 40.6267 32.3729 40.5 31.7195 40.5C31.0529 40.5 30.2529 40.7267 29.3195 41.18C29.3462 41.42 29.3595 41.6133 29.3595 41.76V49.16H27.6595V42.12C27.6595 41.5333 27.5329 41.12 27.2795 40.88C27.0262 40.6267 26.5795 40.5 25.9395 40.5C25.2462 40.5 24.4595 40.72 23.5795 41.16V49.16H21.8795ZM40.9175 49.34C39.3708 49.34 38.1908 48.9 37.3775 48.02C36.5775 47.1267 36.1775 45.9 36.1775 44.34V44.04C36.1775 42.4 36.5908 41.1533 37.4175 40.3C38.2575 39.4467 39.3042 39.02 40.5575 39.02C43.2375 39.02 44.5775 40.5867 44.5775 43.72V44.68H37.9375C37.9908 45.8267 38.2908 46.6467 38.8375 47.14C39.3842 47.6333 40.1708 47.88 41.1975 47.88C42.3042 47.88 43.3308 47.6267 44.2775 47.12V48.38C43.4375 49.02 42.3175 49.34 40.9175 49.34ZM40.4775 40.4C39.8242 40.4 39.2508 40.6267 38.7575 41.08C38.2775 41.52 38.0042 42.26 37.9375 43.3H42.7775C42.7775 42.2867 42.5842 41.5533 42.1975 41.1C41.8242 40.6333 41.2508 40.4 40.4775 40.4ZM45.7203 49.16V34.84H47.4403V49.16H45.7203ZM53.3316 49.34C51.7849 49.34 50.6049 48.9 49.7916 48.02C48.9916 47.1267 48.5916 45.9 48.5916 44.34V44.04C48.5916 42.4 49.0049 41.1533 49.8316 40.3C50.6716 39.4467 51.7182 39.02 52.9716 39.02C55.6516 39.02 56.9916 40.5867 56.9916 43.72V44.68H50.3516C50.4049 45.8267 50.7049 46.6467 51.2516 47.14C51.7982 47.6333 52.5849 47.88 53.6116 47.88C54.7182 47.88 55.7449 47.6267 56.6916 47.12V48.38C55.8516 49.02 54.7316 49.34 53.3316 49.34ZM52.8916 40.4C52.2382 40.4 51.6649 40.6267 51.1716 41.08C50.6916 41.52 50.4182 42.26 50.3516 43.3H55.1916C55.1916 42.2867 54.9982 41.5533 54.6116 41.1C54.2382 40.6333 53.6649 40.4 52.8916 40.4ZM60.6544 49.32C59.3077 49.32 58.2344 49.0867 57.4344 48.62V47.28C58.461 47.6933 59.4477 47.9 60.3944 47.9C61.821 47.9 62.5344 47.44 62.5344 46.52C62.5344 46.12 62.4077 45.8067 62.1544 45.58C61.9144 45.34 61.4944 45.14 60.8944 44.98L59.9544 44.72C59.1544 44.5067 58.541 44.1933 58.1144 43.78C57.6877 43.3667 57.4744 42.76 57.4744 41.96C57.4744 41.0533 57.761 40.34 58.3344 39.82C58.921 39.2867 59.7944 39.02 60.9544 39.02C61.9944 39.02 62.901 39.2133 63.6744 39.6V40.98C62.9277 40.6333 62.041 40.46 61.0144 40.46C59.7344 40.46 59.0944 40.9 59.0944 41.78C59.0944 42.18 59.201 42.48 59.4144 42.68C59.6277 42.88 60.001 43.0533 60.5344 43.2L61.4744 43.44C62.4744 43.7067 63.1744 44.0467 63.5744 44.46C63.9877 44.8733 64.1944 45.5067 64.1944 46.36C64.1944 47.32 63.881 48.0533 63.2544 48.56C62.6277 49.0667 61.761 49.32 60.6544 49.32ZM67.838 49.32C66.4913 49.32 65.418 49.0867 64.618 48.62V47.28C65.6446 47.6933 66.6313 47.9 67.578 47.9C69.0046 47.9 69.718 47.44 69.718 46.52C69.718 46.12 69.5913 45.8067 69.338 45.58C69.098 45.34 68.678 45.14 68.078 44.98L67.138 44.72C66.338 44.5067 65.7246 44.1933 65.298 43.78C64.8713 43.3667 64.658 42.76 64.658 41.96C64.658 41.0533 64.9446 40.34 65.518 39.82C66.1046 39.2867 66.978 39.02 68.138 39.02C69.178 39.02 70.0846 39.2133 70.858 39.6V40.98C70.1113 40.6333 69.2246 40.46 68.198 40.46C66.918 40.46 66.278 40.9 66.278 41.78C66.278 42.18 66.3846 42.48 66.598 42.68C66.8113 42.88 67.1846 43.0533 67.718 43.2L68.658 43.44C69.658 43.7067 70.358 44.0467 70.758 44.46C71.1713 44.8733 71.378 45.5067 71.378 46.36C71.378 47.32 71.0646 48.0533 70.438 48.56C69.8113 49.0667 68.9446 49.32 67.838 49.32ZM82.4555 49.38C80.4955 49.38 78.9621 48.8333 77.8555 47.74C76.7621 46.6467 76.2155 44.98 76.2155 42.74V42.34C76.2155 41.1133 76.3888 40.0467 76.7355 39.14C77.0821 38.22 77.5621 37.5067 78.1755 37C78.7888 36.48 79.4621 36.1 80.1955 35.86C80.9288 35.62 81.7355 35.5 82.6155 35.5C83.9621 35.5 85.1355 35.7733 86.1355 36.32V37.82C84.8955 37.2733 83.6755 37 82.4755 37C80.9555 37 79.8488 37.48 79.1555 38.44C78.4621 39.4 78.1155 40.6133 78.1155 42.08V42.7C78.1155 44.3667 78.4355 45.6533 79.0755 46.56C79.7155 47.4533 80.8621 47.9 82.5155 47.9C83.4221 47.9 84.2221 47.7733 84.9155 47.52V44.04H82.0955V42.58H86.6555V48.6C85.3888 49.12 83.9888 49.38 82.4555 49.38ZM90.675 49.34C89.7417 49.34 88.995 49.1 88.435 48.62C87.875 48.14 87.595 47.44 87.595 46.52C87.595 44.84 88.595 43.8733 90.595 43.62L93.235 43.3V42.38C93.235 41.6333 93.055 41.1333 92.695 40.88C92.3483 40.6267 91.715 40.5 90.795 40.5C90.1417 40.5 89.3483 40.5933 88.415 40.78V39.56C89.3617 39.2 90.375 39.02 91.455 39.02C93.7617 39.02 94.915 40 94.915 41.96V49.16H93.555L93.375 48.32H93.275C92.6617 49 91.795 49.34 90.675 49.34ZM91.095 48.02C92.0283 48.02 92.7417 47.7933 93.235 47.34V44.6L91.035 44.82C90.4483 44.8867 90.0217 45.0467 89.755 45.3C89.4883 45.5533 89.355 45.9467 89.355 46.48C89.355 46.9867 89.5083 47.3733 89.815 47.64C90.135 47.8933 90.5617 48.02 91.095 48.02ZM96.5709 49.16V39.22H98.1909V40.08H98.2909C99.2776 39.3733 100.391 39.02 101.631 39.02C102.618 39.02 103.344 39.24 103.811 39.68C104.278 40.12 104.511 40.8133 104.511 41.76V49.16H102.831V42.12C102.831 41.5333 102.698 41.12 102.431 40.88C102.164 40.6267 101.651 40.5 100.891 40.5C100.078 40.5 99.2043 40.72 98.2709 41.16V49.16H96.5709ZM109.676 52.1C106.676 52.1 105.176 51.38 105.176 49.94C105.176 49.4467 105.343 49.0333 105.676 48.7C106.023 48.3533 106.476 48.1 107.036 47.94V47.84C106.37 47.5867 106.036 47.1867 106.036 46.64C106.036 45.9867 106.416 45.3867 107.176 44.84C106.35 44.32 105.936 43.52 105.936 42.44V42.24C105.936 41.24 106.283 40.4533 106.976 39.88C107.683 39.3067 108.596 39.02 109.716 39.02C110.236 39.02 110.723 39.08 111.176 39.2H114.556V40.48H112.856C113.27 40.9067 113.476 41.4667 113.476 42.16V42.36C113.476 43.3733 113.123 44.1467 112.416 44.68C111.723 45.2133 110.816 45.48 109.696 45.48C109.11 45.48 108.563 45.4 108.056 45.24C107.776 45.4533 107.636 45.7067 107.636 46C107.636 46.24 107.71 46.4067 107.856 46.5C108.003 46.5933 108.243 46.64 108.576 46.64H111.296C113.403 46.64 114.456 47.48 114.456 49.16C114.456 51.12 112.863 52.1 109.676 52.1ZM109.636 50.76C110.756 50.76 111.543 50.66 111.996 50.46C112.45 50.26 112.676 49.9133 112.676 49.42C112.676 49.0067 112.55 48.7067 112.296 48.52C112.043 48.3333 111.603 48.24 110.976 48.24H108.176C107.376 48.52 106.976 49.0067 106.976 49.7C106.976 50.1267 107.17 50.4067 107.556 50.54C107.956 50.6867 108.65 50.76 109.636 50.76ZM109.696 44.2C111.096 44.2 111.796 43.6133 111.796 42.44V42.14C111.796 41.5267 111.61 41.0667 111.236 40.76C110.863 40.4533 110.35 40.3 109.696 40.3C109.043 40.3 108.536 40.46 108.176 40.78C107.816 41.1 107.636 41.54 107.636 42.1V42.4C107.636 43.6 108.323 44.2 109.696 44.2ZM117.736 49.32C116.39 49.32 115.316 49.0867 114.516 48.62V47.28C115.543 47.6933 116.53 47.9 117.476 47.9C118.903 47.9 119.616 47.44 119.616 46.52C119.616 46.12 119.49 45.8067 119.236 45.58C118.996 45.34 118.576 45.14 117.976 44.98L117.036 44.72C116.236 44.5067 115.623 44.1933 115.196 43.78C114.77 43.3667 114.556 42.76 114.556 41.96C114.556 41.0533 114.843 40.34 115.416 39.82C116.003 39.2867 116.876 39.02 118.036 39.02C119.076 39.02 119.983 39.2133 120.756 39.6V40.98C120.01 40.6333 119.123 40.46 118.096 40.46C116.816 40.46 116.176 40.9 116.176 41.78C116.176 42.18 116.283 42.48 116.496 42.68C116.71 42.88 117.083 43.0533 117.616 43.2L118.556 43.44C119.556 43.7067 120.256 44.0467 120.656 44.46C121.07 44.8733 121.276 45.5067 121.276 46.36C121.276 47.32 120.963 48.0533 120.336 48.56C119.71 49.0667 118.843 49.32 117.736 49.32ZM125.56 49.26C123.773 49.26 122.88 48.4467 122.88 46.82V40.64H121.46V39.22H122.88V36.86H124.58V39.22H127.08V40.64H124.58V46.58C124.58 47.06 124.68 47.4 124.88 47.6C125.093 47.7867 125.473 47.88 126.02 47.88C126.433 47.88 126.853 47.8267 127.28 47.72V48.88C126.693 49.1333 126.12 49.26 125.56 49.26ZM132.355 49.34C130.808 49.34 129.628 48.9 128.815 48.02C128.015 47.1267 127.615 45.9 127.615 44.34V44.04C127.615 42.4 128.028 41.1533 128.855 40.3C129.695 39.4467 130.742 39.02 131.995 39.02C134.675 39.02 136.015 40.5867 136.015 43.72V44.68H129.375C129.428 45.8267 129.728 46.6467 130.275 47.14C130.822 47.6333 131.608 47.88 132.635 47.88C133.742 47.88 134.768 47.6267 135.715 47.12V48.38C134.875 49.02 133.755 49.34 132.355 49.34ZM131.915 40.4C131.262 40.4 130.688 40.6267 130.195 41.08C129.715 41.52 129.442 42.26 129.375 43.3H134.215C134.215 42.2867 134.022 41.5533 133.635 41.1C133.262 40.6333 132.688 40.4 131.915 40.4ZM137.118 49.16V39.22H138.738V40.32H138.838C139.118 39.9733 139.504 39.6867 139.998 39.46C140.504 39.22 141.018 39.1 141.538 39.1C141.818 39.1 142.024 39.1267 142.158 39.18V40.7C141.878 40.66 141.624 40.64 141.398 40.64C140.451 40.64 139.591 40.8933 138.818 41.4V49.16H137.118ZM143.475 40.66V38.7H145.415V40.66H143.475ZM143.475 47.94V46H145.415V47.94H143.475ZM152.269 49.16V35.72H156.209C159.209 35.72 160.709 36.9933 160.709 39.54C160.709 41.2867 159.862 42.46 158.169 43.06V43.16L161.689 49.16H159.669L156.429 43.48H154.029V49.16H152.269ZM154.029 42.08H156.109C157.069 42.08 157.762 41.88 158.189 41.48C158.629 41.08 158.849 40.4467 158.849 39.58C158.849 38.74 158.629 38.14 158.189 37.78C157.762 37.42 157.062 37.24 156.089 37.24H154.029V42.08ZM165.414 49.34C164.428 49.34 163.674 49.0933 163.154 48.6C162.634 48.1067 162.374 47.38 162.374 46.42V39.22H164.054V46.14C164.054 46.7667 164.188 47.2133 164.454 47.48C164.721 47.7467 165.208 47.88 165.914 47.88C166.688 47.88 167.541 47.64 168.474 47.16V39.22H170.194V49.16H168.754L168.554 48.3H168.454C167.468 48.9933 166.454 49.34 165.414 49.34ZM171.963 49.16V34.84H173.683V49.16H171.963ZM179.574 49.34C178.027 49.34 176.847 48.9 176.034 48.02C175.234 47.1267 174.834 45.9 174.834 44.34V44.04C174.834 42.4 175.247 41.1533 176.074 40.3C176.914 39.4467 177.96 39.02 179.214 39.02C181.894 39.02 183.234 40.5867 183.234 43.72V44.68H176.594C176.647 45.8267 176.947 46.6467 177.494 47.14C178.04 47.6333 178.827 47.88 179.854 47.88C180.96 47.88 181.987 47.6267 182.934 47.12V48.38C182.094 49.02 180.974 49.34 179.574 49.34ZM179.134 40.4C178.48 40.4 177.907 40.6267 177.414 41.08C176.934 41.52 176.66 42.26 176.594 43.3H181.434C181.434 42.2867 181.24 41.5533 180.854 41.1C180.48 40.6333 179.907 40.4 179.134 40.4ZM186.897 49.32C185.55 49.32 184.477 49.0867 183.677 48.62V47.28C184.703 47.6933 185.69 47.9 186.637 47.9C188.063 47.9 188.777 47.44 188.777 46.52C188.777 46.12 188.65 45.8067 188.397 45.58C188.157 45.34 187.737 45.14 187.137 44.98L186.197 44.72C185.397 44.5067 184.783 44.1933 184.357 43.78C183.93 43.3667 183.717 42.76 183.717 41.96C183.717 41.0533 184.003 40.34 184.577 39.82C185.163 39.2867 186.037 39.02 187.197 39.02C188.237 39.02 189.143 39.2133 189.917 39.6V40.98C189.17 40.6333 188.283 40.46 187.257 40.46C185.977 40.46 185.337 40.9 185.337 41.78C185.337 42.18 185.443 42.48 185.657 42.68C185.87 42.88 186.243 43.0533 186.777 43.2L187.717 43.44C188.717 43.7067 189.417 44.0467 189.817 44.46C190.23 44.8733 190.437 45.5067 190.437 46.36C190.437 47.32 190.123 48.0533 189.497 48.56C188.87 49.0667 188.003 49.32 186.897 49.32ZM199.674 49.34C198.247 49.34 197.134 48.9067 196.334 48.04C195.547 47.16 195.154 45.9467 195.154 44.4V44.06C195.154 42.5133 195.567 41.2867 196.394 40.38C197.221 39.4733 198.321 39.02 199.694 39.02C201.121 39.02 202.234 39.46 203.034 40.34C203.834 41.22 204.234 42.44 204.234 44V44.32C204.234 45.8667 203.814 47.0933 202.974 48C202.147 48.8933 201.047 49.34 199.674 49.34ZM199.714 47.94C200.594 47.94 201.267 47.6467 201.734 47.06C202.214 46.46 202.454 45.6067 202.454 44.5V43.96C202.454 41.6 201.521 40.42 199.654 40.42C198.787 40.42 198.114 40.72 197.634 41.32C197.154 41.92 196.914 42.7733 196.914 43.88V44.44C196.914 46.7733 197.847 47.94 199.714 47.94ZM205.881 49.16V40.64H204.421V39.22H205.881V37.8C205.881 36.76 206.161 35.98 206.721 35.46C207.294 34.94 208.054 34.68 209.001 34.68C209.708 34.68 210.274 34.7933 210.701 35.02V36.24C210.208 36.1333 209.741 36.08 209.301 36.08C208.141 36.08 207.561 36.7 207.561 37.94V39.22H209.841V40.64H207.561V49.16H205.881ZM218.023 49.16V37.24H214.043V35.72H223.743V37.24H219.763V49.16H218.023ZM224.627 49.16V39.22H226.347V49.16H224.627ZM224.627 37.26V35.48H226.367V37.26H224.627ZM228.118 49.16V39.22H229.738V40.08H229.838C230.864 39.3733 231.871 39.02 232.858 39.02C233.964 39.02 234.758 39.3867 235.238 40.12H235.338C236.458 39.3867 237.558 39.02 238.638 39.02C240.464 39.02 241.378 39.9333 241.378 41.76V49.16H239.698V42.12C239.698 41.5333 239.571 41.12 239.318 40.88C239.064 40.6267 238.611 40.5 237.958 40.5C237.291 40.5 236.491 40.7267 235.558 41.18C235.584 41.42 235.598 41.6133 235.598 41.76V49.16H233.898V42.12C233.898 41.5333 233.771 41.12 233.518 40.88C233.264 40.6267 232.818 40.5 232.178 40.5C231.484 40.5 230.698 40.72 229.818 41.16V49.16H228.118ZM247.156 49.34C245.609 49.34 244.429 48.9 243.616 48.02C242.816 47.1267 242.416 45.9 242.416 44.34V44.04C242.416 42.4 242.829 41.1533 243.656 40.3C244.496 39.4467 245.542 39.02 246.796 39.02C249.476 39.02 250.816 40.5867 250.816 43.72V44.68H244.176C244.229 45.8267 244.529 46.6467 245.076 47.14C245.622 47.6333 246.409 47.88 247.436 47.88C248.542 47.88 249.569 47.6267 250.516 47.12V48.38C249.676 49.02 248.556 49.34 247.156 49.34ZM246.716 40.4C246.062 40.4 245.489 40.6267 244.996 41.08C244.516 41.52 244.242 42.26 244.176 43.3H249.016C249.016 42.2867 248.822 41.5533 248.436 41.1C248.062 40.6333 247.489 40.4 246.716 40.4ZM251.019 51.86L251.719 47.82H253.739L252.499 51.86H251.019ZM259.895 49.16V48.12L262.975 44.92C264.095 43.7467 264.909 42.7733 265.415 42C265.935 41.2133 266.195 40.3933 266.195 39.54C266.195 38.66 265.975 38.0133 265.535 37.6C265.095 37.1733 264.409 36.96 263.475 36.96C262.555 36.96 261.562 37.3133 260.495 38.02L260.075 36.66C261.275 35.86 262.522 35.46 263.815 35.46C265.175 35.46 266.222 35.8067 266.955 36.5C267.689 37.1933 268.055 38.1467 268.055 39.36C268.055 40.44 267.755 41.4333 267.155 42.34C266.569 43.2333 265.622 44.34 264.315 45.66L262.315 47.68H268.315V49.16H259.895ZM274.699 49.4C273.193 49.4 271.979 48.8733 271.059 47.82C270.153 46.7533 269.699 45.1267 269.699 42.94V41.88C269.699 39.6533 270.166 38.0333 271.099 37.02C272.033 35.9933 273.239 35.48 274.719 35.48C276.173 35.48 277.346 35.9867 278.239 37C279.146 38 279.599 39.6 279.599 41.8V42.96C279.599 45.1467 279.146 46.7667 278.239 47.82C277.346 48.8733 276.166 49.4 274.699 49.4ZM274.699 47.96C275.726 47.96 276.493 47.58 276.999 46.82C277.519 46.06 277.779 44.8467 277.779 43.18V41.8C277.779 38.5467 276.759 36.92 274.719 36.92C272.626 36.92 271.579 38.5 271.579 41.66V43.08C271.579 46.3333 272.619 47.96 274.699 47.96ZM283.396 49.24V37.48L280.956 38.02V37L284.196 35.5H285.156V49.24H283.396ZM289.739 49.24V37.48L287.299 38.02V37L290.539 35.5H291.499V49.24H289.739Z" fill="#E8E8E8"/>
<path d="M16.31 140.05H14.99V133.075H12.785V131.95H14.99V126.94H16.31V140.05ZM13.025 135.49L13.16 136.57C11.71 136.84 9.78 136.975 7.37 136.975H5.99V131.755H10.715V129.205H5.99V128.125H12.035V132.835H7.31V135.88C9.75 135.88 11.655 135.75 13.025 135.49ZM28.5535 134.845H27.2185V126.94H28.5535V134.845ZM25.9435 131.875L26.1385 132.985C24.5685 133.325 22.4285 133.525 19.7185 133.585H18.5185V127.81H19.8535V132.445C22.3035 132.445 24.3335 132.255 25.9435 131.875ZM28.6285 137.515C28.6285 138.305 28.2385 138.92 27.4585 139.36C26.6785 139.81 25.5785 140.035 24.1585 140.035C22.7585 140.035 21.6635 139.81 20.8735 139.36C20.0935 138.91 19.7035 138.295 19.7035 137.515C19.7035 136.735 20.0935 136.12 20.8735 135.67C21.6635 135.21 22.7585 134.98 24.1585 134.98C25.5785 134.98 26.6785 135.21 27.4585 135.67C28.2385 136.12 28.6285 136.735 28.6285 137.515ZM26.4535 138.595C27.0035 138.335 27.2785 137.975 27.2785 137.515C27.2785 137.055 27.0035 136.7 26.4535 136.45C25.9135 136.19 25.1485 136.06 24.1585 136.06C23.1985 136.06 22.4435 136.19 21.8935 136.45C21.3535 136.7 21.0835 137.055 21.0835 137.515C21.0835 137.975 21.3535 138.335 21.8935 138.595C22.4435 138.845 23.1985 138.97 24.1585 138.97C25.1485 138.97 25.9135 138.845 26.4535 138.595ZM31.827 135.865C34.597 135.865 36.587 135.72 37.797 135.43L37.917 136.51C36.547 136.79 34.487 136.945 31.737 136.975H30.507V128.155H36.777V129.22H31.827V131.86H36.447V132.94H31.827V135.865ZM40.152 126.94V132.055H42.192V133.165H40.152V140.05H38.832V126.94H40.152ZM53.0105 134.56H51.6755V126.94H53.0105V134.56ZM53.0105 139.87H44.4905V135.205H53.0105V139.87ZM51.6755 138.82V136.27H45.8105V138.82H51.6755ZM46.0355 127.675C46.9955 127.675 47.8105 127.975 48.4805 128.575C49.1505 129.165 49.4855 129.92 49.4855 130.84C49.4855 131.76 49.1555 132.505 48.4955 133.075C47.8355 133.645 47.0155 133.93 46.0355 133.93C45.0655 133.93 44.2455 133.645 43.5755 133.075C42.9155 132.505 42.5855 131.76 42.5855 130.84C42.5855 129.92 42.9155 129.165 43.5755 128.575C44.2455 127.975 45.0655 127.675 46.0355 127.675ZM46.0355 128.815C45.4155 128.815 44.9055 129.005 44.5055 129.385C44.1155 129.765 43.9205 130.245 43.9205 130.825C43.9205 131.415 44.1155 131.9 44.5055 132.28C44.9055 132.65 45.4155 132.835 46.0355 132.835C46.6555 132.835 47.1605 132.65 47.5505 132.28C47.9405 131.91 48.1355 131.43 48.1355 130.84C48.1355 130.25 47.9405 129.765 47.5505 129.385C47.1705 129.005 46.6655 128.815 46.0355 128.815Z" fill="#E8E8E8"/>
<path d="M15.875 173.5C15.875 174.29 15.48 174.91 14.69 175.36C13.91 175.81 12.83 176.035 11.45 176.035C10.07 176.035 8.985 175.81 8.195 175.36C7.415 174.91 7.025 174.29 7.025 173.5C7.025 172.7 7.415 172.075 8.195 171.625C8.985 171.165 10.07 170.935 11.45 170.935C12.83 170.935 13.91 171.165 14.69 171.625C15.48 172.075 15.875 172.7 15.875 173.5ZM5.6 164.935V163.84H12.755V164.935H9.89V165.295C9.89 166.175 10.195 166.965 10.805 167.665C11.425 168.355 12.14 168.82 12.95 169.06L12.215 170.125C11.615 169.885 11.035 169.51 10.475 169C9.915 168.48 9.5 167.925 9.23 167.335C9.02 167.955 8.61 168.565 8 169.165C7.39 169.765 6.74 170.205 6.05 170.485L5.255 169.45C6.155 169.13 6.925 168.585 7.565 167.815C8.215 167.035 8.54 166.205 8.54 165.325V164.935H5.6ZM14.51 173.5C14.51 173.03 14.235 172.67 13.685 172.42C13.145 172.16 12.4 172.03 11.45 172.03C10.5 172.03 9.755 172.16 9.215 172.42C8.675 172.67 8.405 173.03 8.405 173.5C8.405 173.96 8.675 174.32 9.215 174.58C9.755 174.83 10.5 174.955 11.45 174.955C12.4 174.955 13.145 174.83 13.685 174.58C14.235 174.32 14.51 173.96 14.51 173.5ZM17.675 167.5H15.695V171.01H14.375V162.94H15.695V166.39H17.675V167.5ZM28.5085 171.16H19.2685V166.945H26.8435V165.085H19.2685V164.02H28.1635V168.04H20.6035V170.08H28.5085V171.16ZM29.6335 174.325H17.7985V173.23H29.6335V174.325Z" fill="#E8E8E8"/>
<path d="M17.405 206.29H5.57V205.21H17.405V206.29ZM16.01 209.68C16.01 210.42 15.615 210.995 14.825 211.405C14.035 211.825 12.92 212.035 11.48 212.035C10.05 212.035 8.94 211.825 8.15 211.405C7.36 210.995 6.965 210.42 6.965 209.68C6.965 208.95 7.36 208.375 8.15 207.955C8.95 207.535 10.06 207.325 11.48 207.325C12.92 207.325 14.035 207.53 14.825 207.94C15.615 208.35 16.01 208.93 16.01 209.68ZM11.48 208.405C10.51 208.405 9.74 208.52 9.17 208.75C8.61 208.97 8.33 209.28 8.33 209.68C8.33 210.09 8.61 210.405 9.17 210.625C9.73 210.845 10.5 210.955 11.48 210.955C12.47 210.955 13.245 210.845 13.805 210.625C14.375 210.405 14.66 210.09 14.66 209.68C14.66 209.28 14.375 208.97 13.805 208.75C13.235 208.52 12.46 208.405 11.48 208.405ZM15.965 203.905H6.995V199.495H15.875V200.575H8.315V202.825H15.965V203.905ZM28.1035 211.87H19.2835V206.5H20.6185V208.105H26.7685V206.47H28.1035V211.87ZM28.0585 199.54C28.0585 201.37 27.9185 202.96 27.6385 204.31H29.6185V205.405H17.7835V204.31H26.3485C26.5885 203.2 26.7085 201.965 26.7085 200.605H19.3285V199.54H28.0585ZM26.7685 210.805V209.155H20.6185V210.805H26.7685Z" fill="#E8E8E8"/>
<path d="M230.125 140.065H228.79V135.385H223.57V134.305H235.405V135.385H230.125V140.065ZM234.055 132.55H225.055V127.585H226.39V131.47H234.055V132.55ZM236.099 128.995V127.915H243.269V128.995H240.404V129.52C240.404 130.39 240.724 131.18 241.364 131.89C242.004 132.59 242.729 133.065 243.539 133.315L242.804 134.38C242.204 134.14 241.609 133.76 241.019 133.24C240.429 132.71 240.004 132.155 239.744 131.575C239.544 132.185 239.119 132.795 238.469 133.405C237.819 134.015 237.144 134.465 236.444 134.755L235.694 133.705C236.594 133.385 237.379 132.835 238.049 132.055C238.719 131.265 239.054 130.43 239.054 129.55V128.995H236.099ZM237.779 135.4H246.569V140.05H245.219V136.48H237.779V135.4ZM246.554 134.71H245.219V131.395H242.789V130.315H245.219V126.94H246.554V134.71ZM260.162 132.175H258.212V136.75H256.907V126.94H258.212V131.065H260.162V132.175ZM258.677 139.72H249.857V135.895H251.177V138.64H258.677V139.72ZM256.172 134.395C254.862 134.595 253.467 134.72 251.987 134.77C250.667 134.84 249.322 134.875 247.952 134.875L247.757 133.765C248.967 133.765 249.887 133.755 250.517 133.735V130.93H251.837V133.705C253.497 133.655 254.892 133.545 256.022 133.375L256.172 134.395ZM255.107 127.93C255.107 130.06 254.982 131.59 254.732 132.52L253.442 132.31C253.662 131.57 253.772 130.47 253.772 129.01H248.657V127.93H255.107ZM271.326 134.665H270.051V131.365H268.551V134.545H267.306V127.18H268.551V130.285H270.051V126.94H271.326V134.665ZM265.926 127.915C265.896 131.005 264.281 133.3 261.081 134.8L260.256 133.78C261.466 133.32 262.451 132.66 263.211 131.8C263.971 130.93 264.406 129.995 264.516 128.995H260.841V127.915H265.926ZM271.326 140.065H270.006V136.405H262.476V135.34H271.326V140.065Z" fill="#E8E8E8"/>
<path d="M224.845 171.625H228.82V169.285H223.57V168.22H232.18C232.41 167.17 232.525 166.015 232.525 164.755H224.98V163.66H233.89C233.89 165.39 233.75 166.91 233.47 168.22H235.405V169.285H230.155V171.625H233.905V176.11H232.57V172.705H224.845V171.625ZM245.924 162.94V168.31H248.024V169.42H245.924V176.05H244.604V162.94H245.924ZM242.474 164.335C242.434 166.375 241.909 168.165 240.899 169.705C239.889 171.245 238.464 172.515 236.624 173.515L235.814 172.51C237.334 171.78 238.554 170.78 239.474 169.51C240.404 168.24 240.929 166.89 241.049 165.46H236.384V164.335H242.474Z" fill="#E8E8E8"/>
<path d="M225.445 207.745H225.985C228.325 207.745 230.145 207.605 231.445 207.325L231.595 208.405C230.235 208.685 228.235 208.835 225.595 208.855H224.125V200.32H230.32V201.415H225.445V207.745ZM233.695 198.94V204.055H235.735V205.165H233.695V212.05H232.375V198.94H233.695ZM247.634 206.29H235.799V205.21H247.634V206.29ZM246.194 211.87H237.239V207.565H246.194V211.87ZM244.874 210.82V208.615H238.574V210.82H244.874ZM245.024 199.945C245.824 200.395 246.224 201 246.224 201.76C246.224 202.52 245.824 203.13 245.024 203.59C244.224 204.04 243.119 204.265 241.709 204.265C240.299 204.265 239.194 204.04 238.394 203.59C237.604 203.13 237.209 202.52 237.209 201.76C237.209 201 237.604 200.395 238.394 199.945C239.194 199.495 240.299 199.27 241.709 199.27C243.129 199.27 244.234 199.495 245.024 199.945ZM243.989 202.795C244.559 202.535 244.844 202.19 244.844 201.76C244.844 201.33 244.559 200.985 243.989 200.725C243.429 200.465 242.669 200.335 241.709 200.335C240.759 200.335 240.004 200.465 239.444 200.725C238.884 200.985 238.604 201.33 238.604 201.76C238.604 202.19 238.884 202.535 239.444 202.795C240.004 203.055 240.759 203.185 241.709 203.185C242.659 203.185 243.419 203.055 243.989 202.795ZM260.877 207.685C261.657 208.125 262.047 208.735 262.047 209.515C262.047 210.295 261.657 210.905 260.877 211.345C260.097 211.795 258.997 212.02 257.577 212.02C256.177 212.02 255.082 211.795 254.292 211.345C253.512 210.905 253.122 210.295 253.122 209.515C253.122 208.735 253.512 208.125 254.292 207.685C255.082 207.235 256.177 207.01 257.577 207.01C258.997 207.01 260.097 207.235 260.877 207.685ZM261.972 206.86H260.637V204.625H258.702V203.575H260.637V202.24H258.702V201.205H260.637V198.94H261.972V206.86ZM259.872 210.55C260.422 210.3 260.697 209.955 260.697 209.515C260.697 209.075 260.422 208.73 259.872 208.48C259.332 208.23 258.567 208.105 257.577 208.105C256.617 208.105 255.862 208.23 255.312 208.48C254.772 208.73 254.502 209.075 254.502 209.515C254.502 209.955 254.772 210.3 255.312 210.55C255.862 210.79 256.617 210.91 257.577 210.91C258.567 210.91 259.332 210.79 259.872 210.55ZM258.687 204.925L258.792 205.945C258.172 206.065 257.092 206.165 255.552 206.245C254.262 206.325 252.857 206.375 251.337 206.395L251.187 205.225H252.882L252.537 201.745L253.842 201.595L254.082 205.21C254.822 205.19 255.382 205.17 255.762 205.15L256.017 201.565L257.322 201.715L256.947 205.09C257.597 205.06 258.177 205.005 258.687 204.925ZM258.417 200.905H251.562V199.825H258.417V200.905ZM274.201 211.87H265.756V207.28H274.201V211.87ZM263.746 200.98V199.885H270.916V200.98H268.051V201.49C268.051 202.36 268.371 203.15 269.011 203.86C269.651 204.56 270.376 205.035 271.186 205.285L270.451 206.35C269.841 206.11 269.241 205.73 268.651 205.21C268.071 204.68 267.651 204.125 267.391 203.545C267.191 204.155 266.766 204.765 266.116 205.375C265.466 205.985 264.791 206.435 264.091 206.725L263.341 205.69C264.241 205.36 265.026 204.805 265.696 204.025C266.366 203.235 266.701 202.4 266.701 201.52V200.98H263.746ZM272.866 210.805V208.33H267.076V210.805H272.866ZM274.201 206.62H272.866V203.35H270.421V202.27H272.866V198.94H274.201V206.62Z" fill="#E8E8E8"/>
<path d="M9.765 64.095C10.545 64.515 10.935 65.135 10.935 65.955C10.935 66.775 10.545 67.395 9.765 67.815C8.985 68.235 7.885 68.445 6.465 68.445C5.055 68.445 3.965 68.235 3.195 67.815C2.425 67.395 2.04 66.775 2.04 65.955C2.04 65.135 2.425 64.515 3.195 64.095C3.975 63.675 5.07 63.465 6.48 63.465C7.9 63.465 8.995 63.675 9.765 64.095ZM6.48 64.29C5.41 64.29 4.565 64.43 3.945 64.71C3.335 64.99 3.03 65.405 3.03 65.955C3.03 66.505 3.33 66.92 3.93 67.2C4.54 67.48 5.385 67.62 6.465 67.62C7.555 67.62 8.41 67.48 9.03 67.2C9.66 66.92 9.975 66.505 9.975 65.955C9.975 65.405 9.66 64.99 9.03 64.71C8.41 64.43 7.56 64.29 6.48 64.29ZM5.4 73.245H4.44V70.35H0.57V69.525H12.405V70.35H9.075V73.245H8.115V70.35H5.4V73.245ZM11.01 75.6H2.07V71.985H3.03V74.79H11.01V75.6ZM22.0385 72.045C22.8185 72.445 23.2085 73.02 23.2085 73.77C23.2085 74.52 22.8185 75.09 22.0385 75.48C21.2585 75.88 20.1485 76.08 18.7085 76.08C17.2785 76.08 16.1735 75.875 15.3935 75.465C14.6135 75.065 14.2235 74.5 14.2235 73.77C14.2235 73.05 14.6135 72.485 15.3935 72.075C16.1835 71.655 17.2885 71.445 18.7085 71.445C20.1485 71.445 21.2585 71.645 22.0385 72.045ZM24.0335 67.41L23.5835 68.22C22.4535 68.02 21.4335 67.66 20.5235 67.14C19.6235 66.62 19.0185 66.06 18.7085 65.46C18.4585 66.06 17.8885 66.62 16.9985 67.14C16.1085 67.66 15.0785 68.015 13.9085 68.205L13.4585 67.41C14.1885 67.33 14.8985 67.16 15.5885 66.9C16.2785 66.63 16.8735 66.265 17.3735 65.805C17.8735 65.345 18.1535 64.845 18.2135 64.305H13.9385V63.495H23.4635V64.305H19.2335C19.2935 64.845 19.5885 65.35 20.1185 65.82C20.6585 66.28 21.2735 66.645 21.9635 66.915C22.6535 67.175 23.3435 67.34 24.0335 67.41ZM18.7085 72.27C17.6185 72.27 16.7635 72.405 16.1435 72.675C15.5235 72.935 15.2135 73.3 15.2135 73.77C15.2135 74.24 15.5235 74.605 16.1435 74.865C16.7635 75.125 17.6185 75.255 18.7085 75.255C19.8085 75.255 20.6685 75.13 21.2885 74.88C21.9085 74.62 22.2185 74.25 22.2185 73.77C22.2185 73.3 21.9085 72.935 21.2885 72.675C20.6685 72.405 19.8085 72.27 18.7085 72.27ZM24.6335 70.26H12.7985V69.45H18.2285V67.5H19.1885V69.45H24.6335V70.26ZM35.707 72.48H34.747V62.94H35.707V72.48ZM35.977 75.585H27.232V71.595H28.192V74.775H35.977V75.585ZM31.732 70.395H25.687V63.84H26.647V66.15H30.772V63.84H31.732V70.395ZM30.772 69.585V66.96H26.647V69.585H30.772ZM52.506 67.2H50.466V70.425H49.506V62.94H50.466V66.39H52.506V67.2ZM50.481 75.855H42.321V71.115H50.481V75.855ZM49.521 75.045V71.94H43.281V75.045H49.521ZM40.956 63.885H46.956C46.816 65.615 46.211 67.03 45.141 68.13C44.071 69.23 42.651 70.055 40.881 70.605L40.371 69.78C41.761 69.48 42.976 68.86 44.016 67.92C45.066 66.97 45.681 65.9 45.861 64.71H40.956V63.885ZM63.0095 67.77H59.0645V69.51H64.5095V70.335H52.6745V69.51H58.1045V67.77H54.2195V63.48H62.9345V64.29H55.1795V66.945H63.0095V67.77ZM54.0095 71.82H62.9495V76.155H61.9895V72.645H54.0095V71.82ZM69.1134 75.9V63.42H69.9534V75.9H69.1134ZM75.2675 66.525V65.7H82.4675V66.525H79.3175V66.63C79.3175 67.34 79.6725 67.975 80.3825 68.535C81.0925 69.095 81.8925 69.47 82.7825 69.66L82.3175 70.425C81.5575 70.205 80.8525 69.885 80.2025 69.465C79.5625 69.045 79.1125 68.565 78.8525 68.025C78.6625 68.595 78.2325 69.13 77.5625 69.63C76.9025 70.13 76.1525 70.515 75.3125 70.785L74.8625 70.065C75.8525 69.805 76.6825 69.36 77.3525 68.73C78.0225 68.09 78.3575 67.385 78.3575 66.615V66.525H75.2675ZM85.2125 76.05H84.2525V62.94H85.2125V76.05ZM83.4425 73.14C82.1025 73.29 80.5425 73.405 78.7625 73.485C77.0725 73.585 75.7525 73.63 74.8025 73.62L74.6375 72.75C76.1575 72.75 77.4075 72.725 78.3875 72.675V69.975H79.3325V72.615C81.2825 72.525 82.6225 72.43 83.3525 72.33L83.4425 73.14ZM77.0825 64.515V63.69H80.7275V64.515H77.0825ZM97.4561 72.465H96.4961V62.94H97.4561V72.465ZM97.7261 75.585H88.9811V71.58H89.9411V74.775H97.7261V75.585ZM93.5411 70.125H87.4511V64.185H93.5411V70.125ZM92.5811 69.3V64.995H88.4111V69.3H92.5811ZM109.685 70.74H108.725V62.94H109.685V70.74ZM106.715 69.105L106.13 69.87C105.42 69.51 104.78 69.05 104.21 68.49C103.64 67.93 103.235 67.325 102.995 66.675C102.605 67.975 101.51 69.165 99.7096 70.245L99.1096 69.51C100.09 69.03 100.895 68.385 101.525 67.575C102.165 66.765 102.485 65.86 102.485 64.86V63.585H103.445V64.83C103.445 65.81 103.78 66.69 104.45 67.47C105.12 68.25 105.875 68.795 106.715 69.105ZM109.685 76.05H108.725V72.285H100.985V71.475H109.685V76.05ZM120.079 72.72H114.964V64.245H115.924V67.59H119.134V64.245H120.079V72.72ZM125.464 76.05H124.504V69.225H122.704V75.36H121.759V63.27H122.704V68.4H124.504V62.94H125.464V76.05ZM119.134 71.895V68.415H115.924V71.895H119.134ZM135.907 64.35C136.727 64.86 137.137 65.545 137.137 66.405C137.137 67.265 136.727 67.955 135.907 68.475C135.087 68.995 133.967 69.255 132.547 69.255C131.127 69.255 130.012 68.995 129.202 68.475C128.392 67.955 127.987 67.265 127.987 66.405C127.987 65.545 128.392 64.86 129.202 64.35C130.012 63.83 131.127 63.57 132.547 63.57C133.967 63.57 135.087 63.83 135.907 64.35ZM132.547 64.455C131.427 64.455 130.542 64.63 129.892 64.98C129.252 65.33 128.932 65.805 128.932 66.405C128.932 67.015 129.252 67.495 129.892 67.845C130.532 68.185 131.417 68.355 132.547 68.355C133.687 68.355 134.577 68.185 135.217 67.845C135.867 67.495 136.192 67.015 136.192 66.405C136.192 65.805 135.867 65.33 135.217 64.98C134.577 64.63 133.687 64.455 132.547 64.455ZM133.027 76.065H132.067V71.4H126.652V70.59H138.487V71.4H133.027V76.065ZM143.091 75.9V63.42H143.931V75.9H143.091ZM160.735 69.345H158.545V76.05H157.585V62.94H158.545V68.52H160.735V69.345ZM154.165 64.755H150.37V63.9H154.165V64.755ZM156.145 66.93H148.48V66.12H156.145V66.93ZM155.44 70.56C155.44 71.32 155.16 71.955 154.6 72.465C154.04 72.965 153.315 73.215 152.425 73.215C151.535 73.215 150.805 72.965 150.235 72.465C149.675 71.955 149.395 71.32 149.395 70.56C149.395 69.79 149.675 69.15 150.235 68.64C150.795 68.13 151.525 67.875 152.425 67.875C153.315 67.875 154.04 68.13 154.6 68.64C155.16 69.15 155.44 69.79 155.44 70.56ZM153.895 71.895C154.285 71.545 154.48 71.1 154.48 70.56C154.48 70.02 154.285 69.575 153.895 69.225C153.505 68.875 153.015 68.7 152.425 68.7C151.835 68.7 151.345 68.875 150.955 69.225C150.565 69.575 150.37 70.02 150.37 70.56C150.37 71.1 150.565 71.545 150.955 71.895C151.345 72.245 151.835 72.42 152.425 72.42C153.015 72.42 153.505 72.245 153.895 71.895ZM171.539 73.605C171.539 74.365 171.154 74.96 170.384 75.39C169.624 75.83 168.549 76.05 167.159 76.05C165.769 76.05 164.694 75.83 163.934 75.39C163.174 74.96 162.794 74.365 162.794 73.605C162.794 72.835 163.174 72.23 163.934 71.79C164.694 71.35 165.769 71.13 167.159 71.13C168.549 71.13 169.624 71.35 170.384 71.79C171.154 72.23 171.539 72.835 171.539 73.605ZM167.159 71.97C166.089 71.97 165.254 72.115 164.654 72.405C164.064 72.685 163.769 73.085 163.769 73.605C163.769 74.115 164.064 74.515 164.654 74.805C165.254 75.085 166.089 75.225 167.159 75.225C168.229 75.225 169.064 75.085 169.664 74.805C170.264 74.515 170.564 74.115 170.564 73.605C170.564 73.085 170.264 72.685 169.664 72.405C169.074 72.115 168.239 71.97 167.159 71.97ZM161.219 64.77V63.96H168.104V64.77H165.134V65.565C165.134 66.385 165.464 67.16 166.124 67.89C166.794 68.61 167.554 69.11 168.404 69.39L167.864 70.17C167.194 69.9 166.549 69.485 165.929 68.925C165.319 68.365 164.884 67.79 164.624 67.2C164.464 67.8 164.054 68.425 163.394 69.075C162.734 69.725 162.034 70.215 161.294 70.545L160.754 69.81C161.634 69.46 162.424 68.875 163.124 68.055C163.824 67.235 164.174 66.405 164.174 65.565V64.77H161.219ZM170.474 67.125H167.849V66.315H170.474V62.94H171.434V71.1H170.474V67.125ZM182.237 64.35C183.057 64.86 183.467 65.545 183.467 66.405C183.467 67.265 183.057 67.955 182.237 68.475C181.417 68.995 180.297 69.255 178.877 69.255C177.457 69.255 176.342 68.995 175.532 68.475C174.722 67.955 174.317 67.265 174.317 66.405C174.317 65.545 174.722 64.86 175.532 64.35C176.342 63.83 177.457 63.57 178.877 63.57C180.297 63.57 181.417 63.83 182.237 64.35ZM178.877 64.455C177.757 64.455 176.872 64.63 176.222 64.98C175.582 65.33 175.262 65.805 175.262 66.405C175.262 67.015 175.582 67.495 176.222 67.845C176.862 68.185 177.747 68.355 178.877 68.355C180.017 68.355 180.907 68.185 181.547 67.845C182.197 67.495 182.522 67.015 182.522 66.405C182.522 65.805 182.197 65.33 181.547 64.98C180.907 64.63 180.017 64.455 178.877 64.455ZM179.357 76.065H178.397V71.4H172.982V70.59H184.817V71.4H179.357V76.065ZM194.056 72.72H188.941V64.245H189.901V67.59H193.111V64.245H194.056V72.72ZM199.441 76.05H198.481V69.225H196.681V75.36H195.736V63.27H196.681V68.4H198.481V62.94H199.441V76.05ZM193.111 71.895V68.415H189.901V71.895H193.111ZM209.885 64.35C210.705 64.86 211.115 65.545 211.115 66.405C211.115 67.265 210.705 67.955 209.885 68.475C209.065 68.995 207.945 69.255 206.525 69.255C205.105 69.255 203.99 68.995 203.18 68.475C202.37 67.955 201.965 67.265 201.965 66.405C201.965 65.545 202.37 64.86 203.18 64.35C203.99 63.83 205.105 63.57 206.525 63.57C207.945 63.57 209.065 63.83 209.885 64.35ZM206.525 64.455C205.405 64.455 204.52 64.63 203.87 64.98C203.23 65.33 202.91 65.805 202.91 66.405C202.91 67.015 203.23 67.495 203.87 67.845C204.51 68.185 205.395 68.355 206.525 68.355C207.665 68.355 208.555 68.185 209.195 67.845C209.845 67.495 210.17 67.015 210.17 66.405C210.17 65.805 209.845 65.33 209.195 64.98C208.555 64.63 207.665 64.455 206.525 64.455ZM207.005 76.065H206.045V71.4H200.63V70.59H212.465V71.4H207.005V76.065Z" fill="#E8E8E8" fill-opacity="0.8"/>
<path d="M145.753 166.2H143.278V165.39H145.753V161.94H146.713V169.56H145.753V166.2ZM146.728 174.855H138.403V170.25H146.728V174.855ZM145.768 174.045V171.06H139.348V174.045H145.768ZM142.453 168.795H136.708V162.675H137.668V164.91H141.493V162.675H142.453V168.795ZM141.493 167.985V165.72H137.668V167.985H141.493ZM148.996 164.1V163.29H156.091V164.1H153.001V164.46C153.001 164.95 153.116 165.41 153.346 165.84C153.576 166.27 153.876 166.635 154.246 166.935C154.616 167.225 154.991 167.47 155.371 167.67C155.761 167.86 156.151 168.01 156.541 168.12L156.061 168.87C155.311 168.61 154.601 168.23 153.931 167.73C153.261 167.23 152.796 166.665 152.536 166.035C152.316 166.715 151.891 167.33 151.261 167.88C150.631 168.43 149.906 168.865 149.086 169.185L148.591 168.45C149.011 168.3 149.411 168.115 149.791 167.895C150.181 167.665 150.551 167.39 150.901 167.07C151.251 166.74 151.531 166.35 151.741 165.9C151.951 165.45 152.056 164.975 152.056 164.475V164.1H148.996ZM158.926 175.05H157.966V161.94H158.926V175.05ZM156.991 171.915C155.931 172.045 154.426 172.175 152.476 172.305C151.166 172.395 149.841 172.45 148.501 172.47L148.351 171.6C149.391 171.6 150.626 171.57 152.056 171.51V168.555H153.016V171.45C154.966 171.32 156.266 171.205 156.916 171.105L156.991 171.915ZM164.7 174.9V162.42H165.54V174.9H164.7ZM180.529 169.23H171.694V163.29H180.394V164.115H172.654V168.42H180.529V169.23ZM181.969 173.22H170.134V172.41H181.969V173.22ZM194.573 168.105H192.383V175.05H191.423V161.94H192.383V167.28H194.573V168.105ZM190.313 171.36C188.033 171.7 185.558 171.87 182.888 171.87V166.935H187.808V163.995H182.888V163.17H188.768V167.745H183.848V171.03C184.718 171.03 185.788 170.99 187.058 170.91C188.338 170.82 189.383 170.695 190.193 170.535L190.313 171.36ZM201.041 171.66H195.116V163.335H201.041V171.66ZM200.081 170.835V164.16H196.076V170.835H200.081ZM206.831 168.105H204.611V175.05H203.651V161.94H204.611V167.28H206.831V168.105Z" fill="#969696"/>
<path d="M177.511 137.46V128.445L175.621 128.91V128.28L177.961 127.185H178.516V137.46H177.511ZM182.918 137.52C181.788 137.52 180.893 137.28 180.233 136.8L180.473 135.93C180.763 136.12 181.128 136.28 181.568 136.41C182.008 136.54 182.418 136.605 182.798 136.605C183.648 136.605 184.303 136.425 184.763 136.065C185.233 135.705 185.468 135.205 185.468 134.565C185.468 133.925 185.238 133.44 184.778 133.11C184.318 132.77 183.683 132.6 182.873 132.6H181.898V131.655H182.813C183.493 131.665 184.038 131.505 184.448 131.175C184.858 130.845 185.063 130.39 185.063 129.81C185.063 128.67 184.368 128.1 182.978 128.1C182.328 128.1 181.573 128.35 180.713 128.85L180.548 127.98C180.838 127.76 181.243 127.57 181.763 127.41C182.283 127.25 182.753 127.17 183.173 127.17C184.083 127.17 184.808 127.39 185.348 127.83C185.898 128.27 186.173 128.875 186.173 129.645C186.173 130.795 185.533 131.58 184.253 132C185.783 132.3 186.548 133.15 186.548 134.55C186.548 135.42 186.213 136.135 185.543 136.695C184.883 137.245 184.008 137.52 182.918 137.52ZM190.209 137.52C189.079 137.52 188.184 137.28 187.524 136.8L187.764 135.93C188.054 136.12 188.419 136.28 188.859 136.41C189.299 136.54 189.709 136.605 190.089 136.605C190.939 136.605 191.594 136.425 192.054 136.065C192.524 135.705 192.759 135.205 192.759 134.565C192.759 133.925 192.529 133.44 192.069 133.11C191.609 132.77 190.974 132.6 190.164 132.6H189.189V131.655H190.104C190.784 131.665 191.329 131.505 191.739 131.175C192.149 130.845 192.354 130.39 192.354 129.81C192.354 128.67 191.659 128.1 190.269 128.1C189.619 128.1 188.864 128.35 188.004 128.85L187.839 127.98C188.129 127.76 188.534 127.57 189.054 127.41C189.574 127.25 190.044 127.17 190.464 127.17C191.374 127.17 192.099 127.39 192.639 127.83C193.189 128.27 193.464 128.875 193.464 129.645C193.464 130.795 192.824 131.58 191.544 132C193.074 132.3 193.839 133.15 193.839 134.55C193.839 135.42 193.504 136.135 192.834 136.695C192.174 137.245 191.299 137.52 190.209 137.52ZM204.851 131.4H196.181V126.465H197.141V128.16H203.891V126.465H204.851V131.4ZM200.966 136.35H200.006V133.71H194.591V132.9H206.426V133.71H200.966V136.35ZM203.891 130.575V128.97H197.141V130.575H203.891ZM205.046 138.6H196.181V135.09H197.141V137.79H205.046V138.6Z" fill="#969696"/>
<path d="M132.005 208.62C132.005 209.37 131.615 209.96 130.835 210.39C130.055 210.82 128.96 211.035 127.55 211.035C126.13 211.035 125.03 210.82 124.25 210.39C123.48 209.96 123.095 209.37 123.095 208.62C123.095 207.86 123.48 207.265 124.25 206.835C125.03 206.405 126.13 206.19 127.55 206.19C128.96 206.19 130.055 206.405 130.835 206.835C131.615 207.265 132.005 207.86 132.005 208.62ZM130.1 209.805C130.71 209.525 131.015 209.13 131.015 208.62C131.015 208.11 130.71 207.715 130.1 207.435C129.49 207.155 128.64 207.015 127.55 207.015C126.45 207.015 125.595 207.155 124.985 207.435C124.375 207.715 124.07 208.11 124.07 208.62C124.07 209.13 124.375 209.525 124.985 209.805C125.605 210.085 126.46 210.225 127.55 210.225C128.64 210.225 129.49 210.085 130.1 209.805ZM128.84 204.705L128.33 205.47C127.72 205.29 127.11 204.95 126.5 204.45C125.89 203.94 125.43 203.385 125.12 202.785C124.91 203.385 124.49 203.975 123.86 204.555C123.24 205.125 122.54 205.55 121.76 205.83L121.235 205.095C122.115 204.845 122.9 204.355 123.59 203.625C124.29 202.885 124.64 202.13 124.64 201.36V201.24H121.7V200.43H128.51V201.24H125.615V201.345C125.615 202.075 125.95 202.775 126.62 203.445C127.29 204.105 128.03 204.525 128.84 204.705ZM131.9 197.94V206.13H130.94V203.01H128.375V202.185H130.94V197.94H131.9ZM126.86 199.155H123.365V198.345H126.86V199.155ZM144.774 204.525L144.234 205.305C143.124 204.945 142.094 204.37 141.144 203.58C140.194 202.79 139.594 202.065 139.344 201.405C139.134 202.075 138.564 202.805 137.634 203.595C136.704 204.375 135.659 204.935 134.499 205.275L133.974 204.495C134.704 204.345 135.439 204.04 136.179 203.58C136.929 203.12 137.564 202.55 138.084 201.87C138.604 201.19 138.864 200.52 138.864 199.86V198.96H139.854V199.86C139.854 200.83 140.394 201.785 141.474 202.725C142.554 203.655 143.654 204.255 144.774 204.525ZM145.284 209.37H133.449V208.545H138.864V205.185H139.824V208.545H145.284V209.37ZM151.152 200.505V199.725H155.397V197.94H156.357V207.435H155.397V202.95H151.152V202.155H155.397V200.505H151.152ZM153.057 205.185C151.237 205.505 149.027 205.665 146.427 205.665V198.915H147.387V204.825C149.447 204.825 151.292 204.675 152.922 204.375L153.057 205.185ZM156.777 210.66H147.987V206.865H148.947V209.85H156.777V210.66ZM169.966 203.055H167.926V207.81H166.966V197.94H167.926V202.245H169.966V203.055ZM168.496 210.735H159.796V206.94H160.741V209.91H168.496V210.735ZM166.081 205.275C164.771 205.475 163.351 205.605 161.821 205.665C160.591 205.735 159.286 205.77 157.906 205.77L157.726 204.9C159.056 204.9 160.036 204.89 160.666 204.87V201.9H161.626V204.84C163.516 204.77 164.961 204.65 165.961 204.48L166.081 205.275ZM165.016 198.99C165.016 200.95 164.876 202.45 164.596 203.49L163.666 203.34C163.906 202.47 164.026 201.29 164.026 199.8H158.596V198.99H165.016ZM182.194 202.32H180.154V205.77H179.194V197.94H180.154V201.495H182.194V202.32ZM180.169 210.855H171.799V206.55H180.169V210.855ZM179.209 210.045V207.36H172.744V210.045H179.209ZM177.874 204.885C175.804 205.175 173.399 205.315 170.659 205.305V201.465H175.399V199.53H170.644V198.72H176.359V202.29H171.619V204.465C173.969 204.515 176.014 204.38 177.754 204.06L177.874 204.885ZM193.163 210.87H183.908V207.975H191.693V206.79H183.818V205.965H187.778V204.675H182.363V203.85H194.198V204.675H188.738V205.965H192.653V208.785H184.868V210.06H193.163V210.87ZM192.608 202.755H183.968V198.375H184.928V199.74H191.648V198.375H192.608V202.755ZM191.648 201.93V200.55H184.928V201.93H191.648ZM204.611 197.94V203.535H206.831V204.36H204.611V211.05H203.651V197.94H204.611ZM201.161 199.365C201.121 201.415 200.571 203.19 199.511 204.69C198.451 206.19 197.051 207.41 195.311 208.35L194.726 207.585C196.376 206.765 197.661 205.715 198.581 204.435C199.511 203.145 200.036 201.73 200.156 200.19H195.161V199.365H201.161Z" fill="#969696"/>
<path d="M364.036 137.655V135.24H359.356V134.385L364.141 127.185H365.011V134.34H366.781V135.24H365.011V137.655H364.036ZM360.406 134.34H364.036V128.895L360.406 134.34ZM366.567 139.32L367.152 136.395H368.367L367.272 139.32H366.567ZM370.481 137.445L374.486 128.295H369.266V127.395H375.656V128.085L371.651 137.445H370.481ZM376.261 137.37V136.725L378.736 134.16C379.566 133.3 380.166 132.585 380.536 132.015C380.906 131.445 381.091 130.825 381.091 130.155C381.091 129.465 380.921 128.95 380.581 128.61C380.251 128.27 379.731 128.1 379.021 128.1C378.271 128.1 377.511 128.385 376.741 128.955L376.381 128.1C377.341 127.47 378.261 127.155 379.141 127.155C380.121 127.155 380.876 127.42 381.406 127.95C381.946 128.47 382.216 129.18 382.216 130.08C382.216 130.87 382.006 131.59 381.586 132.24C381.176 132.88 380.456 133.725 379.426 134.775L377.761 136.44H382.471V137.37H376.261ZM387.274 137.55C386.194 137.55 385.319 137.155 384.649 136.365C383.989 135.575 383.659 134.375 383.659 132.765V131.88C383.659 130.23 383.994 129.035 384.664 128.295C385.334 127.545 386.209 127.17 387.289 127.17C388.359 127.17 389.214 127.535 389.854 128.265C390.494 128.995 390.814 130.18 390.814 131.82V132.78C390.814 134.39 390.489 135.59 389.839 136.38C389.199 137.16 388.344 137.55 387.274 137.55ZM387.274 136.65C388.084 136.65 388.694 136.355 389.104 135.765C389.514 135.175 389.719 134.24 389.719 132.96V131.79C389.719 129.31 388.909 128.07 387.289 128.07C385.619 128.07 384.784 129.29 384.784 131.73V132.9C384.784 135.4 385.614 136.65 387.274 136.65ZM391.428 139.32L392.013 136.395H393.228L392.133 139.32H391.428ZM396.317 137.46V128.445L394.427 128.91V128.28L396.767 127.185H397.322V137.46H396.317ZM399.953 137.445L403.958 128.295H398.738V127.395H405.128V128.085L401.123 137.445H399.953ZM405.733 137.37V136.725L408.208 134.16C409.038 133.3 409.638 132.585 410.008 132.015C410.378 131.445 410.563 130.825 410.563 130.155C410.563 129.465 410.393 128.95 410.053 128.61C409.723 128.27 409.203 128.1 408.493 128.1C407.743 128.1 406.983 128.385 406.213 128.955L405.853 128.1C406.813 127.47 407.733 127.155 408.613 127.155C409.593 127.155 410.348 127.42 410.878 127.95C411.418 128.47 411.688 129.18 411.688 130.08C411.688 130.87 411.478 131.59 411.058 132.24C410.648 132.88 409.928 133.725 408.898 134.775L407.233 136.44H411.943V137.37H405.733ZM423.376 136.605C423.376 137.365 422.986 137.96 422.206 138.39C421.426 138.83 420.331 139.05 418.921 139.05C417.501 139.05 416.401 138.83 415.621 138.39C414.851 137.96 414.466 137.365 414.466 136.605C414.466 135.835 414.851 135.23 415.621 134.79C416.401 134.35 417.501 134.13 418.921 134.13C420.331 134.13 421.426 134.35 422.206 134.79C422.986 135.23 423.376 135.835 423.376 136.605ZM421.471 135.405C420.871 135.125 420.021 134.985 418.921 134.985C417.821 134.985 416.966 135.125 416.356 135.405C415.746 135.685 415.441 136.085 415.441 136.605C415.441 137.115 415.746 137.51 416.356 137.79C416.976 138.07 417.831 138.21 418.921 138.21C420.011 138.21 420.861 138.07 421.471 137.79C422.081 137.51 422.386 137.115 422.386 136.605C422.386 136.085 422.081 135.685 421.471 135.405ZM419.686 128.955V128.145H422.311V125.94H423.271V134.1H422.311V131.64H419.686V130.815H422.311V128.955H419.686ZM419.101 132.885H413.266V127.035H419.101V132.885ZM418.141 132.06V127.845H414.226V132.06H418.141Z" fill="#969696"/>
<path d="M412.423 167.355H410.383V171.525H409.423V161.94H410.383V166.545H412.423V167.355ZM410.953 174.585H402.268V171.3H403.228V173.775H410.953V174.585ZM405.928 163.38H402.193V162.555H405.928V163.38ZM407.833 165.285H400.318V164.46H407.833V165.285ZM407.068 168.285C407.068 168.965 406.783 169.515 406.213 169.935C405.653 170.355 404.938 170.565 404.068 170.565C403.198 170.565 402.478 170.36 401.908 169.95C401.348 169.53 401.068 168.975 401.068 168.285C401.068 167.585 401.348 167.035 401.908 166.635C402.468 166.225 403.188 166.02 404.068 166.02C404.948 166.02 405.668 166.225 406.228 166.635C406.788 167.035 407.068 167.585 407.068 168.285ZM406.123 168.285C406.123 167.835 405.923 167.48 405.523 167.22C405.123 166.96 404.638 166.83 404.068 166.83C403.488 166.83 402.998 166.96 402.598 167.22C402.208 167.48 402.013 167.835 402.013 168.285C402.013 168.725 402.208 169.08 402.598 169.35C402.998 169.61 403.488 169.74 404.068 169.74C404.638 169.74 405.123 169.61 405.523 169.35C405.923 169.08 406.123 168.725 406.123 168.285ZM414.001 170.775H418.021V168.21H412.591V167.385H421.396C421.676 166.295 421.816 164.98 421.816 163.44H414.181V162.615H422.821C422.821 164.525 422.671 166.115 422.371 167.385H424.426V168.21H418.981V170.775H422.836V175.155H421.876V171.585H414.001V170.775Z" fill="#969696"/>
<path d="M410.97 209.565C409.94 209.565 409.105 209.315 408.465 208.815C407.835 208.305 407.52 207.635 407.52 206.805C407.52 206.195 407.74 205.66 408.18 205.2C408.63 204.74 409.175 204.385 409.815 204.135C408.485 203.645 407.82 202.82 407.82 201.66C407.82 200.93 408.105 200.33 408.675 199.86C409.245 199.39 409.995 199.155 410.925 199.155C411.855 199.155 412.605 199.375 413.175 199.815C413.745 200.255 414.03 200.855 414.03 201.615C414.03 202.165 413.845 202.63 413.475 203.01C413.105 203.38 412.6 203.735 411.96 204.075C413.6 204.615 414.42 205.5 414.42 206.73C414.42 207.54 414.105 208.215 413.475 208.755C412.855 209.295 412.02 209.565 410.97 209.565ZM410.97 208.65C411.62 208.65 412.165 208.485 412.605 208.155C413.055 207.815 413.28 207.38 413.28 206.85C413.28 206.25 413.085 205.8 412.695 205.5C412.305 205.19 411.625 204.875 410.655 204.555C410.075 204.775 409.59 205.07 409.2 205.44C408.82 205.81 408.63 206.26 408.63 206.79C408.63 207.35 408.85 207.8 409.29 208.14C409.73 208.48 410.29 208.65 410.97 208.65ZM411.15 203.685C412.3 203.165 412.875 202.485 412.875 201.645C412.875 201.175 412.705 200.795 412.365 200.505C412.035 200.215 411.555 200.07 410.925 200.07C410.335 200.07 409.86 200.21 409.5 200.49C409.14 200.76 408.96 201.14 408.96 201.63C408.96 202.59 409.69 203.275 411.15 203.685ZM415.174 209.67V208.41H416.419V209.67H415.174ZM420.438 209.52C419.308 209.52 418.413 209.28 417.753 208.8L417.993 207.93C418.283 208.12 418.648 208.28 419.088 208.41C419.528 208.54 419.938 208.605 420.318 208.605C421.168 208.605 421.823 208.425 422.283 208.065C422.753 207.705 422.988 207.205 422.988 206.565C422.988 205.925 422.758 205.44 422.298 205.11C421.838 204.77 421.203 204.6 420.393 204.6H419.418V203.655H420.333C421.013 203.665 421.558 203.505 421.968 203.175C422.378 202.845 422.583 202.39 422.583 201.81C422.583 200.67 421.888 200.1 420.498 200.1C419.848 200.1 419.093 200.35 418.233 200.85L418.068 199.98C418.358 199.76 418.763 199.57 419.283 199.41C419.803 199.25 420.273 199.17 420.693 199.17C421.603 199.17 422.328 199.39 422.868 199.83C423.418 200.27 423.693 200.875 423.693 201.645C423.693 202.795 423.053 203.58 421.773 204C423.303 204.3 424.068 205.15 424.068 206.55C424.068 207.42 423.733 208.135 423.063 208.695C422.403 209.245 421.528 209.52 420.438 209.52Z" fill="#969696"/>
<path d="M215 124V144" stroke="#E8E8E8" stroke-width="2"/>
<path d="M215 159V179" stroke="#E8E8E8" stroke-width="2"/>
<path d="M215 194V214" stroke="#E8E8E8" stroke-width="2"/>
</svg>
