<svg width="924" height="153" viewBox="0 0 924 153" fill="none" xmlns="http://www.w3.org/2000/svg">
<g filter="url(#filter0_d_2123_43)">
<rect x="2" width="920" height="149" rx="15" fill="#E3E3E3"/>
</g>
<path d="M146.416 53.12H145.056V46.08H143.616V52.432H142.256V39.44H143.616V44.912H145.056V39.136H146.416V53.12ZM141.28 47.12C141.28 47.9627 140.997 48.6347 140.432 49.136C139.867 49.6267 139.125 49.872 138.208 49.872C137.301 49.872 136.56 49.616 135.984 49.104C135.408 48.5813 135.12 47.92 135.12 47.12C135.12 46.288 135.403 45.6267 135.968 45.136C136.544 44.6347 137.291 44.384 138.208 44.384C139.125 44.384 139.867 44.6347 140.432 45.136C140.997 45.6267 141.28 46.288 141.28 47.12ZM139.424 48.272C139.755 47.9627 139.92 47.5787 139.92 47.12C139.92 46.6613 139.755 46.2827 139.424 45.984C139.104 45.6853 138.699 45.536 138.208 45.536C137.707 45.536 137.291 45.6907 136.96 46C136.64 46.2987 136.48 46.672 136.48 47.12C136.48 47.5893 136.64 47.9787 136.96 48.288C137.28 48.5867 137.696 48.736 138.208 48.736C138.699 48.736 139.104 48.5813 139.424 48.272ZM141.568 43.744H134.64V42.576H141.568V43.744ZM139.952 41.344H136.192V40.192H139.952V41.344ZM149.524 45.328H150.148C152.494 45.328 154.313 45.184 155.604 44.896L155.796 46.032C154.249 46.352 152.164 46.512 149.54 46.512H148.132V40.224H154.468V41.36H149.524V45.328ZM160.532 43.888H158.452V47.44H157.028V39.136H158.452V42.72H160.532V43.888ZM158.628 50.368C158.628 51.1893 158.217 51.8453 157.396 52.336C156.574 52.8373 155.422 53.088 153.94 53.088C152.457 53.088 151.305 52.8427 150.484 52.352C149.673 51.8613 149.268 51.2 149.268 50.368C149.268 49.5253 149.673 48.8587 150.484 48.368C151.305 47.8773 152.457 47.632 153.94 47.632C155.422 47.632 156.574 47.8827 157.396 48.384C158.217 48.8747 158.628 49.536 158.628 50.368ZM156.308 51.504C156.884 51.2267 157.172 50.848 157.172 50.368C157.172 49.888 156.884 49.5093 156.308 49.232C155.732 48.944 154.942 48.8 153.94 48.8C152.937 48.8 152.148 48.944 151.572 49.232C151.006 49.5093 150.724 49.888 150.724 50.368C150.724 50.848 151.006 51.2267 151.572 51.504C152.148 51.7813 152.937 51.92 153.94 51.92C154.942 51.92 155.732 51.7813 156.308 51.504ZM174.899 52.928H166.035V48.032H174.899V52.928ZM165.971 45.648H166.547C169.032 45.648 170.888 45.52 172.115 45.264L172.243 46.368C170.835 46.6667 168.712 46.816 165.875 46.816H164.579V39.952H171.059V41.104H165.971V42.704H170.819V43.824H165.971V45.648ZM173.491 51.792V49.152H167.443V51.792H173.491ZM176.979 43.712H174.899V47.28H173.475V39.136H174.899V42.544H176.979V43.712ZM188.166 40.16C188.166 42.5707 187.996 44.6133 187.654 46.288H189.766V47.424H184.15V53.12H182.726V47.424H177.142V46.288H186.262C186.572 45.04 186.726 43.3867 186.726 41.328H178.598V40.16H188.166ZM202.81 47.408H190.186V46.256H202.81V47.408ZM201.482 52.816H191.866V48.672H193.274V51.648H201.482V52.816ZM201.418 44.608H191.914V39.712H193.322V43.456H201.418V44.608ZM219.257 51.344H206.633V50.192H209.945V47.376H211.369V50.192H214.473V47.376H215.897V50.192H219.257V51.344ZM217.977 46.688H207.833V45.536H209.929L209.625 42.32L211.049 42.128L211.273 45.536H214.633L215.017 42.16L216.409 42.4L215.929 45.536H217.977V46.688ZM217.993 41.472H207.817V40.32H217.993V41.472ZM230.669 45.264H226.669V46.864H232.301V48.016H219.677V46.864H225.245V45.264H221.325V39.616H222.733V41.392H229.245V39.6H230.669V45.264ZM230.797 52.688H221.261V48.896H222.685V51.536H230.797V52.688ZM229.245 44.096V42.544H222.733V44.096H229.245ZM244.257 53.12H242.833V39.136H244.257V53.12ZM233.217 45.12C233.217 43.6587 233.521 42.4747 234.129 41.568C234.737 40.6507 235.633 40.192 236.817 40.192C238.001 40.192 238.891 40.6507 239.489 41.568C240.097 42.4747 240.401 43.664 240.401 45.136C240.401 46.608 240.097 47.8027 239.489 48.72C238.891 49.6267 238.001 50.08 236.817 50.08C235.633 50.08 234.737 49.6213 234.129 48.704C233.521 47.7867 233.217 46.592 233.217 45.12ZM238.433 47.84C238.806 47.1573 238.993 46.256 238.993 45.136C238.993 44.016 238.806 43.1147 238.433 42.432C238.059 41.7493 237.521 41.408 236.817 41.408C236.123 41.408 235.59 41.7493 235.217 42.432C234.843 43.1147 234.657 44.016 234.657 45.136C234.657 46.256 234.843 47.1573 235.217 47.84C235.59 48.512 236.123 48.848 236.817 48.848C237.521 48.848 238.059 48.512 238.433 47.84ZM255.167 49.424H249.663V40.64H255.167V49.424ZM260.975 53.12H259.615V45.824H258.079V52.432H256.719V39.44H258.079V44.656H259.615V39.136H260.975V53.12ZM253.807 48.304V41.776H251.007V48.304H253.807ZM273.475 42.832C273.475 43.7707 273.027 44.5333 272.131 45.12C271.235 45.696 270.024 45.984 268.499 45.984C266.974 45.984 265.763 45.696 264.867 45.12C263.982 44.5333 263.539 43.7707 263.539 42.832C263.539 41.904 263.982 41.152 264.867 40.576C265.763 40 266.974 39.712 268.499 39.712C270.024 39.712 271.235 40 272.131 40.576C273.027 41.152 273.475 41.904 273.475 42.832ZM268.499 40.912C267.411 40.912 266.542 41.0987 265.891 41.472C265.251 41.8347 264.931 42.288 264.931 42.832C264.931 43.376 265.251 43.84 265.891 44.224C266.542 44.5973 267.411 44.784 268.499 44.784C269.576 44.784 270.435 44.5973 271.075 44.224C271.726 43.84 272.051 43.376 272.051 42.832C272.051 42.288 271.726 41.8347 271.075 41.472C270.435 41.0987 269.576 40.912 268.499 40.912ZM269.203 53.136H267.779V48.304H262.211V47.136H274.835V48.304H269.203V53.136ZM278.77 41.264V40.096H286.402V41.264H283.346V41.648C283.346 42.5867 283.671 43.4293 284.322 44.176C284.983 44.912 285.746 45.408 286.61 45.664L285.826 46.8C285.186 46.544 284.562 46.144 283.954 45.6C283.357 45.0453 282.919 44.4533 282.642 43.824C282.418 44.4853 281.975 45.136 281.314 45.776C280.663 46.416 279.97 46.8853 279.234 47.184L278.402 46.08C279.351 45.7387 280.173 45.1573 280.866 44.336C281.559 43.504 281.906 42.6187 281.906 41.68V41.264H278.77ZM280.402 48.112H289.458V53.136H288.05V49.28H280.402V48.112ZM291.538 44.016H289.458V47.376H288.034V39.136H289.458V42.832H291.538V44.016ZM293.702 48.528H294.278C296.774 48.528 298.715 48.3787 300.102 48.08L300.262 49.232C298.811 49.5307 296.678 49.6907 293.862 49.712H292.294V40.608H298.902V41.776H293.702V48.528ZM302.502 39.136V44.592H304.678V45.776H302.502V53.12H301.094V39.136H302.502ZM304.841 51.696V50.128H306.393V51.696H304.841ZM318.247 49.616H311.703V40.544H318.247V49.616ZM316.823 48.48V41.696H313.111V48.48H316.823ZM324.295 45.856H322.055V53.12H320.631V39.136H322.055V44.688H324.295V45.856ZM333.147 48.096L333.259 49.232C332.149 49.392 330.725 49.5147 328.987 49.6C327.088 49.696 325.573 49.744 324.443 49.744L324.251 48.544C325.136 48.544 325.803 48.5387 326.251 48.528L325.787 42.832L327.195 42.672L327.563 48.496L329.003 48.432C329.099 48.432 329.275 48.4213 329.531 48.4L329.899 42.656L331.291 42.816L330.779 48.336C331.813 48.272 332.603 48.192 333.147 48.096ZM335.739 53.12H334.331V39.136H335.739V53.12ZM332.491 41.68H324.651V40.528H332.491V41.68ZM350.382 45.856H348.142V53.12H346.718V39.136H348.142V44.688H350.382V45.856ZM338.446 48.656C337.849 47.7387 337.55 46.544 337.55 45.072C337.55 43.6 337.849 42.4107 338.446 41.504C339.044 40.5867 339.929 40.128 341.102 40.128C342.276 40.128 343.156 40.5867 343.742 41.504C344.34 42.4107 344.638 43.6053 344.638 45.088C344.638 46.5493 344.34 47.7387 343.742 48.656C343.156 49.5627 342.276 50.016 341.102 50.016C339.929 50.016 339.044 49.5627 338.446 48.656ZM343.246 45.088C343.246 43.968 343.06 43.0667 342.686 42.384C342.313 41.6907 341.785 41.344 341.102 41.344C340.42 41.344 339.892 41.6853 339.518 42.368C339.156 43.0507 338.974 43.9573 338.974 45.088C338.974 46.1973 339.156 47.0933 339.518 47.776C339.892 48.4587 340.42 48.8 341.102 48.8C341.785 48.8 342.313 48.4587 342.686 47.776C343.06 47.0933 343.246 46.1973 343.246 45.088ZM365.597 53.12H364.237V39.136H365.597V53.12ZM362.829 52.432H361.485V45.952H359.437V44.8H361.485V39.456H362.829V52.432ZM359.661 40.816C359.64 42.8853 359.208 44.688 358.365 46.224C357.523 47.7493 356.237 49.088 354.509 50.24L353.549 49.2C354.957 48.3787 356.061 47.3387 356.861 46.08C357.661 44.8107 358.125 43.4453 358.253 41.984H354.157V40.816H359.661ZM378.305 47.264H376.881V39.136H378.305V47.264ZM378.305 52.928H369.217V47.952H378.305V52.928ZM376.881 51.808V49.088H370.625V51.808H376.881ZM370.865 39.92C371.889 39.92 372.758 40.24 373.473 40.88C374.188 41.5093 374.545 42.3147 374.545 43.296C374.545 44.2773 374.193 45.072 373.489 45.68C372.785 46.288 371.91 46.592 370.865 46.592C369.83 46.592 368.956 46.288 368.241 45.68C367.537 45.072 367.185 44.2773 367.185 43.296C367.185 42.3147 367.537 41.5093 368.241 40.88C368.956 40.24 369.83 39.92 370.865 39.92ZM370.865 41.136C370.204 41.136 369.66 41.3387 369.233 41.744C368.817 42.1493 368.609 42.6613 368.609 43.28C368.609 43.9093 368.817 44.4267 369.233 44.832C369.66 45.2267 370.204 45.424 370.865 45.424C371.526 45.424 372.065 45.2267 372.481 44.832C372.897 44.4373 373.105 43.9253 373.105 43.296C373.105 42.6667 372.897 42.1493 372.481 41.744C372.076 41.3387 371.537 41.136 370.865 41.136ZM394.88 53.024H384.8V49.776H392.944V48.832H384.72V47.664H394.352V50.816H386.224V51.856H394.88V53.024ZM394.592 44.56H384.528V43.408H386.608L386.288 41.488L387.712 41.28L387.952 43.408H391.168L391.456 41.264L392.88 41.472L392.496 43.408H394.592V44.56ZM395.904 46.624H383.28V45.472H395.904V46.624ZM394.608 40.8H384.512V39.648H394.608V40.8ZM408.132 53.12H406.772V39.136H408.132V53.12ZM405.492 52.432H404.132V45.584H402.452V44.432H404.132V39.456H405.492V52.432ZM402.868 49.328C401.737 49.5627 400.068 49.6907 397.86 49.712H396.692V44.416H400.484V41.872H396.66V40.72H401.892V45.584H398.1V48.544C399.945 48.544 401.481 48.416 402.708 48.16C402.761 48.4907 402.814 48.88 402.868 49.328ZM420.903 53.12H419.479V39.136H420.903V53.12ZM409.863 45.12C409.863 43.6587 410.167 42.4747 410.775 41.568C411.383 40.6507 412.279 40.192 413.463 40.192C414.647 40.192 415.538 40.6507 416.135 41.568C416.743 42.4747 417.047 43.664 417.047 45.136C417.047 46.608 416.743 47.8027 416.135 48.72C415.538 49.6267 414.647 50.08 413.463 50.08C412.279 50.08 411.383 49.6213 410.775 48.704C410.167 47.7867 409.863 46.592 409.863 45.12ZM415.079 47.84C415.453 47.1573 415.639 46.256 415.639 45.136C415.639 44.016 415.453 43.1147 415.079 42.432C414.706 41.7493 414.167 41.408 413.463 41.408C412.77 41.408 412.237 41.7493 411.863 42.432C411.49 43.1147 411.303 44.016 411.303 45.136C411.303 46.256 411.49 47.1573 411.863 47.84C412.237 48.512 412.77 48.848 413.463 48.848C414.167 48.848 414.706 48.512 415.079 47.84ZM423.387 48.64C422.779 47.7227 422.475 46.5333 422.475 45.072C422.475 43.6107 422.779 42.4213 423.387 41.504C423.995 40.5867 424.891 40.128 426.075 40.128C427.163 40.128 428 40.5227 428.587 41.312C429.184 42.0907 429.531 43.1307 429.627 44.432H432.459V39.136H433.883V53.12H432.459V45.632H429.627C429.542 46.9547 429.2 48.016 428.603 48.816C428.016 49.616 427.174 50.016 426.075 50.016C424.891 50.016 423.995 49.5573 423.387 48.64ZM428.235 45.088C428.235 43.968 428.043 43.0667 427.659 42.384C427.286 41.6907 426.758 41.344 426.075 41.344C425.382 41.344 424.848 41.6853 424.475 42.368C424.112 43.0507 423.931 43.9573 423.931 45.088C423.931 46.1973 424.112 47.0933 424.475 47.776C424.848 48.4587 425.382 48.8 426.075 48.8C426.758 48.8 427.286 48.4587 427.659 47.776C428.043 47.0933 428.235 46.1973 428.235 45.088ZM450.666 53.12H449.306V45.68H447.658V52.432H446.33V39.456H447.658V44.528H449.306V39.136H450.666V53.12ZM444.762 40.848C444.741 42.9067 444.303 44.704 443.45 46.24C442.607 47.776 441.327 49.12 439.61 50.272L438.634 49.232C440.053 48.4107 441.162 47.3707 441.962 46.112C442.762 44.8427 443.226 43.4773 443.354 42.016H439.258V40.848H444.762ZM463.374 49.296H461.95V39.136H463.374V49.296ZM463.694 52.688H454.174V48.336H455.598V51.552H463.694V52.688ZM453.278 41.088C453.982 40.416 454.872 40.08 455.95 40.08C457.027 40.08 457.918 40.4107 458.622 41.072C459.336 41.7333 459.694 42.5653 459.694 43.568C459.694 44.5707 459.342 45.392 458.638 46.032C457.934 46.6613 457.038 46.976 455.95 46.976C454.872 46.976 453.982 46.6613 453.278 46.032C452.574 45.392 452.222 44.576 452.222 43.584C452.222 42.5813 452.574 41.7493 453.278 41.088ZM455.95 41.296C455.299 41.296 454.76 41.5093 454.334 41.936C453.918 42.3627 453.71 42.9013 453.71 43.552C453.71 44.192 453.918 44.7253 454.334 45.152C454.76 45.5787 455.299 45.792 455.95 45.792C456.632 45.792 457.176 45.584 457.582 45.168C457.987 44.752 458.19 44.2187 458.19 43.568C458.19 42.896 457.987 42.352 457.582 41.936C457.176 41.5093 456.632 41.296 455.95 41.296ZM475.121 39.136H476.513V53.12H475.121V39.136ZM473.105 43.552C473.105 44.5013 472.753 45.2693 472.049 45.856C471.345 46.4427 470.476 46.736 469.441 46.736C468.396 46.736 467.527 46.4427 466.833 45.856C466.14 45.2587 465.793 44.4907 465.793 43.552C465.793 42.592 466.14 41.8027 466.833 41.184C467.537 40.5653 468.407 40.256 469.441 40.256C470.497 40.256 471.372 40.56 472.065 41.168C472.759 41.776 473.105 42.5707 473.105 43.552ZM471.713 43.536C471.713 42.9067 471.495 42.4 471.057 42.016C470.631 41.632 470.092 41.44 469.441 41.44C468.823 41.44 468.295 41.6427 467.857 42.048C467.42 42.4427 467.201 42.9387 467.201 43.536C467.201 44.1227 467.415 44.608 467.841 44.992C468.279 45.3653 468.812 45.552 469.441 45.552C470.071 45.552 470.604 45.3653 471.041 44.992C471.489 44.6187 471.713 44.1333 471.713 43.536ZM474.369 49.584C473.367 49.712 471.66 49.84 469.249 49.968C467.991 50.032 466.599 50.0747 465.073 50.096L464.849 48.88C466.609 48.88 468.151 48.848 469.473 48.784C471.489 48.6987 473.073 48.592 474.225 48.464L474.369 49.584ZM492.048 43.056H484.336V44.24H492.432V45.36H482.912V39.664H492.368V40.816H484.336V41.952H492.048V43.056ZM482.848 48.832H492.368V53.184H490.944V49.968H482.848V48.832ZM494.016 47.68H481.392V46.528H494.016V47.68ZM504.484 43.424H501.796V42.272H504.484V39.136H505.908V47.68H504.484V43.424ZM504.772 48.432C505.604 48.912 506.02 49.5733 506.02 50.416C506.02 51.2587 505.604 51.92 504.772 52.4C503.951 52.88 502.793 53.12 501.3 53.12C499.817 53.12 498.66 52.88 497.828 52.4C497.007 51.92 496.596 51.2587 496.596 50.416C496.596 49.5733 497.007 48.912 497.828 48.432C498.66 47.9413 499.817 47.696 501.3 47.696C502.793 47.696 503.951 47.9413 504.772 48.432ZM501.3 48.832C500.276 48.832 499.476 48.976 498.9 49.264C498.324 49.5413 498.036 49.9253 498.036 50.416C498.036 50.9067 498.324 51.2907 498.9 51.568C499.476 51.8453 500.276 51.984 501.3 51.984C502.335 51.984 503.14 51.8453 503.716 51.568C504.292 51.2907 504.58 50.9067 504.58 50.416C504.58 49.9253 504.292 49.5413 503.716 49.264C503.14 48.976 502.335 48.832 501.3 48.832ZM502.452 45.648L501.62 46.752C500.948 46.4533 500.319 46.032 499.732 45.488C499.145 44.9333 498.719 44.3253 498.452 43.664C498.239 44.368 497.817 45.04 497.188 45.68C496.569 46.32 495.871 46.816 495.092 47.168L494.212 46.064C495.268 45.616 496.116 44.9813 496.756 44.16C497.396 43.328 497.716 42.384 497.716 41.328V39.92H499.156V41.264C499.156 42.2987 499.481 43.2107 500.132 44C500.793 44.7893 501.567 45.3387 502.452 45.648ZM510.808 40.24C511.747 40.24 512.477 40.64 513 41.44C513.533 42.2293 513.827 43.28 513.88 44.592H515.24V39.408H516.584V52.464H515.24V45.76H513.88C513.816 47.0507 513.523 48.0907 513 48.88C512.477 49.6587 511.747 50.048 510.808 50.048C509.805 50.048 509.043 49.5947 508.52 48.688C507.997 47.7813 507.736 46.592 507.736 45.12C507.736 43.6587 507.997 42.48 508.52 41.584C509.043 40.688 509.805 40.24 510.808 40.24ZM512.072 47.84C512.36 47.168 512.504 46.2667 512.504 45.136C512.504 44.0053 512.36 43.1093 512.072 42.448C511.784 41.776 511.363 41.44 510.808 41.44C510.275 41.44 509.859 41.776 509.56 42.448C509.272 43.12 509.128 44.016 509.128 45.136C509.128 46.2667 509.272 47.168 509.56 47.84C509.848 48.5013 510.264 48.832 510.808 48.832C511.363 48.832 511.784 48.5013 512.072 47.84ZM519.288 53.12H517.944V39.136H519.288V53.12ZM534.103 39.136H535.495V53.12H534.103V39.136ZM532.087 43.552C532.087 44.5013 531.735 45.2693 531.031 45.856C530.327 46.4427 529.457 46.736 528.423 46.736C527.377 46.736 526.508 46.4427 525.815 45.856C525.121 45.2587 524.775 44.4907 524.775 43.552C524.775 42.592 525.121 41.8027 525.815 41.184C526.519 40.5653 527.388 40.256 528.423 40.256C529.479 40.256 530.353 40.56 531.047 41.168C531.74 41.776 532.087 42.5707 532.087 43.552ZM530.695 43.536C530.695 42.9067 530.476 42.4 530.039 42.016C529.612 41.632 529.073 41.44 528.423 41.44C527.804 41.44 527.276 41.6427 526.839 42.048C526.401 42.4427 526.183 42.9387 526.183 43.536C526.183 44.1227 526.396 44.608 526.823 44.992C527.26 45.3653 527.793 45.552 528.423 45.552C529.052 45.552 529.585 45.3653 530.023 44.992C530.471 44.6187 530.695 44.1333 530.695 43.536ZM533.351 49.584C532.348 49.712 530.641 49.84 528.231 49.968C526.972 50.032 525.58 50.0747 524.055 50.096L523.831 48.88C525.591 48.88 527.132 48.848 528.455 48.784C530.471 48.6987 532.055 48.592 533.207 48.464L533.351 49.584ZM549.866 45.024H547.77V49.44H546.362V39.136H547.77V43.824H549.866V45.024ZM548.25 52.704H538.922V49.04H540.33V51.568H548.25V52.704ZM542.954 40.72H538.89V39.568H542.954V40.72ZM545.098 42.816H536.89V41.68H545.098V42.816ZM544.314 45.984C544.314 46.7413 544.005 47.3493 543.386 47.808C542.768 48.256 541.973 48.48 541.002 48.48C540.042 48.48 539.253 48.256 538.634 47.808C538.016 47.3493 537.706 46.7413 537.706 45.984C537.706 45.2053 538.01 44.592 538.618 44.144C539.237 43.696 540.032 43.472 541.002 43.472C541.973 43.472 542.768 43.696 543.386 44.144C544.005 44.592 544.314 45.2053 544.314 45.984ZM542.906 45.984C542.906 45.5573 542.72 45.2213 542.346 44.976C541.984 44.7307 541.536 44.608 541.002 44.608C540.469 44.608 540.021 44.7307 539.658 44.976C539.296 45.2213 539.114 45.5573 539.114 45.984C539.114 46.3893 539.296 46.72 539.658 46.976C540.032 47.2213 540.48 47.344 541.002 47.344C541.536 47.344 541.984 47.2213 542.346 46.976C542.72 46.7307 542.906 46.4 542.906 45.984ZM565.369 53.04H555.849V49.44H563.465V48.112H555.737V46.976H564.889V50.496H557.257V51.888H565.369V53.04ZM560.569 39.856C560.452 41.5947 559.817 43.0293 558.665 44.16C557.524 45.2907 556.057 46.1067 554.265 46.608L553.497 45.488C554.937 45.168 556.143 44.6133 557.113 43.824C558.084 43.0347 558.703 42.1067 558.969 41.04H554.201V39.856H560.569ZM560.729 42.24V41.136H563.465V39.136H564.889V46.224H563.465V44.8H560.553V43.696H563.465V42.24H560.729ZM579.485 46.16H577.341V53.12H575.933V39.136H577.341V44.992H579.485V46.16ZM575.181 49.696C574.072 49.856 572.466 49.9947 570.365 50.112C568.957 50.176 567.618 50.208 566.349 50.208L566.141 49.024C567.464 49.024 568.466 49.0133 569.149 48.992V44.56H570.525V48.944C572.541 48.848 574.034 48.7307 575.005 48.592L575.181 49.696ZM574.269 40.544C574.269 43.488 574.114 45.6267 573.805 46.96L572.445 46.784C572.712 45.6107 572.845 43.9147 572.845 41.696H566.973V40.544H574.269ZM590.977 46.256H589.553V39.136H590.977V46.256ZM591.473 53.024H581.889V49.424H589.553V48.128H581.841V46.976H590.977V50.48H583.297V51.856H591.473V53.024ZM580.913 40.512C581.606 39.904 582.46 39.6 583.473 39.6C584.486 39.6 585.334 39.8987 586.017 40.496C586.7 41.0933 587.041 41.856 587.041 42.784C587.041 43.7013 586.7 44.448 586.017 45.024C585.334 45.6 584.486 45.888 583.473 45.888C582.46 45.888 581.606 45.6053 580.913 45.04C580.23 44.4747 579.889 43.728 579.889 42.8C579.889 41.872 580.23 41.1093 580.913 40.512ZM583.473 40.816C582.854 40.816 582.332 41.0027 581.905 41.376C581.489 41.7493 581.281 42.2187 581.281 42.784C581.281 43.3493 581.489 43.8133 581.905 44.176C582.321 44.528 582.844 44.704 583.473 44.704C584.124 44.704 584.646 44.5227 585.041 44.16C585.446 43.7973 585.649 43.3387 585.649 42.784C585.649 42.1973 585.452 41.7227 585.057 41.36C584.662 40.9973 584.134 40.816 583.473 40.816ZM606.752 39.136V44.864H608.992V46.048H606.752V53.12H605.344V39.136H606.752ZM603.072 40.624C603.029 42.8 602.469 44.7093 601.392 46.352C600.314 47.9947 598.794 49.3493 596.832 50.416L595.968 49.344C597.589 48.5653 598.89 47.4987 599.872 46.144C600.864 44.7893 601.424 43.3493 601.552 41.824H596.576V40.624H603.072ZM621.62 46.72H608.996V45.584H621.62V46.72ZM620.18 50.416C620.18 51.2267 619.758 51.856 618.916 52.304C618.073 52.7627 616.873 52.992 615.316 52.992C613.758 52.992 612.558 52.7627 611.716 52.304C610.884 51.856 610.468 51.2267 610.468 50.416C610.468 49.616 610.889 48.992 611.732 48.544C612.574 48.0853 613.769 47.856 615.316 47.856C616.873 47.856 618.073 48.0853 618.916 48.544C619.758 48.992 620.18 49.616 620.18 50.416ZM615.316 49.008C614.26 49.008 613.428 49.1307 612.82 49.376C612.222 49.6213 611.924 49.9733 611.924 50.432C611.924 50.88 612.222 51.232 612.82 51.488C613.428 51.7333 614.26 51.856 615.316 51.856C616.382 51.856 617.22 51.7333 617.828 51.488C618.436 51.232 618.74 50.88 618.74 50.432C618.74 49.9733 618.436 49.6213 617.828 49.376C617.22 49.1307 616.382 49.008 615.316 49.008ZM620.084 44.208H610.724V39.504H612.132V43.056H620.084V44.208ZM632.087 43.424H629.399V42.272H632.087V39.136H633.511V47.68H632.087V43.424ZM632.375 48.432C633.207 48.912 633.623 49.5733 633.623 50.416C633.623 51.2587 633.207 51.92 632.375 52.4C631.554 52.88 630.397 53.12 628.903 53.12C627.421 53.12 626.263 52.88 625.431 52.4C624.61 51.92 624.199 51.2587 624.199 50.416C624.199 49.5733 624.61 48.912 625.431 48.432C626.263 47.9413 627.421 47.696 628.903 47.696C630.397 47.696 631.554 47.9413 632.375 48.432ZM628.903 48.832C627.879 48.832 627.079 48.976 626.503 49.264C625.927 49.5413 625.639 49.9253 625.639 50.416C625.639 50.9067 625.927 51.2907 626.503 51.568C627.079 51.8453 627.879 51.984 628.903 51.984C629.938 51.984 630.743 51.8453 631.319 51.568C631.895 51.2907 632.183 50.9067 632.183 50.416C632.183 49.9253 631.895 49.5413 631.319 49.264C630.743 48.976 629.938 48.832 628.903 48.832ZM630.055 45.648L629.223 46.752C628.551 46.4533 627.922 46.032 627.335 45.488C626.749 44.9333 626.322 44.3253 626.055 43.664C625.842 44.368 625.421 45.04 624.791 45.68C624.173 46.32 623.474 46.816 622.695 47.168L621.815 46.064C622.871 45.616 623.719 44.9813 624.359 44.16C624.999 43.328 625.319 42.384 625.319 41.328V39.92H626.759V41.264C626.759 42.2987 627.085 43.2107 627.735 44C628.397 44.7893 629.17 45.3387 630.055 45.648ZM646.619 53.12H645.195V39.136H646.619V53.12ZM635.579 45.12C635.579 43.6587 635.883 42.4747 636.491 41.568C637.099 40.6507 637.995 40.192 639.179 40.192C640.363 40.192 641.254 40.6507 641.851 41.568C642.459 42.4747 642.763 43.664 642.763 45.136C642.763 46.608 642.459 47.8027 641.851 48.72C641.254 49.6267 640.363 50.08 639.179 50.08C637.995 50.08 637.099 49.6213 636.491 48.704C635.883 47.7867 635.579 46.592 635.579 45.12ZM640.795 47.84C641.168 47.1573 641.355 46.256 641.355 45.136C641.355 44.016 641.168 43.1147 640.795 42.432C640.422 41.7493 639.883 41.408 639.179 41.408C638.486 41.408 637.952 41.7493 637.579 42.432C637.206 43.1147 637.019 44.016 637.019 45.136C637.019 46.256 637.206 47.1573 637.579 47.84C637.952 48.512 638.486 48.848 639.179 48.848C639.883 48.848 640.422 48.512 640.795 47.84ZM657.53 49.424H652.026V40.64H657.53V49.424ZM663.338 53.12H661.978V45.824H660.442V52.432H659.082V39.44H660.442V44.656H661.978V39.136H663.338V53.12ZM656.17 48.304V41.776H653.37V48.304H656.17ZM675.838 42.832C675.838 43.7707 675.39 44.5333 674.494 45.12C673.598 45.696 672.387 45.984 670.862 45.984C669.336 45.984 668.126 45.696 667.23 45.12C666.344 44.5333 665.902 43.7707 665.902 42.832C665.902 41.904 666.344 41.152 667.23 40.576C668.126 40 669.336 39.712 670.862 39.712C672.387 39.712 673.598 40 674.494 40.576C675.39 41.152 675.838 41.904 675.838 42.832ZM670.862 40.912C669.774 40.912 668.904 41.0987 668.254 41.472C667.614 41.8347 667.294 42.288 667.294 42.832C667.294 43.376 667.614 43.84 668.254 44.224C668.904 44.5973 669.774 44.784 670.862 44.784C671.939 44.784 672.798 44.5973 673.438 44.224C674.088 43.84 674.414 43.376 674.414 42.832C674.414 42.288 674.088 41.8347 673.438 41.472C672.798 41.0987 671.939 40.912 670.862 40.912ZM671.566 53.136H670.142V48.304H664.574V47.136H677.198V48.304H671.566V53.136ZM692.108 43.648H688.044V45.456H693.644V46.592H681.02V45.456H686.62V43.648H682.748V39.424H684.156V42.496H692.108V43.648ZM692.364 52.912H682.252V51.76H684.46L684.14 49.696L685.564 49.488L685.804 51.76H688.716L689.148 49.504L690.508 49.776L690.06 51.76H692.364V52.912ZM692.236 49.04H682.38V47.872H692.236V49.04ZM706.688 46.976H694.064V45.824H706.688V46.976ZM705.152 52.928H695.6V48.336H705.152V52.928ZM703.744 51.808V49.456H697.024V51.808H703.744ZM703.904 40.208C704.758 40.688 705.184 41.3333 705.184 42.144C705.184 42.9547 704.758 43.6053 703.904 44.096C703.051 44.576 701.872 44.816 700.368 44.816C698.864 44.816 697.686 44.576 696.832 44.096C695.99 43.6053 695.568 42.9547 695.568 42.144C695.568 41.3333 695.99 40.688 696.832 40.208C697.686 39.728 698.864 39.488 700.368 39.488C701.883 39.488 703.062 39.728 703.904 40.208ZM702.8 43.248C703.408 42.9707 703.712 42.6027 703.712 42.144C703.712 41.6853 703.408 41.3173 702.8 41.04C702.203 40.7627 701.392 40.624 700.368 40.624C699.355 40.624 698.55 40.7627 697.952 41.04C697.355 41.3173 697.056 41.6853 697.056 42.144C697.056 42.6027 697.355 42.9707 697.952 43.248C698.55 43.5253 699.355 43.664 700.368 43.664C701.382 43.664 702.192 43.5253 702.8 43.248ZM710.436 40.24C711.375 40.24 712.105 40.64 712.628 41.44C713.161 42.2293 713.455 43.28 713.508 44.592H714.868V39.408H716.212V52.464H714.868V45.76H713.508C713.444 47.0507 713.151 48.0907 712.628 48.88C712.105 49.6587 711.375 50.048 710.436 50.048C709.433 50.048 708.671 49.5947 708.148 48.688C707.625 47.7813 707.364 46.592 707.364 45.12C707.364 43.6587 707.625 42.48 708.148 41.584C708.671 40.688 709.433 40.24 710.436 40.24ZM711.7 47.84C711.988 47.168 712.132 46.2667 712.132 45.136C712.132 44.0053 711.988 43.1093 711.7 42.448C711.412 41.776 710.991 41.44 710.436 41.44C709.903 41.44 709.487 41.776 709.188 42.448C708.9 43.12 708.756 44.016 708.756 45.136C708.756 46.2667 708.9 47.168 709.188 47.84C709.476 48.5013 709.892 48.832 710.436 48.832C710.991 48.832 711.412 48.5013 711.7 47.84ZM718.916 53.12H717.572V39.136H718.916V53.12ZM732.776 51.344H720.152V50.192H725.72V46.912H721.656V40.272H731.288V41.424H723.064V45.76H731.368V46.912H727.144V50.192H732.776V51.344ZM732.956 53.488L733.516 50.256H735.132L734.14 53.488H732.956ZM750.697 45.264H746.697V46.864H752.329V48.016H739.705V46.864H745.273V45.264H741.353V39.616H742.761V41.392H749.273V39.6H750.697V45.264ZM750.825 52.688H741.289V48.896H742.713V51.536H750.825V52.688ZM749.273 44.096V42.544H742.761V44.096H749.273ZM765.373 51.088H752.749V49.92H757.549V45.216H758.973V49.92H765.373V51.088ZM763.741 40.432V42.576C763.709 44.848 763.511 46.752 763.149 48.288C762.551 48.1813 762.098 48.1067 761.789 48.064C762.119 46.7627 762.285 45.1627 762.285 43.264V41.584H754.045V40.432H763.741ZM769.12 40.24C770.059 40.24 770.79 40.64 771.312 41.44C771.846 42.2293 772.139 43.28 772.192 44.592H773.552V39.408H774.896V52.464H773.552V45.76H772.192C772.128 47.0507 771.835 48.0907 771.312 48.88C770.79 49.6587 770.059 50.048 769.12 50.048C768.118 50.048 767.355 49.5947 766.832 48.688C766.31 47.7813 766.048 46.592 766.048 45.12C766.048 43.6587 766.31 42.48 766.832 41.584C767.355 40.688 768.118 40.24 769.12 40.24ZM770.384 47.84C770.672 47.168 770.816 46.2667 770.816 45.136C770.816 44.0053 770.672 43.1093 770.384 42.448C770.096 41.776 769.675 41.44 769.12 41.44C768.587 41.44 768.171 41.776 767.872 42.448C767.584 43.12 767.44 44.016 767.44 45.136C767.44 46.2667 767.584 47.168 767.872 47.84C768.16 48.5013 768.576 48.832 769.12 48.832C769.675 48.832 770.096 48.5013 770.384 47.84ZM777.6 53.12H776.256V39.136H777.6V53.12ZM790.372 53.12H788.948V45.248H785.828V44.048H788.948V39.136H790.372V53.12ZM787.252 48.736L786.404 49.792C785.721 49.344 785.044 48.7253 784.372 47.936C783.7 47.1467 783.241 46.368 782.996 45.6C782.761 46.4427 782.324 47.28 781.684 48.112C781.055 48.9333 780.345 49.6053 779.556 50.128L778.66 49.088C779.737 48.416 780.607 47.5093 781.268 46.368C781.929 45.2267 782.26 44.0213 782.26 42.752V40.336H783.716V42.688C783.716 43.9467 784.047 45.1093 784.708 46.176C785.369 47.2427 786.217 48.096 787.252 48.736ZM804.504 47.408H791.88V46.256H804.504V47.408ZM803.176 52.816H793.56V48.672H794.968V51.648H803.176V52.816ZM803.112 44.608H793.608V39.712H795.016V43.456H803.112V44.608ZM819.863 53.12H818.439V39.136H819.863V53.12ZM808.823 45.12C808.823 43.6587 809.127 42.4747 809.735 41.568C810.343 40.6507 811.239 40.192 812.423 40.192C813.607 40.192 814.497 40.6507 815.095 41.568C815.703 42.4747 816.007 43.664 816.007 45.136C816.007 46.608 815.703 47.8027 815.095 48.72C814.497 49.6267 813.607 50.08 812.423 50.08C811.239 50.08 810.343 49.6213 809.735 48.704C809.127 47.7867 808.823 46.592 808.823 45.12ZM814.039 47.84C814.412 47.1573 814.599 46.256 814.599 45.136C814.599 44.016 814.412 43.1147 814.039 42.432C813.665 41.7493 813.127 41.408 812.423 41.408C811.729 41.408 811.196 41.7493 810.823 42.432C810.449 43.1147 810.263 44.016 810.263 45.136C810.263 46.256 810.449 47.1573 810.823 47.84C811.196 48.512 811.729 48.848 812.423 48.848C813.127 48.848 813.665 48.512 814.039 47.84ZM833.995 46.688H821.371V45.6H833.995V46.688ZM832.987 52.864H822.811V49.776H831.131V48.736H822.811V47.664H832.539V50.768H824.219V51.792H832.987V52.864ZM832.747 44.608H822.955V41.648H831.051V40.672H822.971V39.616H832.459V42.608H824.379V43.552H832.747V44.608ZM843.865 49.648H838.265V40.496H839.657V43.888H842.473V40.48H843.865V49.648ZM849.625 53.12H848.265V45.968H846.729V52.432H845.369V39.44H846.729V44.816H848.265V39.136H849.625V53.12ZM842.473 48.512V45.024H839.657V48.512H842.473ZM857.997 48.896L857.149 49.904C856.605 49.552 856.04 49.024 855.453 48.32C854.877 47.6053 854.498 46.9227 854.317 46.272C854.168 46.9867 853.826 47.7067 853.293 48.432C852.76 49.1573 852.162 49.744 851.501 50.192L850.605 49.216C851.512 48.6293 852.242 47.8187 852.797 46.784C853.352 45.7493 853.629 44.5707 853.629 43.248V41.936H850.909V40.8H857.597V41.936H855.021V43.2C855.021 44.5333 855.304 45.6853 855.869 46.656C856.434 47.6267 857.144 48.3733 857.997 48.896ZM859.901 52.432H858.557V45.328H856.477V44.16H858.557V39.456H859.901V52.432ZM862.669 53.12H861.309V39.136H862.669V53.12ZM876.929 46.144H874.705V53.12H873.281V39.136H874.705V44.96H876.929V46.144ZM870.081 41.2H865.905V40.048H870.081V41.2ZM872.113 43.6H863.825V42.464H872.113V43.6ZM871.329 47.344C871.329 48.1867 871.025 48.8853 870.417 49.44C869.809 49.9947 869.014 50.272 868.033 50.272C867.052 50.272 866.252 50 865.633 49.456C865.025 48.9013 864.721 48.1973 864.721 47.344C864.721 46.5013 865.03 45.7973 865.649 45.232C866.268 44.6667 867.062 44.384 868.033 44.384C869.014 44.384 869.809 44.6667 870.417 45.232C871.025 45.7867 871.329 46.4907 871.329 47.344ZM869.409 48.608C869.761 48.2773 869.937 47.856 869.937 47.344C869.937 46.832 869.756 46.4107 869.393 46.08C869.03 45.7387 868.577 45.568 868.033 45.568C867.489 45.568 867.036 45.7333 866.673 46.064C866.321 46.3947 866.145 46.8213 866.145 47.344C866.145 47.856 866.321 48.2773 866.673 48.608C867.025 48.928 867.478 49.088 868.033 49.088C868.609 49.088 869.068 48.928 869.409 48.608ZM889.573 51.088H876.949V49.92H881.749V45.216H883.173V49.92H889.573V51.088ZM887.941 40.432V42.576C887.909 44.848 887.711 46.752 887.349 48.288C886.751 48.1813 886.298 48.1067 885.989 48.064C886.319 46.7627 886.485 45.1627 886.485 43.264V41.584H878.245V40.432H887.941ZM136.4 71.104V72.736H134.736V71.104C134.736 70.624 134.896 70.1973 135.216 69.824C135.536 69.44 135.925 69.2 136.384 69.104V69.728C136.085 69.8027 135.84 69.9627 135.648 70.208C135.467 70.4533 135.376 70.752 135.376 71.104H136.4ZM143.816 79.616H137.272V70.544H143.816V79.616ZM142.392 78.48V71.696H138.68V78.48H142.392ZM149.864 75.856H147.624V83.12H146.2V69.136H147.624V74.688H149.864V75.856ZM158.715 78.096L158.827 79.232C157.718 79.392 156.294 79.5147 154.555 79.6C152.657 79.696 151.142 79.744 150.011 79.744L149.819 78.544C150.705 78.544 151.371 78.5387 151.819 78.528L151.355 72.832L152.763 72.672L153.131 78.496L154.571 78.432C154.667 78.432 154.843 78.4213 155.099 78.4L155.467 72.656L156.859 72.816L156.347 78.336C157.382 78.272 158.171 78.192 158.715 78.096ZM161.307 83.12H159.899V69.136H161.307V83.12ZM158.059 71.68H150.219V70.528H158.059V71.68ZM175.951 75.856H173.711V83.12H172.287V69.136H173.711V74.688H175.951V75.856ZM164.015 78.656C163.418 77.7387 163.119 76.544 163.119 75.072C163.119 73.6 163.418 72.4107 164.015 71.504C164.612 70.5867 165.498 70.128 166.671 70.128C167.844 70.128 168.724 70.5867 169.311 71.504C169.908 72.4107 170.207 73.6053 170.207 75.088C170.207 76.5493 169.908 77.7387 169.311 78.656C168.724 79.5627 167.844 80.016 166.671 80.016C165.498 80.016 164.612 79.5627 164.015 78.656ZM168.815 75.088C168.815 73.968 168.628 73.0667 168.255 72.384C167.882 71.6907 167.354 71.344 166.671 71.344C165.988 71.344 165.46 71.6853 165.087 72.368C164.724 73.0507 164.543 73.9573 164.543 75.088C164.543 76.1973 164.724 77.0933 165.087 77.776C165.46 78.4587 165.988 78.8 166.671 78.8C167.354 78.8 167.882 78.4587 168.255 77.776C168.628 77.0933 168.815 76.1973 168.815 75.088ZM177.459 69.776V71.376C177.459 71.856 177.299 72.288 176.979 72.672C176.67 73.056 176.286 73.2907 175.827 73.376V72.768C176.126 72.6827 176.36 72.5173 176.531 72.272C176.712 72.0267 176.803 71.728 176.803 71.376H175.811V69.776H177.459ZM188.219 73.296H185.659L185.642 72.096H188.219V69.136H189.627V83.12H188.219V77.904H185.642L185.659 76.72H188.219V73.296ZM179.147 78.64C178.56 77.7227 178.267 76.5333 178.267 75.072C178.267 73.6107 178.56 72.4213 179.147 71.504C179.733 70.5867 180.603 70.128 181.755 70.128C182.907 70.128 183.771 70.5867 184.347 71.504C184.933 72.4213 185.227 73.616 185.227 75.088C185.227 76.5493 184.933 77.7387 184.347 78.656C183.771 79.5627 182.907 80.016 181.755 80.016C180.603 80.016 179.733 79.5573 179.147 78.64ZM183.867 75.088C183.867 73.968 183.68 73.0667 183.307 72.384C182.944 71.6907 182.427 71.344 181.755 71.344C181.083 71.344 180.565 71.6853 180.203 72.368C179.851 73.0507 179.674 73.9573 179.674 75.088C179.674 76.1973 179.851 77.0933 180.203 77.776C180.565 78.4587 181.083 78.8 181.755 78.8C182.427 78.8 182.944 78.4587 183.307 77.776C183.68 77.0933 183.867 76.1973 183.867 75.088ZM202.75 83.12H201.326V75.248H198.206V74.048H201.326V69.136H202.75V83.12ZM199.63 78.736L198.782 79.792C198.1 79.344 197.422 78.7253 196.75 77.936C196.078 77.1467 195.62 76.368 195.374 75.6C195.14 76.4427 194.702 77.28 194.062 78.112C193.433 78.9333 192.724 79.6053 191.934 80.128L191.038 79.088C192.116 78.416 192.985 77.5093 193.646 76.368C194.308 75.2267 194.638 74.0213 194.638 72.752V70.336H196.094V72.688C196.094 73.9467 196.425 75.1093 197.086 76.176C197.748 77.2427 198.596 78.096 199.63 78.736ZM220.557 75.024H218.461V79.44H217.053V69.136H218.461V73.824H220.557V75.024ZM218.941 82.704H209.613V79.04H211.021V81.568H218.941V82.704ZM213.645 70.72H209.581V69.568H213.645V70.72ZM215.789 72.816H207.581V71.68H215.789V72.816ZM215.005 75.984C215.005 76.7413 214.696 77.3493 214.077 77.808C213.458 78.256 212.664 78.48 211.693 78.48C210.733 78.48 209.944 78.256 209.325 77.808C208.706 77.3493 208.397 76.7413 208.397 75.984C208.397 75.2053 208.701 74.592 209.309 74.144C209.928 73.696 210.722 73.472 211.693 73.472C212.664 73.472 213.458 73.696 214.077 74.144C214.696 74.592 215.005 75.2053 215.005 75.984ZM213.597 75.984C213.597 75.5573 213.41 75.2213 213.037 74.976C212.674 74.7307 212.226 74.608 211.693 74.608C211.16 74.608 210.712 74.7307 210.349 74.976C209.986 75.2213 209.805 75.5573 209.805 75.984C209.805 76.3893 209.986 76.72 210.349 76.976C210.722 77.2213 211.17 77.344 211.693 77.344C212.226 77.344 212.674 77.2213 213.037 76.976C213.41 76.7307 213.597 76.4 213.597 75.984ZM234.812 78.896C235.655 79.3227 236.076 79.9147 236.076 80.672C236.076 81.4293 235.655 82.0213 234.812 82.448C233.98 82.8853 232.823 83.104 231.34 83.104C229.857 83.104 228.695 82.8853 227.852 82.448C227.009 82.0213 226.588 81.4293 226.588 80.672C226.588 79.9147 227.009 79.3227 227.852 78.896C228.695 78.4693 229.857 78.256 231.34 78.256C232.823 78.256 233.98 78.4693 234.812 78.896ZM235.916 78.304H234.556V74.256H233.02V77.808H231.676V69.392H233.02V73.088H234.556V69.136H235.916V78.304ZM230.668 75.632C230.668 76.3147 230.401 76.8587 229.868 77.264C229.345 77.6587 228.609 77.856 227.66 77.856C226.711 77.856 225.969 77.6587 225.436 77.264C224.903 76.8587 224.636 76.3147 224.636 75.632C224.636 74.9387 224.903 74.3893 225.436 73.984C225.969 73.5787 226.711 73.376 227.66 73.376C228.609 73.376 229.345 73.5787 229.868 73.984C230.401 74.3893 230.668 74.9387 230.668 75.632ZM231.34 79.36C230.316 79.36 229.505 79.4773 228.908 79.712C228.321 79.9467 228.028 80.2667 228.028 80.672C228.028 81.0773 228.321 81.4027 228.908 81.648C229.505 81.8827 230.316 82 231.34 82C232.353 82 233.153 81.8827 233.74 81.648C234.337 81.4027 234.636 81.0773 234.636 80.672C234.636 80.2667 234.337 79.9467 233.74 79.712C233.153 79.4773 232.353 79.36 231.34 79.36ZM231.212 72.864H224.028V71.728H231.212V72.864ZM228.86 76.4C229.159 76.208 229.308 75.952 229.308 75.632C229.308 75.312 229.159 75.056 228.86 74.864C228.572 74.672 228.172 74.576 227.66 74.576C227.148 74.576 226.743 74.672 226.444 74.864C226.145 75.056 225.996 75.312 225.996 75.632C225.996 75.952 226.145 76.208 226.444 76.4C226.743 76.592 227.148 76.688 227.66 76.688C228.172 76.688 228.572 76.592 228.86 76.4ZM229.388 70.88H225.724V69.744H229.388V70.88ZM245.344 72.832C245.344 73.7067 244.997 74.4267 244.304 74.992C243.61 75.5467 242.725 75.824 241.648 75.824C240.56 75.824 239.669 75.5467 238.976 74.992C238.293 74.4267 237.952 73.7067 237.952 72.832C237.952 71.936 238.293 71.2107 238.976 70.656C239.658 70.0907 240.549 69.808 241.648 69.808C242.736 69.808 243.621 70.0907 244.304 70.656C244.997 71.2107 245.344 71.936 245.344 72.832ZM248.72 83.12H247.312V69.136H248.72V83.12ZM242.336 82.704H240.928V78.016C240.042 78.048 238.789 78.0747 237.168 78.096L236.96 76.864C238.848 76.864 240.432 76.8373 241.712 76.784C243.749 76.6987 245.338 76.592 246.48 76.464L246.64 77.584C246 77.68 244.565 77.7973 242.336 77.936V82.704ZM243.248 74.112C243.674 73.7813 243.888 73.3493 243.888 72.816C243.888 72.2827 243.674 71.8507 243.248 71.52C242.821 71.1787 242.288 71.008 241.648 71.008C241.008 71.008 240.474 71.1787 240.048 71.52C239.621 71.8507 239.408 72.2827 239.408 72.816C239.408 73.3387 239.621 73.7653 240.048 74.096C240.474 74.4267 241.008 74.592 241.648 74.592C242.298 74.592 242.832 74.432 243.248 74.112ZM249.956 83.488L250.516 80.256H252.132L251.14 83.488H249.956ZM258.497 71.104V72.736H256.833V71.104C256.833 70.624 256.993 70.1973 257.313 69.824C257.633 69.44 258.022 69.2 258.481 69.104V69.728C258.182 69.8027 257.937 69.9627 257.745 70.208C257.564 70.4533 257.473 70.752 257.473 71.104H258.497ZM270.489 83.12H269.081V69.136H270.489V83.12ZM267.417 78.704L266.569 79.76C265.865 79.2693 265.182 78.6453 264.521 77.888C263.87 77.12 263.427 76.3573 263.193 75.6C262.947 76.4533 262.51 77.2907 261.881 78.112C261.251 78.9333 260.537 79.6053 259.737 80.128L258.857 79.088C259.923 78.4053 260.787 77.4987 261.449 76.368C262.11 75.2267 262.441 74.0213 262.441 72.752V70.368H263.913V72.688C263.913 73.9467 264.243 75.12 264.905 76.208C265.566 77.2853 266.403 78.1173 267.417 78.704ZM283.436 79.296H282.012V69.136H283.436V79.296ZM283.724 82.688H274.252V78.32H275.676V81.552H283.724V82.688ZM279.34 76.848H272.668V70.416H279.34V76.848ZM277.948 75.728V71.552H274.076V75.728H277.948ZM286.512 69.776V71.376C286.512 71.856 286.352 72.288 286.032 72.672C285.723 73.056 285.339 73.2907 284.88 73.376V72.768C285.179 72.6827 285.413 72.5173 285.584 72.272C285.765 72.0267 285.856 71.728 285.856 71.376H284.864V69.776H286.512ZM298.76 83.12H297.336V69.136H298.76V83.12ZM287.72 75.12C287.72 73.6587 288.024 72.4747 288.632 71.568C289.24 70.6507 290.136 70.192 291.32 70.192C292.504 70.192 293.394 70.6507 293.992 71.568C294.6 72.4747 294.904 73.664 294.904 75.136C294.904 76.608 294.6 77.8027 293.992 78.72C293.394 79.6267 292.504 80.08 291.32 80.08C290.136 80.08 289.24 79.6213 288.632 78.704C288.024 77.7867 287.72 76.592 287.72 75.12ZM292.936 77.84C293.309 77.1573 293.496 76.256 293.496 75.136C293.496 74.016 293.309 73.1147 292.936 72.432C292.562 71.7493 292.024 71.408 291.32 71.408C290.626 71.408 290.093 71.7493 289.72 72.432C289.346 73.1147 289.16 74.016 289.16 75.136C289.16 76.256 289.346 77.1573 289.72 77.84C290.093 78.512 290.626 78.848 291.32 78.848C292.024 78.848 292.562 78.512 292.936 77.84ZM301.243 78.64C300.635 77.7227 300.331 76.5333 300.331 75.072C300.331 73.6107 300.635 72.4213 301.243 71.504C301.851 70.5867 302.747 70.128 303.931 70.128C305.019 70.128 305.857 70.5227 306.443 71.312C307.041 72.0907 307.387 73.1307 307.483 74.432H310.315V69.136H311.739V83.12H310.315V75.632H307.483C307.398 76.9547 307.057 78.016 306.459 78.816C305.873 79.616 305.03 80.016 303.931 80.016C302.747 80.016 301.851 79.5573 301.243 78.64ZM306.091 75.088C306.091 73.968 305.899 73.0667 305.515 72.384C305.142 71.6907 304.614 71.344 303.931 71.344C303.238 71.344 302.705 71.6853 302.331 72.368C301.969 73.0507 301.787 73.9573 301.787 75.088C301.787 76.1973 301.969 77.0933 302.331 77.776C302.705 78.4587 303.238 78.8 303.931 78.8C304.614 78.8 305.142 78.4587 305.515 77.776C305.899 77.0933 306.091 76.1973 306.091 75.088ZM324.847 83.12H323.423V75.248H320.303V74.048H323.423V69.136H324.847V83.12ZM321.727 78.736L320.879 79.792C320.196 79.344 319.519 78.7253 318.847 77.936C318.175 77.1467 317.716 76.368 317.471 75.6C317.236 76.4427 316.799 77.28 316.159 78.112C315.53 78.9333 314.82 79.6053 314.031 80.128L313.135 79.088C314.212 78.416 315.082 77.5093 315.743 76.368C316.404 75.2267 316.735 74.0213 316.735 72.752V70.336H318.191V72.688C318.191 73.9467 318.522 75.1093 319.183 76.176C319.844 77.2427 320.692 78.096 321.727 78.736ZM342.654 75.024H340.558V79.44H339.15V69.136H340.558V73.824H342.654V75.024ZM341.038 82.704H331.71V79.04H333.118V81.568H341.038V82.704ZM335.742 70.72H331.678V69.568H335.742V70.72ZM337.886 72.816H329.678V71.68H337.886V72.816ZM337.102 75.984C337.102 76.7413 336.793 77.3493 336.174 77.808C335.555 78.256 334.761 78.48 333.79 78.48C332.83 78.48 332.041 78.256 331.422 77.808C330.803 77.3493 330.494 76.7413 330.494 75.984C330.494 75.2053 330.798 74.592 331.406 74.144C332.025 73.696 332.819 73.472 333.79 73.472C334.761 73.472 335.555 73.696 336.174 74.144C336.793 74.592 337.102 75.2053 337.102 75.984ZM335.694 75.984C335.694 75.5573 335.507 75.2213 335.134 74.976C334.771 74.7307 334.323 74.608 333.79 74.608C333.257 74.608 332.809 74.7307 332.446 74.976C332.083 75.2213 331.902 75.5573 331.902 75.984C331.902 76.3893 332.083 76.72 332.446 76.976C332.819 77.2213 333.267 77.344 333.79 77.344C334.323 77.344 334.771 77.2213 335.134 76.976C335.507 76.7307 335.694 76.4 335.694 75.984ZM356.909 78.896C357.752 79.3227 358.173 79.9147 358.173 80.672C358.173 81.4293 357.752 82.0213 356.909 82.448C356.077 82.8853 354.92 83.104 353.437 83.104C351.954 83.104 350.792 82.8853 349.949 82.448C349.106 82.0213 348.685 81.4293 348.685 80.672C348.685 79.9147 349.106 79.3227 349.949 78.896C350.792 78.4693 351.954 78.256 353.437 78.256C354.92 78.256 356.077 78.4693 356.909 78.896ZM358.013 78.304H356.653V74.256H355.117V77.808H353.773V69.392H355.117V73.088H356.653V69.136H358.013V78.304ZM352.765 75.632C352.765 76.3147 352.498 76.8587 351.965 77.264C351.442 77.6587 350.706 77.856 349.757 77.856C348.808 77.856 348.066 77.6587 347.533 77.264C347 76.8587 346.733 76.3147 346.733 75.632C346.733 74.9387 347 74.3893 347.533 73.984C348.066 73.5787 348.808 73.376 349.757 73.376C350.706 73.376 351.442 73.5787 351.965 73.984C352.498 74.3893 352.765 74.9387 352.765 75.632ZM353.437 79.36C352.413 79.36 351.602 79.4773 351.005 79.712C350.418 79.9467 350.125 80.2667 350.125 80.672C350.125 81.0773 350.418 81.4027 351.005 81.648C351.602 81.8827 352.413 82 353.437 82C354.45 82 355.25 81.8827 355.837 81.648C356.434 81.4027 356.733 81.0773 356.733 80.672C356.733 80.2667 356.434 79.9467 355.837 79.712C355.25 79.4773 354.45 79.36 353.437 79.36ZM353.309 72.864H346.125V71.728H353.309V72.864ZM350.957 76.4C351.256 76.208 351.405 75.952 351.405 75.632C351.405 75.312 351.256 75.056 350.957 74.864C350.669 74.672 350.269 74.576 349.757 74.576C349.245 74.576 348.84 74.672 348.541 74.864C348.242 75.056 348.093 75.312 348.093 75.632C348.093 75.952 348.242 76.208 348.541 76.4C348.84 76.592 349.245 76.688 349.757 76.688C350.269 76.688 350.669 76.592 350.957 76.4ZM351.485 70.88H347.821V69.744H351.485V70.88ZM367.441 72.832C367.441 73.7067 367.094 74.4267 366.401 74.992C365.707 75.5467 364.822 75.824 363.745 75.824C362.657 75.824 361.766 75.5467 361.073 74.992C360.39 74.4267 360.049 73.7067 360.049 72.832C360.049 71.936 360.39 71.2107 361.073 70.656C361.755 70.0907 362.646 69.808 363.745 69.808C364.833 69.808 365.718 70.0907 366.401 70.656C367.094 71.2107 367.441 71.936 367.441 72.832ZM370.817 83.12H369.409V69.136H370.817V83.12ZM364.433 82.704H363.025V78.016C362.139 78.048 360.886 78.0747 359.265 78.096L359.057 76.864C360.945 76.864 362.529 76.8373 363.809 76.784C365.846 76.6987 367.435 76.592 368.577 76.464L368.737 77.584C368.097 77.68 366.662 77.7973 364.433 77.936V82.704ZM365.345 74.112C365.771 73.7813 365.985 73.3493 365.985 72.816C365.985 72.2827 365.771 71.8507 365.345 71.52C364.918 71.1787 364.385 71.008 363.745 71.008C363.105 71.008 362.571 71.1787 362.145 71.52C361.718 71.8507 361.505 72.2827 361.505 72.816C361.505 73.3387 361.718 73.7653 362.145 74.096C362.571 74.4267 363.105 74.592 363.745 74.592C364.395 74.592 364.929 74.432 365.345 74.112ZM384.916 81.344H372.292V80.192H377.86V77.984H373.812V73.488H381.94V71.44H373.78V70.288H383.348V74.64H375.22V76.832H383.732V77.984H379.284V80.192H384.916V81.344ZM400.211 76.256H398.787V69.136H400.211V76.256ZM400.707 83.024H391.123V79.424H398.787V78.128H391.075V76.976H400.211V80.48H392.531V81.856H400.707V83.024ZM390.147 70.512C390.841 69.904 391.694 69.6 392.707 69.6C393.721 69.6 394.569 69.8987 395.251 70.496C395.934 71.0933 396.275 71.856 396.275 72.784C396.275 73.7013 395.934 74.448 395.251 75.024C394.569 75.6 393.721 75.888 392.707 75.888C391.694 75.888 390.841 75.6053 390.147 75.04C389.465 74.4747 389.123 73.728 389.123 72.8C389.123 71.872 389.465 71.1093 390.147 70.512ZM392.707 70.816C392.089 70.816 391.566 71.0027 391.139 71.376C390.723 71.7493 390.515 72.2187 390.515 72.784C390.515 73.3493 390.723 73.8133 391.139 74.176C391.555 74.528 392.078 74.704 392.707 74.704C393.358 74.704 393.881 74.5227 394.275 74.16C394.681 73.7973 394.883 73.3387 394.883 72.784C394.883 72.1973 394.686 71.7227 394.291 71.36C393.897 70.9973 393.369 70.816 392.707 70.816ZM414.679 74.4H412.583V79.264H411.175V69.136H412.583V73.216H414.679V74.4ZM413.079 82.672H403.703V78.336H405.111V81.52H413.079V82.672ZM408.839 77.184H402.231V70.08H403.623V72.464H407.431V70.064H408.839V77.184ZM407.431 76.048V73.584H403.623V76.048H407.431ZM423.547 80.368C422.523 80.5067 420.917 80.64 418.731 80.768C417.323 80.8427 416 80.88 414.763 80.88L414.555 79.696C416.133 79.696 417.371 79.6747 418.267 79.632V78.368C417.477 78.2613 416.837 78 416.347 77.584C415.867 77.1573 415.627 76.64 415.627 76.032C415.627 75.3173 415.936 74.7413 416.555 74.304C417.184 73.856 417.989 73.632 418.971 73.632C419.973 73.632 420.779 73.8507 421.387 74.288C422.005 74.7253 422.315 75.3067 422.315 76.032C422.315 76.6507 422.075 77.1733 421.595 77.6C421.115 78.016 420.475 78.272 419.675 78.368V79.552C421.136 79.4773 422.379 79.376 423.403 79.248L423.547 80.368ZM427.851 76.544H425.691V83.12H424.299V69.136H425.691V75.36H427.851V76.544ZM423.195 73.056H414.891V71.888H423.195V73.056ZM420.859 76.032C420.859 75.6693 420.683 75.3707 420.331 75.136C419.979 74.9013 419.525 74.784 418.971 74.784C418.427 74.784 417.979 74.9067 417.627 75.152C417.275 75.3867 417.099 75.68 417.099 76.032C417.099 76.3733 417.275 76.6667 417.627 76.912C417.979 77.1573 418.427 77.28 418.971 77.28C419.525 77.28 419.979 77.1573 420.331 76.912C420.683 76.6667 420.859 76.3733 420.859 76.032ZM420.939 70.976H416.955V69.824H420.939V70.976ZM440.895 76.144H438.671V83.12H437.247V69.136H438.671V74.96H440.895V76.144ZM434.047 71.2H429.871V70.048H434.047V71.2ZM436.079 73.6H427.791V72.464H436.079V73.6ZM435.295 77.344C435.295 78.1867 434.991 78.8853 434.383 79.44C433.775 79.9947 432.98 80.272 431.999 80.272C431.017 80.272 430.217 80 429.599 79.456C428.991 78.9013 428.687 78.1973 428.687 77.344C428.687 76.5013 428.996 75.7973 429.615 75.232C430.233 74.6667 431.028 74.384 431.999 74.384C432.98 74.384 433.775 74.6667 434.383 75.232C434.991 75.7867 435.295 76.4907 435.295 77.344ZM433.375 78.608C433.727 78.2773 433.903 77.856 433.903 77.344C433.903 76.832 433.721 76.4107 433.359 76.08C432.996 75.7387 432.543 75.568 431.999 75.568C431.455 75.568 431.001 75.7333 430.639 76.064C430.287 76.3947 430.111 76.8213 430.111 77.344C430.111 77.856 430.287 78.2773 430.639 78.608C430.991 78.928 431.444 79.088 431.999 79.088C432.575 79.088 433.033 78.928 433.375 78.608ZM450.962 73.296H448.402L448.386 72.096H450.962V69.136H452.37V83.12H450.962V77.904H448.386L448.402 76.72H450.962V73.296ZM441.89 78.64C441.304 77.7227 441.01 76.5333 441.01 75.072C441.01 73.6107 441.304 72.4213 441.89 71.504C442.477 70.5867 443.346 70.128 444.498 70.128C445.65 70.128 446.514 70.5867 447.09 71.504C447.677 72.4213 447.97 73.616 447.97 75.088C447.97 76.5493 447.677 77.7387 447.09 78.656C446.514 79.5627 445.65 80.016 444.498 80.016C443.346 80.016 442.477 79.5573 441.89 78.64ZM446.61 75.088C446.61 73.968 446.424 73.0667 446.05 72.384C445.688 71.6907 445.17 71.344 444.498 71.344C443.826 71.344 443.309 71.6853 442.946 72.368C442.594 73.0507 442.418 73.9573 442.418 75.088C442.418 76.1973 442.594 77.0933 442.946 77.776C443.309 78.4587 443.826 78.8 444.498 78.8C445.17 78.8 445.688 78.4587 446.05 77.776C446.424 77.0933 446.61 76.1973 446.61 75.088ZM467.409 73.008H464.689V71.84H467.409V69.136H468.833V76.32H467.409V73.008ZM465.473 74.88L464.673 75.968C464.001 75.7013 463.372 75.312 462.785 74.8C462.209 74.2773 461.766 73.68 461.457 73.008C461.244 73.7013 460.833 74.352 460.225 74.96C459.617 75.5573 458.908 76.032 458.097 76.384L457.249 75.328C458.262 74.9227 459.089 74.3307 459.729 73.552C460.38 72.7627 460.705 71.8453 460.705 70.8V69.648H462.145V70.736C462.145 71.7707 462.476 72.6507 463.137 73.376C463.809 74.0907 464.588 74.592 465.473 74.88ZM469.329 83.024H459.761V79.488H467.409V78.208H459.665V77.072H468.833V80.544H461.169V81.856H469.329V83.024ZM480.693 78.4C481.536 78.8907 481.957 79.5573 481.957 80.4C481.957 81.2427 481.541 81.904 480.709 82.384C479.877 82.8747 478.704 83.12 477.189 83.12C475.696 83.12 474.528 82.8747 473.685 82.384C472.853 81.904 472.437 81.2427 472.437 80.4C472.437 79.5573 472.853 78.8907 473.685 78.4C474.528 77.9093 475.696 77.664 477.189 77.664C478.693 77.664 479.861 77.9093 480.693 78.4ZM477.189 78.832C476.165 78.832 475.36 78.9707 474.773 79.248C474.197 79.5253 473.909 79.9093 473.909 80.4C473.909 80.8907 474.197 81.2747 474.773 81.552C475.36 81.8187 476.165 81.952 477.189 81.952C478.245 81.952 479.061 81.8187 479.637 81.552C480.224 81.2747 480.517 80.8907 480.517 80.4C480.517 79.9093 480.224 79.5253 479.637 79.248C479.061 78.9707 478.245 78.832 477.189 78.832ZM478.181 72.48V71.344H480.453V69.136H481.877V77.712H480.453V75.36H478.181V74.224H480.453V72.48H478.181ZM477.477 76.592H471.029V70.224H477.477V76.592ZM476.069 75.472V71.344H472.437V75.472H476.069ZM496.345 75.024H494.249V79.44H492.841V69.136H494.249V73.824H496.345V75.024ZM494.729 82.704H485.401V79.04H486.809V81.568H494.729V82.704ZM489.433 70.72H485.369V69.568H489.433V70.72ZM491.577 72.816H483.369V71.68H491.577V72.816ZM490.793 75.984C490.793 76.7413 490.483 77.3493 489.865 77.808C489.246 78.256 488.451 78.48 487.481 78.48C486.521 78.48 485.731 78.256 485.113 77.808C484.494 77.3493 484.185 76.7413 484.185 75.984C484.185 75.2053 484.489 74.592 485.097 74.144C485.715 73.696 486.51 73.472 487.481 73.472C488.451 73.472 489.246 73.696 489.865 74.144C490.483 74.592 490.793 75.2053 490.793 75.984ZM489.385 75.984C489.385 75.5573 489.198 75.2213 488.825 74.976C488.462 74.7307 488.014 74.608 487.481 74.608C486.947 74.608 486.499 74.7307 486.137 74.976C485.774 75.2213 485.593 75.5573 485.593 75.984C485.593 76.3893 485.774 76.72 486.137 76.976C486.51 77.2213 486.958 77.344 487.481 77.344C488.014 77.344 488.462 77.2213 488.825 76.976C489.198 76.7307 489.385 76.4 489.385 75.984ZM498.492 78.528H499.068C501.564 78.528 503.506 78.3787 504.892 78.08L505.052 79.232C503.602 79.5307 501.468 79.6907 498.652 79.712H497.084V70.608H503.692V71.776H498.492V78.528ZM507.292 69.136V74.592H509.468V75.776H507.292V83.12H505.884V69.136H507.292ZM509.632 81.696V80.128H511.184V81.696H509.632ZM529.07 75.808H527.102V83.12H525.71V69.136H527.102V74.608H529.07V75.808ZM520.366 79.056C519.342 79.3013 518.024 79.424 516.414 79.424V70.592H519.934V71.744H517.822V78.256C518.622 78.256 519.411 78.1547 520.19 77.952L520.366 79.056ZM525.086 79.088C524.051 79.312 522.606 79.424 520.75 79.424V70.592H524.446V71.744H522.142V78.256C523.134 78.256 524.051 78.1653 524.894 77.984L525.086 79.088ZM537.377 78.16L537.521 79.344C535.708 79.6533 533.628 79.808 531.281 79.808H529.601V74.32H534.625V71.552H529.553V70.4H536.033V75.456H531.009V78.64C533.527 78.6613 535.649 78.5013 537.377 78.16ZM539.889 69.136V74.688H542.065V75.856H539.889V83.12H538.481V69.136H539.889ZM553.669 83.12H552.245V75.248H549.125V74.048H552.245V69.136H553.669V83.12ZM550.549 78.736L549.701 79.792C549.018 79.344 548.341 78.7253 547.669 77.936C546.997 77.1467 546.538 76.368 546.293 75.6C546.058 76.4427 545.621 77.28 544.981 78.112C544.352 78.9333 543.642 79.6053 542.853 80.128L541.957 79.088C543.034 78.416 543.904 77.5093 544.565 76.368C545.226 75.2267 545.557 74.0213 545.557 72.752V70.336H547.013V72.688C547.013 73.9467 547.344 75.1093 548.005 76.176C548.666 77.2427 549.514 78.096 550.549 78.736ZM570.052 79.296H568.628V69.136H570.052V79.296ZM567.044 76.016L566.228 77.12C565.545 76.832 564.879 76.384 564.228 75.776C563.588 75.1573 563.124 74.5067 562.836 73.824C562.623 74.56 562.185 75.2907 561.524 76.016C560.873 76.7307 560.18 77.2533 559.444 77.584L558.58 76.48C559.572 76.064 560.404 75.3973 561.076 74.48C561.759 73.552 562.1 72.5547 562.1 71.488V69.92H563.54V71.424C563.54 72.48 563.892 73.4293 564.596 74.272C565.311 75.1147 566.127 75.696 567.044 76.016ZM570.356 82.72H560.932V78.352H562.356V81.568H570.356V82.72ZM580.28 76.96H576.984V79.056C578.69 78.9707 580.002 78.864 580.92 78.736L581.048 79.84C579.97 79.9893 578.408 80.1227 576.36 80.24C575.229 80.304 573.736 80.352 571.88 80.384L571.656 79.2C572.85 79.2 574.157 79.168 575.576 79.104V76.96H572.632V73.04H578.568V71.456H572.616V70.32H579.976V74.128H574.04V75.808H580.28V76.96ZM583.192 83.12H581.784V69.136H583.192V83.12ZM597.547 74.048H595.467V77.072H594.059V69.136H595.467V72.864H597.547V74.048ZM595.963 83.072H586.523V79.84H594.059V78.88H586.491V77.792H595.467V80.88H587.947V81.952H595.963V83.072ZM590.763 70.48H586.699V69.344H590.763V70.48ZM592.811 72.336H584.587V71.232H592.811V72.336ZM591.035 73.408C591.654 73.792 591.963 74.3147 591.963 74.976C591.963 75.6373 591.654 76.16 591.035 76.544C590.427 76.928 589.638 77.12 588.667 77.12C587.707 77.12 586.913 76.928 586.283 76.544C585.654 76.16 585.339 75.6373 585.339 74.976C585.339 74.3147 585.649 73.792 586.267 73.408C586.897 73.0133 587.697 72.816 588.667 72.816C589.627 72.816 590.417 73.0133 591.035 73.408ZM590.555 74.976C590.555 74.6347 590.374 74.368 590.011 74.176C589.649 73.984 589.201 73.888 588.667 73.888C588.134 73.888 587.681 73.984 587.307 74.176C586.945 74.368 586.763 74.6347 586.763 74.976C586.763 75.3067 586.95 75.5733 587.323 75.776C587.697 75.968 588.145 76.064 588.667 76.064C589.19 76.064 589.633 75.968 589.995 75.776C590.369 75.5733 590.555 75.3067 590.555 74.976ZM608.218 76.848H601.61V70.336H608.218V76.848ZM606.81 75.728V71.472H603.002V75.728H606.81ZM614.01 74.496H611.914V79.296H610.49V69.136H611.914V73.328H614.01V74.496ZM612.394 82.672H603.066V78.304H604.474V81.52H612.394V82.672ZM627.054 75.024H624.958V79.44H623.55V69.136H624.958V73.824H627.054V75.024ZM625.438 82.704H616.11V79.04H617.518V81.568H625.438V82.704ZM620.142 70.72H616.078V69.568H620.142V70.72ZM622.286 72.816H614.078V71.68H622.286V72.816ZM621.502 75.984C621.502 76.7413 621.193 77.3493 620.574 77.808C619.955 78.256 619.161 78.48 618.19 78.48C617.23 78.48 616.441 78.256 615.822 77.808C615.203 77.3493 614.894 76.7413 614.894 75.984C614.894 75.2053 615.198 74.592 615.806 74.144C616.425 73.696 617.219 73.472 618.19 73.472C619.161 73.472 619.955 73.696 620.574 74.144C621.193 74.592 621.502 75.2053 621.502 75.984ZM620.094 75.984C620.094 75.5573 619.907 75.2213 619.534 74.976C619.171 74.7307 618.723 74.608 618.19 74.608C617.657 74.608 617.209 74.7307 616.846 74.976C616.483 75.2213 616.302 75.5573 616.302 75.984C616.302 76.3893 616.483 76.72 616.846 76.976C617.219 77.2213 617.667 77.344 618.19 77.344C618.723 77.344 619.171 77.2213 619.534 76.976C619.907 76.7307 620.094 76.4 620.094 75.984ZM642.413 83.12H641.053V75.76H639.341V82.432H637.997V69.44H639.341V74.592H641.053V69.136H642.413V83.12ZM637.229 78.928C636.141 79.184 634.562 79.3333 632.493 79.376H631.149V70.688H632.573V78.176C634.557 78.176 636.04 78.0373 637.021 77.76C637.064 77.9733 637.133 78.3627 637.229 78.928ZM654.769 72.112C654.769 73.072 654.209 73.7813 653.089 74.24V76.144H656.273V77.296H643.649V76.144H646.769V74.208C645.681 73.7493 645.137 73.0507 645.137 72.112C645.137 71.3013 645.558 70.6667 646.401 70.208C647.254 69.7387 648.438 69.504 649.953 69.504C651.467 69.504 652.646 69.7387 653.489 70.208C654.342 70.6667 654.769 71.3013 654.769 72.112ZM653.601 78.72C654.486 79.1573 654.929 79.776 654.929 80.576C654.929 81.376 654.486 81.9947 653.601 82.432C652.726 82.88 651.51 83.104 649.953 83.104C648.406 83.104 647.195 82.88 646.321 82.432C645.446 81.9947 645.009 81.376 645.009 80.576C645.009 79.776 645.446 79.1573 646.321 78.72C647.195 78.2827 648.406 78.064 649.953 78.064C651.51 78.064 652.726 78.2827 653.601 78.72ZM653.329 72.112C653.329 71.632 653.03 71.264 652.433 71.008C651.835 70.752 651.009 70.624 649.953 70.624C648.907 70.624 648.086 70.7573 647.489 71.024C646.891 71.28 646.593 71.6427 646.593 72.112C646.593 72.5813 646.891 72.9493 647.489 73.216C648.086 73.472 648.907 73.6 649.953 73.6C650.998 73.6 651.819 73.472 652.417 73.216C653.025 72.9493 653.329 72.5813 653.329 72.112ZM649.953 79.2C648.897 79.2 648.059 79.3227 647.441 79.568C646.822 79.8027 646.513 80.144 646.513 80.592C646.513 81.0293 646.822 81.3653 647.441 81.6C648.059 81.8347 648.897 81.952 649.953 81.952C651.03 81.952 651.878 81.8347 652.497 81.6C653.126 81.3653 653.441 81.0293 653.441 80.592C653.441 80.144 653.126 79.8027 652.497 79.568C651.867 79.3227 651.019 79.2 649.953 79.2ZM649.953 74.736C649.291 74.736 648.699 74.688 648.177 74.592V76.144H651.681V74.608C651.137 74.6933 650.561 74.736 649.953 74.736ZM668.228 83.12H666.804V69.136H668.228V83.12ZM657.188 75.12C657.188 73.6587 657.492 72.4747 658.1 71.568C658.708 70.6507 659.604 70.192 660.788 70.192C661.972 70.192 662.863 70.6507 663.46 71.568C664.068 72.4747 664.372 73.664 664.372 75.136C664.372 76.608 664.068 77.8027 663.46 78.72C662.863 79.6267 661.972 80.08 660.788 80.08C659.604 80.08 658.708 79.6213 658.1 78.704C657.492 77.7867 657.188 76.592 657.188 75.12ZM662.404 77.84C662.778 77.1573 662.964 76.256 662.964 75.136C662.964 74.016 662.778 73.1147 662.404 72.432C662.031 71.7493 661.492 71.408 660.788 71.408C660.095 71.408 659.562 71.7493 659.188 72.432C658.815 73.1147 658.628 74.016 658.628 75.136C658.628 76.256 658.815 77.1573 659.188 77.84C659.562 78.512 660.095 78.848 660.788 78.848C661.492 78.848 662.031 78.512 662.404 77.84ZM682.435 79.904C681.294 80.0427 679.79 80.1653 677.923 80.272C676.281 80.3573 674.761 80.4 673.363 80.4L673.155 79.2C674.521 79.2 675.817 79.1787 677.043 79.136V76.288H674.147V70.48H681.443V71.632H675.555V75.136H681.523V76.288H678.451V79.088C680.265 78.992 681.561 78.8907 682.339 78.784L682.435 79.904ZM684.707 83.12H683.299V69.136H684.707V83.12ZM694.791 78.736L693.959 79.792C693.244 79.376 692.546 78.7787 691.863 78C691.18 77.2107 690.732 76.4427 690.519 75.696C690.316 76.5173 689.89 77.3387 689.239 78.16C688.588 78.9707 687.847 79.6213 687.015 80.112L686.119 79.088C687.218 78.4373 688.103 77.5627 688.775 76.464C689.447 75.3547 689.783 74.1387 689.783 72.816V71.696H686.615V70.544H694.375V71.696H691.239V72.816C691.239 74.1173 691.57 75.2907 692.231 76.336C692.892 77.3707 693.746 78.1707 694.791 78.736ZM696.295 69.136H697.719V83.12H696.295V69.136ZM713.638 74.688H709.622V76.304H715.254V77.456H702.63V76.304H708.198V74.688H704.246V69.696H713.638V74.688ZM712.198 73.568V70.816H705.654V73.568H712.198ZM714.422 82.08L713.734 83.216C712.753 83.0667 711.787 82.688 710.838 82.08C709.889 81.4827 709.249 80.8693 708.918 80.24C708.641 80.848 708.033 81.44 707.094 82.016C706.166 82.592 705.19 82.96 704.166 83.12L703.478 82C704.726 81.9253 705.825 81.5253 706.774 80.8C707.723 80.064 708.198 79.28 708.198 78.448V78H709.67V78.448C709.67 79.2587 710.166 80.0427 711.158 80.8C712.15 81.5467 713.238 81.9733 714.422 82.08ZM728.57 75.024H726.474V79.44H725.066V69.136H726.474V73.824H728.57V75.024ZM726.954 82.704H717.626V79.04H719.034V81.568H726.954V82.704ZM721.658 70.72H717.594V69.568H721.658V70.72ZM723.802 72.816H715.594V71.68H723.802V72.816ZM723.018 75.984C723.018 76.7413 722.708 77.3493 722.09 77.808C721.471 78.256 720.676 78.48 719.706 78.48C718.746 78.48 717.956 78.256 717.338 77.808C716.719 77.3493 716.41 76.7413 716.41 75.984C716.41 75.2053 716.714 74.592 717.322 74.144C717.94 73.696 718.735 73.472 719.706 73.472C720.676 73.472 721.471 73.696 722.09 74.144C722.708 74.592 723.018 75.2053 723.018 75.984ZM721.61 75.984C721.61 75.5573 721.423 75.2213 721.05 74.976C720.687 74.7307 720.239 74.608 719.706 74.608C719.172 74.608 718.724 74.7307 718.362 74.976C717.999 75.2213 717.818 75.5573 717.818 75.984C717.818 76.3893 717.999 76.72 718.362 76.976C718.735 77.2213 719.183 77.344 719.706 77.344C720.239 77.344 720.687 77.2213 721.05 76.976C721.423 76.7307 721.61 76.4 721.61 75.984ZM730.717 78.528H731.293C733.789 78.528 735.731 78.3787 737.117 78.08L737.277 79.232C735.827 79.5307 733.693 79.6907 730.877 79.712H729.309V70.608H735.917V71.776H730.717V78.528ZM739.517 69.136V74.592H741.693V75.776H739.517V83.12H738.109V69.136H739.517ZM741.857 81.696V80.128H743.409V81.696H741.857ZM760.238 83.024H750.718V79.488H758.318V78.288H750.654V77.136H759.742V80.56H752.126V81.856H760.238V83.024ZM757.006 74.576L757.118 75.664C756.372 75.792 754.985 75.92 752.958 76.048C750.974 76.1333 749.524 76.176 748.606 76.176L748.398 74.976C749.23 74.976 749.854 74.9707 750.27 74.96L749.918 71.952L751.31 71.792L751.534 74.928C752.238 74.9067 752.766 74.8853 753.118 74.864C753.342 74.864 753.508 74.8587 753.614 74.848L753.822 71.776L755.198 71.936L754.862 74.8C755.716 74.736 756.43 74.6613 757.006 74.576ZM759.742 76.432H758.318V69.136H759.742V76.432ZM756.446 71.12H748.814V70H756.446V71.12ZM769.554 78.816L768.722 79.856C768.018 79.4507 767.33 78.8587 766.658 78.08C765.986 77.3013 765.544 76.5387 765.33 75.792C765.117 76.592 764.685 77.4027 764.034 78.224C763.394 79.0347 762.658 79.696 761.826 80.208L760.914 79.168C762.013 78.5387 762.898 77.664 763.57 76.544C764.253 75.424 764.594 74.2133 764.594 72.912V71.76H761.442V70.592H769.138V71.76H766.05V72.896C766.05 74.1973 766.37 75.3653 767.01 76.4C767.661 77.4347 768.509 78.24 769.554 78.816ZM774.306 75.904H772.114V83.12H770.706V69.136H772.114V74.72H774.306V75.904ZM785.158 69.136V74.864H787.398V76.048H785.158V83.12H783.75V69.136H785.158ZM781.478 70.624C781.435 72.8 780.875 74.7093 779.798 76.352C778.721 77.9947 777.201 79.3493 775.238 80.416L774.374 79.344C775.995 78.5653 777.297 77.4987 778.278 76.144C779.27 74.7893 779.83 73.3493 779.958 71.824H774.982V70.624H781.478ZM799.509 77.936C798.314 78.1067 796.837 78.2347 795.077 78.32C792.965 78.4267 791.509 78.48 790.709 78.48L790.501 77.312C791.589 77.312 792.869 77.2853 794.341 77.232V76.352C793.594 76.2773 792.992 76.0853 792.533 75.776C792.085 75.456 791.861 75.0347 791.861 74.512C791.861 73.8933 792.16 73.4187 792.757 73.088C793.365 72.7467 794.138 72.576 795.077 72.576C796.016 72.576 796.789 72.7467 797.397 73.088C798.005 73.4187 798.309 73.888 798.309 74.496C798.309 75.0187 798.074 75.44 797.605 75.76C797.136 76.08 796.522 76.2773 795.765 76.352V77.152C797.514 77.0667 798.714 76.9653 799.365 76.848L799.509 77.936ZM803.749 74.88H801.669V78.464H800.277V69.136H801.669V73.712H803.749V74.88ZM792.421 79.184H801.669V83.184H800.277V80.336H792.421V79.184ZM799.061 72.208H791.013V71.104H799.061V72.208ZM796.933 74.496C796.933 74.2187 796.762 74.0053 796.421 73.856C796.08 73.7067 795.632 73.632 795.077 73.632C794.522 73.632 794.074 73.7067 793.733 73.856C793.402 74.0053 793.237 74.2187 793.237 74.496C793.237 74.7627 793.408 74.976 793.749 75.136C794.09 75.2853 794.533 75.36 795.077 75.36C795.621 75.36 796.064 75.2853 796.405 75.136C796.757 74.976 796.933 74.7627 796.933 74.496ZM796.997 70.416H793.093V69.312H796.997V70.416ZM815.321 79.296H813.897V69.136H815.321V79.296ZM812.313 76.016L811.497 77.12C810.814 76.832 810.147 76.384 809.497 75.776C808.857 75.1573 808.393 74.5067 808.105 73.824C807.891 74.56 807.454 75.2907 806.793 76.016C806.142 76.7307 805.449 77.2533 804.713 77.584L803.849 76.48C804.841 76.064 805.673 75.3973 806.345 74.48C807.027 73.552 807.369 72.5547 807.369 71.488V69.92H808.809V71.424C808.809 72.48 809.161 73.4293 809.865 74.272C810.579 75.1147 811.395 75.696 812.313 76.016ZM815.625 82.72H806.201V78.352H807.625V81.568H815.625V82.72ZM820.22 70.24C821.159 70.24 821.89 70.64 822.412 71.44C822.946 72.2293 823.239 73.28 823.292 74.592H824.652V69.408H825.996V82.464H824.652V75.76H823.292C823.228 77.0507 822.935 78.0907 822.412 78.88C821.89 79.6587 821.159 80.048 820.22 80.048C819.218 80.048 818.455 79.5947 817.932 78.688C817.41 77.7813 817.148 76.592 817.148 75.12C817.148 73.6587 817.41 72.48 817.932 71.584C818.455 70.688 819.218 70.24 820.22 70.24ZM821.484 77.84C821.772 77.168 821.916 76.2667 821.916 75.136C821.916 74.0053 821.772 73.1093 821.484 72.448C821.196 71.776 820.775 71.44 820.22 71.44C819.687 71.44 819.271 71.776 818.972 72.448C818.684 73.12 818.54 74.016 818.54 75.136C818.54 76.2667 818.684 77.168 818.972 77.84C819.26 78.5013 819.676 78.832 820.22 78.832C820.775 78.832 821.196 78.5013 821.484 77.84ZM828.7 83.12H827.356V69.136H828.7V83.12ZM841.307 76.88L840.571 78C839.953 77.7973 839.323 77.4347 838.683 76.912C838.043 76.3787 837.585 75.8133 837.307 75.216C837.083 75.8453 836.641 76.4693 835.979 77.088C835.329 77.696 834.625 78.128 833.867 78.384L833.099 77.312C834.07 77.0027 834.886 76.4747 835.547 75.728C836.219 74.9813 836.561 74.1547 836.571 73.248H833.483V72.096H840.987V73.248H838.027C838.038 74.1333 838.369 74.9067 839.019 75.568C839.67 76.2293 840.433 76.6667 841.307 76.88ZM846.235 74.56H844.139V79.296H842.731V69.136H844.139V73.36H846.235V74.56ZM844.619 82.704H835.291V78.576H836.699V81.568H844.619V82.704ZM839.227 70.88H835.355V69.744H839.227V70.88ZM850.762 78.64C850.154 77.7227 849.85 76.5333 849.85 75.072C849.85 73.6107 850.154 72.4213 850.762 71.504C851.37 70.5867 852.266 70.128 853.45 70.128C854.538 70.128 855.375 70.5227 855.962 71.312C856.559 72.0907 856.906 73.1307 857.002 74.432H859.834V69.136H861.258V83.12H859.834V75.632H857.002C856.917 76.9547 856.575 78.016 855.978 78.816C855.391 79.616 854.549 80.016 853.45 80.016C852.266 80.016 851.37 79.5573 850.762 78.64ZM855.61 75.088C855.61 73.968 855.418 73.0667 855.034 72.384C854.661 71.6907 854.133 71.344 853.45 71.344C852.757 71.344 852.223 71.6853 851.85 72.368C851.487 73.0507 851.306 73.9573 851.306 75.088C851.306 76.1973 851.487 77.0933 851.85 77.776C852.223 78.4587 852.757 78.8 853.45 78.8C854.133 78.8 854.661 78.4587 855.034 77.776C855.418 77.0933 855.61 76.1973 855.61 75.088ZM873.694 73.552H865.742V75.072H873.982V76.208H864.334V69.936H873.886V71.088H865.742V72.416H873.694V73.552ZM869.822 83.04H868.398V78.752H862.83V77.584H875.454V78.752H869.822V83.04ZM888.498 81.344H875.874V80.192H881.442V77.984H877.394V73.488H885.522V71.44H877.362V70.288H886.93V74.64H878.802V76.832H887.314V77.984H882.866V80.192H888.498V81.344ZM147.488 103.328H145.408V106.24H143.984V99.136H145.408V102.16H147.488V103.328ZM145.904 113.024H136.512V109.408H143.984V108.128H136.416V106.992H145.408V110.48H137.92V111.856H145.904V113.024ZM141.776 105.728H135.104V100.032H141.776V105.728ZM140.384 104.592V101.152H136.496V104.592H140.384ZM160.676 106.144H158.452V113.12H157.028V99.136H158.452V104.96H160.676V106.144ZM153.828 101.2H149.652V100.048H153.828V101.2ZM155.86 103.6H147.572V102.464H155.86V103.6ZM155.076 107.344C155.076 108.187 154.772 108.885 154.164 109.44C153.556 109.995 152.761 110.272 151.78 110.272C150.798 110.272 149.998 110 149.38 109.456C148.772 108.901 148.468 108.197 148.468 107.344C148.468 106.501 148.777 105.797 149.396 105.232C150.014 104.667 150.809 104.384 151.78 104.384C152.761 104.384 153.556 104.667 154.164 105.232C154.772 105.787 155.076 106.491 155.076 107.344ZM153.156 108.608C153.508 108.277 153.684 107.856 153.684 107.344C153.684 106.832 153.502 106.411 153.14 106.08C152.777 105.739 152.324 105.568 151.78 105.568C151.236 105.568 150.782 105.733 150.42 106.064C150.068 106.395 149.892 106.821 149.892 107.344C149.892 107.856 150.068 108.277 150.42 108.608C150.772 108.928 151.225 109.088 151.78 109.088C152.356 109.088 152.814 108.928 153.156 108.608ZM172.151 113.12H170.743V105.312H166.76V104.096H170.743V99.136H172.151V113.12ZM168.712 108.048L168.903 109.168C167.314 109.509 165.25 109.68 162.711 109.68H161.271V100.496H167.815V101.648H162.695V108.512C165.191 108.512 167.197 108.357 168.712 108.048ZM182.027 108.16L182.171 109.344C180.358 109.653 178.278 109.808 175.931 109.808H174.251V104.32H179.275V101.552H174.203V100.4H180.683V105.456H175.659V108.64C178.177 108.661 180.299 108.501 182.027 108.16ZM184.539 99.136V104.688H186.715V105.856H184.539V113.12H183.131V99.136H184.539ZM199.407 111.344H186.783V110.192H192.351V106.912H188.287V100.272H197.919V101.424H189.695V105.76H197.999V106.912H193.775V110.192H199.407V111.344ZM213.278 103.296H210.718L210.702 102.096H213.278V99.136H214.686V113.12H213.278V107.904H210.702L210.718 106.72H213.278V103.296ZM204.206 108.64C203.619 107.723 203.326 106.533 203.326 105.072C203.326 103.611 203.619 102.421 204.206 101.504C204.793 100.587 205.662 100.128 206.814 100.128C207.966 100.128 208.83 100.587 209.406 101.504C209.993 102.421 210.286 103.616 210.286 105.088C210.286 106.549 209.993 107.739 209.406 108.656C208.83 109.563 207.966 110.016 206.814 110.016C205.662 110.016 204.793 109.557 204.206 108.64ZM208.926 105.088C208.926 103.968 208.739 103.067 208.366 102.384C208.003 101.691 207.486 101.344 206.814 101.344C206.142 101.344 205.625 101.685 205.262 102.368C204.91 103.051 204.734 103.957 204.734 105.088C204.734 106.197 204.91 107.093 205.262 107.776C205.625 108.459 206.142 108.8 206.814 108.8C207.486 108.8 208.003 108.459 208.366 107.776C208.739 107.093 208.926 106.197 208.926 105.088ZM227.73 113.12H226.322V105.68H223.97V104.48H226.322V99.136H227.73V113.12ZM224.226 108.256L224.37 109.408C222.823 109.696 220.764 109.84 218.194 109.84H216.722V104.272H221.762V101.552H216.722V100.4H223.17V105.424H218.13V108.672C220.732 108.672 222.764 108.533 224.226 108.256ZM240.357 104.992H230.885V99.584H232.309V101.232H238.949V99.568H240.357V104.992ZM236.389 110.16H234.981V107.584H229.317V106.432H241.941V107.584H236.389V110.16ZM240.469 112.704H230.885V108.864H232.309V111.552H240.469V112.704ZM238.949 103.84V102.352H232.309V103.84H238.949ZM254.985 107.408H242.361V106.256H254.985V107.408ZM253.481 112.704H243.993V108.64H245.401V111.568H253.481V112.704ZM252.265 100.304C253.129 100.784 253.561 101.456 253.561 102.32C253.561 103.184 253.124 103.861 252.249 104.352C251.385 104.843 250.19 105.088 248.665 105.088C247.14 105.088 245.945 104.843 245.081 104.352C244.228 103.861 243.801 103.184 243.801 102.32C243.801 101.456 244.228 100.784 245.081 100.304C245.945 99.8133 247.14 99.568 248.665 99.568C250.201 99.568 251.401 99.8133 252.265 100.304ZM248.665 100.72C247.641 100.72 246.825 100.864 246.217 101.152C245.62 101.44 245.321 101.829 245.321 102.32C245.321 102.811 245.62 103.2 246.217 103.488C246.825 103.776 247.641 103.92 248.665 103.92C249.7 103.92 250.526 103.776 251.145 103.488C251.764 103.2 252.073 102.811 252.073 102.32C252.073 101.829 251.764 101.44 251.145 101.152C250.526 100.864 249.7 100.72 248.665 100.72ZM271.432 111.088H258.808V109.936H271.432V111.088ZM269.752 100.72C269.752 104.293 269.533 107.029 269.096 108.928L267.72 108.752C267.891 108.112 268.029 107.088 268.136 105.68C268.253 104.261 268.312 102.987 268.312 101.856H260.12V100.72H269.752ZM280.748 108.192L280.892 109.36C279.196 109.637 277.004 109.792 274.316 109.824H272.572V104.32H277.804V101.552H272.508V100.4H279.212V105.456H273.98V108.624H274.396C277.105 108.624 279.222 108.48 280.748 108.192ZM281.964 99.136H283.388V113.12H281.964V99.136ZM299.803 112.944H290.507V108H291.915V109.36H298.379V107.968H299.803V112.944ZM296.987 103.072L296.315 104.16C295.675 104.032 295.008 103.749 294.315 103.312C293.632 102.875 293.141 102.395 292.843 101.872C292.629 102.437 292.176 102.976 291.483 103.488C290.8 103.989 290.091 104.336 289.355 104.528L288.587 103.472C289.504 103.291 290.325 102.88 291.051 102.24C291.776 101.589 292.139 100.827 292.139 99.952V99.6H293.579V99.936C293.579 100.768 293.92 101.461 294.603 102.016C295.285 102.56 296.08 102.912 296.987 103.072ZM293.579 107.792H292.171V106.432C290.816 106.507 289.568 106.544 288.427 106.544L288.203 105.344C289.685 105.344 291.168 105.307 292.651 105.232C294.976 105.136 296.565 105.024 297.419 104.896L297.579 106.016C296.587 106.144 295.253 106.256 293.579 106.352V107.792ZM299.803 107.248H298.395V99.136H299.803V107.248ZM298.379 111.792V110.496H291.915V111.792H298.379ZM313.15 113.12H311.79V99.136H313.15V113.12ZM310.382 112.432H309.038V105.952H306.99V104.8H309.038V99.456H310.382V112.432ZM307.214 100.816C307.193 102.885 306.761 104.688 305.918 106.224C305.076 107.749 303.79 109.088 302.062 110.24L301.102 109.2C302.51 108.379 303.614 107.339 304.414 106.08C305.214 104.811 305.678 103.445 305.806 101.984H301.71V100.816H307.214ZM329.261 107.152H327.837V99.136H329.261V107.152ZM329.533 112.928H320.173V107.92H329.325V109.088H321.597V111.792H329.533V112.928ZM325.085 106.288H318.493V100.08H325.085V106.288ZM323.677 105.152V101.216H319.901V105.152H323.677ZM331.809 108.64C331.201 107.723 330.897 106.533 330.897 105.072C330.897 103.611 331.201 102.421 331.809 101.504C332.417 100.587 333.313 100.128 334.497 100.128C335.585 100.128 336.422 100.523 337.009 101.312C337.606 102.091 337.953 103.131 338.049 104.432H340.881V99.136H342.305V113.12H340.881V105.632H338.049C337.964 106.955 337.622 108.016 337.025 108.816C336.438 109.616 335.596 110.016 334.497 110.016C333.313 110.016 332.417 109.557 331.809 108.64ZM336.657 105.088C336.657 103.968 336.465 103.067 336.081 102.384C335.708 101.691 335.18 101.344 334.497 101.344C333.804 101.344 333.27 101.685 332.897 102.368C332.534 103.051 332.353 103.957 332.353 105.088C332.353 106.197 332.534 107.093 332.897 107.776C333.27 108.459 333.804 108.8 334.497 108.8C335.18 108.8 335.708 108.459 336.081 107.776C336.465 107.093 336.657 106.197 336.657 105.088ZM355.941 104.624L355.301 105.76C354.245 105.589 353.21 105.216 352.197 104.64C351.194 104.064 350.522 103.456 350.181 102.816C349.871 103.477 349.226 104.101 348.245 104.688C347.274 105.264 346.234 105.637 345.125 105.808L344.453 104.688C345.637 104.56 346.741 104.176 347.765 103.536C348.789 102.885 349.349 102.139 349.445 101.296H345.045V100.128H355.365V101.296H350.949C351.055 102.128 351.626 102.864 352.661 103.504C353.706 104.133 354.799 104.507 355.941 104.624ZM350.869 113.12H349.445V108.224H343.877V107.072H356.501V108.224H350.869V113.12ZM364.025 106.96H357.561V100.368H364.025V106.96ZM366.969 102.608H364.713V101.472H366.969V99.136H368.393V109.296H366.969V105.696H364.713V104.56H366.969V102.608ZM368.697 112.688H359.321V108.384H360.729V111.536H368.697V112.688ZM362.633 105.84V101.504H358.953V105.84H362.633ZM386.263 104.4H384.167V109.296H382.759V99.136H384.167V103.216H386.263V104.4ZM384.631 112.672H375.319V108.288H376.727V111.52H384.631V112.672ZM374.615 101.152C375.33 100.48 376.226 100.144 377.303 100.144C378.381 100.144 379.271 100.48 379.975 101.152C380.69 101.813 381.047 102.656 381.047 103.68C381.047 104.704 380.695 105.536 379.991 106.176C379.287 106.816 378.397 107.136 377.319 107.136C376.221 107.136 375.319 106.816 374.615 106.176C373.911 105.536 373.559 104.709 373.559 103.696C373.559 102.661 373.911 101.813 374.615 101.152ZM377.303 101.344C376.631 101.344 376.082 101.563 375.655 102C375.229 102.437 375.015 102.992 375.015 103.664C375.015 104.336 375.229 104.885 375.655 105.312C376.082 105.728 376.637 105.936 377.319 105.936C378.002 105.936 378.551 105.728 378.967 105.312C379.383 104.896 379.591 104.352 379.591 103.68C379.591 102.997 379.383 102.437 378.967 102C378.551 101.563 377.997 101.344 377.303 101.344ZM399.078 107.456C397.617 107.616 396.113 107.739 394.566 107.824C392.497 107.909 390.972 107.952 389.99 107.952L389.782 106.752C391.468 106.752 392.774 106.736 393.702 106.704V104.976H390.95V100.128H398.022V101.296H392.358V103.824H398.15V104.976H395.11V106.64C396.689 106.576 397.969 106.475 398.95 106.336L399.078 107.456ZM401.558 112.752H392.134V108.816H393.558V111.6H401.558V112.752ZM401.318 109.632H399.91V99.136H401.318V109.632ZM404.858 108.528H405.434C407.93 108.528 409.871 108.379 411.258 108.08L411.418 109.232C409.967 109.531 407.834 109.691 405.018 109.712H403.45V100.608H410.058V101.776H404.858V108.528ZM413.658 99.136V104.592H415.834V105.776H413.658V113.12H412.25V99.136H413.658ZM415.998 111.696V110.128H417.55V111.696H415.998ZM433.483 105.84H423.931V99.664H425.355V101.648H432.075V99.664H433.483V105.84ZM429.403 113.136H427.979V108.592H422.411V107.424H435.035V108.592H429.403V113.136ZM432.075 104.704V102.8H425.355V104.704H432.075ZM446.927 113.12H445.503V99.136H446.927V113.12ZM437.551 108.416C440.378 108.416 442.516 108.272 443.967 107.984L444.159 109.152C442.644 109.472 440.5 109.632 437.727 109.632H436.159V100.496H442.847V101.648H437.551V108.416ZM463.71 113.12H462.35V105.968H460.814V112.432H459.47V99.44H460.814V104.832H462.35V99.136H463.71V113.12ZM458.862 108.784L457.998 109.792C457.475 109.44 456.947 108.917 456.414 108.224C455.891 107.531 455.539 106.853 455.358 106.192C455.208 106.907 454.867 107.632 454.334 108.368C453.8 109.093 453.203 109.675 452.542 110.112L451.646 109.136C452.563 108.549 453.294 107.744 453.838 106.72C454.392 105.685 454.67 104.507 454.67 103.184V102.016H451.998V100.848H458.654V102.016H456.062V103.136C456.062 104.437 456.323 105.579 456.846 106.56C457.368 107.531 458.04 108.272 458.862 108.784ZM476.385 113.12H474.977V99.136H476.385V113.12ZM472.385 109.552H465.681V100.544H472.385V109.552ZM470.977 108.384V101.696H467.089V108.384H470.977ZM490.613 111.344H477.989V110.192H483.557V107.984H479.509V103.488H487.637V101.44H479.477V100.288H489.045V104.64H480.917V106.832H489.429V107.984H484.981V110.192H490.613V111.344ZM505.908 106.64H504.484V99.136H505.908V106.64ZM505.908 113.136H504.468V108.464H501.556V107.376H505.908V113.136ZM495.876 100.688C496.569 100.08 497.428 99.776 498.452 99.776C499.476 99.776 500.329 100.075 501.012 100.672C501.705 101.269 502.052 102.037 502.052 102.976C502.052 103.893 501.705 104.645 501.012 105.232C500.329 105.808 499.476 106.096 498.452 106.096C497.439 106.096 496.585 105.808 495.892 105.232C495.199 104.656 494.852 103.904 494.852 102.976C494.852 102.048 495.193 101.285 495.876 100.688ZM498.452 100.96C497.833 100.96 497.311 101.152 496.884 101.536C496.468 101.92 496.26 102.395 496.26 102.96C496.26 103.515 496.468 103.979 496.884 104.352C497.3 104.725 497.823 104.912 498.452 104.912C499.103 104.912 499.625 104.731 500.02 104.368C500.425 103.995 500.628 103.531 500.628 102.976C500.628 102.389 500.425 101.909 500.02 101.536C499.625 101.152 499.103 100.96 498.452 100.96ZM501.86 112.72C500.74 112.955 499.396 113.072 497.828 113.072H496.212V109.696H499.46V108.448H496.164V107.376H500.804V110.688H497.556V112.016C499.433 112.016 500.815 111.899 501.7 111.664L501.86 112.72ZM508.456 108.64C507.848 107.723 507.544 106.533 507.544 105.072C507.544 103.611 507.848 102.421 508.456 101.504C509.064 100.587 509.96 100.128 511.144 100.128C512.232 100.128 513.069 100.523 513.656 101.312C514.253 102.091 514.6 103.131 514.696 104.432H517.528V99.136H518.952V113.12H517.528V105.632H514.696C514.611 106.955 514.269 108.016 513.672 108.816C513.085 109.616 512.243 110.016 511.144 110.016C509.96 110.016 509.064 109.557 508.456 108.64ZM513.304 105.088C513.304 103.968 513.112 103.067 512.728 102.384C512.355 101.691 511.827 101.344 511.144 101.344C510.451 101.344 509.917 101.685 509.544 102.368C509.181 103.051 509 103.957 509 105.088C509 106.197 509.181 107.093 509.544 107.776C509.917 108.459 510.451 108.8 511.144 108.8C511.827 108.8 512.355 108.459 512.728 107.776C513.112 107.093 513.304 106.197 513.304 105.088ZM532.588 104.624L531.948 105.76C530.892 105.589 529.857 105.216 528.844 104.64C527.841 104.064 527.169 103.456 526.828 102.816C526.518 103.477 525.873 104.101 524.892 104.688C523.921 105.264 522.881 105.637 521.772 105.808L521.1 104.688C522.284 104.56 523.388 104.176 524.412 103.536C525.436 102.885 525.996 102.139 526.092 101.296H521.692V100.128H532.012V101.296H527.596C527.702 102.128 528.273 102.864 529.308 103.504C530.353 104.133 531.446 104.507 532.588 104.624ZM527.516 113.12H526.092V108.224H520.524V107.072H533.148V108.224H527.516V113.12ZM545.487 112.992H535.903V109.472H543.615V108.192H535.839V107.056H545.023V110.528H537.327V111.856H545.487V112.992ZM545.023 106.224H543.615V99.136H545.023V106.224ZM534.431 99.856H540.815C540.698 101.637 540.058 103.088 538.895 104.208C537.733 105.328 536.255 106.133 534.463 106.624L533.727 105.488C535.178 105.168 536.394 104.613 537.375 103.824C538.367 103.035 538.981 102.107 539.215 101.04H534.431V99.856ZM563.038 105.792H560.814V113.12H559.406V99.136H560.814V104.608H563.038V105.792ZM557.022 109.648H550.462V100.32H551.854V103.808H555.598V100.304H557.022V109.648ZM555.598 108.512V104.944H551.854V108.512H555.598ZM573.858 99.136V103.328H575.954V104.512H573.858V109.296H572.45V99.136H573.858ZM574.37 112.784H565.042V108.752H566.45V111.616H574.37V112.784ZM571.362 107.088C569.741 107.397 567.821 107.552 565.602 107.552H563.586V103.104H568.498V101.2H563.554V100.048H569.906V104.224H565.01V106.416C567.794 106.416 569.853 106.267 571.186 105.968L571.362 107.088ZM578.102 108.528H578.678C581.174 108.528 583.115 108.379 584.502 108.08L584.662 109.232C583.211 109.531 581.078 109.691 578.262 109.712H576.694V100.608H583.302V101.776H578.102V108.528ZM586.902 99.136V104.592H589.078V105.776H586.902V113.12H585.494V99.136H586.902ZM589.242 111.696V110.128H590.794V111.696H589.242Z" fill="#555555"/>
<path d="M33.64 53.2V36.56H38.02V37.92H35.34V51.84H38.02V53.2H33.64ZM52.8578 44.82H51.0778V35.92H52.8578V44.82ZM53.4778 53.28H41.4978V48.78H51.0778V47.16H41.4378V45.72H52.8578V50.1H43.2578V51.82H53.4778V53.28ZM40.2778 37.64C41.1445 36.88 42.2111 36.5 43.4778 36.5C44.7445 36.5 45.8045 36.8733 46.6578 37.62C47.5111 38.3667 47.9378 39.32 47.9378 40.48C47.9378 41.6267 47.5111 42.56 46.6578 43.28C45.8045 44 44.7445 44.36 43.4778 44.36C42.2111 44.36 41.1445 44.0067 40.2778 43.3C39.4245 42.5933 38.9978 41.66 38.9978 40.5C38.9978 39.34 39.4245 38.3867 40.2778 37.64ZM43.4778 38.02C42.7045 38.02 42.0511 38.2533 41.5178 38.72C40.9978 39.1867 40.7378 39.7733 40.7378 40.48C40.7378 41.1867 40.9978 41.7667 41.5178 42.22C42.0378 42.66 42.6911 42.88 43.4778 42.88C44.2911 42.88 44.9445 42.6533 45.4378 42.2C45.9445 41.7467 46.1978 41.1733 46.1978 40.48C46.1978 39.7467 45.9511 39.1533 45.4578 38.7C44.9645 38.2467 44.3045 38.02 43.4778 38.02ZM69.1425 53.4H67.3825V44.1H64.4425V42.6H67.3825V35.92H69.1425V53.4ZM64.7625 47.32L64.9425 48.76C63.0092 49.12 60.4358 49.3 57.2225 49.3H55.3825V42.34H61.6825V38.94H55.3825V37.5H63.4425V43.78H57.1425V47.84C60.3958 47.84 62.9358 47.6667 64.7625 47.32ZM85.1272 43.92H73.0272V37H84.9472V38.44H74.8072V42.46H85.1272V43.92ZM79.8672 53.3H78.0872V47.44H71.1272V46.02H86.9072V47.44H79.8672V53.3ZM101.772 53.4H99.9919V35.92H101.772V53.4ZM96.6519 37.78C96.5985 40.46 95.8519 42.8333 94.4119 44.9C92.9852 46.9533 91.0252 48.66 88.5319 50.02L87.4519 48.68C89.5185 47.6933 91.2052 46.3533 92.5119 44.66C93.8319 42.9533 94.5719 41.16 94.7319 39.28H88.2319V37.78H96.6519ZM103.737 53.2V51.84H106.397V37.92H103.737V36.56H108.117V53.2H103.737Z" fill="#4C5000"/>
<defs>
<filter id="filter0_d_2123_43" x="0" y="0" width="924" height="153" filterUnits="userSpaceOnUse" color-interpolation-filters="sRGB">
<feFlood flood-opacity="0" result="BackgroundImageFix"/>
<feColorMatrix in="SourceAlpha" type="matrix" values="0 0 0 0 0 0 0 0 0 0 0 0 0 0 0 0 0 0 127 0" result="hardAlpha"/>
<feOffset dy="2"/>
<feGaussianBlur stdDeviation="1"/>
<feComposite in2="hardAlpha" operator="out"/>
<feColorMatrix type="matrix" values="0 0 0 0 0 0 0 0 0 0 0 0 0 0 0 0 0 0 0.1 0"/>
<feBlend mode="normal" in2="BackgroundImageFix" result="effect1_dropShadow_2123_43"/>
<feBlend mode="normal" in="SourceGraphic" in2="effect1_dropShadow_2123_43" result="shape"/>
</filter>
</defs>
</svg>
