<svg width="551" height="185" viewBox="0 0 551 185" fill="none" xmlns="http://www.w3.org/2000/svg">
<path d="M82.2852 14.02H74.1052V2.68H82.2852V14.02ZM80.5052 12.6V4.12H75.8652V12.6H80.5052ZM89.8452 9.32H87.0452V18.4H85.2652V0.92H87.0452V7.86H89.8452V9.32ZM100.91 12.12L101.05 13.54C99.6632 13.74 97.8832 13.8933 95.7098 14C93.3365 14.12 91.4432 14.18 90.0298 14.18L89.7898 12.68C90.8965 12.68 91.7298 12.6733 92.2898 12.66L91.7098 5.54L93.4698 5.34L93.9298 12.62L95.7298 12.54C95.8498 12.54 96.0698 12.5267 96.3898 12.5L96.8498 5.32L98.5898 5.52L97.9498 12.42C99.2432 12.34 100.23 12.24 100.91 12.12ZM104.15 18.4H102.39V0.92H104.15V18.4ZM100.09 4.1H90.2898V2.66H100.09V4.1ZM122.455 9.32H119.655V18.4H117.875V0.92H119.655V7.86H122.455V9.32ZM107.535 12.82C106.788 11.6733 106.415 10.18 106.415 8.34C106.415 6.5 106.788 5.01333 107.535 3.88C108.281 2.73333 109.388 2.16 110.855 2.16C112.321 2.16 113.421 2.73333 114.155 3.88C114.901 5.01333 115.275 6.50667 115.275 8.36C115.275 10.1867 114.901 11.6733 114.155 12.82C113.421 13.9533 112.321 14.52 110.855 14.52C109.388 14.52 108.281 13.9533 107.535 12.82ZM113.535 8.36C113.535 6.96 113.301 5.83333 112.835 4.98C112.368 4.11333 111.708 3.68 110.855 3.68C110.001 3.68 109.341 4.10667 108.875 4.96C108.421 5.81333 108.195 6.94667 108.195 8.36C108.195 9.74667 108.421 10.8667 108.875 11.72C109.341 12.5733 110.001 13 110.855 13C111.708 13 112.368 12.5733 112.835 11.72C113.301 10.8667 113.535 9.74667 113.535 8.36ZM141.153 15.1C141.153 16.1133 140.62 16.9133 139.553 17.5C138.5 18.0867 137.013 18.38 135.093 18.38C133.186 18.38 131.7 18.0867 130.633 17.5C129.58 16.9133 129.053 16.1133 129.053 15.1C129.053 14.06 129.58 13.2467 130.633 12.66C131.7 12.0733 133.186 11.78 135.093 11.78C137.013 11.78 138.5 12.0733 139.553 12.66C140.62 13.2467 141.153 14.06 141.153 15.1ZM134.513 3.2C135.393 3.98667 135.833 4.99333 135.833 6.22C135.833 7.44667 135.393 8.44667 134.513 9.22C133.646 9.98 132.58 10.36 131.313 10.36C130.033 10.36 128.953 9.98 128.073 9.22C127.206 8.46 126.773 7.46 126.773 6.22C126.773 4.99333 127.213 3.98667 128.093 3.2C128.973 2.41333 130.046 2.02 131.313 2.02C132.566 2.02 133.633 2.41333 134.513 3.2ZM136.313 8.86C136.313 8.68667 136.313 8.44 136.313 8.12C136.326 7.78667 136.333 7.54 136.333 7.38H139.273V4.72H136.333C136.333 4.56 136.326 4.31333 136.313 3.98C136.313 3.64667 136.313 3.39333 136.313 3.22H139.273V0.92H141.053V11.76H139.273V8.86H136.313ZM138.193 16.48C138.94 16.1467 139.313 15.6867 139.313 15.1C139.313 14.5133 138.94 14.0533 138.193 13.72C137.446 13.3733 136.413 13.2 135.093 13.2C133.786 13.2 132.76 13.3733 132.013 13.72C131.28 14.0533 130.913 14.5133 130.913 15.1C130.913 15.6867 131.28 16.1467 132.013 16.48C132.76 16.8 133.786 16.96 135.093 16.96C136.413 16.96 137.446 16.8 138.193 16.48ZM133.273 8.16C133.78 7.65333 134.033 7.00667 134.033 6.22C134.033 5.43333 133.786 4.79333 133.293 4.3C132.8 3.79333 132.14 3.54 131.313 3.54C130.513 3.54 129.853 3.79333 129.333 4.3C128.813 4.80667 128.553 5.44 128.553 6.2C128.553 7 128.806 7.65333 129.313 8.16C129.833 8.66667 130.5 8.92 131.313 8.92C132.113 8.92 132.766 8.66667 133.273 8.16ZM153.918 14.96C152.638 15.1333 150.631 15.3 147.898 15.46C146.138 15.5533 144.484 15.6 142.938 15.6L142.678 14.12C144.651 14.12 146.198 14.0933 147.318 14.04V12.46C146.331 12.3267 145.531 12 144.918 11.48C144.318 10.9467 144.018 10.3 144.018 9.54C144.018 8.64667 144.404 7.92667 145.178 7.38C145.964 6.82 146.971 6.54 148.198 6.54C149.451 6.54 150.458 6.81333 151.218 7.36C151.991 7.90667 152.378 8.63333 152.378 9.54C152.378 10.3133 152.078 10.9667 151.478 11.5C150.878 12.02 150.078 12.34 149.078 12.46V13.94C150.904 13.8467 152.458 13.72 153.738 13.56L153.918 14.96ZM159.298 10.18H156.598V18.4H154.858V0.92H156.598V8.7H159.298V10.18ZM153.478 5.82H143.098V4.36H153.478V5.82ZM150.558 9.54C150.558 9.08667 150.338 8.71333 149.898 8.42C149.458 8.12667 148.891 7.98 148.198 7.98C147.518 7.98 146.958 8.13333 146.518 8.44C146.078 8.73333 145.858 9.1 145.858 9.54C145.858 9.96667 146.078 10.3333 146.518 10.64C146.958 10.9467 147.518 11.1 148.198 11.1C148.891 11.1 149.458 10.9467 149.898 10.64C150.338 10.3333 150.558 9.96667 150.558 9.54ZM150.658 3.22H145.678V1.78H150.658V3.22ZM172.043 0.92H173.783V18.4H172.043V0.92ZM169.523 6.44C169.523 7.62667 169.083 8.58667 168.203 9.32C167.323 10.0533 166.236 10.42 164.943 10.42C163.636 10.42 162.549 10.0533 161.683 9.32C160.816 8.57333 160.383 7.61333 160.383 6.44C160.383 5.24 160.816 4.25333 161.683 3.48C162.563 2.70667 163.649 2.32 164.943 2.32C166.263 2.32 167.356 2.7 168.223 3.46C169.089 4.22 169.523 5.21333 169.523 6.44ZM167.783 6.42C167.783 5.63333 167.509 5 166.963 4.52C166.429 4.04 165.756 3.8 164.943 3.8C164.169 3.8 163.509 4.05333 162.963 4.56C162.416 5.05333 162.143 5.67333 162.143 6.42C162.143 7.15333 162.409 7.76 162.943 8.24C163.489 8.70667 164.156 8.94 164.943 8.94C165.729 8.94 166.396 8.70667 166.943 8.24C167.503 7.77333 167.783 7.16667 167.783 6.42ZM171.103 13.98C169.849 14.14 167.716 14.3 164.703 14.46C163.129 14.54 161.389 14.5933 159.483 14.62L159.203 13.1C161.403 13.1 163.329 13.06 164.983 12.98C167.503 12.8733 169.483 12.74 170.923 12.58L171.103 13.98ZM194.641 18.4H192.941V9.08H190.861V17.54H189.161V1.3H190.861V7.64H192.941V0.92H194.641V18.4ZM182.181 12.52H182.501C184.834 12.52 186.694 12.3667 188.081 12.06L188.321 13.52C186.801 13.84 184.728 14 182.101 14H180.421V3.08H187.241V4.52H182.181V12.52ZM211.966 16.18H196.186V14.74H200.326V11.22H202.106V14.74H205.986V11.22H207.766V14.74H211.966V16.18ZM210.366 10.36H197.686V8.92H200.306L199.926 4.9L201.706 4.66L201.986 8.92H206.186L206.666 4.7L208.406 5L207.806 8.92H210.366V10.36ZM210.386 3.84H197.666V2.4H210.386V3.84ZM212.63 3.58V2.12H222.17V3.58H218.35V4.06C218.35 5.23333 218.757 6.28667 219.57 7.22C220.397 8.14 221.35 8.76 222.43 9.08L221.45 10.5C220.65 10.18 219.87 9.68 219.11 9C218.364 8.30667 217.817 7.56667 217.47 6.78C217.19 7.60667 216.637 8.42 215.81 9.22C214.997 10.02 214.13 10.6067 213.21 10.98L212.17 9.6C213.357 9.17333 214.384 8.44667 215.25 7.42C216.117 6.38 216.55 5.27333 216.55 4.1V3.58H212.63ZM214.67 12.14H225.99V18.42H224.23V13.6H214.67V12.14ZM228.59 7.02H225.99V11.22H224.21V0.92H225.99V5.54H228.59V7.02ZM243.135 13.62H241.355V0.92H243.135V13.62ZM243.535 17.86H231.635V12.42H233.415V16.44H243.535V17.86ZM230.515 3.36C231.395 2.52 232.508 2.1 233.855 2.1C235.202 2.1 236.315 2.51333 237.195 3.34C238.088 4.16667 238.535 5.20667 238.535 6.46C238.535 7.71333 238.095 8.74 237.215 9.54C236.335 10.3267 235.215 10.72 233.855 10.72C232.508 10.72 231.395 10.3267 230.515 9.54C229.635 8.74 229.195 7.72 229.195 6.48C229.195 5.22667 229.635 4.18667 230.515 3.36ZM233.855 3.62C233.042 3.62 232.368 3.88667 231.835 4.42C231.315 4.95333 231.055 5.62667 231.055 6.44C231.055 7.24 231.315 7.90667 231.835 8.44C232.368 8.97333 233.042 9.24 233.855 9.24C234.708 9.24 235.388 8.98 235.895 8.46C236.402 7.94 236.655 7.27333 236.655 6.46C236.655 5.62 236.402 4.94 235.895 4.42C235.388 3.88667 234.708 3.62 233.855 3.62ZM258.574 14.94L250.374 10.32V8.96L258.574 4.16V5.84L252.194 9.64L258.574 13.22V14.94ZM274.774 18.4H273.074V9.08H270.994V17.54H269.294V1.3H270.994V7.64H273.074V0.92H274.774V18.4ZM262.314 12.52H262.634C264.967 12.52 266.827 12.3667 268.214 12.06L268.454 13.52C266.934 13.84 264.861 14 262.234 14H260.554V3.08H267.374V4.52H262.314V12.52ZM290.159 9.3H278.219V1.58H279.999V4.06H288.399V1.58H290.159V9.3ZM285.059 18.42H283.279V12.74H276.319V11.28H292.099V12.74H285.059V18.42ZM288.399 7.88V5.5H279.999V7.88H288.399ZM293.463 4.16L301.663 8.76V10.14L293.463 14.94V13.26L299.843 9.44L293.463 5.86V4.16ZM307.443 2.3C308.617 2.3 309.53 2.8 310.183 3.8C310.85 4.78667 311.217 6.1 311.283 7.74H312.983V1.26H314.663V17.58H312.983V9.2H311.283C311.203 10.8133 310.837 12.1133 310.183 13.1C309.53 14.0733 308.617 14.56 307.443 14.56C306.19 14.56 305.237 13.9933 304.583 12.86C303.93 11.7267 303.603 10.24 303.603 8.4C303.603 6.57333 303.93 5.1 304.583 3.98C305.237 2.86 306.19 2.3 307.443 2.3ZM309.023 11.8C309.383 10.96 309.563 9.83333 309.563 8.42C309.563 7.00667 309.383 5.88667 309.023 5.06C308.663 4.22 308.137 3.8 307.443 3.8C306.777 3.8 306.257 4.22 305.883 5.06C305.523 5.9 305.343 7.02 305.343 8.42C305.343 9.83333 305.523 10.96 305.883 11.8C306.243 12.6267 306.763 13.04 307.443 13.04C308.137 13.04 308.663 12.6267 309.023 11.8ZM318.043 18.4H316.363V0.92H318.043V18.4ZM335.368 11.26H319.588V9.82H335.368V11.26ZM333.708 18.02H321.688V12.84H323.448V16.56H333.708V18.02ZM333.628 7.76H321.748V1.64H323.508V6.32H333.628V7.76ZM354.567 18.4H352.787V0.92H354.567V18.4ZM340.767 8.4C340.767 6.57333 341.147 5.09333 341.907 3.96C342.667 2.81333 343.787 2.24 345.267 2.24C346.747 2.24 347.86 2.81333 348.607 3.96C349.367 5.09333 349.747 6.58 349.747 8.42C349.747 10.26 349.367 11.7533 348.607 12.9C347.86 14.0333 346.747 14.6 345.267 14.6C343.787 14.6 342.667 14.0267 341.907 12.88C341.147 11.7333 340.767 10.24 340.767 8.4ZM347.287 11.8C347.753 10.9467 347.987 9.82 347.987 8.42C347.987 7.02 347.753 5.89333 347.287 5.04C346.82 4.18667 346.147 3.76 345.267 3.76C344.4 3.76 343.733 4.18667 343.267 5.04C342.8 5.89333 342.567 7.02 342.567 8.42C342.567 9.82 342.8 10.9467 343.267 11.8C343.733 12.64 344.4 13.06 345.267 13.06C346.147 13.06 346.82 12.64 347.287 11.8ZM369.011 7.26H366.151V5.8H369.011V0.92H370.791V13.58H369.011V7.26ZM371.271 17.86H359.451V12.68H361.211V16.42H371.271V17.86ZM366.151 9.64L366.371 11.02C364.878 11.3933 362.578 11.58 359.471 11.58H357.111V5.96H363.111V3.46H357.091V2.04H364.891V7.36H358.891V10.18H359.291C362.265 10.18 364.551 10 366.151 9.64ZM391.77 18.4H390.07V9.08H387.99V17.54H386.29V1.3H387.99V7.64H390.07V0.92H391.77V18.4ZM379.31 12.52H379.63C381.963 12.52 383.823 12.3667 385.21 12.06L385.45 13.52C383.93 13.84 381.857 14 379.23 14H377.55V3.08H384.37V4.52H379.31V12.52ZM409.535 9.34H406.815V18.4H405.055V0.92H406.815V7.88H409.535V9.34ZM403.615 12.82L402.555 14.14C401.701 13.58 400.855 12.8067 400.015 11.82C399.175 10.8333 398.601 9.86667 398.295 8.92C398.001 9.97333 397.455 11.0133 396.655 12.04C395.868 13.0667 394.975 13.9133 393.975 14.58L392.875 13.26C394.221 12.42 395.308 11.2867 396.135 9.86C396.961 8.43333 397.375 6.92667 397.375 5.34V2.42H399.195V5.26C399.195 6.83333 399.608 8.28667 400.435 9.62C401.261 10.9533 402.321 12.02 403.615 12.82ZM423.119 0.92V8.08H425.919V9.56H423.119V18.4H421.359V0.92H423.119ZM418.519 2.78C418.466 5.5 417.766 7.88667 416.419 9.94C415.073 11.9933 413.173 13.6867 410.719 15.02L409.639 13.68C411.666 12.7067 413.293 11.3733 414.519 9.68C415.759 7.98667 416.459 6.18667 416.619 4.28H410.399V2.78H418.519ZM440.718 13.08C438.851 13.56 436.058 13.8333 432.338 13.9C431.965 13.9133 431.425 13.92 430.718 13.92V2.64H432.478V12.4C433.691 12.4 435.085 12.3333 436.658 12.2C438.245 12.0667 439.511 11.8733 440.458 11.62C440.551 12.2333 440.638 12.72 440.718 13.08ZM443.678 0.92V7.76H446.458V9.26H443.678V18.4H441.898V0.92H443.678ZM460.503 4.88C460.503 5.85333 460.036 6.64 459.103 7.24C458.183 7.84 456.889 8.18667 455.223 8.28V10.06H462.263V11.5H446.483V10.06H453.443L453.423 8.28C451.783 8.17333 450.509 7.82667 449.603 7.24C448.696 6.64 448.243 5.85333 448.243 4.88C448.243 3.81333 448.783 2.98 449.863 2.38C450.956 1.76667 452.456 1.46 454.363 1.46C456.296 1.46 457.803 1.76667 458.883 2.38C459.963 2.98 460.503 3.81333 460.503 4.88ZM454.363 2.9C453.056 2.9 452.016 3.08 451.243 3.44C450.483 3.78667 450.103 4.27333 450.103 4.9C450.103 5.52667 450.483 6.01333 451.243 6.36C452.016 6.69333 453.056 6.86 454.363 6.86C455.696 6.86 456.743 6.69333 457.503 6.36C458.276 6.01333 458.663 5.52667 458.663 4.9C458.663 4.27333 458.276 3.78667 457.503 3.44C456.729 3.08 455.683 2.9 454.363 2.9ZM460.383 17.88H448.523V12.9H450.283V16.46H460.383V17.88ZM465.287 12.66H466.007C469.127 12.66 471.554 12.4733 473.287 12.1L473.487 13.54C471.674 13.9133 469.007 14.1133 465.487 14.14H463.527V2.76H471.787V4.22H465.287V12.66ZM476.287 0.92V7.74H479.007V9.22H476.287V18.4H474.527V0.92H476.287ZM479.212 16.62V14.66H481.152V16.62H479.212ZM81.5258 73.06C81.5258 71.82 80.7058 71.28 80.1258 71.2C79.8858 71.16 79.6058 71.18 79.5058 71.22C79.6258 70.38 80.4258 69.5 81.2858 69.16L80.5058 68.2C78.7258 68.86 77.3258 70.94 77.3258 72.56C77.3258 73.96 78.1458 74.98 79.4858 74.98C80.6658 74.98 81.5258 74.1 81.5258 73.06ZM76.7258 73.06C76.7258 71.82 75.9058 71.28 75.3258 71.2C75.0858 71.16 74.8058 71.18 74.7058 71.22C74.8258 70.38 75.6258 69.5 76.4858 69.16L75.7058 68.2C73.9258 68.86 72.5258 70.94 72.5258 72.56C72.5258 73.96 73.3458 74.98 74.6858 74.98C75.8658 74.98 76.7258 74.1 76.7258 73.06ZM99.1611 74.64C99.1611 71.76 96.3011 69.84 91.7811 69.84C87.2611 69.84 84.4011 71.76 84.4011 74.64C84.4011 77.52 87.2611 79.44 91.7811 79.44C96.3011 79.44 99.1611 77.52 99.1611 74.64ZM93.5211 87.6V82.5H100.861V80.7H82.5011V81.9L83.1011 82.5H90.0411V87.6H93.5211ZM95.6411 74.64C95.6411 76.46 94.1611 77.64 91.7811 77.64C89.4011 77.64 87.9211 76.46 87.9211 74.64C87.9211 72.82 89.4011 71.64 91.7811 71.64C94.1611 71.64 95.6411 72.82 95.6411 74.64ZM119.02 84.1C119.02 81.54 116.36 80.1 111.92 80.1C107.48 80.1 104.82 81.54 104.82 84.1C104.82 86.66 107.48 88.1 111.92 88.1C116.36 88.1 119.02 86.66 119.02 84.1ZM113.92 77.64C112.42 76.24 110.84 75.12 109 74.22C109.38 73.54 109.66 72.84 109.8 72.14H113.02V70.34H102.28V71.54L102.88 72.14H106.16C106 74.3 104.88 76.5 101.62 78.38L102.62 79.7C104.68 78.7 106.56 77.32 107.9 75.76C109.28 76.96 110.42 78.16 111.42 79.44L113.92 77.64ZM118.9 69.64L114.04 69.3L113.84 70.38L114.5 70.62C115.02 70.82 115.22 71.14 115.34 71.8V73.32H112.22V74.56L112.82 75.16H115.34V80H118.82V71.62C118.82 70.96 118.84 70.3 118.9 69.64ZM115.54 84.1C115.54 85.26 114.26 86.3 111.92 86.3C109.58 86.3 108.3 85.26 108.3 84.1C108.3 82.94 109.58 81.9 111.92 81.9C114.26 81.9 115.54 82.94 115.54 84.1ZM137.5 75.54C137.5 72.26 134.64 70.08 130.12 70.08C125.6 70.08 122.74 72.26 122.74 75.54C122.74 78.82 125.6 81 130.12 81C134.64 81 137.5 78.82 137.5 75.54ZM139.1 86.7V84.9H120.94V86.1L121.54 86.7H139.1ZM133.98 75.54C133.98 77.74 132.5 79.2 130.12 79.2C127.74 79.2 126.26 77.74 126.26 75.54C126.26 73.34 127.74 71.88 130.12 71.88C132.5 71.88 133.98 73.34 133.98 75.54ZM158.359 86.8V85H151.319V81.54H156.579V79.76H145.859V76.74H156.379V70.34H141.959V71.52L142.559 72.12H152.899V75.02H144.119C143.299 75.02 142.539 75 141.779 74.94L141.559 76.04L142.059 76.24C142.299 76.34 142.379 76.48 142.379 76.74V80.84L143.079 81.54H147.839V85H140.199V86.2L140.799 86.8H158.359ZM181.293 69.64L176.433 69.3L176.233 70.38L176.893 70.62C177.413 70.82 177.613 71.14 177.733 71.8V77.94C176.933 78.36 175.873 78.46 174.873 78.46H172.253V77.12C174.653 76.7 176.253 75.36 176.253 73.5C176.253 71.24 173.853 69.74 170.513 69.74C167.173 69.74 164.773 71.24 164.773 73.5C164.773 75.34 166.373 76.7 168.773 77.12V78.46H164.193V79.66L164.793 80.26H174.773C176.213 80.26 177.293 79.76 177.733 79.2V80.6H181.213V75.98H183.473V74.14H181.213V71.62C181.213 70.96 181.233 70.3 181.293 69.64ZM179.873 81.22L175.193 81.02L174.953 82.22L175.733 82.44C175.993 82.52 176.053 82.72 175.953 82.94C175.593 83.72 175.073 84.46 174.433 85.1C173.553 84.6 172.653 84.16 171.773 83.76C172.233 82.98 172.553 82.14 172.673 81.22L167.993 81.02L167.753 82.22L168.533 82.44C168.793 82.52 168.853 82.74 168.753 82.94C167.953 84.54 166.753 85.76 164.813 86.6L165.713 88C167.753 87.36 169.413 86.42 170.593 85.24C171.613 86.14 172.553 87.08 173.313 88C175.173 87.26 176.693 86.36 177.813 85.28C178.733 86.16 179.473 87.08 180.113 88L182.613 85.9C181.493 85.08 180.273 84.36 179.033 83.8C179.513 83 179.793 82.16 179.873 81.22ZM172.773 73.5C172.773 74.68 171.913 75.46 170.513 75.46C169.113 75.46 168.253 74.68 168.253 73.5C168.253 72.32 169.113 71.54 170.513 71.54C171.913 71.54 172.773 72.32 172.773 73.5ZM200.093 69.64L195.233 69.3L195.033 70.38L195.693 70.62C196.213 70.82 196.413 71.14 196.533 71.8V82.62C195.733 83.04 194.673 83.14 193.673 83.14H188.493V72.34H194.093V70.54H186.713C185.793 70.54 184.953 70.52 184.113 70.46L183.873 71.66L184.653 71.88C184.913 71.96 185.013 72.16 185.013 72.38V84.14L185.812 84.94H193.573C195.013 84.94 196.093 84.44 196.533 83.88V87.6H200.013V78.98H202.473V77.14H200.013V71.62C200.013 70.96 200.033 70.3 200.093 69.64ZM213.812 79.94V77.92H216.532V82.4H220.012V71.62C220.012 70.96 220.032 70.3 220.092 69.64L215.232 69.3L215.032 70.38L215.692 70.62C216.212 70.82 216.412 71.14 216.532 71.8V72.16H213.812V70.34H206.012C205.092 70.34 204.252 70.32 203.412 70.26L203.172 71.46L203.952 71.68C204.212 71.76 204.312 71.96 204.312 72.18V79.14L205.112 79.94H213.812ZM220.212 87.4V85.6H209.792V83.54C209.792 82.88 209.812 82.22 209.872 81.56L205.312 81.34L205.112 82.46L205.772 82.64C206.132 82.74 206.272 83 206.312 83.36V86.6L207.112 87.4H220.212ZM210.332 78.14H207.792V72.14H210.332V78.14ZM213.812 74H216.532V76.08H213.812V74ZM243.666 87.6V81.2H231.166C230.246 81.2 229.406 81.18 228.566 81.12L228.326 82.32L229.106 82.54C229.366 82.62 229.466 82.82 229.466 83.04V86.8L230.266 87.6H243.666ZM245.546 80V78.2H238.506V76.54H243.866V74.74H232.946V72.26C232.946 71.6 232.966 70.94 233.026 70.28L228.466 70.06L228.266 71.18L228.926 71.36C229.286 71.46 229.426 71.72 229.466 72.08V75.74L230.266 76.54H235.026V78.2H227.386V79.4L227.986 80H245.546ZM240.186 85.8H232.946V83H240.186V85.8ZM263.005 76.06V74.26H252.085V71.94H262.845V70.14H250.305C249.385 70.14 248.545 70.12 247.705 70.06L247.465 71.26L248.245 71.48C248.505 71.56 248.605 71.76 248.605 71.98V75.26L249.405 76.06H263.005ZM264.685 79.02V77.22H246.525V78.42L247.125 79.02H264.685ZM263.005 87.7V85.94H252.085V84.74H262.805V80.2H248.185V81.36L248.785 81.96H259.325V83.06H250.345C249.525 83.06 248.765 83.04 248.005 82.98L247.785 84.08L248.285 84.28C248.525 84.38 248.605 84.52 248.605 84.78V87L249.305 87.7H263.005ZM282.205 73.74C282.205 71.2 279.465 69.74 274.905 69.74C270.345 69.74 267.605 71.2 267.605 73.74C267.605 76.28 270.345 77.74 274.905 77.74C279.465 77.74 282.205 76.28 282.205 73.74ZM283.885 80.9V79.1H265.725V80.3L266.325 80.9H283.885ZM282.205 87.4V85.6H271.285V84.14C271.285 83.48 271.305 82.82 271.365 82.16L266.805 81.94L266.605 83.06L267.265 83.24C267.625 83.34 267.765 83.6 267.805 83.96V86.6L268.605 87.4H282.205ZM278.725 73.74C278.725 74.96 277.365 75.94 274.905 75.94C272.445 75.94 271.085 74.96 271.085 73.74C271.085 72.52 272.445 71.54 274.905 71.54C277.365 71.54 278.725 72.52 278.725 73.74ZM306.479 69.64L301.619 69.3L301.419 70.38L302.079 70.62C302.599 70.82 302.799 71.14 302.919 71.8V76.42C302.119 76.84 301.059 76.94 300.059 76.94H294.479V72.14H300.599V70.34H292.699C291.779 70.34 290.939 70.32 290.099 70.26L289.859 71.46L290.639 71.68C290.899 71.76 290.999 71.96 290.999 72.18V77.94L291.799 78.74H299.959C301.399 78.74 302.479 78.24 302.919 77.68V80H306.399V75.58H308.779V73.74H306.399V71.62C306.399 70.96 306.419 70.3 306.479 69.64ZM306.599 84.1C306.599 81.54 303.939 80.1 299.499 80.1C295.059 80.1 292.399 81.54 292.399 84.1C292.399 86.66 295.059 88.1 299.499 88.1C303.939 88.1 306.599 86.66 306.599 84.1ZM303.119 84.1C303.119 85.26 301.839 86.3 299.499 86.3C297.159 86.3 295.879 85.26 295.879 84.1C295.879 82.94 297.159 81.9 299.499 81.9C301.839 81.9 303.119 82.94 303.119 84.1ZM325.798 84.1C325.798 81.54 323.138 80.1 318.698 80.1C314.258 80.1 311.598 81.54 311.598 84.1C311.598 86.66 314.258 88.1 318.698 88.1C323.138 88.1 325.798 86.66 325.798 84.1ZM321.098 77.6C319.618 76.2 318.018 75.1 316.198 74.18C316.578 73.52 316.838 72.84 316.978 72.14H320.198V70.34H309.458V71.54L310.058 72.14H313.338C313.178 74.3 312.058 76.5 308.798 78.38L309.798 79.7C311.858 78.7 313.758 77.32 315.098 75.74C316.478 76.92 317.598 78.12 318.598 79.4L321.098 77.6ZM325.678 69.64L320.818 69.3L320.618 70.38L321.278 70.62C321.798 70.82 321.998 71.14 322.118 71.8V80H325.598V75.58H327.978V73.74H325.598V71.62C325.598 70.96 325.618 70.3 325.678 69.64ZM322.318 84.1C322.318 85.26 321.038 86.3 318.698 86.3C316.358 86.3 315.078 85.26 315.078 84.1C315.078 82.94 316.358 81.9 318.698 81.9C321.038 81.9 322.318 82.94 322.318 84.1ZM350.053 87.6V81.4H344.493V79.64H351.933V77.84H333.773V79.04L334.373 79.64H341.013V81.4H335.653V82.6L336.253 83.2H346.573V87.6H350.053ZM351.153 74.88C348.793 73.98 346.533 73.32 344.333 72.86C344.553 72.56 344.733 72.26 344.873 71.94H350.393V70.14H335.453V71.34L336.053 71.94H341.093C340.253 73.8 337.653 75.18 334.853 75.68L335.613 77.18C338.233 76.82 341.033 75.74 342.913 74.28C345.093 75.12 347.233 76.16 349.153 77.18L351.153 74.88ZM370.072 69.64L365.212 69.3L365.012 70.38L365.672 70.62C366.192 70.82 366.392 71.14 366.512 71.8V76.72H364.152C363.912 72.56 362.152 70.14 358.992 70.14C355.572 70.14 353.792 72.96 353.792 77.74C353.792 82.52 355.572 85.34 358.992 85.34C362.212 85.34 363.972 82.86 364.172 78.56H366.512V87.6H369.992V71.62C369.992 70.96 370.012 70.3 370.072 69.64ZM360.712 77.74C360.712 81.66 360.092 83.52 358.992 83.52C357.892 83.52 357.272 81.66 357.272 77.74C357.272 73.82 357.892 71.96 358.992 71.96C360.092 71.96 360.712 73.82 360.712 77.74ZM394.467 69.64L389.607 69.3L389.407 70.38L390.067 70.62C390.587 70.82 390.787 71.14 390.907 71.8V73.32H388.467C387.987 71.14 385.967 69.74 383.287 69.74C380.207 69.74 377.987 71.58 377.987 74.34C377.987 77.1 380.207 78.94 383.287 78.94C386.047 78.94 388.127 77.48 388.507 75.16H390.907V79.3H394.387V71.62C394.387 70.96 394.407 70.3 394.467 69.64ZM393.247 79.92L388.767 79.72L388.527 80.92L389.307 81.14C389.527 81.2 389.607 81.36 389.587 81.58C389.487 83.28 388.767 85 387.387 86.2V82C387.387 81.34 387.407 80.58 387.467 79.92L383.927 79.72L383.707 80.82L384.087 80.96C384.327 81.04 384.407 81.2 384.407 81.46V82.16H383.167C383.167 81.52 383.187 80.88 383.247 80.24L379.367 80.02L379.167 81.12L379.647 81.24C379.987 81.32 380.127 81.58 380.187 81.94V86.9L380.987 87.7H387.387V87.24L387.987 88C389.387 87.26 390.607 86.2 391.507 84.96C392.147 85.96 392.727 87.04 393.187 88L395.787 86.1C394.827 84.98 393.727 83.94 392.567 83.1C392.987 82.08 393.227 81.02 393.247 79.92ZM385.107 74.34C385.107 76.1 384.387 77.12 383.287 77.12C382.187 77.12 381.467 76.1 381.467 74.34C381.467 72.58 382.187 71.56 383.287 71.56C384.387 71.56 385.107 72.58 385.107 74.34ZM383.167 85.9V83.92H384.407V85.9H383.167ZM413.666 69.64L408.806 69.3L408.606 70.38L409.266 70.62C409.786 70.82 409.986 71.14 410.106 71.8V76.72H407.746C407.506 72.56 405.746 70.14 402.586 70.14C399.166 70.14 397.386 72.96 397.386 77.74C397.386 82.52 399.166 85.34 402.586 85.34C405.806 85.34 407.566 82.86 407.766 78.56H410.106V87.6H413.586V71.62C413.586 70.96 413.606 70.3 413.666 69.64ZM404.306 77.74C404.306 81.66 403.686 83.52 402.586 83.52C401.486 83.52 400.866 81.66 400.866 77.74C400.866 73.82 401.486 71.96 402.586 71.96C403.686 71.96 404.306 73.82 404.306 77.74ZM432.985 87.7V85.94H422.465V84.54H432.785V79.8H418.565V80.96L419.165 81.56H429.305V82.86H420.725C419.905 82.86 419.145 82.84 418.385 82.78L418.165 83.88L418.665 84.08C418.905 84.18 418.985 84.32 418.985 84.58V87L419.685 87.7H432.985ZM427.965 77.2C426.505 75.88 424.865 74.8 423.085 73.9C423.405 73.32 423.645 72.7 423.765 72.06H427.065V70.26H416.245V71.46L416.845 72.06H420.205C420.025 74.2 418.845 76.24 415.585 77.98L416.585 79.3C418.745 78.32 420.665 77 421.985 75.48C423.345 76.64 424.485 77.8 425.465 79L427.965 77.2ZM432.865 69.64L428.005 69.3L427.805 70.38L428.465 70.62C428.985 70.82 429.185 71.14 429.305 71.8V79H432.785V71.62C432.785 70.96 432.805 70.3 432.865 69.64ZM450.94 70.54H441.32V71.74L441.92 72.34H447.32C447.32 76.68 445.08 81.9 440.18 84.36L441.28 85.74C445.26 83.92 448.14 81.36 449.68 77.62V78.26L450.18 78.76H453.7V87.6H457.18V71.62C457.18 70.96 457.2 70.3 457.26 69.64L452.4 69.3L452.2 70.38L452.86 70.62C453.38 70.82 453.58 71.14 453.7 71.8V76.92H449.94C450.6 75.08 450.94 72.96 450.94 70.54ZM475.659 69.64L470.799 69.3L470.599 70.38L471.259 70.62C471.779 70.82 471.979 71.14 472.099 71.8V82.62C471.299 83.04 470.239 83.14 469.239 83.14H464.059V72.34H469.659V70.54H462.279C461.359 70.54 460.519 70.52 459.679 70.46L459.439 71.66L460.219 71.88C460.479 71.96 460.579 72.16 460.579 72.38V84.14L461.379 84.94H469.139C470.579 84.94 471.659 84.44 472.099 83.88V87.6H475.579V78.98H478.039V77.14H475.579V71.62C475.579 70.96 475.599 70.3 475.659 69.64ZM482.878 85.42C482.878 84.26 481.938 83.32 480.778 83.32C479.618 83.32 478.678 84.26 478.678 85.42C478.678 86.58 479.618 87.52 480.778 87.52C481.938 87.52 482.878 86.58 482.878 85.42ZM98.9207 115.7C97.5607 113.24 95.9407 111.2 94.0007 109.38C94.4607 107.84 94.7207 106.16 94.7607 104.34H98.0207V102.54H87.2807V103.74L87.8807 104.34H91.1207C91.0807 109.06 90.6207 113.26 86.5207 116.5L87.6207 117.7C90.1807 116.08 92.0607 113.96 93.2407 111.4C94.4007 113.32 95.3807 115.3 96.2207 117.3L98.9207 115.7ZM103.501 101.64L98.6407 101.3L98.4407 102.38L99.1007 102.62C99.6207 102.8 99.8207 103.14 99.9407 103.8V119.6H103.421V110.78H105.881V108.94H103.421V103.62C103.421 102.96 103.441 102.3 103.501 101.64ZM119.16 101.92L114.94 101.6L114.72 102.76L115.46 103.02C115.7 103.1 115.86 103.44 115.9 103.82V108.22H112.82V109.46L113.42 110.06H115.9V119.6H119.08V103.86C119.08 103.2 119.1 102.58 119.16 101.92ZM123.5 101.62L119.58 101.3L119.36 102.48L119.82 102.66C120.08 102.76 120.24 102.96 120.24 103.2V119.6H123.42V103.6C123.42 102.94 123.44 102.28 123.5 101.62ZM115.3 115.84V114.64C114.48 114.88 113.54 114.94 112.64 114.94H111.3V104.66C111.3 104 111.32 103.34 111.38 102.68L106.82 102.46L106.62 103.58L107.28 103.76C107.64 103.86 107.78 104.12 107.82 104.48V115.94L108.62 116.74H112.34C113.54 116.74 114.6 116.46 115.3 115.84ZM138.639 101.92L134.419 101.6L134.199 102.76L134.939 103.02C135.179 103.1 135.339 103.44 135.379 103.82V108.72H134.399C134.199 104.56 132.759 102.14 130.119 102.14C127.259 102.14 125.819 104.96 125.819 109.74C125.819 114.52 127.259 117.34 130.119 117.34C132.799 117.34 134.239 114.86 134.399 110.56H135.379V119.6H138.559V103.86C138.559 103.2 138.579 102.58 138.639 101.92ZM142.699 101.62L139.039 101.3L138.819 102.48L139.199 102.64C139.379 102.72 139.439 102.92 139.439 103.16V119.6H142.619V103.6C142.619 102.94 142.639 102.28 142.699 101.62ZM131.199 109.74C131.199 113.66 130.859 115.52 130.119 115.52C129.379 115.52 129.039 113.66 129.039 109.74C129.039 105.82 129.379 103.96 130.119 103.96C130.859 103.96 131.199 105.82 131.199 109.74ZM152.978 102.54H145.358V103.74L145.958 104.34H149.458C149.458 108.68 148.718 113.94 144.218 116.36L145.318 117.74C148.638 116.12 150.698 113.88 151.818 110.76H154.438V119.6H157.618V103.9C157.618 103.24 157.638 102.58 157.698 101.92L153.678 101.6L153.458 102.78L153.998 102.98C154.238 103.08 154.398 103.36 154.438 103.7V108.92H152.358C152.798 107.08 152.978 104.96 152.978 102.54ZM161.898 101.62L158.138 101.3L157.918 102.48L158.398 102.64C158.578 102.7 158.638 102.92 158.638 103.16V119.6H161.818V103.6C161.818 102.94 161.838 102.28 161.898 101.62ZM181.313 110.24C179.793 108.68 178.213 107.58 176.313 106.6C176.753 105.8 177.053 104.98 177.213 104.14H180.413V102.34H169.673V103.54L170.273 104.14H173.553C173.413 106.54 172.393 109 169.013 110.98L170.013 112.3C172.053 111.3 173.933 109.84 175.273 108.16C176.693 109.4 177.813 110.64 178.813 112.04L181.313 110.24ZM182.733 112.2H186.213V103.62C186.213 102.96 186.233 102.3 186.293 101.64L181.433 101.3L181.233 102.38L181.893 102.62C182.413 102.82 182.613 103.14 182.733 103.8V105.62H179.613V106.86L180.213 107.46H182.733V112.2ZM186.213 119.6V113H172.013V114.2L172.613 114.8H182.733V119.6H186.213ZM205.492 101.64L200.632 101.3L200.432 102.38L201.092 102.62C201.612 102.82 201.812 103.14 201.932 103.8V119.6H205.412V103.62C205.412 102.96 205.432 102.3 205.492 101.64ZM199.692 109.74C199.692 104.96 197.892 102.14 194.452 102.14C191.012 102.14 189.212 104.96 189.212 109.74C189.212 114.52 191.012 117.34 194.452 117.34C197.892 117.34 199.692 114.54 199.692 109.74ZM196.212 109.74C196.212 113.66 195.552 115.52 194.452 115.52C193.352 115.52 192.692 113.66 192.692 109.74C192.692 105.82 193.352 103.96 194.452 103.96C195.552 103.96 196.212 105.82 196.212 109.74ZM224.087 106.44C224.087 103.62 221.847 101.74 218.747 101.74C215.647 101.74 213.407 103.62 213.407 106.44C213.407 109.26 215.647 111.14 218.747 111.14C221.847 111.14 224.087 109.28 224.087 106.44ZM228.467 112.42L223.787 112.22L223.547 113.42L224.327 113.64C224.587 113.72 224.587 113.96 224.547 114.14C224.367 115.08 223.847 116.06 223.187 116.9C222.407 116.3 221.627 115.8 220.827 115.34C221.327 114.44 221.627 113.48 221.667 112.5L216.987 112.3L216.747 113.5L217.527 113.72C217.787 113.8 217.787 114.04 217.747 114.22C217.247 116.16 215.827 117.74 213.807 118.6L214.707 120C216.727 119.32 218.447 118.22 219.667 116.9C220.607 117.9 221.347 118.96 222.007 120C223.867 119.36 225.387 118.26 226.507 116.98C227.387 117.98 228.107 119.02 228.707 120L231.207 117.9C230.147 116.96 228.887 116.08 227.607 115.36C228.127 114.4 228.427 113.38 228.467 112.42ZM229.887 101.64L225.027 101.3L224.827 102.38L225.487 102.62C226.007 102.82 226.207 103.14 226.327 103.8V111.7H229.807V103.62C229.807 102.96 229.827 102.3 229.887 101.64ZM220.607 106.44C220.607 108.26 219.847 109.32 218.747 109.32C217.647 109.32 216.887 108.26 216.887 106.44C216.887 104.62 217.647 103.56 218.747 103.56C219.847 103.56 220.607 104.62 220.607 106.44ZM248.286 101.64L243.426 101.3L243.226 102.38L243.886 102.62C244.406 102.82 244.606 103.14 244.726 103.8V114.62C243.926 115.04 242.866 115.14 241.866 115.14H236.686V104.34H242.286V102.54H234.906C233.986 102.54 233.146 102.52 232.306 102.46L232.066 103.66L232.846 103.88C233.106 103.96 233.206 104.16 233.206 104.38V116.14L234.006 116.94H241.766C243.206 116.94 244.286 116.44 244.726 115.88V119.6H248.206V110.98H250.666V109.14H248.206V103.62C248.206 102.96 248.226 102.3 248.286 101.64ZM262.005 111.94V109.92H264.725V114.4H268.205V103.62C268.205 102.96 268.225 102.3 268.285 101.64L263.425 101.3L263.225 102.38L263.885 102.62C264.405 102.82 264.605 103.14 264.725 103.8V104.16H262.005V102.34H254.205C253.285 102.34 252.445 102.32 251.605 102.26L251.365 103.46L252.145 103.68C252.405 103.76 252.505 103.96 252.505 104.18V111.14L253.305 111.94H262.005ZM268.405 119.4V117.6H257.985V115.54C257.985 114.88 258.005 114.22 258.065 113.56L253.505 113.34L253.305 114.46L253.965 114.64C254.325 114.74 254.465 115 254.505 115.36V118.6L255.305 119.4H268.405ZM258.525 110.14H255.985V104.14H258.525V110.14ZM262.005 106H264.725V108.08H262.005V106ZM286.18 102.36L281.82 102.16L281.6 103.26L282.3 103.5C282.54 103.58 282.62 103.74 282.62 104V108.22H280.28V104.66C280.28 104 280.3 103.34 280.36 102.68L275.78 102.46L275.58 103.56L276.26 103.72C276.6 103.8 276.74 104.06 276.8 104.42V116.54L277.6 117.34H286.1V104.44C286.1 103.78 286.12 103.02 286.18 102.36ZM291.88 101.64L287.02 101.3L286.82 102.38L287.48 102.62C288 102.82 288.2 103.14 288.32 103.8V119.6H291.8V110.78H294.26V108.94H291.8V103.62C291.8 102.96 291.82 102.3 291.88 101.64ZM280.28 115.54V109.98H282.62V115.54H280.28ZM312.939 118.8V117H305.899V113.54H311.159V111.76H300.439V108.74H310.959V102.34H296.539V103.52L297.139 104.12H307.479V107.02H298.699C297.879 107.02 297.119 107 296.359 106.94L296.139 108.04L296.639 108.24C296.879 108.34 296.959 108.48 296.959 108.74V112.84L297.659 113.54H302.419V117H294.779V118.2L295.379 118.8H312.939ZM335.473 101.64L330.613 101.3L330.413 102.38L331.073 102.62C331.593 102.82 331.793 103.14 331.913 103.8V114.42C331.113 114.84 330.053 114.94 329.053 114.94H324.073V104.66C324.073 104 324.093 103.34 324.153 102.68L319.593 102.46L319.393 103.58L320.053 103.76C320.413 103.86 320.553 104.12 320.593 104.48V115.94L321.393 116.74H328.953C330.393 116.74 331.473 116.24 331.913 115.68V119.6H335.393V110.18H337.853V108.34H335.393V103.62C335.393 102.96 335.413 102.3 335.473 101.64ZM350.193 107.6C350.193 104.44 347.833 102.34 344.493 102.34C341.153 102.34 338.793 104.44 338.793 107.6C338.793 110.76 341.153 112.86 344.493 112.86C347.833 112.86 350.193 110.8 350.193 107.6ZM355.473 101.64L350.613 101.3L350.413 102.38L351.073 102.62C351.593 102.82 351.793 103.14 351.913 103.8V115.08C351.113 115.5 350.053 115.6 349.053 115.6H338.373V116.8L338.973 117.4H348.953C350.393 117.4 351.473 116.9 351.913 116.34V119.6H355.393V103.62C355.393 102.96 355.413 102.3 355.473 101.64ZM346.713 107.6C346.713 109.78 345.873 111.04 344.493 111.04C343.113 111.04 342.273 109.78 342.273 107.6C342.273 105.42 343.113 104.16 344.493 104.16C345.873 104.16 346.713 105.42 346.713 107.6ZM374.887 110.24C373.367 108.68 371.787 107.58 369.887 106.6C370.327 105.8 370.627 104.98 370.787 104.14H373.987V102.34H363.247V103.54L363.847 104.14H367.127C366.987 106.54 365.967 109 362.587 110.98L363.587 112.3C365.627 111.3 367.507 109.84 368.847 108.16C370.267 109.4 371.387 110.64 372.387 112.04L374.887 110.24ZM376.307 112.2H379.787V103.62C379.787 102.96 379.807 102.3 379.867 101.64L375.007 101.3L374.807 102.38L375.467 102.62C375.987 102.82 376.187 103.14 376.307 103.8V105.62H373.187V106.86L373.787 107.46H376.307V112.2ZM379.787 119.6V113H365.587V114.2L366.187 114.8H376.307V119.6H379.787ZM399.066 101.64L394.206 101.3L394.006 102.38L394.666 102.62C395.186 102.82 395.386 103.14 395.506 103.8V119.6H398.986V103.62C398.986 102.96 399.006 102.3 399.066 101.64ZM393.266 109.74C393.266 104.96 391.466 102.14 388.026 102.14C384.586 102.14 382.786 104.96 382.786 109.74C382.786 114.52 384.586 117.34 388.026 117.34C391.466 117.34 393.266 114.54 393.266 109.74ZM389.786 109.74C389.786 113.66 389.126 115.52 388.026 115.52C386.926 115.52 386.266 113.66 386.266 109.74C386.266 105.82 386.926 103.96 388.026 103.96C389.126 103.96 389.786 105.82 389.786 109.74ZM417.921 108.06V106.26H410.721V103.94H417.761V102.14H408.941C408.021 102.14 407.181 102.12 406.341 102.06L406.101 103.26L406.881 103.48C407.141 103.56 407.241 103.76 407.241 103.98V107.26L408.041 108.06H411.141V109.46H406.361V110.66L406.961 111.26H416.941C418.381 111.26 419.461 110.76 419.901 110.2V111.6H423.381V103.62C423.381 102.96 423.401 102.3 423.461 101.64L418.601 101.3L418.401 102.38L419.061 102.62C419.581 102.82 419.781 103.14 419.901 103.8V108.94C419.101 109.36 418.041 109.46 417.041 109.46H414.621V108.06H417.921ZM423.581 119.7V117.94H412.661V116.74H423.381V112.2H408.761V113.36L409.361 113.96H419.901V115.06H410.921C410.101 115.06 409.341 115.04 408.581 114.98L408.361 116.08L408.861 116.28C409.101 116.38 409.181 116.52 409.181 116.78V119L409.881 119.7H423.581ZM439.355 116.24V115.04C438.535 115.28 437.595 115.34 436.695 115.34H435.255V110.58H437.755V108.78H435.255V104.14H438.655V102.34H433.675C432.755 102.34 431.915 102.32 431.075 102.26L430.835 103.46L431.615 103.68C431.875 103.76 431.995 103.96 431.975 104.18V116.34L432.775 117.14H436.395C437.595 117.14 438.655 116.86 439.355 116.24ZM443.615 101.92L439.395 101.6L439.175 102.76L439.915 103.02C440.155 103.1 440.315 103.44 440.355 103.82V108.56H438.355V109.8L438.955 110.4H440.355V119.6H443.535V103.86C443.535 103.2 443.555 102.58 443.615 101.92ZM447.855 101.62L444.015 101.3L443.795 102.48L444.335 102.66C444.515 102.72 444.595 102.92 444.595 103.16V119.6H447.775V103.6C447.775 102.94 447.795 102.28 447.855 101.62ZM467.055 101.64L462.195 101.3L461.995 102.38L462.655 102.62C463.175 102.82 463.375 103.14 463.495 103.8V114.42C462.695 114.84 461.635 114.94 460.635 114.94H455.295V104.66C455.295 104 455.315 103.34 455.375 102.68L450.955 102.46L450.755 103.58L451.275 103.7C451.635 103.78 451.775 104.04 451.815 104.4V115.94L452.615 116.74H460.535C461.975 116.74 463.055 116.24 463.495 115.68V119.6H466.975V103.62C466.975 102.96 466.995 102.3 467.055 101.64ZM473.474 117.42C473.474 116.26 472.534 115.32 471.374 115.32C470.214 115.32 469.274 116.26 469.274 117.42C469.274 118.58 470.214 119.52 471.374 119.52C472.534 119.52 473.474 118.58 473.474 117.42ZM484.27 103.02C484.27 101.62 483.45 100.6 482.11 100.6C480.93 100.6 480.07 101.48 480.07 102.52C480.07 103.76 480.89 104.3 481.47 104.38C481.71 104.42 481.99 104.4 482.09 104.36C481.97 105.2 481.17 106.08 480.31 106.42L481.09 107.38C482.87 106.72 484.27 104.64 484.27 103.02ZM479.47 103.02C479.47 101.62 478.65 100.6 477.31 100.6C476.13 100.6 475.27 101.48 475.27 102.52C475.27 103.76 476.09 104.3 476.67 104.38C476.91 104.42 477.19 104.4 477.29 104.36C477.17 105.2 476.37 106.08 475.51 106.42L476.29 107.38C478.07 106.72 479.47 104.64 479.47 103.02ZM14.3088 171.54C14.3088 172.713 13.7488 173.667 12.6288 174.4C11.5088 175.12 9.99542 175.48 8.08875 175.48C6.18208 175.48 4.66875 175.12 3.54875 174.4C2.44208 173.667 1.88875 172.713 1.88875 171.54C1.88875 170.38 2.44208 169.44 3.54875 168.72C4.66875 168 6.18208 167.64 8.08875 167.64C9.99542 167.64 11.5088 168 12.6288 168.72C13.7488 169.44 14.3088 170.38 14.3088 171.54ZM8.08875 169.14C6.72875 169.14 5.64208 169.373 4.82875 169.84C4.02875 170.293 3.62875 170.86 3.62875 171.54C3.62875 172.22 4.02875 172.8 4.82875 173.28C5.64208 173.747 6.72875 173.98 8.08875 173.98C9.43542 173.98 10.5088 173.747 11.3088 173.28C12.1221 172.8 12.5288 172.22 12.5288 171.54C12.5288 170.86 12.1221 170.293 11.3088 169.84C10.5088 169.373 9.43542 169.14 8.08875 169.14ZM8.96875 184.42H7.18875V178.38H0.22875V176.92H16.0088V178.38H8.96875V184.42ZM29.4134 178.54C30.4534 179.14 30.9734 179.967 30.9734 181.02C30.9734 182.073 30.4601 182.9 29.4334 183.5C28.4068 184.1 26.9534 184.4 25.0734 184.4C23.2201 184.4 21.7734 184.1 20.7334 183.5C19.7068 182.9 19.1934 182.073 19.1934 181.02C19.1934 179.967 19.7068 179.14 20.7334 178.54C21.7734 177.927 23.2201 177.62 25.0734 177.62C26.9401 177.62 28.3868 177.927 29.4134 178.54ZM16.9334 169.78V168.34H26.4934V169.78H22.6734V170.36C22.6734 171.52 23.1001 172.573 23.9534 173.52C24.8068 174.453 25.7734 175.087 26.8534 175.42L25.8734 176.84C25.0734 176.52 24.2801 176.013 23.4934 175.32C22.7068 174.613 22.1401 173.873 21.7934 173.1C21.5268 173.913 20.9601 174.727 20.0934 175.54C19.2268 176.353 18.3268 176.953 17.3934 177.34L16.3934 175.94C17.5934 175.513 18.6401 174.78 19.5334 173.74C20.4268 172.687 20.8734 171.573 20.8734 170.4V169.78H16.9334ZM25.0734 179.08C23.7934 179.08 22.7934 179.253 22.0734 179.6C21.3534 179.933 20.9934 180.407 20.9934 181.02C20.9934 181.633 21.3534 182.113 22.0734 182.46C22.7934 182.793 23.7934 182.96 25.0734 182.96C26.3668 182.96 27.3734 182.793 28.0934 182.46C28.8134 182.113 29.1734 181.633 29.1734 181.02C29.1734 180.407 28.8134 179.933 28.0934 179.6C27.3734 179.253 26.3668 179.08 25.0734 179.08ZM29.0934 172.78H25.8334V171.32H29.0934V166.92H30.8734V177.76H29.0934V172.78ZM48.6181 175.82H32.8381V174.38H48.6181V175.82ZM47.2981 184.28H34.6381V180H44.8781V178.74H34.5981V177.3H46.6381V181.32H36.3981V182.82H47.2981V184.28ZM46.7981 170.26C46.7981 171.233 46.2648 171.993 45.1981 172.54C44.1315 173.073 42.6448 173.34 40.7381 173.34C38.8448 173.34 37.3648 173.073 36.2981 172.54C35.2448 171.993 34.7181 171.233 34.7181 170.26C34.7181 169.273 35.2448 168.513 36.2981 167.98C37.3648 167.433 38.8448 167.16 40.7381 167.16C42.6448 167.16 44.1315 167.433 45.1981 167.98C46.2648 168.513 46.7981 169.273 46.7981 170.26ZM40.7381 168.58C39.4715 168.58 38.4581 168.733 37.6981 169.04C36.9381 169.347 36.5581 169.753 36.5581 170.26C36.5581 170.753 36.9381 171.153 37.6981 171.46C38.4581 171.767 39.4715 171.92 40.7381 171.92C42.0315 171.92 43.0581 171.767 43.8181 171.46C44.5915 171.153 44.9781 170.753 44.9781 170.26C44.9781 169.753 44.5915 169.347 43.8181 169.04C43.0581 168.733 42.0315 168.58 40.7381 168.58ZM67.3367 181.2C67.3367 182.2 66.7967 182.973 65.7167 183.52C64.6501 184.08 63.1701 184.36 61.2767 184.36C59.3834 184.36 57.9034 184.08 56.8367 183.52C55.7834 182.973 55.2567 182.2 55.2567 181.2C55.2567 180.28 55.7034 179.553 56.5967 179.02C57.4901 178.487 58.7434 178.18 60.3567 178.1V176.54H53.3967V175.08H69.1767V176.54H62.1367V178.08C63.7767 178.16 65.0501 178.473 65.9567 179.02C66.8767 179.553 67.3367 180.28 67.3367 181.2ZM68.4367 172.7L67.6367 174.1C66.2634 173.913 64.9767 173.487 63.7767 172.82C62.5767 172.153 61.7434 171.413 61.2767 170.6C60.9034 171.427 60.1234 172.173 58.9367 172.84C57.7634 173.493 56.4367 173.913 54.9567 174.1L54.1767 172.72C55.6167 172.6 56.9234 172.227 58.0967 171.6C59.2834 170.96 60.0101 170.16 60.2767 169.2H54.9167V167.76H67.6567V169.2H62.3367C62.6167 170.147 63.3701 170.94 64.5967 171.58C65.8234 172.22 67.1034 172.593 68.4367 172.7ZM64.3767 179.94C63.6167 179.647 62.5834 179.5 61.2767 179.5C59.9701 179.5 58.9434 179.647 58.1967 179.94C57.4501 180.233 57.0767 180.66 57.0767 181.22C57.0767 181.78 57.4501 182.207 58.1967 182.5C58.9434 182.78 59.9701 182.92 61.2767 182.92C62.5967 182.92 63.6301 182.78 64.3767 182.5C65.1367 182.207 65.5167 181.78 65.5167 181.22C65.5167 180.66 65.1367 180.233 64.3767 179.94ZM84.1614 184.4H82.4014V166.92H84.1614V184.4ZM80.3214 178.88L79.2614 180.2C78.3814 179.587 77.5281 178.807 76.7014 177.86C75.8881 176.9 75.3347 175.947 75.0414 175C74.7347 176.067 74.1881 177.113 73.4014 178.14C72.6147 179.167 71.7214 180.007 70.7214 180.66L69.6214 179.36C70.9547 178.507 72.0347 177.373 72.8614 175.96C73.6881 174.533 74.1014 173.027 74.1014 171.44V168.46H75.9414V171.36C75.9414 172.933 76.3547 174.4 77.1814 175.76C78.0081 177.107 79.0547 178.147 80.3214 178.88ZM102.286 175.68H99.5061V184.4H97.7261V166.92H99.5061V174.2H102.286V175.68ZM93.7261 169.5H88.5061V168.06H93.7261V169.5ZM96.2661 172.5H85.9061V171.08H96.2661V172.5ZM95.2861 177.18C95.2861 178.233 94.9061 179.107 94.1461 179.8C93.3861 180.493 92.3928 180.84 91.1661 180.84C89.9394 180.84 88.9394 180.5 88.1661 179.82C87.4061 179.127 87.0261 178.247 87.0261 177.18C87.0261 176.127 87.4128 175.247 88.1861 174.54C88.9594 173.833 89.9528 173.48 91.1661 173.48C92.3928 173.48 93.3861 173.833 94.1461 174.54C94.9061 175.233 95.2861 176.113 95.2861 177.18ZM92.8861 178.76C93.3261 178.347 93.5461 177.82 93.5461 177.18C93.5461 176.54 93.3194 176.013 92.8661 175.6C92.4128 175.173 91.8461 174.96 91.1661 174.96C90.4861 174.96 89.9194 175.167 89.4661 175.58C89.0261 175.993 88.8061 176.527 88.8061 177.18C88.8061 177.82 89.0261 178.347 89.4661 178.76C89.9061 179.16 90.4728 179.36 91.1661 179.36C91.8861 179.36 92.4594 179.16 92.8861 178.76ZM111.911 172.4V170.9H114.931V166.92H116.711V184.4H114.931V177.28H111.911V175.8H114.931V172.4H111.911ZM110.891 180.02H102.951V168.68H110.891V180.02ZM109.131 178.58V170.12H104.711V178.58H109.131ZM135.429 172.9H132.609V171.42H135.429V166.92H137.209V179.04H135.429V172.9ZM131.609 176.58H123.569V168.08H125.349V170.9H129.829V168.08H131.609V176.58ZM129.829 175.16V172.3H125.349V175.16H129.829ZM138.249 183.14L137.309 184.58C136.163 184.367 134.989 183.86 133.789 183.06C132.603 182.26 131.836 181.487 131.489 180.74C131.156 181.54 130.416 182.32 129.269 183.08C128.123 183.84 126.923 184.34 125.669 184.58L124.709 183.16C126.203 182.987 127.556 182.433 128.769 181.5C129.996 180.567 130.609 179.513 130.609 178.34V177.74H132.429V178.34C132.429 179.127 132.736 179.88 133.349 180.6C133.963 181.307 134.709 181.88 135.589 182.32C136.469 182.747 137.356 183.02 138.249 183.14ZM151.894 166.92H153.634V184.4H151.894V166.92ZM149.374 172.44C149.374 173.627 148.934 174.587 148.054 175.32C147.174 176.053 146.087 176.42 144.794 176.42C143.487 176.42 142.401 176.053 141.534 175.32C140.667 174.573 140.234 173.613 140.234 172.44C140.234 171.24 140.667 170.253 141.534 169.48C142.414 168.707 143.501 168.32 144.794 168.32C146.114 168.32 147.207 168.7 148.074 169.46C148.941 170.22 149.374 171.213 149.374 172.44ZM147.634 172.42C147.634 171.633 147.361 171 146.814 170.52C146.281 170.04 145.607 169.8 144.794 169.8C144.021 169.8 143.361 170.053 142.814 170.56C142.267 171.053 141.994 171.673 141.994 172.42C141.994 173.153 142.261 173.76 142.794 174.24C143.341 174.707 144.007 174.94 144.794 174.94C145.581 174.94 146.247 174.707 146.794 174.24C147.354 173.773 147.634 173.167 147.634 172.42ZM150.954 179.98C149.701 180.14 147.567 180.3 144.554 180.46C142.981 180.54 141.241 180.593 139.334 180.62L139.054 179.1C141.254 179.1 143.181 179.06 144.834 178.98C147.354 178.873 149.334 178.74 150.774 178.58L150.954 179.98ZM160.133 169.66V168.22H169.693V169.66H165.873V170.36C165.873 171.52 166.299 172.573 167.153 173.52C168.006 174.453 168.973 175.087 170.053 175.42L169.073 176.84C168.273 176.52 167.479 176.013 166.693 175.32C165.906 174.613 165.339 173.873 164.993 173.1C164.726 173.913 164.159 174.727 163.293 175.54C162.426 176.353 161.526 176.953 160.593 177.34L159.593 175.94C160.793 175.513 161.839 174.78 162.733 173.74C163.626 172.687 164.073 171.573 164.073 170.4V169.66H160.133ZM162.373 178.2H174.093V184.4H172.293V179.64H162.373V178.2ZM174.073 177.28H172.293V172.86H169.053V171.42H172.293V166.92H174.073V177.28ZM191.817 177.26H176.037V175.82H191.817V177.26ZM189.937 183.88H178.077V178.8H179.837V182.46H189.937V183.88ZM188.417 168.38C189.497 168.98 190.037 169.82 190.037 170.9C190.037 171.98 189.491 172.827 188.397 173.44C187.317 174.053 185.824 174.36 183.917 174.36C182.011 174.36 180.517 174.053 179.437 173.44C178.371 172.827 177.837 171.98 177.837 170.9C177.837 169.82 178.371 168.98 179.437 168.38C180.517 167.767 182.011 167.46 183.917 167.46C185.837 167.46 187.337 167.767 188.417 168.38ZM183.917 168.9C182.637 168.9 181.617 169.08 180.857 169.44C180.111 169.8 179.737 170.287 179.737 170.9C179.737 171.513 180.111 172 180.857 172.36C181.617 172.72 182.637 172.9 183.917 172.9C185.211 172.9 186.244 172.72 187.017 172.36C187.791 172 188.177 171.513 188.177 170.9C188.177 170.287 187.791 169.8 187.017 169.44C186.244 169.08 185.211 168.9 183.917 168.9ZM210.476 184.16H198.556V178.04H210.316V179.48H200.336V182.74H210.476V184.16ZM212.376 176.12H196.596V174.68H202.856V171.34H204.616V174.68H212.376V176.12ZM210.316 167.78C210.316 168.513 210.309 169.06 210.296 169.42C210.256 171.047 210.089 172.427 209.796 173.56L208.076 173.34C208.369 172.3 208.516 170.927 208.516 169.22H198.476V167.78H210.316ZM227.695 179.08C225.828 179.56 223.035 179.833 219.315 179.9C218.941 179.913 218.401 179.92 217.695 179.92V168.64H219.455V178.4C220.668 178.4 222.061 178.333 223.635 178.2C225.221 178.067 226.488 177.873 227.435 177.62C227.528 178.233 227.615 178.72 227.695 179.08ZM230.655 166.92V173.76H233.435V175.26H230.655V184.4H228.875V166.92H230.655ZM246.179 166.92H247.919V184.4H246.179V166.92ZM243.659 172.44C243.659 173.627 243.219 174.587 242.339 175.32C241.459 176.053 240.373 176.42 239.079 176.42C237.773 176.42 236.686 176.053 235.819 175.32C234.953 174.573 234.519 173.613 234.519 172.44C234.519 171.24 234.953 170.253 235.819 169.48C236.699 168.707 237.786 168.32 239.079 168.32C240.399 168.32 241.493 168.7 242.359 169.46C243.226 170.22 243.659 171.213 243.659 172.44ZM241.919 172.42C241.919 171.633 241.646 171 241.099 170.52C240.566 170.04 239.893 169.8 239.079 169.8C238.306 169.8 237.646 170.053 237.099 170.56C236.553 171.053 236.279 171.673 236.279 172.42C236.279 173.153 236.546 173.76 237.079 174.24C237.626 174.707 238.293 174.94 239.079 174.94C239.866 174.94 240.533 174.707 241.079 174.24C241.639 173.773 241.919 173.167 241.919 172.42ZM245.239 179.98C243.986 180.14 241.853 180.3 238.839 180.46C237.266 180.54 235.526 180.593 233.619 180.62L233.339 179.1C235.539 179.1 237.466 179.06 239.119 178.98C241.639 178.873 243.619 178.74 245.059 178.58L245.239 179.98ZM254.418 169.66V168.22H263.978V169.66H260.158V170.36C260.158 171.52 260.584 172.573 261.438 173.52C262.291 174.453 263.258 175.087 264.338 175.42L263.358 176.84C262.558 176.52 261.764 176.013 260.978 175.32C260.191 174.613 259.624 173.873 259.278 173.1C259.011 173.913 258.444 174.727 257.578 175.54C256.711 176.353 255.811 176.953 254.878 177.34L253.878 175.94C255.078 175.513 256.124 174.78 257.018 173.74C257.911 172.687 258.358 171.573 258.358 170.4V169.66H254.418ZM256.658 178.2H268.378V184.4H266.578V179.64H256.658V178.2ZM268.358 177.28H266.578V172.86H263.338V171.42H266.578V166.92H268.358V177.28ZM284.743 184.4H282.963V166.92H284.743V184.4ZM270.943 174.4C270.943 172.573 271.323 171.093 272.083 169.96C272.843 168.813 273.963 168.24 275.442 168.24C276.923 168.24 278.036 168.813 278.783 169.96C279.543 171.093 279.923 172.58 279.923 174.42C279.923 176.26 279.543 177.753 278.783 178.9C278.036 180.033 276.923 180.6 275.442 180.6C273.963 180.6 272.843 180.027 272.083 178.88C271.323 177.733 270.943 176.24 270.943 174.4ZM277.463 177.8C277.929 176.947 278.163 175.82 278.163 174.42C278.163 173.02 277.929 171.893 277.463 171.04C276.996 170.187 276.323 169.76 275.442 169.76C274.576 169.76 273.909 170.187 273.443 171.04C272.976 171.893 272.743 173.02 272.743 174.42C272.743 175.82 272.976 176.947 273.443 177.8C273.909 178.64 274.576 179.06 275.442 179.06C276.323 179.06 276.996 178.64 277.463 177.8ZM296.987 178.2L297.167 179.68C294.901 180.067 292.301 180.26 289.367 180.26H287.267V173.4H293.547V169.94H287.207V168.5H295.307V174.82H289.027V178.8C292.174 178.827 294.827 178.627 296.987 178.2ZM300.127 166.92V173.86H302.847V175.32H300.127V184.4H298.367V166.92H300.127ZM318.712 177.26H302.932V175.82H318.712V177.26ZM317.052 184.02H305.032V178.84H306.792V182.56H317.052V184.02ZM316.972 173.76H305.092V167.64H306.852V172.32H316.972V173.76ZM332.23 180.02H324.05V168.68H332.23V180.02ZM330.45 178.6V170.12H325.81V178.6H330.45ZM339.79 175.32H336.99V184.4H335.21V166.92H336.99V173.86H339.79V175.32ZM350.855 178.12L350.995 179.54C349.608 179.74 347.828 179.893 345.655 180C343.282 180.12 341.388 180.18 339.975 180.18L339.735 178.68C340.842 178.68 341.675 178.673 342.235 178.66L341.655 171.54L343.415 171.34L343.875 178.62L345.675 178.54C345.795 178.54 346.015 178.527 346.335 178.5L346.795 171.32L348.535 171.52L347.895 178.42C349.188 178.34 350.175 178.24 350.855 178.12ZM354.095 184.4H352.335V166.92H354.095V184.4ZM350.035 170.1H340.235V168.66H350.035V170.1ZM372.4 175.32H369.6V184.4H367.82V166.92H369.6V173.86H372.4V175.32ZM357.48 178.82C356.733 177.673 356.36 176.18 356.36 174.34C356.36 172.5 356.733 171.013 357.48 169.88C358.227 168.733 359.333 168.16 360.8 168.16C362.267 168.16 363.367 168.733 364.1 169.88C364.847 171.013 365.22 172.507 365.22 174.36C365.22 176.187 364.847 177.673 364.1 178.82C363.367 179.953 362.267 180.52 360.8 180.52C359.333 180.52 358.227 179.953 357.48 178.82ZM363.48 174.36C363.48 172.96 363.247 171.833 362.78 170.98C362.313 170.113 361.653 169.68 360.8 169.68C359.947 169.68 359.287 170.107 358.82 170.96C358.367 171.813 358.14 172.947 358.14 174.36C358.14 175.747 358.367 176.867 358.82 177.72C359.287 178.573 359.947 179 360.8 179C361.653 179 362.313 178.573 362.78 177.72C363.247 176.867 363.48 175.747 363.48 174.36ZM389.538 178.54C390.578 179.14 391.098 179.967 391.098 181.02C391.098 182.073 390.585 182.9 389.558 183.5C388.532 184.1 387.078 184.4 385.198 184.4C383.345 184.4 381.898 184.1 380.858 183.5C379.832 182.9 379.318 182.073 379.318 181.02C379.318 179.967 379.832 179.14 380.858 178.54C381.898 177.927 383.345 177.62 385.198 177.62C387.065 177.62 388.512 177.927 389.538 178.54ZM377.058 169.78V168.34H386.618V169.78H382.798V170.36C382.798 171.52 383.225 172.573 384.078 173.52C384.932 174.453 385.898 175.087 386.978 175.42L385.998 176.84C385.198 176.52 384.405 176.013 383.618 175.32C382.832 174.613 382.265 173.873 381.918 173.1C381.652 173.913 381.085 174.727 380.218 175.54C379.352 176.353 378.452 176.953 377.518 177.34L376.518 175.94C377.718 175.513 378.765 174.78 379.658 173.74C380.552 172.687 380.998 171.573 380.998 170.4V169.78H377.058ZM385.198 179.08C383.918 179.08 382.918 179.253 382.198 179.6C381.478 179.933 381.118 180.407 381.118 181.02C381.118 181.633 381.478 182.113 382.198 182.46C382.918 182.793 383.918 182.96 385.198 182.96C386.492 182.96 387.498 182.793 388.218 182.46C388.938 182.113 389.298 181.633 389.298 181.02C389.298 180.407 388.938 179.933 388.218 179.6C387.498 179.253 386.492 179.08 385.198 179.08ZM389.218 172.78H385.958V171.32H389.218V166.92H390.998V177.76H389.218V172.78ZM407.303 179.62H405.523V166.92H407.303V179.62ZM403.543 175.52L402.523 176.9C401.67 176.54 400.836 175.98 400.023 175.22C399.223 174.447 398.643 173.633 398.283 172.78C398.016 173.7 397.47 174.613 396.643 175.52C395.83 176.413 394.963 177.067 394.043 177.48L392.963 176.1C394.203 175.58 395.243 174.747 396.083 173.6C396.936 172.44 397.363 171.193 397.363 169.86V167.9H399.163V169.78C399.163 171.1 399.603 172.287 400.483 173.34C401.376 174.393 402.396 175.12 403.543 175.52ZM407.683 183.9H395.903V178.44H397.683V182.46H407.683V183.9ZM423.688 184.4H421.908V166.92H423.688V184.4ZM409.888 174.4C409.888 172.573 410.268 171.093 411.028 169.96C411.788 168.813 412.908 168.24 414.388 168.24C415.868 168.24 416.981 168.813 417.728 169.96C418.488 171.093 418.868 172.58 418.868 174.42C418.868 176.26 418.488 177.753 417.728 178.9C416.981 180.033 415.868 180.6 414.388 180.6C412.908 180.6 411.788 180.027 411.028 178.88C410.268 177.733 409.888 176.24 409.888 174.4ZM416.408 177.8C416.874 176.947 417.108 175.82 417.108 174.42C417.108 173.02 416.874 171.893 416.408 171.04C415.941 170.187 415.268 169.76 414.388 169.76C413.521 169.76 412.854 170.187 412.388 171.04C411.921 171.893 411.688 173.02 411.688 174.42C411.688 175.82 411.921 176.947 412.388 177.8C412.854 178.64 413.521 179.06 414.388 179.06C415.268 179.06 415.941 178.64 416.408 177.8ZM443.726 176.92H431.866V168.64H443.566V170.08H433.626V175.5H443.726V176.92ZM445.606 182.04H429.826V180.6H445.606V182.04ZM460.451 184.4H458.691V175.1H455.751V173.6H458.691V166.92H460.451V184.4ZM456.071 178.32L456.251 179.76C454.318 180.12 451.744 180.3 448.531 180.3H446.691V173.34H452.991V169.94H446.691V168.5H454.751V174.78H448.451V178.84C451.704 178.84 454.244 178.667 456.071 178.32ZM472.976 179.08C471.109 179.56 468.316 179.833 464.596 179.9C464.222 179.913 463.682 179.92 462.976 179.92V168.64H464.736V178.4C465.949 178.4 467.342 178.333 468.916 178.2C470.502 178.067 471.769 177.873 472.716 177.62C472.809 178.233 472.896 178.72 472.976 179.08ZM475.936 166.92V173.76H478.716V175.26H475.936V184.4H474.156V166.92H475.936ZM494.52 177.26H478.74V175.82H494.52V177.26ZM492.86 184.02H480.84V178.84H482.6V182.56H492.86V184.02ZM492.78 173.76H480.9V167.64H482.66V172.32H492.78V173.76ZM514.059 184.4H512.359V175.08H510.279V183.54H508.579V167.3H510.279V173.64H512.359V166.92H514.059V184.4ZM501.599 178.52H501.919C504.252 178.52 506.112 178.367 507.499 178.06L507.739 179.52C506.219 179.84 504.146 180 501.519 180H499.839V169.08H506.659V170.52H501.599V178.52ZM531.824 175.34H529.104V184.4H527.344V166.92H529.104V173.88H531.824V175.34ZM525.904 178.82L524.844 180.14C523.99 179.58 523.144 178.807 522.304 177.82C521.464 176.833 520.89 175.867 520.584 174.92C520.29 175.973 519.744 177.013 518.944 178.04C518.157 179.067 517.264 179.913 516.264 180.58L515.164 179.26C516.51 178.42 517.597 177.287 518.424 175.86C519.25 174.433 519.664 172.927 519.664 171.34V168.42H521.484V171.26C521.484 172.833 521.897 174.287 522.724 175.62C523.55 176.953 524.61 178.02 525.904 178.82ZM534.408 178.66H535.128C538.248 178.66 540.675 178.473 542.408 178.1L542.608 179.54C540.795 179.913 538.128 180.113 534.608 180.14H532.648V168.76H540.908V170.22H534.408V178.66ZM545.408 166.92V173.74H548.128V175.22H545.408V184.4H543.648V166.92H545.408ZM548.333 182.62V180.66H550.273V182.62H548.333Z" fill="#555555"/>
</svg>
