<svg width="1440" height="80" viewBox="0 0 1440 80" fill="none" xmlns="http://www.w3.org/2000/svg">
<rect width="1440" height="80" fill="#DDDDDD"/>
<path d="M549.44 40.9496C549.44 42.0963 549.037 43.073 548.23 43.8796C547.423 44.6796 546.453 45.0796 545.32 45.0796C544.18 45.0796 543.207 44.6796 542.4 43.8796C541.6 43.073 541.2 42.0963 541.2 40.9496C541.2 39.8163 541.6 38.8496 542.4 38.0496C543.207 37.243 544.18 36.8396 545.32 36.8396C546.453 36.8396 547.423 37.243 548.23 38.0496C549.037 38.8496 549.44 39.8163 549.44 40.9496ZM547.79 43.4496C548.477 42.7563 548.82 41.923 548.82 40.9496C548.82 39.9763 548.477 39.1463 547.79 38.4596C547.11 37.773 546.287 37.4296 545.32 37.4296C544.36 37.4296 543.537 37.7763 542.85 38.4696C542.163 39.1563 541.82 39.983 541.82 40.9496C541.82 41.923 542.163 42.7563 542.85 43.4496C543.537 44.143 544.36 44.4896 545.32 44.4896C546.287 44.4896 547.11 44.143 547.79 43.4496ZM546.5 42.1796L546.62 42.7796C546.307 42.9196 545.937 42.9896 545.51 42.9896C544.923 42.9896 544.45 42.8096 544.09 42.4496C543.737 42.083 543.56 41.603 543.56 41.0096C543.56 40.4096 543.75 39.9163 544.13 39.5296C544.517 39.143 545.03 38.9496 545.67 38.9496C546.043 38.9496 546.363 39.0163 546.63 39.1496L546.46 39.7596C546.233 39.6463 545.973 39.5896 545.68 39.5896C545.273 39.5896 544.953 39.723 544.72 39.9896C544.493 40.2496 544.38 40.5763 544.38 40.9696C544.38 41.3896 544.5 41.723 544.74 41.9696C544.98 42.2163 545.287 42.3396 545.66 42.3396C545.953 42.3396 546.233 42.2863 546.5 42.1796ZM553.099 44.2096V37.4896H553.979V40.3596H557.209V37.4896H558.089V44.2096H557.209V41.0996H553.979V44.2096H553.099ZM561.54 44.2996C560.827 44.2996 560.27 44.083 559.87 43.6496C559.477 43.2096 559.28 42.603 559.28 41.8296V41.6596C559.28 40.8863 559.487 40.273 559.9 39.8196C560.313 39.3663 560.863 39.1396 561.55 39.1396C562.263 39.1396 562.82 39.3596 563.22 39.7996C563.62 40.2396 563.82 40.8496 563.82 41.6296V41.7896C563.82 42.563 563.61 43.1763 563.19 43.6296C562.777 44.0763 562.227 44.2996 561.54 44.2996ZM561.56 43.5996C562 43.5996 562.337 43.453 562.57 43.1596C562.81 42.8596 562.93 42.433 562.93 41.8796V41.6096C562.93 40.4296 562.463 39.8396 561.53 39.8396C561.097 39.8396 560.76 39.9896 560.52 40.2896C560.28 40.5896 560.16 41.0163 560.16 41.5696V41.8496C560.16 43.0163 560.627 43.5996 561.56 43.5996ZM564.864 44.2096V39.2396H565.674V39.6696H565.724C566.237 39.3163 566.74 39.1396 567.234 39.1396C567.787 39.1396 568.184 39.323 568.424 39.6896H568.474C569.034 39.323 569.584 39.1396 570.124 39.1396C571.037 39.1396 571.494 39.5963 571.494 40.5096V44.2096H570.654V40.6896C570.654 40.3963 570.59 40.1896 570.464 40.0696C570.337 39.943 570.11 39.8796 569.784 39.8796C569.45 39.8796 569.05 39.993 568.584 40.2196C568.597 40.3396 568.604 40.4363 568.604 40.5096V44.2096H567.754V40.6896C567.754 40.3963 567.69 40.1896 567.564 40.0696C567.437 39.943 567.214 39.8796 566.894 39.8796C566.547 39.8796 566.154 39.9896 565.714 40.2096V44.2096H564.864ZM574.773 44.2996C574.059 44.2996 573.503 44.083 573.103 43.6496C572.709 43.2096 572.513 42.603 572.513 41.8296V41.6596C572.513 40.8863 572.719 40.273 573.133 39.8196C573.546 39.3663 574.096 39.1396 574.783 39.1396C575.496 39.1396 576.053 39.3596 576.453 39.7996C576.853 40.2396 577.053 40.8496 577.053 41.6296V41.7896C577.053 42.563 576.843 43.1763 576.423 43.6296C576.009 44.0763 575.459 44.2996 574.773 44.2996ZM574.793 43.5996C575.233 43.5996 575.569 43.453 575.803 43.1596C576.043 42.8596 576.163 42.433 576.163 41.8796V41.6096C576.163 40.4296 575.696 39.8396 574.763 39.8396C574.329 39.8396 573.993 39.9896 573.753 40.2896C573.513 40.5896 573.393 41.0163 573.393 41.5696V41.8496C573.393 43.0163 573.859 43.5996 574.793 43.5996ZM580.863 44.2096V37.4896H581.743V43.4596H584.703V44.2096H580.863ZM587.164 44.2996C586.671 44.2996 586.294 44.1763 586.034 43.9296C585.774 43.683 585.644 43.3196 585.644 42.8396V39.2396H586.484V42.6996C586.484 43.013 586.551 43.2363 586.684 43.3696C586.817 43.503 587.061 43.5696 587.414 43.5696C587.801 43.5696 588.227 43.4496 588.694 43.2096V39.2396H589.554V44.2096H588.834L588.734 43.7796H588.684C588.191 44.1263 587.684 44.2996 587.164 44.2996ZM592.678 44.2996C592.425 44.2996 592.182 44.2596 591.948 44.1796C591.722 44.093 591.505 43.9596 591.298 43.7796C591.098 43.5996 590.935 43.3496 590.808 43.0296C590.688 42.703 590.628 42.3196 590.628 41.8796V41.7396C590.628 40.873 590.828 40.223 591.228 39.7896C591.635 39.3563 592.172 39.1396 592.838 39.1396C593.325 39.1396 593.748 39.243 594.108 39.4496V37.0496H594.958V44.2096H594.238L594.158 43.8096H594.108C593.782 44.1363 593.305 44.2996 592.678 44.2996ZM592.958 43.5996C593.405 43.5996 593.788 43.4696 594.108 43.2096V40.1596C593.868 39.9663 593.482 39.8696 592.948 39.8696C592.475 39.8696 592.118 40.0063 591.878 40.2796C591.638 40.553 591.518 41.003 591.518 41.6296V41.8496C591.518 42.483 591.642 42.933 591.888 43.1996C592.142 43.4663 592.498 43.5996 592.958 43.5996ZM598.379 44.2996C597.605 44.2996 597.015 44.0796 596.609 43.6396C596.209 43.193 596.009 42.5796 596.009 41.7996V41.6496C596.009 40.8296 596.215 40.2063 596.629 39.7796C597.049 39.353 597.572 39.1396 598.199 39.1396C599.539 39.1396 600.209 39.923 600.209 41.4896V41.9696H596.889C596.915 42.543 597.065 42.953 597.339 43.1996C597.612 43.4463 598.005 43.5696 598.519 43.5696C599.072 43.5696 599.585 43.443 600.059 43.1896V43.8196C599.639 44.1396 599.079 44.2996 598.379 44.2996ZM598.159 39.8296C597.832 39.8296 597.545 39.943 597.299 40.1696C597.059 40.3896 596.922 40.7596 596.889 41.2796H599.309C599.309 40.773 599.212 40.4063 599.019 40.1796C598.832 39.9463 598.545 39.8296 598.159 39.8296ZM601.26 44.2096V39.2396H602.07V39.6696H602.12C602.613 39.3163 603.17 39.1396 603.79 39.1396C604.283 39.1396 604.647 39.2496 604.88 39.4696C605.113 39.6896 605.23 40.0363 605.23 40.5096V44.2096H604.39V40.6896C604.39 40.3963 604.323 40.1896 604.19 40.0696C604.057 39.943 603.8 39.8796 603.42 39.8796C603.013 39.8796 602.577 39.9896 602.11 40.2096V44.2096H601.26ZM607.843 44.2896C607.169 44.2896 606.633 44.173 606.233 43.9396V43.2696C606.746 43.4763 607.239 43.5796 607.713 43.5796C608.426 43.5796 608.783 43.3496 608.783 42.8896C608.783 42.6896 608.719 42.533 608.593 42.4196C608.473 42.2996 608.263 42.1996 607.963 42.1196L607.493 41.9896C607.093 41.883 606.786 41.7263 606.573 41.5196C606.359 41.313 606.253 41.0096 606.253 40.6096C606.253 40.1563 606.396 39.7996 606.683 39.5396C606.976 39.273 607.413 39.1396 607.993 39.1396C608.513 39.1396 608.966 39.2363 609.353 39.4296V40.1196C608.979 39.9463 608.536 39.8596 608.023 39.8596C607.383 39.8596 607.063 40.0796 607.063 40.5196C607.063 40.7196 607.116 40.8696 607.223 40.9696C607.329 41.0696 607.516 41.1563 607.783 41.2296L608.253 41.3496C608.753 41.483 609.103 41.653 609.303 41.8596C609.509 42.0663 609.613 42.383 609.613 42.8096C609.613 43.2896 609.456 43.6563 609.143 43.9096C608.829 44.163 608.396 44.2896 607.843 44.2896ZM610.415 44.4396V43.4596H611.385V44.4396H610.415ZM616.073 45.2296V36.9096H616.813V45.2296H616.073ZM628.832 44.3596H620.782V43.5296H624.282V42.5296C623.582 42.4696 623.029 42.303 622.622 42.0296C622.222 41.7496 622.022 41.393 622.022 40.9596C622.022 40.473 622.276 40.0863 622.782 39.7996C623.289 39.5063 623.966 39.3596 624.812 39.3596C625.659 39.3596 626.336 39.5063 626.842 39.7996C627.349 40.0863 627.602 40.473 627.602 40.9596C627.602 41.3996 627.396 41.7596 626.982 42.0396C626.569 42.313 626.009 42.4763 625.302 42.5296V43.5296H628.832V44.3596ZM628.332 38.9896H621.282V38.1596H628.332V38.9896ZM626.052 41.5696C626.392 41.423 626.562 41.2196 626.562 40.9596C626.562 40.6996 626.396 40.4996 626.062 40.3596C625.729 40.2196 625.312 40.1496 624.812 40.1496C624.312 40.1496 623.896 40.2196 623.562 40.3596C623.229 40.4996 623.062 40.6996 623.062 40.9596C623.062 41.2196 623.229 41.423 623.562 41.5696C623.902 41.7096 624.319 41.7796 624.812 41.7796C625.306 41.7796 625.719 41.7096 626.052 41.5696ZM623.222 37.5996V36.7796H626.382V37.5996H623.222ZM637.485 44.2896H629.435V43.4696H632.935V41.4196H630.435V37.2096H636.495V41.4196H633.955V43.4696H637.485V44.2896ZM635.475 40.6096V38.0296H631.455V40.6096H635.475ZM647.944 40.8296H641.784V38.3896H646.674V37.5496H641.774V36.7596H647.694V39.1596H642.814V40.0496H647.944V40.8296ZM645.234 45.3996H644.214V42.5096H640.714V41.6896H648.764V42.5096H645.234V45.3996ZM656.866 43.1296H655.886V36.5096H656.866V43.1296ZM657.096 45.1696H650.966V42.3396H651.986V44.3496H657.096V45.1696ZM653.446 40.4896L653.566 41.2996C652.873 41.4663 651.88 41.5496 650.586 41.5496H649.736V37.2796H653.056V38.0896H650.756V40.7296C651.896 40.7296 652.793 40.6496 653.446 40.4896ZM654.186 39.6696H652.666V38.8496H654.186V36.6696H655.156V42.8596H654.186V39.6696ZM666.069 44.2396H658.019V43.4196H666.069V44.2396ZM665.859 40.6596L665.319 41.4596C664.632 41.2796 663.969 40.9596 663.329 40.4996C662.689 40.033 662.259 39.5396 662.039 39.0196C661.839 39.553 661.415 40.0496 660.769 40.5096C660.129 40.9696 659.455 41.2863 658.749 41.4596L658.249 40.6196C658.749 40.5396 659.245 40.3663 659.739 40.0996C660.232 39.833 660.652 39.4796 660.999 39.0396C661.345 38.593 661.519 38.1263 661.519 37.6396V37.0496H662.589V37.6396C662.589 38.1196 662.769 38.5863 663.129 39.0396C663.495 39.4863 663.925 39.8463 664.419 40.1196C664.912 40.393 665.392 40.573 665.859 40.6596ZM676.548 42.9396H675.658V36.5896H676.548V42.9396ZM676.748 45.0596H670.798V42.3396H671.688V44.3496H676.748V45.0596ZM670.238 37.8096C670.678 37.3896 671.235 37.1796 671.908 37.1796C672.581 37.1796 673.138 37.3863 673.578 37.7996C674.025 38.213 674.248 38.733 674.248 39.3596C674.248 39.9863 674.028 40.4996 673.588 40.8996C673.148 41.293 672.588 41.4896 671.908 41.4896C671.235 41.4896 670.678 41.293 670.238 40.8996C669.798 40.4996 669.578 39.9896 669.578 39.3696C669.578 38.743 669.798 38.223 670.238 37.8096ZM671.908 37.9396C671.501 37.9396 671.165 38.073 670.898 38.3396C670.638 38.6063 670.508 38.943 670.508 39.3496C670.508 39.7496 670.638 40.083 670.898 40.3496C671.165 40.6163 671.501 40.7496 671.908 40.7496C672.335 40.7496 672.675 40.6196 672.928 40.3596C673.181 40.0996 673.308 39.7663 673.308 39.3596C673.308 38.9396 673.181 38.5996 672.928 38.3396C672.675 38.073 672.335 37.9396 671.908 37.9396ZM686.09 39.9896H684.78V43.0296H683.89V36.5896H684.78V39.2496H686.09V39.9896ZM685.04 45.0996H679.26V42.3596H680.14V44.3796H685.04V45.0996ZM678.37 37.2996H682.33C682.297 38.4663 681.92 39.4696 681.2 40.3096C680.487 41.143 679.544 41.7296 678.37 42.0696L677.92 41.3496C678.827 41.1296 679.597 40.713 680.23 40.0996C680.864 39.4863 681.24 38.7963 681.36 38.0296H678.37V37.2996ZM693.043 36.5896H693.913V45.3296H693.043V36.5896ZM691.783 39.3496C691.783 39.943 691.563 40.423 691.123 40.7896C690.683 41.1563 690.139 41.3396 689.493 41.3396C688.839 41.3396 688.296 41.1563 687.863 40.7896C687.429 40.4163 687.213 39.9363 687.213 39.3496C687.213 38.7496 687.429 38.2563 687.863 37.8696C688.303 37.483 688.846 37.2896 689.493 37.2896C690.153 37.2896 690.699 37.4796 691.133 37.8596C691.566 38.2396 691.783 38.7363 691.783 39.3496ZM690.913 39.3396C690.913 38.9463 690.776 38.6296 690.503 38.3896C690.236 38.1496 689.899 38.0296 689.493 38.0296C689.106 38.0296 688.776 38.1563 688.503 38.4096C688.229 38.6563 688.093 38.9663 688.093 39.3396C688.093 39.7063 688.226 40.0096 688.493 40.2496C688.766 40.483 689.099 40.5996 689.493 40.5996C689.886 40.5996 690.219 40.483 690.493 40.2496C690.773 40.0163 690.913 39.713 690.913 39.3396ZM692.573 43.1196C691.946 43.1996 690.879 43.2796 689.373 43.3596C688.586 43.3996 687.716 43.4263 686.763 43.4396L686.623 42.6796C687.723 42.6796 688.686 42.6596 689.513 42.6196C690.773 42.5663 691.763 42.4996 692.483 42.4196L692.573 43.1196ZM705.852 44.2196H697.962V43.4996H701.442V41.5396H698.902V37.3696H704.902V41.5396H702.332V43.4996H705.852V44.2196ZM704.022 40.8096V38.0896H699.782V40.8096H704.022ZM713.564 45.0696H707.574V42.5996H708.464V44.3596H713.564V45.0696ZM714.504 41.7996H706.614V41.0796H714.504V41.7996ZM713.564 40.0496H707.594V36.9596H713.484V37.6796H708.484V39.3296H713.564V40.0496ZM725.084 45.2696H718.814V43.1396H723.864V42.4196H718.784V41.6996H724.754V43.7996H719.694V44.5396H725.084V45.2696ZM724.824 39.3696H722.264V40.2896H725.784V41.0096H717.894V40.2896H721.374V39.3696H718.974V36.7196H719.854V38.6596H724.824V39.3696ZM733.756 45.3296H732.866V36.5896H733.756V45.3296ZM726.856 40.3296C726.856 39.4163 727.046 38.6763 727.426 38.1096C727.806 37.5363 728.366 37.2496 729.106 37.2496C729.846 37.2496 730.403 37.5363 730.776 38.1096C731.156 38.6763 731.346 39.4196 731.346 40.3396C731.346 41.2596 731.156 42.0063 730.776 42.5796C730.403 43.1463 729.846 43.4296 729.106 43.4296C728.366 43.4296 727.806 43.143 727.426 42.5696C727.046 41.9963 726.856 41.2496 726.856 40.3296ZM730.116 42.0296C730.349 41.603 730.466 41.0396 730.466 40.3396C730.466 39.6396 730.349 39.0763 730.116 38.6496C729.883 38.223 729.546 38.0096 729.106 38.0096C728.673 38.0096 728.339 38.223 728.106 38.6496C727.873 39.0763 727.756 39.6396 727.756 40.3396C727.756 41.0396 727.873 41.603 728.106 42.0296C728.339 42.4496 728.673 42.6596 729.106 42.6596C729.546 42.6596 729.883 42.4496 730.116 42.0296ZM743.088 41.3096H735.198V40.6296H743.088V41.3096ZM742.458 45.1696H736.098V43.2396H741.298V42.5896H736.098V41.9196H742.178V43.8596H736.978V44.4996H742.458V45.1696ZM742.308 40.0096H736.188V38.1596H741.248V37.5496H736.198V36.8896H742.128V38.7596H737.078V39.3496H742.308V40.0096ZM754.528 39.4696H753.228V41.5296H752.338V36.5896H753.228V38.7396H754.528V39.4696ZM753.228 45.2096H747.688V41.9896H753.228V45.2096ZM752.348 44.4996V42.6896H748.568V44.4996H752.348ZM747.678 40.2796C749.238 40.2796 750.491 40.183 751.438 39.9896L751.568 40.6796C750.621 40.873 749.328 40.9763 747.688 40.9896H746.798V37.1996H750.738V37.9296H747.678V40.2796ZM756.38 42.4596H756.74C758.3 42.4596 759.513 42.3663 760.38 42.1796L760.48 42.8996C759.573 43.0863 758.24 43.1863 756.48 43.1996H755.5V37.5096H759.63V38.2396H756.38V42.4596ZM761.88 36.5896V39.9996H763.24V40.7396H761.88V45.3296H761V36.5896H761.88ZM767.059 45.2296V36.9096H767.799V45.2296H767.059ZM772.319 44.2096V37.4896H773.199V44.2096H772.319ZM774.727 44.2096V39.2396H775.537V39.6696H775.587C776.08 39.3163 776.637 39.1396 777.257 39.1396C777.75 39.1396 778.114 39.2496 778.347 39.4696C778.58 39.6896 778.697 40.0363 778.697 40.5096V44.2096H777.857V40.6896C777.857 40.3963 777.79 40.1896 777.657 40.0696C777.524 39.943 777.267 39.8796 776.887 39.8796C776.48 39.8796 776.044 39.9896 775.577 40.2096V44.2096H774.727ZM781.31 44.2896C780.636 44.2896 780.1 44.173 779.7 43.9396V43.2696C780.213 43.4763 780.706 43.5796 781.18 43.5796C781.893 43.5796 782.25 43.3496 782.25 42.8896C782.25 42.6896 782.186 42.533 782.06 42.4196C781.94 42.2996 781.73 42.1996 781.43 42.1196L780.96 41.9896C780.56 41.883 780.253 41.7263 780.04 41.5196C779.826 41.313 779.72 41.0096 779.72 40.6096C779.72 40.1563 779.863 39.7996 780.15 39.5396C780.443 39.273 780.88 39.1396 781.46 39.1396C781.98 39.1396 782.433 39.2363 782.82 39.4296V40.1196C782.446 39.9463 782.003 39.8596 781.49 39.8596C780.85 39.8596 780.53 40.0796 780.53 40.5196C780.53 40.7196 780.583 40.8696 780.69 40.9696C780.796 41.0696 780.983 41.1563 781.25 41.2296L781.72 41.3496C782.22 41.483 782.57 41.653 782.77 41.8596C782.976 42.0663 783.08 42.383 783.08 42.8096C783.08 43.2896 782.923 43.6563 782.61 43.9096C782.296 44.163 781.863 44.2896 781.31 44.2896ZM785.721 44.2596C784.828 44.2596 784.381 43.853 784.381 43.0396V39.9496H783.671V39.2396H784.381V38.0596H785.231V39.2396H786.481V39.9496H785.231V42.9196C785.231 43.1596 785.281 43.3296 785.381 43.4296C785.488 43.523 785.678 43.5696 785.951 43.5696C786.158 43.5696 786.368 43.543 786.581 43.4896V44.0696C786.288 44.1963 786.001 44.2596 785.721 44.2596ZM788.779 44.2996C788.312 44.2996 787.939 44.1796 787.659 43.9396C787.379 43.6996 787.239 43.3496 787.239 42.8896C787.239 42.0496 787.739 41.5663 788.739 41.4396L790.059 41.2796V40.8196C790.059 40.4463 789.969 40.1963 789.789 40.0696C789.616 39.943 789.299 39.8796 788.839 39.8796C788.512 39.8796 788.116 39.9263 787.649 40.0196V39.4096C788.122 39.2296 788.629 39.1396 789.169 39.1396C790.322 39.1396 790.899 39.6296 790.899 40.6096V44.2096H790.219L790.129 43.7896H790.079C789.772 44.1296 789.339 44.2996 788.779 44.2996ZM788.989 43.6396C789.456 43.6396 789.812 43.5263 790.059 43.2996V41.9296L788.959 42.0396C788.666 42.073 788.452 42.153 788.319 42.2796C788.186 42.4063 788.119 42.603 788.119 42.8696C788.119 43.123 788.196 43.3163 788.349 43.4496C788.509 43.5763 788.722 43.6396 788.989 43.6396ZM793.977 45.6796C792.477 45.6796 791.727 45.3196 791.727 44.5996C791.727 44.353 791.81 44.1463 791.977 43.9796C792.15 43.8063 792.377 43.6796 792.657 43.5996V43.5496C792.324 43.423 792.157 43.223 792.157 42.9496C792.157 42.623 792.347 42.323 792.727 42.0496C792.314 41.7896 792.107 41.3896 792.107 40.8496V40.7496C792.107 40.2496 792.28 39.8563 792.627 39.5696C792.98 39.283 793.437 39.1396 793.997 39.1396C794.257 39.1396 794.5 39.1696 794.727 39.2296H796.417V39.8696H795.567C795.774 40.083 795.877 40.363 795.877 40.7096V40.8096C795.877 41.3163 795.7 41.703 795.347 41.9696C795 42.2363 794.547 42.3696 793.987 42.3696C793.694 42.3696 793.42 42.3296 793.167 42.2496C793.027 42.3563 792.957 42.483 792.957 42.6296C792.957 42.7496 792.994 42.833 793.067 42.8796C793.14 42.9263 793.26 42.9496 793.427 42.9496H794.787C795.84 42.9496 796.367 43.3696 796.367 44.2096C796.367 45.1896 795.57 45.6796 793.977 45.6796ZM793.957 45.0096C794.517 45.0096 794.91 44.9596 795.137 44.8596C795.364 44.7596 795.477 44.5863 795.477 44.3396C795.477 44.133 795.414 43.983 795.287 43.8896C795.16 43.7963 794.94 43.7496 794.627 43.7496H793.227C792.827 43.8896 792.627 44.133 792.627 44.4796C792.627 44.693 792.724 44.833 792.917 44.8996C793.117 44.973 793.464 45.0096 793.957 45.0096ZM793.987 41.7296C794.687 41.7296 795.037 41.4363 795.037 40.8496V40.6996C795.037 40.393 794.944 40.163 794.757 40.0096C794.57 39.8563 794.314 39.7796 793.987 39.7796C793.66 39.7796 793.407 39.8596 793.227 40.0196C793.047 40.1796 792.957 40.3996 792.957 40.6796V40.8296C792.957 41.4296 793.3 41.7296 793.987 41.7296ZM797.227 44.2096V39.2396H798.037V39.7896H798.087C798.227 39.6163 798.42 39.473 798.667 39.3596C798.92 39.2396 799.177 39.1796 799.437 39.1796C799.577 39.1796 799.68 39.193 799.747 39.2196V39.9796C799.607 39.9596 799.48 39.9496 799.367 39.9496C798.894 39.9496 798.464 40.0763 798.077 40.3296V44.2096H797.227ZM801.845 44.2996C801.379 44.2996 801.005 44.1796 800.725 43.9396C800.445 43.6996 800.305 43.3496 800.305 42.8896C800.305 42.0496 800.805 41.5663 801.805 41.4396L803.125 41.2796V40.8196C803.125 40.4463 803.035 40.1963 802.855 40.0696C802.682 39.943 802.365 39.8796 801.905 39.8796C801.579 39.8796 801.182 39.9263 800.715 40.0196V39.4096C801.189 39.2296 801.695 39.1396 802.235 39.1396C803.389 39.1396 803.965 39.6296 803.965 40.6096V44.2096H803.285L803.195 43.7896H803.145C802.839 44.1296 802.405 44.2996 801.845 44.2996ZM802.055 43.6396C802.522 43.6396 802.879 43.5263 803.125 43.2996V41.9296L802.025 42.0396C801.732 42.073 801.519 42.153 801.385 42.2796C801.252 42.4063 801.185 42.603 801.185 42.8696C801.185 43.123 801.262 43.3163 801.415 43.4496C801.575 43.5763 801.789 43.6396 802.055 43.6396ZM805.293 44.2096V39.2396H806.103V39.6696H806.153C806.667 39.3163 807.17 39.1396 807.663 39.1396C808.217 39.1396 808.613 39.323 808.853 39.6896H808.903C809.463 39.323 810.013 39.1396 810.553 39.1396C811.467 39.1396 811.923 39.5963 811.923 40.5096V44.2096H811.083V40.6896C811.083 40.3963 811.02 40.1896 810.893 40.0696C810.767 39.943 810.54 39.8796 810.213 39.8796C809.88 39.8796 809.48 39.993 809.013 40.2196C809.027 40.3396 809.033 40.4363 809.033 40.5096V44.2096H808.183V40.6896C808.183 40.3963 808.12 40.1896 807.993 40.0696C807.867 39.943 807.643 39.8796 807.323 39.8796C806.977 39.8796 806.583 39.9896 806.143 40.2096V44.2096H805.293ZM814.872 45.2296C814.352 44.7163 813.929 44.113 813.602 43.4196C813.276 42.7263 813.112 41.9696 813.112 41.1496V40.9796C813.112 39.413 813.699 38.0563 814.872 36.9096H815.622C815.142 37.443 814.749 38.0563 814.442 38.7496C814.142 39.443 813.992 40.1596 813.992 40.8996V41.1596C813.992 41.8796 814.146 42.6063 814.452 43.3396C814.759 44.073 815.149 44.703 815.622 45.2296H814.872ZM820.156 45.6796C818.929 45.6796 817.976 45.363 817.296 44.7296C816.623 44.0963 816.286 43.2063 816.286 42.0596C816.286 41.4863 816.379 40.9363 816.566 40.4096C816.753 39.883 817.019 39.4096 817.366 38.9896C817.713 38.563 818.163 38.2263 818.716 37.9796C819.269 37.7263 819.883 37.5996 820.556 37.5996C821.603 37.5996 822.443 37.9163 823.076 38.5496C823.709 39.183 824.026 39.993 824.026 40.9796C824.026 41.8863 823.833 42.5963 823.446 43.1096C823.066 43.6163 822.536 43.8696 821.856 43.8696C821.249 43.8696 820.893 43.6696 820.786 43.2696H820.736C820.403 43.6696 820.009 43.8696 819.556 43.8696C819.123 43.8696 818.786 43.7263 818.546 43.4396C818.313 43.153 818.196 42.763 818.196 42.2696C818.196 41.4363 818.379 40.773 818.746 40.2796C819.119 39.7796 819.626 39.5296 820.266 39.5296C820.699 39.5296 821.043 39.6563 821.296 39.9096H821.336L821.396 39.6196H822.196L821.606 42.7496C821.539 43.0896 821.666 43.2596 821.986 43.2596C822.406 43.2596 822.733 43.0696 822.966 42.6896C823.199 42.303 823.316 41.753 823.316 41.0396C823.316 40.173 823.079 39.4896 822.606 38.9896C822.139 38.483 821.449 38.2296 820.536 38.2296C819.416 38.2296 818.546 38.5896 817.926 39.3096C817.313 40.0296 817.006 40.943 817.006 42.0496C817.006 43.003 817.269 43.7463 817.796 44.2796C818.329 44.8063 819.119 45.0696 820.166 45.0696C820.873 45.0696 821.596 44.943 822.336 44.6896V45.2396C821.643 45.533 820.916 45.6796 820.156 45.6796ZM819.776 43.2096C820.123 43.2096 820.453 43.0596 820.766 42.7596L821.166 40.5396C820.973 40.313 820.673 40.1996 820.266 40.1996C819.466 40.1996 819.066 40.8863 819.066 42.2596C819.066 42.893 819.303 43.2096 819.776 43.2096ZM825.215 44.2096V37.0496H826.065V39.6496H826.115C826.602 39.3096 827.145 39.1396 827.745 39.1396C828.238 39.1396 828.602 39.2496 828.835 39.4696C829.068 39.6896 829.185 40.0363 829.185 40.5096V44.2096H828.345V40.6896C828.345 40.3963 828.278 40.1896 828.145 40.0696C828.012 39.943 827.755 39.8796 827.375 39.8796C826.968 39.8796 826.532 39.9896 826.065 40.2096V44.2096H825.215ZM832.468 44.2996C831.755 44.2996 831.198 44.083 830.798 43.6496C830.405 43.2096 830.208 42.603 830.208 41.8296V41.6596C830.208 40.8863 830.415 40.273 830.828 39.8196C831.241 39.3663 831.791 39.1396 832.478 39.1396C833.191 39.1396 833.748 39.3596 834.148 39.7996C834.548 40.2396 834.748 40.8496 834.748 41.6296V41.7896C834.748 42.563 834.538 43.1763 834.118 43.6296C833.705 44.0763 833.155 44.2996 832.468 44.2996ZM832.488 43.5996C832.928 43.5996 833.265 43.453 833.498 43.1596C833.738 42.8596 833.858 42.433 833.858 41.8796V41.6096C833.858 40.4296 833.391 39.8396 832.458 39.8396C832.025 39.8396 831.688 39.9896 831.448 40.2896C831.208 40.5896 831.088 41.0163 831.088 41.5696V41.8496C831.088 43.0163 831.555 43.5996 832.488 43.5996ZM835.791 44.2096V39.2396H836.601V39.6696H836.651C837.165 39.3163 837.668 39.1396 838.161 39.1396C838.715 39.1396 839.111 39.323 839.351 39.6896H839.401C839.961 39.323 840.511 39.1396 841.051 39.1396C841.965 39.1396 842.421 39.5963 842.421 40.5096V44.2096H841.581V40.6896C841.581 40.3963 841.518 40.1896 841.391 40.0696C841.265 39.943 841.038 39.8796 840.711 39.8796C840.378 39.8796 839.978 39.993 839.511 40.2196C839.525 40.3396 839.531 40.4363 839.531 40.5096V44.2096H838.681V40.6896C838.681 40.3963 838.618 40.1896 838.491 40.0696C838.365 39.943 838.141 39.8796 837.821 39.8796C837.475 39.8796 837.081 39.9896 836.641 40.2096V44.2096H835.791ZM845.7 44.2996C844.987 44.2996 844.43 44.083 844.03 43.6496C843.637 43.2096 843.44 42.603 843.44 41.8296V41.6596C843.44 40.8863 843.647 40.273 844.06 39.8196C844.474 39.3663 845.024 39.1396 845.71 39.1396C846.424 39.1396 846.98 39.3596 847.38 39.7996C847.78 40.2396 847.98 40.8496 847.98 41.6296V41.7896C847.98 42.563 847.77 43.1763 847.35 43.6296C846.937 44.0763 846.387 44.2996 845.7 44.2996ZM845.72 43.5996C846.16 43.5996 846.497 43.453 846.73 43.1596C846.97 42.8596 847.09 42.433 847.09 41.8796V41.6096C847.09 40.4296 846.624 39.8396 845.69 39.8396C845.257 39.8396 844.92 39.9896 844.68 40.2896C844.44 40.5896 844.32 41.0163 844.32 41.5696V41.8496C844.32 43.0163 844.787 43.5996 845.72 43.5996ZM849.044 44.2096V37.0496H849.904V44.2096H849.044ZM852.779 44.2996C852.286 44.2996 851.909 44.1763 851.649 43.9296C851.389 43.683 851.259 43.3196 851.259 42.8396V39.2396H852.099V42.6996C852.099 43.013 852.166 43.2363 852.299 43.3696C852.433 43.503 852.676 43.5696 853.029 43.5696C853.416 43.5696 853.843 43.4496 854.309 43.2096V39.2396H855.169V44.2096H854.449L854.349 43.7796H854.299C853.806 44.1263 853.299 44.2996 852.779 44.2996ZM858.294 44.2996C858.04 44.2996 857.797 44.2596 857.564 44.1796C857.337 44.093 857.12 43.9596 856.914 43.7796C856.714 43.5996 856.55 43.3496 856.424 43.0296C856.304 42.703 856.244 42.3196 856.244 41.8796V41.7396C856.244 40.873 856.444 40.223 856.844 39.7896C857.25 39.3563 857.787 39.1396 858.454 39.1396C858.94 39.1396 859.364 39.243 859.724 39.4496V37.0496H860.574V44.2096H859.854L859.774 43.8096H859.724C859.397 44.1363 858.92 44.2996 858.294 44.2996ZM858.574 43.5996C859.02 43.5996 859.404 43.4696 859.724 43.2096V40.1596C859.484 39.9663 859.097 39.8696 858.564 39.8696C858.09 39.8696 857.734 40.0063 857.494 40.2796C857.254 40.553 857.134 41.003 857.134 41.6296V41.8496C857.134 42.483 857.257 42.933 857.504 43.1996C857.757 43.4663 858.114 43.5996 858.574 43.5996ZM863.994 44.2996C863.221 44.2996 862.631 44.0796 862.224 43.6396C861.824 43.193 861.624 42.5796 861.624 41.7996V41.6496C861.624 40.8296 861.831 40.2063 862.244 39.7796C862.664 39.353 863.187 39.1396 863.814 39.1396C865.154 39.1396 865.824 39.923 865.824 41.4896V41.9696H862.504C862.531 42.543 862.681 42.953 862.954 43.1996C863.227 43.4463 863.621 43.5696 864.134 43.5696C864.687 43.5696 865.201 43.443 865.674 43.1896V43.8196C865.254 44.1396 864.694 44.2996 863.994 44.2996ZM863.774 39.8296C863.447 39.8296 863.161 39.943 862.914 40.1696C862.674 40.3896 862.537 40.7596 862.504 41.2796H864.924C864.924 40.773 864.827 40.4063 864.634 40.1796C864.447 39.9463 864.161 39.8296 863.774 39.8296ZM866.875 44.2096V39.2396H867.685V39.6696H867.735C868.229 39.3163 868.785 39.1396 869.405 39.1396C869.899 39.1396 870.262 39.2496 870.495 39.4696C870.729 39.6896 870.845 40.0363 870.845 40.5096V44.2096H870.005V40.6896C870.005 40.3963 869.939 40.1896 869.805 40.0696C869.672 39.943 869.415 39.8796 869.035 39.8796C868.629 39.8796 868.192 39.9896 867.725 40.2096V44.2096H866.875ZM873.458 44.2896C872.785 44.2896 872.248 44.173 871.848 43.9396V43.2696C872.361 43.4763 872.855 43.5796 873.328 43.5796C874.041 43.5796 874.398 43.3496 874.398 42.8896C874.398 42.6896 874.335 42.533 874.208 42.4196C874.088 42.2996 873.878 42.1996 873.578 42.1196L873.108 41.9896C872.708 41.883 872.401 41.7263 872.188 41.5196C871.975 41.313 871.868 41.0096 871.868 40.6096C871.868 40.1563 872.011 39.7996 872.298 39.5396C872.591 39.273 873.028 39.1396 873.608 39.1396C874.128 39.1396 874.581 39.2363 874.968 39.4296V40.1196C874.595 39.9463 874.151 39.8596 873.638 39.8596C872.998 39.8596 872.678 40.0796 872.678 40.5196C872.678 40.7196 872.731 40.8696 872.838 40.9696C872.945 41.0696 873.131 41.1563 873.398 41.2296L873.868 41.3496C874.368 41.483 874.718 41.653 874.918 41.8596C875.125 42.0663 875.228 42.383 875.228 42.8096C875.228 43.2896 875.071 43.6563 874.758 43.9096C874.445 44.163 874.011 44.2896 873.458 44.2896ZM876.03 44.4396V43.4596H877V44.4396H876.03ZM878.711 44.2096V39.2396H879.521V39.6696H879.571C880.085 39.3163 880.588 39.1396 881.081 39.1396C881.635 39.1396 882.031 39.323 882.271 39.6896H882.321C882.881 39.323 883.431 39.1396 883.971 39.1396C884.885 39.1396 885.341 39.5963 885.341 40.5096V44.2096H884.501V40.6896C884.501 40.3963 884.438 40.1896 884.311 40.0696C884.185 39.943 883.958 39.8796 883.631 39.8796C883.298 39.8796 882.898 39.993 882.431 40.2196C882.445 40.3396 882.451 40.4363 882.451 40.5096V44.2096H881.601V40.6896C881.601 40.3963 881.538 40.1896 881.411 40.0696C881.285 39.943 881.061 39.8796 880.741 39.8796C880.395 39.8796 880.001 39.9896 879.561 40.2096V44.2096H878.711ZM887.89 44.2996C887.424 44.2996 887.05 44.1796 886.77 43.9396C886.49 43.6996 886.35 43.3496 886.35 42.8896C886.35 42.0496 886.85 41.5663 887.85 41.4396L889.17 41.2796V40.8196C889.17 40.4463 889.08 40.1963 888.9 40.0696C888.727 39.943 888.41 39.8796 887.95 39.8796C887.624 39.8796 887.227 39.9263 886.76 40.0196V39.4096C887.234 39.2296 887.74 39.1396 888.28 39.1396C889.434 39.1396 890.01 39.6296 890.01 40.6096V44.2096H889.33L889.24 43.7896H889.19C888.884 44.1296 888.45 44.2996 887.89 44.2996ZM888.1 43.6396C888.567 43.6396 888.924 43.5263 889.17 43.2996V41.9296L888.07 42.0396C887.777 42.073 887.564 42.153 887.43 42.2796C887.297 42.4063 887.23 42.603 887.23 42.8696C887.23 43.123 887.307 43.3163 887.46 43.4496C887.62 43.5763 887.834 43.6396 888.1 43.6396ZM893.088 45.6796C891.588 45.6796 890.838 45.3196 890.838 44.5996C890.838 44.353 890.922 44.1463 891.088 43.9796C891.262 43.8063 891.488 43.6796 891.768 43.5996V43.5496C891.435 43.423 891.268 43.223 891.268 42.9496C891.268 42.623 891.458 42.323 891.838 42.0496C891.425 41.7896 891.218 41.3896 891.218 40.8496V40.7496C891.218 40.2496 891.392 39.8563 891.738 39.5696C892.092 39.283 892.548 39.1396 893.108 39.1396C893.368 39.1396 893.612 39.1696 893.838 39.2296H895.528V39.8696H894.678C894.885 40.083 894.988 40.363 894.988 40.7096V40.8096C894.988 41.3163 894.812 41.703 894.458 41.9696C894.112 42.2363 893.658 42.3696 893.098 42.3696C892.805 42.3696 892.532 42.3296 892.278 42.2496C892.138 42.3563 892.068 42.483 892.068 42.6296C892.068 42.7496 892.105 42.833 892.178 42.8796C892.252 42.9263 892.372 42.9496 892.538 42.9496H893.898C894.952 42.9496 895.478 43.3696 895.478 44.2096C895.478 45.1896 894.682 45.6796 893.088 45.6796ZM893.068 45.0096C893.628 45.0096 894.022 44.9596 894.248 44.8596C894.475 44.7596 894.588 44.5863 894.588 44.3396C894.588 44.133 894.525 43.983 894.398 43.8896C894.272 43.7963 894.052 43.7496 893.738 43.7496H892.338C891.938 43.8896 891.738 44.133 891.738 44.4796C891.738 44.693 891.835 44.833 892.028 44.8996C892.228 44.973 892.575 45.0096 893.068 45.0096ZM893.098 41.7296C893.798 41.7296 894.148 41.4363 894.148 40.8496V40.6996C894.148 40.393 894.055 40.163 893.868 40.0096C893.682 39.8563 893.425 39.7796 893.098 39.7796C892.772 39.7796 892.518 39.8596 892.338 40.0196C892.158 40.1796 892.068 40.3996 892.068 40.6796V40.8296C892.068 41.4296 892.412 41.7296 893.098 41.7296ZM895.768 45.2296C896.255 44.6963 896.648 44.083 896.948 43.3896C897.255 42.6963 897.408 41.9796 897.408 41.2396V40.9696C897.408 40.2496 897.255 39.5263 896.948 38.7996C896.642 38.0663 896.248 37.4363 895.768 36.9096H896.528C897.055 37.423 897.482 38.0263 897.808 38.7196C898.135 39.4063 898.298 40.1596 898.298 40.9796V41.1496C898.298 41.9696 898.135 42.7263 897.808 43.4196C897.482 44.113 897.055 44.7163 896.528 45.2296H895.768Z" fill="#828282"/>
</svg>
