<svg width="419" height="144" viewBox="0 0 419 144" fill="none" xmlns="http://www.w3.org/2000/svg">
<g filter="url(#filter0_d_1125_44)">
<rect x="2" width="415" height="140" rx="15" fill="#F2F2F2"/>
<rect x="2.5" y="0.5" width="414" height="139" rx="14.5" stroke="#B0B196"/>
</g>
<path d="M50.816 58.536H36.344V53.352H48.224V51.168H36.344V49.68H50.048V54.72H38.192V57.024H50.816V58.536ZM33.704 40.512V38.976H45.32V40.512H40.4L40.424 41.16C40.44 42.424 40.968 43.592 42.008 44.664C43.048 45.736 44.224 46.488 45.536 46.92L44.528 48.336C43.488 47.92 42.48 47.28 41.504 46.416C40.544 45.552 39.856 44.656 39.44 43.728C39.168 44.704 38.496 45.704 37.424 46.728C36.368 47.752 35.232 48.504 34.016 48.984L32.984 47.592C34.504 47.064 35.8 46.192 36.872 44.976C37.96 43.76 38.512 42.48 38.528 41.136V40.512H33.704ZM50.048 48.528H48.224V37.704H50.048V48.528ZM68.8936 54.744C68.8936 55.944 68.2616 56.896 66.9976 57.6C65.7496 58.304 64.0296 58.656 61.8376 58.656C59.6456 58.656 57.9256 58.304 56.6776 57.6C55.4296 56.896 54.8056 55.944 54.8056 54.744C54.8056 53.512 55.4296 52.544 56.6776 51.84C57.9256 51.136 59.6456 50.784 61.8376 50.784C64.0296 50.784 65.7496 51.136 66.9976 51.84C68.2616 52.544 68.8936 53.512 68.8936 54.744ZM71.7736 44.76H68.5816V50.352H66.7576V37.704H68.5816V43.224H71.7736V44.76ZM65.6296 56.496C66.5576 56.08 67.0216 55.496 67.0216 54.744C67.0216 53.992 66.5576 53.408 65.6296 52.992C64.7016 52.56 63.4376 52.344 61.8376 52.344C60.2376 52.344 58.9816 52.552 58.0696 52.968C57.1576 53.384 56.7016 53.976 56.7016 54.744C56.7016 55.496 57.1576 56.08 58.0696 56.496C58.9816 56.912 60.2376 57.12 61.8376 57.12C63.4376 57.12 64.7016 56.912 65.6296 56.496ZM55.0216 47.784C59.2616 47.784 62.3656 47.592 64.3336 47.208L64.5256 48.672C62.1576 49.088 59.0216 49.296 55.1176 49.296H53.1976V38.904H62.8456V40.416H55.0216V43.2H62.6776V44.688H55.0216V47.784ZM89.2992 58.68H87.4752V37.704H89.2992V58.68ZM81.6672 40.632H75.5472V39.096H81.6672V40.632ZM84.9072 44.256H72.4512V42.744H84.9072V44.256ZM83.6592 49.944C83.6592 51.176 83.2032 52.208 82.2912 53.04C81.3792 53.856 80.2032 54.264 78.7632 54.264C77.3232 54.264 76.1472 53.856 75.2352 53.04C74.3232 52.224 73.8672 51.192 73.8672 49.944C73.8672 48.696 74.3232 47.664 75.2352 46.848C76.1472 46.016 77.3232 45.6 78.7632 45.6C80.2032 45.6 81.3792 46.016 82.2912 46.848C83.2032 47.664 83.6592 48.696 83.6592 49.944ZM80.9712 51.984C81.5472 51.456 81.8352 50.776 81.8352 49.944C81.8352 49.112 81.5472 48.432 80.9712 47.904C80.3952 47.376 79.6592 47.112 78.7632 47.112C77.8512 47.112 77.1072 47.376 76.5312 47.904C75.9552 48.432 75.6672 49.112 75.6672 49.944C75.6672 50.776 75.9552 51.456 76.5312 51.984C77.1232 52.512 77.8672 52.776 78.7632 52.776C79.6752 52.776 80.4112 52.512 80.9712 51.984Z" fill="black"/>
<path d="M101.68 57.96C99.8347 56.072 98.912 53.896 98.912 51.432V51.176C98.912 48.712 99.8347 46.536 101.68 44.648H102.784C102.016 45.5013 101.392 46.4827 100.912 47.592C100.443 48.7013 100.208 49.8587 100.208 51.064V51.448C100.208 52.6213 100.448 53.7893 100.928 54.952C101.408 56.1147 102.027 57.1173 102.784 57.96H101.68ZM112.118 44.488V47.144H114.838V48.104H112.118V48.232C112.118 49.1813 112.081 50.0507 112.006 50.84H115.382V51.816H112.118C112.406 52.744 112.843 53.6613 113.43 54.568C114.027 55.4747 114.737 56.2267 115.558 56.824L114.87 57.768C114.134 57.1493 113.483 56.4293 112.918 55.608C112.353 54.7867 111.91 53.96 111.59 53.128C111.014 55.1547 109.766 56.7867 107.846 58.024L107.158 57.128C108.235 56.4773 109.057 55.7147 109.622 54.84C110.187 53.9547 110.571 52.9467 110.774 51.816H107.862V52.76H106.358V55.48C106.795 55.3413 107.323 55.1547 107.942 54.92L107.974 55.928C106.502 56.472 104.881 57 103.11 57.512L102.902 56.424L103.654 56.248V50.936H104.566V56.008C104.737 55.9547 104.993 55.8853 105.334 55.8V49.64H103.446V45H107.574V49.64H106.358V51.8H107.782V50.84H110.902C110.977 50.0613 111.014 49.1867 111.014 48.216V48.104H109.414C109.211 48.8507 108.945 49.56 108.614 50.232L107.734 49.624C108.385 48.3227 108.79 46.8293 108.95 45.144L110.006 45.384C109.921 46.0027 109.809 46.5893 109.67 47.144H111.014V44.488H112.118ZM104.502 45.96V48.712H106.518V45.96H104.502ZM126.698 57.768H125.594V57.192H119.706V57.928H118.586V53.96C117.989 54.5573 117.29 55.096 116.49 55.576L115.882 54.6C116.821 54.0773 117.626 53.4267 118.298 52.648C118.97 51.8587 119.493 51.016 119.866 50.12H116.41V49.128H127.994V50.12H121.066C120.725 50.9627 120.325 51.72 119.866 52.392L120.138 52.328H126.698V57.768ZM119.706 53.288V56.264H125.594V53.288H119.706ZM127.93 48.552H126.826V46.904H117.61V48.504H116.49V45.928H121.578V44.456H122.714V45.928H127.93V48.552ZM140.478 58.12H139.262V44.136H140.478V58.12ZM135.39 46.088H131.31V45.064H135.39V46.088ZM137.55 48.504H129.246V47.496H137.55V48.504ZM136.718 52.296C136.718 53.1173 136.414 53.8053 135.806 54.36C135.198 54.904 134.414 55.176 133.454 55.176C132.494 55.176 131.71 54.904 131.102 54.36C130.494 53.816 130.19 53.128 130.19 52.296C130.19 51.464 130.494 50.776 131.102 50.232C131.71 49.6773 132.494 49.4 133.454 49.4C134.414 49.4 135.198 49.6773 135.806 50.232C136.414 50.776 136.718 51.464 136.718 52.296ZM134.926 53.656C135.31 53.304 135.502 52.8507 135.502 52.296C135.502 51.7413 135.31 51.288 134.926 50.936C134.542 50.584 134.051 50.408 133.454 50.408C132.846 50.408 132.35 50.584 131.966 50.936C131.582 51.288 131.39 51.7413 131.39 52.296C131.39 52.8507 131.582 53.304 131.966 53.656C132.36 54.008 132.856 54.184 133.454 54.184C134.062 54.184 134.552 54.008 134.926 53.656ZM141.553 57.96L145.313 44.648H146.417L142.657 57.96H141.553ZM155.248 44.472V47H158.464V47.992H155.248V49.688C155.248 49.9227 155.226 50.2853 155.184 50.776H159.152V51.752H155.376C155.674 52.7867 156.176 53.7627 156.88 54.68C157.584 55.5973 158.362 56.3227 159.216 56.856L158.48 57.832C157.765 57.3093 157.056 56.6213 156.352 55.768C155.648 54.9147 155.098 53.976 154.704 52.952C153.978 55.032 152.64 56.696 150.688 57.944L150.032 57.032C152.133 55.8053 153.429 54.0453 153.92 51.752H150.224V50.776H154.096C154.138 50.2853 154.16 49.9067 154.16 49.64V47.992H152.176C151.877 48.856 151.514 49.6507 151.088 50.376L150.112 49.816C150.485 49.2507 150.837 48.4987 151.168 47.56C151.509 46.6107 151.76 45.7093 151.92 44.856L152.976 45.08C152.858 45.6773 152.704 46.3173 152.512 47H154.16V44.472H155.248ZM149.392 57.96H148.336V52.136C148.336 51.72 148.357 51.064 148.4 50.168C147.973 50.84 147.552 51.4107 147.136 51.88L146.56 50.888C147.306 50.0347 147.946 48.9947 148.48 47.768C149.024 46.5413 149.392 45.448 149.584 44.488L150.656 44.824C150.304 46.0933 149.882 47.256 149.392 48.312V57.96ZM172.179 52.648H166.083C165.934 52.936 165.763 53.1973 165.571 53.432H171.747C171.705 54.5947 171.587 55.6827 171.395 56.696C171.31 57.112 171.155 57.4053 170.931 57.576C170.718 57.7467 170.419 57.832 170.035 57.832C169.651 57.832 169.283 57.8053 168.931 57.752L168.691 56.744C169.033 56.8187 169.406 56.856 169.811 56.856C169.982 56.856 170.105 56.8293 170.179 56.776C170.254 56.712 170.318 56.6 170.371 56.44C170.542 55.8747 170.649 55.144 170.691 54.248H169.747C169.043 55.8693 168.025 57.1173 166.691 57.992L165.955 57.304C167.107 56.568 168.019 55.5493 168.691 54.248H167.459C166.617 55.5493 165.507 56.6053 164.131 57.416L163.459 56.648C164.675 56.0613 165.63 55.2613 166.323 54.248H164.899C164.387 54.792 163.753 55.2987 162.995 55.768L162.403 54.952C163.491 54.3227 164.339 53.5547 164.947 52.648H162.979V51.832H172.179V52.648ZM170.883 51.08H164.195V47.352H170.883V51.08ZM164.291 47.064H163.219V46.248H159.843V45.352H163.219V44.456H164.291V45.352H167.635V44.456H168.707V45.352H172.083V46.248H168.707V47.08H167.635V46.248H164.291V47.064ZM161.571 53L162.483 53.448C161.801 55.4213 161.203 56.8667 160.691 57.784L159.747 57.144C160.323 56.2693 160.931 54.888 161.571 53ZM165.203 49.528V50.312H169.827V49.528H165.203ZM165.203 48.12V48.856H169.827V48.12H165.203ZM163.331 48.456L162.659 49.304C161.966 48.696 161.262 48.184 160.547 47.768L161.171 46.984C161.886 47.368 162.606 47.8587 163.331 48.456ZM162.499 51.08L161.891 51.928C161.177 51.3627 160.473 50.8773 159.779 50.472L160.355 49.672C161.059 50.056 161.774 50.5253 162.499 51.08ZM184.215 58.12H182.999V44.136H184.215V58.12ZM179.127 46.088H175.047V45.064H179.127V46.088ZM181.287 48.504H172.983V47.496H181.287V48.504ZM180.455 52.296C180.455 53.1173 180.151 53.8053 179.543 54.36C178.935 54.904 178.151 55.176 177.191 55.176C176.231 55.176 175.447 54.904 174.839 54.36C174.231 53.816 173.927 53.128 173.927 52.296C173.927 51.464 174.231 50.776 174.839 50.232C175.447 49.6773 176.231 49.4 177.191 49.4C178.151 49.4 178.935 49.6773 179.543 50.232C180.151 50.776 180.455 51.464 180.455 52.296ZM178.663 53.656C179.047 53.304 179.239 52.8507 179.239 52.296C179.239 51.7413 179.047 51.288 178.663 50.936C178.279 50.584 177.788 50.408 177.191 50.408C176.583 50.408 176.087 50.584 175.703 50.936C175.319 51.288 175.127 51.7413 175.127 52.296C175.127 52.8507 175.319 53.304 175.703 53.656C176.098 54.008 176.594 54.184 177.191 54.184C177.799 54.184 178.29 54.008 178.663 53.656ZM185.435 57.96C186.203 57.1067 186.822 56.1253 187.291 55.016C187.771 53.9067 188.011 52.7547 188.011 51.56V51.16C188.011 49.9867 187.766 48.824 187.275 47.672C186.795 46.5093 186.182 45.5013 185.435 44.648H186.523C188.358 46.504 189.275 48.68 189.275 51.176V51.432C189.275 53.928 188.358 56.104 186.523 57.96H185.435Z" fill="#656565"/>
<path d="M321.924 51.508H312.456V50.74H315.024V48.508H315.936V50.74H318.42V48.508H319.332V50.74H321.924V51.508ZM320.952 47.968H313.38V47.2H315.024L314.748 44.656L315.696 44.56L315.888 47.2H318.468L318.78 44.572L319.68 44.716L319.32 47.2H320.952V47.968ZM320.964 44.044H313.368V43.276H320.964V44.044ZM331.251 46.204L330.831 46.984C329.959 46.832 329.163 46.556 328.443 46.156C327.723 45.748 327.231 45.304 326.967 44.824C326.759 45.312 326.299 45.76 325.587 46.168C324.875 46.568 324.063 46.84 323.151 46.984L322.731 46.216C323.675 46.128 324.527 45.852 325.287 45.388C326.055 44.924 326.459 44.364 326.499 43.708H323.079V42.94H330.843V43.708H327.459C327.499 44.356 327.919 44.916 328.719 45.388C329.519 45.852 330.363 46.124 331.251 46.204ZM327.423 50.548H326.511V48.472H322.239V47.716H331.707V48.472H327.423V50.548ZM330.735 52.516H323.403V49.444H324.315V51.748H330.735V52.516ZM333.03 49.372H336.294V47.416H332.022V46.648H339.018C339.25 45.824 339.366 44.836 339.366 43.684H333.174V42.928H340.302C340.302 44.384 340.178 45.624 339.93 46.648H341.49V47.416H337.206V49.372H340.29V52.912H339.366V50.128H333.03V49.372ZM341.936 46.792C341.936 45.664 342.168 44.764 342.632 44.092C343.104 43.42 343.756 43.084 344.588 43.084C345.364 43.084 345.98 43.38 346.436 43.972C346.892 44.564 347.152 45.368 347.216 46.384H349.46V42.352H350.372V52.84H349.46V47.164H347.216C347.168 48.188 346.912 49 346.448 49.6C345.992 50.2 345.372 50.5 344.588 50.5C343.756 50.5 343.104 50.168 342.632 49.504C342.168 48.832 341.936 47.928 341.936 46.792ZM346.328 46.804C346.328 45.94 346.164 45.236 345.836 44.692C345.516 44.148 345.1 43.876 344.588 43.876C344.068 43.876 343.648 44.148 343.328 44.692C343.008 45.236 342.848 45.94 342.848 46.804C342.848 47.66 343.008 48.36 343.328 48.904C343.648 49.44 344.068 49.708 344.588 49.708C345.1 49.708 345.516 49.44 345.836 48.904C346.164 48.36 346.328 47.66 346.328 46.804ZM360.431 52.84H359.531V47.248H358.127V52.3H357.239V42.604H358.127V46.48H359.531V42.352H360.431V52.84ZM352.823 49.348H353.135C354.663 49.348 355.835 49.26 356.651 49.084L356.735 49.828C355.655 50.036 354.279 50.14 352.607 50.14H351.911V43.636H355.979V44.404H352.823V49.348ZM371.126 47.356H369.434V52.84H368.522V42.352H369.434V46.588H371.126V47.356ZM367.526 49.588L366.95 50.284C366.366 49.884 365.822 49.392 365.318 48.808C364.822 48.216 364.474 47.62 364.274 47.02C364.09 47.668 363.762 48.308 363.29 48.94C362.818 49.564 362.27 50.092 361.646 50.524L361.058 49.816C361.842 49.336 362.498 48.664 363.026 47.8C363.554 46.928 363.818 46.04 363.818 45.136V43.276H364.754V45.112C364.754 46.016 365.022 46.876 365.558 47.692C366.094 48.5 366.75 49.132 367.526 49.588ZM371.453 44.044V43.276H377.093V44.044H374.741C374.741 44.508 374.745 44.792 374.753 44.896C374.793 45.536 375.073 46.136 375.593 46.696C376.113 47.248 376.693 47.628 377.333 47.836L376.817 48.568C376.313 48.36 375.817 48.032 375.329 47.584C374.841 47.136 374.489 46.68 374.273 46.216C374.129 46.696 373.797 47.188 373.277 47.692C372.765 48.196 372.221 48.572 371.645 48.82L371.117 48.112C371.813 47.84 372.429 47.4 372.965 46.792C373.501 46.184 373.781 45.548 373.805 44.884C373.813 44.788 373.817 44.508 373.817 44.044H371.453ZM379.721 50.032H378.809V46.036H376.721V45.268H378.809V42.352H379.721V50.032ZM379.949 52.492H372.881V49.264H373.793V51.724H379.949V52.492Z" fill="#828282"/>
<path d="M44.032 101.296H42.816V91.136H44.032V101.296ZM41.056 98.112L40.368 99.088C39.6213 98.768 38.928 98.2987 38.288 97.68C37.648 97.0507 37.1893 96.3787 36.912 95.664C36.7093 96.3893 36.2613 97.12 35.568 97.856C34.8853 98.592 34.1493 99.1573 33.36 99.552L32.624 98.592C33.6053 98.1547 34.4587 97.4613 35.184 96.512C35.9093 95.5627 36.272 94.5547 36.272 93.488V91.936H37.504V93.456C37.504 94.544 37.8613 95.5093 38.576 96.352C39.3013 97.1947 40.128 97.7813 41.056 98.112ZM44.336 104.688H35.008V100.384H36.224V103.68H44.336V104.688ZM57.1558 105.12H55.9398V91.136H57.1558V105.12ZM46.1157 97.12C46.1157 95.6267 46.4304 94.432 47.0597 93.536C47.6997 92.64 48.5851 92.192 49.7158 92.192C50.8571 92.192 51.7424 92.64 52.3718 93.536C53.0118 94.432 53.3317 95.632 53.3317 97.136C53.3317 98.64 53.0118 99.84 52.3718 100.736C51.7424 101.632 50.8571 102.08 49.7158 102.08C48.5851 102.08 47.6997 101.632 47.0597 100.736C46.4304 99.84 46.1157 98.6347 46.1157 97.12ZM51.4918 99.952C51.9504 99.2267 52.1797 98.288 52.1797 97.136C52.1797 95.984 51.9504 95.0507 51.4918 94.336C51.0438 93.6107 50.4518 93.248 49.7158 93.248C48.9797 93.248 48.3877 93.6107 47.9397 94.336C47.4918 95.0507 47.2678 95.984 47.2678 97.136C47.2678 98.288 47.4918 99.2267 47.9397 99.952C48.3877 100.667 48.9797 101.024 49.7158 101.024C50.4518 101.024 51.0438 100.667 51.4918 99.952ZM70.4346 99.92L70.6106 100.944C69.8 101.136 68.68 101.291 67.2506 101.408C65.832 101.525 64.552 101.584 63.4106 101.584H62.5626V92.528H63.7786V100.512C66.6693 100.491 68.888 100.293 70.4346 99.92ZM72.8346 91.136V96.688H75.1226V97.728H72.8346V105.12H71.6186V91.136H72.8346ZM86.6144 105.12H85.3984V97.152H82.1344V96.128H85.3984V91.136H86.6144V105.12ZM83.5104 100.848L82.7584 101.776C82.065 101.307 81.3824 100.667 80.7104 99.856C80.0384 99.0453 79.569 98.2453 79.3024 97.456C79.057 98.3093 78.6197 99.1467 77.9904 99.968C77.3717 100.789 76.6464 101.499 75.8144 102.096L75.0144 101.184C76.0597 100.523 76.929 99.6213 77.6224 98.48C78.3157 97.328 78.6624 96.1493 78.6624 94.944V92.352H79.9264V94.896C79.9264 96.1227 80.2677 97.2747 80.9504 98.352C81.6437 99.4187 82.497 100.251 83.5104 100.848ZM103.125 102.464C103.125 103.285 102.715 103.931 101.893 104.4C101.072 104.88 99.9146 105.12 98.4213 105.12C96.9386 105.12 95.7866 104.88 94.9653 104.4C94.1546 103.931 93.7493 103.285 93.7493 102.464C93.7493 101.632 94.1546 100.981 94.9653 100.512C95.7866 100.032 96.9386 99.792 98.4213 99.792C99.9146 99.792 101.072 100.032 101.893 100.512C102.715 100.981 103.125 101.632 103.125 102.464ZM91.9573 93.328V92.304H99.5253V93.328H96.3733C96.3733 93.7227 96.3786 93.9733 96.3893 94.08C96.4426 94.976 96.8266 95.7867 97.5413 96.512C98.2559 97.2373 99.0773 97.7387 100.005 98.016L99.2853 98.992C98.5493 98.704 97.8453 98.2667 97.1733 97.68C96.5119 97.0827 96.0373 96.4693 95.7493 95.84C95.5573 96.4907 95.1039 97.1787 94.3893 97.904C93.6746 98.6293 92.9386 99.1573 92.1813 99.488L91.5253 98.512C92.4639 98.1493 93.2906 97.5573 94.0053 96.736C94.7199 95.9147 95.0933 95.0293 95.1253 94.08C95.1359 93.9733 95.1413 93.7227 95.1413 93.328H91.9573ZM98.4213 100.816C97.3439 100.816 96.5013 100.96 95.8933 101.248C95.2853 101.536 94.9813 101.941 94.9813 102.464C94.9813 102.976 95.2853 103.376 95.8933 103.664C96.5013 103.952 97.3439 104.096 98.4213 104.096C99.5199 104.096 100.368 103.957 100.965 103.68C101.573 103.392 101.877 102.987 101.877 102.464C101.877 101.941 101.573 101.536 100.965 101.248C100.368 100.96 99.5199 100.816 98.4213 100.816ZM101.797 95.792H98.9813V94.768H101.797V91.136H103.013V99.824H101.797V95.792ZM117.257 103.344H104.633V102.32H110.313V98.896H106.153V92.32H115.753V93.328H107.385V97.888H115.833V98.896H111.529V102.32H117.257V103.344ZM128.429 91.136V96.96H130.717V98H128.429V105.12H127.213V91.136H128.429ZM124.797 92.64C124.754 94.816 124.167 96.7307 123.037 98.384C121.906 100.037 120.391 101.355 118.493 102.336L117.741 101.376C119.447 100.587 120.797 99.5093 121.789 98.144C122.791 96.768 123.357 95.2747 123.485 93.664H118.221V92.64H124.797ZM142.764 100.88L142.012 101.792C141.276 101.312 140.55 100.677 139.836 99.888C139.132 99.088 138.668 98.304 138.444 97.536C138.22 98.3787 137.772 99.216 137.1 100.048C136.428 100.88 135.67 101.568 134.828 102.112L134.076 101.216C135.153 100.587 136.044 99.712 136.748 98.592C137.452 97.4613 137.804 96.2613 137.804 94.992V93.552H134.54V92.544H142.332V93.552H139.068V94.976C139.068 96.2133 139.425 97.3707 140.14 98.448C140.865 99.5147 141.74 100.325 142.764 100.88ZM144.38 91.136H145.596V105.12H144.38V91.136ZM155.503 99.92L155.679 100.944C154.869 101.136 153.749 101.291 152.319 101.408C150.901 101.525 149.621 101.584 148.479 101.584H147.631V92.528H148.847V100.512C151.738 100.491 153.957 100.293 155.503 99.92ZM157.903 91.136V96.688H160.191V97.728H157.903V105.12H156.687V91.136H157.903ZM169.107 101.376L168.467 102.352C167.688 101.989 166.915 101.429 166.147 100.672C165.39 99.904 164.888 99.1627 164.643 98.448C164.451 99.184 163.987 99.968 163.251 100.8C162.526 101.621 161.774 102.235 160.995 102.64L160.275 101.744C161.278 101.264 162.147 100.512 162.883 99.488C163.619 98.4533 163.987 97.3227 163.987 96.096V95.664H160.707V94.656H168.499V95.664H165.235V96.08C165.235 97.296 165.63 98.4 166.419 99.392C167.219 100.373 168.115 101.035 169.107 101.376ZM171.731 105.12H170.499V91.136H171.731V105.12ZM166.739 93.072H162.499V91.968H166.739V93.072ZM185.879 103.344H173.255V102.32H178.935V98.896H174.775V92.32H184.375V93.328H176.007V97.888H184.455V98.896H180.151V102.32H185.879V103.344ZM197.547 97.296H193.195V98.768H198.923V99.792H186.299V98.768H191.979V97.296H187.883V94H196.091V92.656H187.867V91.68H197.307V94.912H189.099V96.32H197.547V97.296ZM187.643 101.008H197.339V105.216H196.107V102.016H187.643V101.008ZM215.369 99.968H202.745V98.96H215.369V99.968ZM213.289 96.192C213.289 97.472 211.881 98.112 209.065 98.112C206.26 98.112 204.857 97.472 204.857 96.192C204.857 94.9227 206.26 94.288 209.065 94.288C210.431 94.288 211.476 94.448 212.201 94.768C212.927 95.088 213.289 95.5627 213.289 96.192ZM212.025 96.192C212.025 95.5413 211.039 95.216 209.065 95.216C207.092 95.216 206.105 95.5413 206.105 96.192C206.105 96.8533 207.092 97.184 209.065 97.184C211.039 97.184 212.025 96.8533 212.025 96.192ZM211.513 92.16H206.697V91.152H211.513V92.16ZM214.585 93.84H203.529V92.848H214.585V93.84ZM213.881 102.976C213.881 103.68 213.465 104.219 212.633 104.592C211.812 104.976 210.617 105.168 209.049 105.168C207.513 105.168 206.329 104.976 205.497 104.592C204.665 104.208 204.249 103.669 204.249 102.976C204.249 102.283 204.66 101.744 205.481 101.36C206.313 100.965 207.497 100.768 209.033 100.768C210.601 100.768 211.801 100.96 212.633 101.344C213.465 101.717 213.881 102.261 213.881 102.976ZM211.657 102.096C211.028 101.883 210.159 101.776 209.049 101.776C207.94 101.776 207.071 101.883 206.441 102.096C205.812 102.309 205.497 102.603 205.497 102.976C205.497 103.36 205.812 103.659 206.441 103.872C207.071 104.075 207.94 104.176 209.049 104.176C210.169 104.176 211.044 104.075 211.673 103.872C212.303 103.659 212.617 103.36 212.617 102.976C212.617 102.603 212.297 102.309 211.657 102.096ZM227.229 104.928H218.253V99.472H219.469V101.2H225.997V99.456H227.229V104.928ZM222.877 92.096C222.621 95.488 220.531 97.8027 216.605 99.04C216.285 98.592 216.04 98.2613 215.869 98.048C217.309 97.728 218.568 97.12 219.645 96.224C220.733 95.3173 221.368 94.2827 221.549 93.12H216.637V92.096H222.877ZM227.213 98.768H225.997V97.344H222.909V96.336H225.997V94.592H223.085V93.568H225.997V91.136H227.213V98.768ZM225.997 103.92V102.192H219.469V103.92H225.997ZM240.625 105.12H239.425V91.136H240.625V105.12ZM237.905 104.416H236.737V97.6H234.385V96.576H236.737V91.472H237.905V104.416ZM234.737 92.768C234.641 96.8213 232.902 99.9413 229.521 102.128L228.689 101.232C230.118 100.421 231.254 99.344 232.097 98C232.95 96.656 233.414 95.2533 233.489 93.792H229.233V92.768H234.737ZM241.941 103.728V102.304H243.333V103.728H241.941Z" fill="#656565"/>
<defs>
<filter id="filter0_d_1125_44" x="0" y="0" width="419" height="144" filterUnits="userSpaceOnUse" color-interpolation-filters="sRGB">
<feFlood flood-opacity="0" result="BackgroundImageFix"/>
<feColorMatrix in="SourceAlpha" type="matrix" values="0 0 0 0 0 0 0 0 0 0 0 0 0 0 0 0 0 0 127 0" result="hardAlpha"/>
<feOffset dy="2"/>
<feGaussianBlur stdDeviation="1"/>
<feComposite in2="hardAlpha" operator="out"/>
<feColorMatrix type="matrix" values="0 0 0 0 0 0 0 0 0 0 0 0 0 0 0 0 0 0 0.1 0"/>
<feBlend mode="normal" in2="BackgroundImageFix" result="effect1_dropShadow_1125_44"/>
<feBlend mode="normal" in="SourceGraphic" in2="effect1_dropShadow_1125_44" result="shape"/>
</filter>
</defs>
</svg>
