<svg width="738" height="187" viewBox="0 0 738 187" fill="none" xmlns="http://www.w3.org/2000/svg">
<g filter="url(#filter0_d_1051_117)">
<path d="M228.755 85.205V55.49H237.4V58.57H232.85V82.125H237.4V85.205H228.755ZM264.118 54.58V66.55H268.353V69.945H264.118V85.765H259.953V54.58H264.118ZM251.203 74.46V60.74H244.553V74.46H251.203ZM255.298 57.45V77.715H240.493V57.45H255.298ZM289.501 77.33C287.634 77.6567 284.823 77.9367 281.066 78.17C277.309 78.38 273.704 78.485 270.251 78.485C270.064 77.4817 269.878 76.35 269.691 75.09H273.926L272.946 62.98C273.436 62.9333 274.778 62.77 276.971 62.49L277.636 74.985C277.799 74.985 278.966 74.95 281.136 74.88C281.183 73.9467 281.253 72.64 281.346 70.96C281.463 69.28 281.556 67.7517 281.626 66.375C281.719 64.975 281.801 63.6567 281.871 62.42L285.791 62.875C285.558 65.4883 285.184 69.4083 284.671 74.635C286.771 74.4717 288.276 74.2967 289.186 74.11L289.501 77.33ZM295.801 85.765H291.706V54.58H295.801V85.765ZM288.136 60.495H270.741V57.275H288.136V60.495ZM324.684 54.58V66.55H329.304V69.945H324.684V85.765H320.519V54.58H324.684ZM300.534 67.88C300.534 64.5433 301.258 61.8483 302.704 59.795C304.151 57.7417 306.123 56.715 308.619 56.715C311.139 56.715 313.111 57.7417 314.534 59.795C315.981 61.8483 316.704 64.5433 316.704 67.88C316.704 71.1933 315.981 73.8767 314.534 75.93C313.111 77.96 311.139 78.975 308.619 78.975C306.123 78.975 304.151 77.96 302.704 75.93C301.258 73.8767 300.534 71.1933 300.534 67.88ZM312.784 67.88C312.784 65.4533 312.399 63.54 311.629 62.14C310.859 60.7167 309.856 60.005 308.619 60.005C307.429 60.005 306.449 60.7167 305.679 62.14C304.909 63.54 304.524 65.4533 304.524 67.88C304.524 70.2833 304.909 72.185 305.679 73.585C306.449 74.985 307.429 75.685 308.619 75.685C309.856 75.685 310.859 74.985 311.629 73.585C312.399 72.185 312.784 70.2833 312.784 67.88ZM366.297 85.765H362.412V54.58H366.297V85.765ZM360.032 84.33H356.217V70.12H352.157V66.83H356.217V55.175H360.032V84.33ZM352.962 58.255C352.962 67.6117 349.217 74.7517 341.727 79.675L339.067 76.84C342.077 75.0433 344.422 72.8267 346.102 70.19C347.782 67.5533 348.738 64.6717 348.972 61.545H340.957V58.255H352.962ZM391.75 54.58H395.81V72.15H391.75V54.58ZM395.81 85.38H375.3V73.795H395.81V85.38ZM391.75 82.195V76.945H379.395V82.195H391.75ZM371.17 63.785C371.17 61.6383 371.963 59.8533 373.55 58.43C375.137 56.9833 377.085 56.26 379.395 56.26C381.728 56.26 383.688 56.9717 385.275 58.395C386.862 59.8183 387.655 61.615 387.655 63.785C387.655 65.955 386.873 67.705 385.31 69.035C383.747 70.365 381.775 71.03 379.395 71.03C377.062 71.03 375.102 70.365 373.515 69.035C371.952 67.705 371.17 65.955 371.17 63.785ZM375.09 63.75C375.09 64.9633 375.487 65.955 376.28 66.725C377.073 67.495 378.112 67.88 379.395 67.88C380.632 67.88 381.658 67.495 382.475 66.725C383.315 65.9317 383.735 64.94 383.735 63.75C383.735 62.56 383.338 61.58 382.545 60.81C381.775 60.04 380.725 59.655 379.395 59.655C378.112 59.655 377.073 60.0517 376.28 60.845C375.487 61.6383 375.09 62.6067 375.09 63.75ZM436.058 85.765H432.173V70.47H429.583V84.33H425.768V55.14H429.583V67.18H432.173V54.58H436.058V85.765ZM421.918 68.23C423.178 69.3967 423.808 70.96 423.808 72.92C423.808 74.88 423.178 76.455 421.918 77.645C420.658 78.8117 419.013 79.395 416.983 79.395C414.976 79.395 413.331 78.7883 412.048 77.575C410.788 76.3383 410.158 74.7867 410.158 72.92C410.158 70.96 410.788 69.3967 412.048 68.23C413.331 67.04 414.976 66.445 416.983 66.445C419.013 66.445 420.658 67.04 421.918 68.23ZM409.493 65.29V62.035H424.368V65.29H409.493ZM420.133 72.92C420.133 71.9633 419.829 71.1817 419.223 70.575C418.639 69.9683 417.893 69.665 416.983 69.665C416.073 69.665 415.326 69.9683 414.743 70.575C414.159 71.1817 413.868 71.9633 413.868 72.92C413.868 73.9 414.159 74.6933 414.743 75.3C415.326 75.8833 416.073 76.175 416.983 76.175C417.893 76.175 418.639 75.8717 419.223 75.265C419.829 74.635 420.133 73.8533 420.133 72.92ZM412.888 60.25V56.995H421.288V60.25H412.888ZM464.591 69.14H443.206V56.05H447.266V59.585H460.461V56.015H464.591V69.14ZM455.876 85.8H451.781V75.545H439.811V72.29H467.986V75.545H455.876V85.8ZM460.461 65.885V62.77H447.266V65.885H460.461ZM490.359 79.605H477.934V77.575L480.139 75.545C482.496 73.375 484.152 71.66 485.109 70.4C486.089 69.1167 486.591 67.88 486.614 66.69C486.614 65.7567 486.346 64.9867 485.809 64.38C485.296 63.7733 484.456 63.47 483.289 63.47C482.076 63.47 480.746 63.9833 479.299 65.01L478.214 62.805C479.847 61.4283 481.761 60.74 483.954 60.74C485.891 60.74 487.372 61.2767 488.399 62.35C489.449 63.4233 489.974 64.7417 489.974 66.305C489.974 67.8217 489.496 69.2683 488.539 70.645C487.606 71.9983 486.171 73.585 484.234 75.405L482.659 76.805V76.875H490.359V79.605ZM499.039 70.12C499.039 74.2267 497.581 77.7383 494.664 80.655C491.771 83.5483 488.271 84.995 484.164 84.995C480.057 84.995 476.557 83.5483 473.664 80.655C470.771 77.7383 469.324 74.2267 469.324 70.12C469.324 66.0133 470.771 62.5133 473.664 59.62C476.557 56.7033 480.057 55.245 484.164 55.245C486.847 55.245 489.332 55.91 491.619 57.24C493.906 58.57 495.714 60.3783 497.044 62.665C498.374 64.9517 499.039 67.4367 499.039 70.12ZM496.484 70.12C496.484 66.7133 495.271 63.7967 492.844 61.37C490.441 58.9433 487.547 57.73 484.164 57.73C480.781 57.73 477.887 58.9433 475.484 61.37C473.081 63.7967 471.879 66.7133 471.879 70.12C471.879 73.55 473.081 76.4783 475.484 78.905C477.887 81.3317 480.781 82.545 484.164 82.545C487.571 82.545 490.476 81.3317 492.879 78.905C495.282 76.4783 496.484 73.55 496.484 70.12ZM500.622 85.205V82.125H505.172V58.57H500.622V55.49H509.232V85.205H500.622ZM174.413 103.58V115.55H178.648V118.945H174.413V134.765H170.248V103.58H174.413ZM161.498 123.46V109.74H154.848V123.46H161.498ZM165.593 106.45V126.715H150.788V106.45H165.593ZM199.796 126.33C197.93 126.657 195.118 126.937 191.361 127.17C187.605 127.38 184 127.485 180.546 127.485C180.36 126.482 180.173 125.35 179.986 124.09H184.221L183.241 111.98C183.731 111.933 185.073 111.77 187.266 111.49L187.931 123.985C188.095 123.985 189.261 123.95 191.431 123.88C191.478 122.947 191.548 121.64 191.641 119.96C191.758 118.28 191.851 116.752 191.921 115.375C192.015 113.975 192.096 112.657 192.166 111.42L196.086 111.875C195.853 114.488 195.48 118.408 194.966 123.635C197.066 123.472 198.571 123.297 199.481 123.11L199.796 126.33ZM206.096 134.765H202.001V103.58H206.096V134.765ZM198.431 109.495H181.036V106.275H198.431V109.495ZM234.98 103.58V115.55H239.6V118.945H234.98V134.765H230.815V103.58H234.98ZM210.83 116.88C210.83 113.543 211.553 110.848 213 108.795C214.446 106.742 216.418 105.715 218.915 105.715C221.435 105.715 223.406 106.742 224.83 108.795C226.276 110.848 227 113.543 227 116.88C227 120.193 226.276 122.877 224.83 124.93C223.406 126.96 221.435 127.975 218.915 127.975C216.418 127.975 214.446 126.96 213 124.93C211.553 122.877 210.83 120.193 210.83 116.88ZM223.08 116.88C223.08 114.453 222.695 112.54 221.925 111.14C221.155 109.717 220.151 109.005 218.915 109.005C217.725 109.005 216.745 109.717 215.975 111.14C215.205 112.54 214.82 114.453 214.82 116.88C214.82 119.283 215.205 121.185 215.975 122.585C216.745 123.985 217.725 124.685 218.915 124.685C220.151 124.685 221.155 123.985 221.925 122.585C222.695 121.185 223.08 119.283 223.08 116.88ZM246.293 113.03C246.293 114.22 246.69 115.2 247.483 115.97C248.3 116.74 249.396 117.125 250.773 117.125C252.15 117.125 253.246 116.74 254.063 115.97C254.88 115.2 255.288 114.22 255.288 113.03C255.288 111.887 254.88 110.942 254.063 110.195C253.246 109.425 252.15 109.04 250.773 109.04C249.42 109.04 248.335 109.425 247.518 110.195C246.701 110.942 246.293 111.887 246.293 113.03ZM267.188 103.58V134.765H263.128V103.58H267.188ZM242.093 113.065C242.093 110.848 242.886 109.052 244.473 107.675C246.06 106.275 248.16 105.575 250.773 105.575C253.386 105.575 255.475 106.275 257.038 107.675C258.625 109.052 259.418 110.848 259.418 113.065C259.418 115.258 258.625 117.055 257.038 118.455C255.475 119.855 253.386 120.555 250.773 120.555C248.183 120.555 246.083 119.855 244.473 118.455C242.886 117.055 242.093 115.258 242.093 113.065ZM261.833 126.785C258.753 127.182 255.241 127.485 251.298 127.695C246.631 127.882 243.365 127.963 241.498 127.94L240.903 124.44C244.73 124.44 248.113 124.382 251.053 124.265C255.113 124.125 258.59 123.868 261.483 123.495L261.833 126.785ZM309.15 113.31H304.74V119.085H300.575V103.58H304.74V109.95H309.15V113.31ZM305.615 134.52H284.265V126.155H300.575V123.985H284.125V120.73H304.74V129.095H288.325V131.23H305.615V134.52ZM295.85 118.245H281.255V105.155H295.85V118.245ZM291.79 115.06V108.305H285.315V115.06H291.79ZM312.239 116.25V112.12H316.509V116.25H312.239ZM312.239 128.92V124.79H316.509V128.92H312.239ZM353.822 103.58V115.55H358.057V118.945H353.822V134.765H349.657V103.58H353.822ZM340.907 123.46V109.74H334.257V123.46H340.907ZM345.002 106.45V126.715H330.197V106.45H345.002ZM379.206 126.33C377.339 126.657 374.527 126.937 370.771 127.17C367.014 127.38 363.409 127.485 359.956 127.485C359.769 126.482 359.582 125.35 359.396 124.09H363.631L362.651 111.98C363.141 111.933 364.482 111.77 366.676 111.49L367.341 123.985C367.504 123.985 368.671 123.95 370.841 123.88C370.887 122.947 370.957 121.64 371.051 119.96C371.167 118.28 371.261 116.752 371.331 115.375C371.424 113.975 371.506 112.657 371.576 111.42L375.496 111.875C375.262 114.488 374.889 118.408 374.376 123.635C376.476 123.472 377.981 123.297 378.891 123.11L379.206 126.33ZM385.506 134.765H381.411V103.58H385.506V134.765ZM377.841 109.495H360.446V106.275H377.841V109.495ZM414.389 103.58V115.55H419.009V118.945H414.389V134.765H410.224V103.58H414.389ZM390.239 116.88C390.239 113.543 390.962 110.848 392.409 108.795C393.856 106.742 395.827 105.715 398.324 105.715C400.844 105.715 402.816 106.742 404.239 108.795C405.686 110.848 406.409 113.543 406.409 116.88C406.409 120.193 405.686 122.877 404.239 124.93C402.816 126.96 400.844 127.975 398.324 127.975C395.827 127.975 393.856 126.96 392.409 124.93C390.962 122.877 390.239 120.193 390.239 116.88ZM402.489 116.88C402.489 114.453 402.104 112.54 401.334 111.14C400.564 109.717 399.561 109.005 398.324 109.005C397.134 109.005 396.154 109.717 395.384 111.14C394.614 112.54 394.229 114.453 394.229 116.88C394.229 119.283 394.614 121.185 395.384 122.585C396.154 123.985 397.134 124.685 398.324 124.685C399.561 124.685 400.564 123.985 401.334 122.585C402.104 121.185 402.489 119.283 402.489 116.88ZM456.001 121.885H452.116V114.36H449.596V121.57H445.781V104.14H449.596V111.07H452.116V103.58H456.001V121.885ZM434.336 123.355H456.001V134.8H451.941V126.61H434.336V123.355ZM445.151 117.405L443.086 120.45C442.013 120.007 440.893 119.248 439.726 118.175C438.583 117.078 437.825 116.04 437.451 115.06C437.008 116.273 436.215 117.498 435.071 118.735C433.951 119.948 432.738 120.858 431.431 121.465L429.156 118.525C431.093 117.475 432.61 116.098 433.706 114.395C434.803 112.692 435.351 110.767 435.351 108.62V105.54H439.271V108.515C439.271 110.568 439.82 112.365 440.916 113.905C442.013 115.422 443.425 116.588 445.151 117.405ZM485.585 134.555H462.94V127.275H480.3V125.875H462.94V122.865H471.725V121.36H459.755V118.315H487.93V121.36H475.82V122.865H484.36V130.11H467.07V131.545H485.585V134.555ZM486.705 114.29L485.13 117.51C482.75 117.347 480.486 116.868 478.34 116.075C476.216 115.282 474.711 114.29 473.825 113.1C472.938 114.337 471.456 115.352 469.38 116.145C467.326 116.938 465.04 117.393 462.52 117.51L460.875 114.29C463.231 114.313 465.355 114.033 467.245 113.45C469.158 112.867 470.488 112.097 471.235 111.14H462.52V108.06H485.13V111.14H476.52C477.29 112.073 478.62 112.832 480.51 113.415C482.423 113.975 484.488 114.267 486.705 114.29ZM468.645 106.87V103.79H479.005V106.87H468.645ZM528.107 118.945H523.592V134.765H519.532V103.58H523.592V115.55H528.107V118.945ZM515.402 106.765C515.099 116.798 510.444 124.253 501.437 129.13L498.952 126.05C502.289 124.51 505.054 122.27 507.247 119.33C509.44 116.39 510.677 113.333 510.957 110.16H500.842V106.765H515.402ZM555.275 134.765H551.215V103.58H555.275V134.765ZM532.525 124.93C531.102 122.9 530.39 120.217 530.39 116.88C530.39 113.543 531.102 110.848 532.525 108.795C533.972 106.742 535.944 105.715 538.44 105.715C540.96 105.715 542.932 106.742 544.355 108.795C545.802 110.848 546.525 113.543 546.525 116.88C546.525 120.193 545.802 122.877 544.355 124.93C542.932 126.96 540.96 127.975 538.44 127.975C535.944 127.975 533.972 126.96 532.525 124.93ZM542.605 116.88C542.605 114.453 542.22 112.54 541.45 111.14C540.68 109.717 539.677 109.005 538.44 109.005C537.25 109.005 536.27 109.717 535.5 111.14C534.754 112.54 534.38 114.453 534.38 116.88C534.38 119.283 534.754 121.185 535.5 122.585C536.27 123.985 537.25 124.685 538.44 124.685C539.677 124.685 540.68 123.985 541.45 122.585C542.22 121.185 542.605 119.283 542.605 116.88ZM587.974 127.415V130.67H559.799V127.415H587.974ZM584.719 120.835H563.404V106.205H584.439V109.495H567.464V117.58H584.719V120.835Z" fill="white"/>
</g>
<g filter="url(#filter1_d_1051_117)">
<path d="M343.591 21.16V7.72H346.171L349.871 18.84H349.931L353.591 7.72H356.171V21.16H354.391V10.06H354.331L350.611 21.16H348.971L345.251 10.06H345.211V21.16H343.591ZM358.051 21.16L362.951 7.72H364.651L369.511 21.16H367.671L366.311 17.38H361.071L359.731 21.16H358.051ZM363.631 10.08L361.591 15.88H365.771L363.691 10.08H363.631ZM371.404 21.16V7.72H379.184V9.24H373.164V13.74H377.804V15.24H373.164V21.16H371.404ZM381.62 21.16V7.72H383.38V21.16H381.62ZM385.336 21.16L390.236 7.72H391.936L396.796 21.16H394.956L393.596 17.38H388.356L387.016 21.16H385.336ZM390.916 10.08L388.876 15.88H393.056L390.976 10.08H390.916Z" fill="white"/>
</g>
<g filter="url(#filter2_d_1051_117)">
<path d="M354.239 177.824C353.669 178.337 352.815 178.594 351.677 178.594C350.538 178.594 349.581 178.389 348.807 177.978V176.62C349.703 177.012 350.613 177.208 351.537 177.208C352.759 177.208 353.371 176.741 353.371 175.808C353.371 175.416 353.268 175.122 353.063 174.926C352.867 174.73 352.503 174.548 351.971 174.38L351.061 174.128C350.342 173.923 349.796 173.61 349.423 173.19C349.059 172.77 348.877 172.173 348.877 171.398C348.877 170.558 349.147 169.895 349.689 169.41C350.239 168.915 351.042 168.668 352.097 168.668C353.095 168.668 353.921 168.841 354.575 169.186V170.53C353.819 170.213 353.002 170.054 352.125 170.054C351.621 170.054 351.233 170.157 350.963 170.362C350.692 170.567 350.557 170.861 350.557 171.244C350.557 171.627 350.641 171.916 350.809 172.112C350.986 172.299 351.313 172.457 351.789 172.588L352.685 172.868C353.506 173.101 354.113 173.423 354.505 173.834C354.906 174.235 355.107 174.837 355.107 175.64C355.107 176.573 354.817 177.301 354.239 177.824ZM358.848 178.426V170.18H356.09V168.822H363.3V170.18H360.57V178.426H358.848ZM368.666 178.58C367.341 178.58 366.291 178.169 365.516 177.348C364.741 176.527 364.354 175.337 364.354 173.778V173.47C364.354 171.949 364.751 170.768 365.544 169.928C366.347 169.088 367.415 168.668 368.75 168.668C370.066 168.668 371.111 169.079 371.886 169.9C372.67 170.721 373.062 171.911 373.062 173.47V173.778C373.062 175.299 372.661 176.48 371.858 177.32C371.065 178.16 370.001 178.58 368.666 178.58ZM368.722 177.25C369.543 177.25 370.164 176.956 370.584 176.368C371.013 175.771 371.228 174.968 371.228 173.96V173.484C371.228 171.179 370.374 170.021 368.666 170.012C367.854 170.012 367.238 170.306 366.818 170.894C366.398 171.473 366.188 172.266 366.188 173.274V173.764C366.188 176.088 367.033 177.25 368.722 177.25ZM374.838 178.426V168.822H378.058C380.289 168.822 381.404 169.76 381.404 171.636C381.404 172.84 380.825 173.666 379.668 174.114V174.184L382.048 178.426H380.172L378.03 174.548H376.56V178.426H374.838ZM376.56 173.358H377.876C378.492 173.358 378.935 173.223 379.206 172.952C379.486 172.681 379.626 172.261 379.626 171.692C379.626 171.151 379.486 170.759 379.206 170.516C378.926 170.273 378.478 170.152 377.862 170.152H376.56V173.358ZM385.718 178.426V174.702L382.61 168.822H384.444L386.642 173.134H386.684L388.882 168.822H390.52L387.44 174.702V178.426H385.718Z" fill="white"/>
</g>
<defs>
<filter id="filter0_d_1051_117" x="146.788" y="54.58" width="445.185" height="88.2201" filterUnits="userSpaceOnUse" color-interpolation-filters="sRGB">
<feFlood flood-opacity="0" result="BackgroundImageFix"/>
<feColorMatrix in="SourceAlpha" type="matrix" values="0 0 0 0 0 0 0 0 0 0 0 0 0 0 0 0 0 0 127 0" result="hardAlpha"/>
<feOffset dy="4"/>
<feGaussianBlur stdDeviation="2"/>
<feComposite in2="hardAlpha" operator="out"/>
<feColorMatrix type="matrix" values="0 0 0 0 0 0 0 0 0 0 0 0 0 0 0 0 0 0 0.25 0"/>
<feBlend mode="normal" in2="BackgroundImageFix" result="effect1_dropShadow_1051_117"/>
<feBlend mode="normal" in="SourceGraphic" in2="effect1_dropShadow_1051_117" result="shape"/>
</filter>
<filter id="filter1_d_1051_117" x="339.591" y="7.71997" width="61.205" height="21.4399" filterUnits="userSpaceOnUse" color-interpolation-filters="sRGB">
<feFlood flood-opacity="0" result="BackgroundImageFix"/>
<feColorMatrix in="SourceAlpha" type="matrix" values="0 0 0 0 0 0 0 0 0 0 0 0 0 0 0 0 0 0 127 0" result="hardAlpha"/>
<feOffset dy="4"/>
<feGaussianBlur stdDeviation="2"/>
<feComposite in2="hardAlpha" operator="out"/>
<feColorMatrix type="matrix" values="0 0 0 0 0 0 0 0 0 0 0 0 0 0 0 0 0 0 0.25 0"/>
<feBlend mode="normal" in2="BackgroundImageFix" result="effect1_dropShadow_1051_117"/>
<feBlend mode="normal" in="SourceGraphic" in2="effect1_dropShadow_1051_117" result="shape"/>
</filter>
<filter id="filter2_d_1051_117" x="344.807" y="168.668" width="49.7133" height="17.926" filterUnits="userSpaceOnUse" color-interpolation-filters="sRGB">
<feFlood flood-opacity="0" result="BackgroundImageFix"/>
<feColorMatrix in="SourceAlpha" type="matrix" values="0 0 0 0 0 0 0 0 0 0 0 0 0 0 0 0 0 0 127 0" result="hardAlpha"/>
<feOffset dy="4"/>
<feGaussianBlur stdDeviation="2"/>
<feComposite in2="hardAlpha" operator="out"/>
<feColorMatrix type="matrix" values="0 0 0 0 0 0 0 0 0 0 0 0 0 0 0 0 0 0 0.25 0"/>
<feBlend mode="normal" in2="BackgroundImageFix" result="effect1_dropShadow_1051_117"/>
<feBlend mode="normal" in="SourceGraphic" in2="effect1_dropShadow_1051_117" result="shape"/>
</filter>
</defs>
</svg>
