<svg width="572" height="187" viewBox="0 0 572 187" fill="none" xmlns="http://www.w3.org/2000/svg">
<g filter="url(#filter0_d_1048_160)">
<path d="M126.016 84.4822V54.7672H134.661V57.8472H130.111V81.4022H134.661V84.4822H126.016ZM161.379 53.8572V65.8272H165.614V69.2222H161.379V85.0422H157.214V53.8572H161.379ZM148.464 73.7372V60.0172H141.814V73.7372H148.464ZM152.559 56.7272V76.9922H137.754V56.7272H152.559ZM186.762 76.6072C184.896 76.9339 182.084 77.2139 178.327 77.4472C174.571 77.6572 170.966 77.7622 167.512 77.7622C167.326 76.7589 167.139 75.6272 166.952 74.3672H171.187L170.207 62.2572C170.697 62.2106 172.039 62.0472 174.232 61.7672L174.897 74.2622C175.061 74.2622 176.227 74.2272 178.397 74.1572C178.444 73.2239 178.514 71.9172 178.607 70.2372C178.724 68.5572 178.817 67.0289 178.887 65.6522C178.981 64.2522 179.062 62.9339 179.132 61.6972L183.052 62.1522C182.819 64.7656 182.446 68.6856 181.932 73.9122C184.032 73.7489 185.537 73.5739 186.447 73.3872L186.762 76.6072ZM193.062 85.0422H188.967V53.8572H193.062V85.0422ZM185.397 59.7722H168.002V56.5522H185.397V59.7722ZM221.945 53.8572V65.8272H226.565V69.2222H221.945V85.0422H217.78V53.8572H221.945ZM197.795 67.1572C197.795 63.8206 198.519 61.1256 199.965 59.0722C201.412 57.0189 203.384 55.9922 205.88 55.9922C208.4 55.9922 210.372 57.0189 211.795 59.0722C213.242 61.1256 213.965 63.8206 213.965 67.1572C213.965 70.4706 213.242 73.1539 211.795 75.2072C210.372 77.2372 208.4 78.2522 205.88 78.2522C203.384 78.2522 201.412 77.2372 199.965 75.2072C198.519 73.1539 197.795 70.4706 197.795 67.1572ZM210.045 67.1572C210.045 64.7306 209.66 62.8172 208.89 61.4172C208.12 59.9939 207.117 59.2822 205.88 59.2822C204.69 59.2822 203.71 59.9939 202.94 61.4172C202.17 62.8172 201.785 64.7306 201.785 67.1572C201.785 69.5606 202.17 71.4622 202.94 72.8622C203.71 74.2622 204.69 74.9622 205.88 74.9622C207.117 74.9622 208.12 74.2622 208.89 72.8622C209.66 71.4622 210.045 69.5606 210.045 67.1572ZM263.558 85.0422H259.673V53.8572H263.558V85.0422ZM257.293 83.6072H253.478V69.3972H249.418V66.1072H253.478V54.4522H257.293V83.6072ZM250.223 57.5322C250.223 66.8889 246.478 74.0289 238.988 78.9522L236.328 76.1172C239.338 74.3206 241.683 72.1039 243.363 69.4672C245.043 66.8306 246 63.9489 246.233 60.8222H238.218V57.5322H250.223ZM289.011 53.8572H293.071V71.4272H289.011V53.8572ZM293.071 84.6572H272.561V73.0722H293.071V84.6572ZM289.011 81.4722V76.2222H276.656V81.4722H289.011ZM268.431 63.0622C268.431 60.9156 269.225 59.1306 270.811 57.7072C272.398 56.2606 274.346 55.5372 276.656 55.5372C278.99 55.5372 280.95 56.2489 282.536 57.6722C284.123 59.0956 284.916 60.8922 284.916 63.0622C284.916 65.2322 284.135 66.9822 282.571 68.3122C281.008 69.6422 279.036 70.3072 276.656 70.3072C274.323 70.3072 272.363 69.6422 270.776 68.3122C269.213 66.9822 268.431 65.2322 268.431 63.0622ZM272.351 63.0272C272.351 64.2406 272.748 65.2322 273.541 66.0022C274.335 66.7722 275.373 67.1572 276.656 67.1572C277.893 67.1572 278.92 66.7722 279.736 66.0022C280.576 65.2089 280.996 64.2172 280.996 63.0272C280.996 61.8372 280.6 60.8572 279.806 60.0872C279.036 59.3172 277.986 58.9322 276.656 58.9322C275.373 58.9322 274.335 59.3289 273.541 60.1222C272.748 60.9156 272.351 61.8839 272.351 63.0272ZM303.019 63.3072C303.019 64.4972 303.416 65.4772 304.209 66.2472C305.026 67.0172 306.123 67.4022 307.499 67.4022C308.876 67.4022 309.973 67.0172 310.789 66.2472C311.606 65.4772 312.014 64.4972 312.014 63.3072C312.014 62.1639 311.606 61.2189 310.789 60.4722C309.973 59.7022 308.876 59.3172 307.499 59.3172C306.146 59.3172 305.061 59.7022 304.244 60.4722C303.428 61.2189 303.019 62.1639 303.019 63.3072ZM323.914 53.8572V85.0422H319.854V53.8572H323.914ZM298.819 63.3422C298.819 61.1256 299.613 59.3289 301.199 57.9522C302.786 56.5522 304.886 55.8522 307.499 55.8522C310.113 55.8522 312.201 56.5522 313.764 57.9522C315.351 59.3289 316.144 61.1256 316.144 63.3422C316.144 65.5356 315.351 67.3322 313.764 68.7322C312.201 70.1322 310.113 70.8322 307.499 70.8322C304.909 70.8322 302.809 70.1322 301.199 68.7322C299.613 67.3322 298.819 65.5356 298.819 63.3422ZM318.559 77.0622C315.479 77.4589 311.968 77.7622 308.024 77.9722C303.358 78.1589 300.091 78.2406 298.224 78.2172L297.629 74.7172C301.456 74.7172 304.839 74.6589 307.779 74.5422C311.839 74.4022 315.316 74.1456 318.209 73.7722L318.559 77.0622ZM362.202 62.1872C362.202 64.2639 361.187 65.9439 359.157 67.2272C357.15 68.4872 354.467 69.1172 351.107 69.1172C347.77 69.1172 345.087 68.4872 343.057 67.2272C341.05 65.9439 340.047 64.2639 340.047 62.1872C340.047 60.1339 341.05 58.4772 343.057 57.2172C345.087 55.9339 347.77 55.2922 351.107 55.2922C354.467 55.2922 357.15 55.9339 359.157 57.2172C361.187 58.4772 362.202 60.1339 362.202 62.1872ZM347.782 85.0072H343.687V74.6122H337.072V71.3572H365.247V74.6122H358.492V85.0072H354.397V74.6122H347.782V85.0072ZM356.042 64.8122C357.302 64.1122 357.932 63.2372 357.932 62.1872C357.932 61.1372 357.314 60.2739 356.077 59.5972C354.84 58.9206 353.184 58.5822 351.107 58.5822C349.03 58.5822 347.374 58.9206 346.137 59.5972C344.9 60.2739 344.282 61.1372 344.282 62.1872C344.282 63.2372 344.9 64.1122 346.137 64.8122C347.374 65.4889 349.03 65.8272 351.107 65.8272C353.16 65.8272 354.805 65.4889 356.042 64.8122ZM393.885 85.0422H389.965V69.3972H387.34V83.6072H383.49V54.4172H387.34V66.1072H389.965V53.8572H393.885V85.0422ZM382.02 76.7472C379.687 77.3306 375.977 77.6222 370.89 77.6222H368.405V65.3022H376.105V60.5072H368.37V57.2522H380.2V68.5222H372.535V74.3672C376.269 74.3672 379.279 74.1106 381.565 73.5972C381.799 74.9972 381.95 76.0472 382.02 76.7472ZM410.833 78.7072V63.2022H410.763L407.368 64.9172L406.808 62.3972L411.288 60.1922H414.053V78.7072H410.833ZM426.583 69.3972C426.583 73.5039 425.125 77.0156 422.208 79.9322C419.315 82.8256 415.815 84.2722 411.708 84.2722C407.602 84.2722 404.102 82.8256 401.208 79.9322C398.315 77.0156 396.868 73.5039 396.868 69.3972C396.868 65.2906 398.315 61.7906 401.208 58.8972C404.102 55.9806 407.602 54.5222 411.708 54.5222C414.392 54.5222 416.877 55.1872 419.163 56.5172C421.45 57.8472 423.258 59.6556 424.588 61.9422C425.918 64.2289 426.583 66.7139 426.583 69.3972ZM424.028 69.3972C424.028 65.9906 422.815 63.0739 420.388 60.6472C417.985 58.2206 415.092 57.0072 411.708 57.0072C408.325 57.0072 405.432 58.2206 403.028 60.6472C400.625 63.0739 399.423 65.9906 399.423 69.3972C399.423 72.8272 400.625 75.7556 403.028 78.1822C405.432 80.6089 408.325 81.8222 411.708 81.8222C415.115 81.8222 418.02 80.6089 420.423 78.1822C422.827 75.7556 424.028 72.8272 424.028 69.3972ZM428.167 84.4822V81.4022H432.717V57.8472H428.167V54.7672H436.777V84.4822H428.167ZM84.2184 102.857V114.827H88.4534V118.222H84.2184V134.042H80.0534V102.857H84.2184ZM71.3034 122.737V109.017H64.6534V122.737H71.3034ZM75.3984 105.727V125.992H60.5934V105.727H75.3984ZM109.602 125.607C107.735 125.934 104.923 126.214 101.167 126.447C97.41 126.657 93.805 126.762 90.3516 126.762C90.165 125.759 89.9783 124.627 89.7916 123.367H94.0266L93.0466 111.257C93.5366 111.211 94.8783 111.047 97.0716 110.767L97.7366 123.262C97.9 123.262 99.0666 123.227 101.237 123.157C101.283 122.224 101.353 120.917 101.447 119.237C101.563 117.557 101.657 116.029 101.727 114.652C101.82 113.252 101.902 111.934 101.972 110.697L105.892 111.152C105.658 113.766 105.285 117.686 104.772 122.912C106.872 122.749 108.377 122.574 109.287 122.387L109.602 125.607ZM115.902 134.042H111.807V102.857H115.902V134.042ZM108.237 108.772H90.8416V105.552H108.237V108.772ZM144.785 102.857V114.827H149.405V118.222H144.785V134.042H140.62V102.857H144.785ZM120.635 116.157C120.635 112.821 121.358 110.126 122.805 108.072C124.252 106.019 126.223 104.992 128.72 104.992C131.24 104.992 133.212 106.019 134.635 108.072C136.082 110.126 136.805 112.821 136.805 116.157C136.805 119.471 136.082 122.154 134.635 124.207C133.212 126.237 131.24 127.252 128.72 127.252C126.223 127.252 124.252 126.237 122.805 124.207C121.358 122.154 120.635 119.471 120.635 116.157ZM132.885 116.157C132.885 113.731 132.5 111.817 131.73 110.417C130.96 108.994 129.957 108.282 128.72 108.282C127.53 108.282 126.55 108.994 125.78 110.417C125.01 111.817 124.625 113.731 124.625 116.157C124.625 118.561 125.01 120.462 125.78 121.862C126.55 123.262 127.53 123.962 128.72 123.962C129.957 123.962 130.96 123.262 131.73 121.862C132.5 120.462 132.885 118.561 132.885 116.157ZM186.397 134.042H182.512V102.857H186.397V134.042ZM180.132 132.607H176.317V118.397H172.257V115.107H176.317V103.452H180.132V132.607ZM173.062 106.532C173.062 115.889 169.317 123.029 161.827 127.952L159.167 125.117C162.177 123.321 164.522 121.104 166.202 118.467C167.882 115.831 168.839 112.949 169.072 109.822H161.057V106.532H173.062ZM211.851 102.857H215.911V120.427H211.851V102.857ZM215.911 133.657H195.401V122.072H215.911V133.657ZM211.851 130.472V125.222H199.496V130.472H211.851ZM191.271 112.062C191.271 109.916 192.064 108.131 193.651 106.707C195.237 105.261 197.186 104.537 199.496 104.537C201.829 104.537 203.789 105.249 205.376 106.672C206.962 108.096 207.756 109.892 207.756 112.062C207.756 114.232 206.974 115.982 205.411 117.312C203.847 118.642 201.876 119.307 199.496 119.307C197.162 119.307 195.202 118.642 193.616 117.312C192.052 115.982 191.271 114.232 191.271 112.062ZM195.191 112.027C195.191 113.241 195.587 114.232 196.381 115.002C197.174 115.772 198.212 116.157 199.496 116.157C200.732 116.157 201.759 115.772 202.576 115.002C203.416 114.209 203.836 113.217 203.836 112.027C203.836 110.837 203.439 109.857 202.646 109.087C201.876 108.317 200.826 107.932 199.496 107.932C198.212 107.932 197.174 108.329 196.381 109.122C195.587 109.916 195.191 110.884 195.191 112.027ZM220.399 134.567L221.799 127.497H226.209L223.689 134.567H220.399ZM266.587 129.632H238.412V126.412H266.587V129.632ZM263.017 106.042C263.017 113.322 262.539 119.494 261.582 124.557L257.592 124.172C257.966 122.562 258.281 120.299 258.537 117.382C258.817 114.466 258.946 111.759 258.922 109.262H241.632V106.042H263.017ZM303.685 134.042H299.59V102.857H303.685V134.042ZM297.245 123.892L294.865 126.972C293.535 126.156 292.182 124.907 290.805 123.227C289.452 121.547 288.518 119.926 288.005 118.362C287.492 120.136 286.523 121.909 285.1 123.682C283.677 125.432 282.16 126.751 280.55 127.637L278.065 124.627C283.222 121.291 285.8 116.496 285.8 110.242V105.482H290.035V110.032C290.035 116.169 292.438 120.789 297.245 123.892ZM308.558 108.177V104.852H324.973V108.177H319.023C319.186 110.277 319.921 112.074 321.228 113.567C322.535 115.061 324.121 116.111 325.988 116.717L323.748 119.972C322.441 119.459 321.146 118.642 319.863 117.522C318.58 116.402 317.611 115.166 316.958 113.812C316.515 115.282 315.581 116.694 314.158 118.047C312.758 119.377 311.288 120.299 309.748 120.812L307.333 117.627C309.55 116.811 311.323 115.586 312.653 113.952C314.006 112.319 314.73 110.394 314.823 108.177H308.558ZM312.093 122.597H332.603V134.077H328.473V125.852H312.093V122.597ZM337.013 113.602H332.568V121.022H328.438V102.857H332.568V110.242H337.013V113.602ZM366.631 121.827H338.456V118.537H366.631V121.827ZM363.376 133.202H341.921V124.102H346.016V129.982H363.376V133.202ZM363.446 110.242C363.446 112.109 362.466 113.626 360.506 114.792C358.57 115.959 355.921 116.542 352.561 116.542C349.201 116.542 346.553 115.959 344.616 114.792C342.68 113.626 341.711 112.109 341.711 110.242C341.711 108.422 342.68 106.929 344.616 105.762C346.553 104.596 349.19 104.012 352.526 104.012C355.886 104.012 358.546 104.596 360.506 105.762C362.466 106.929 363.446 108.422 363.446 110.242ZM359.211 110.312C359.211 109.356 358.605 108.597 357.391 108.037C356.201 107.454 354.58 107.162 352.526 107.162C350.52 107.162 348.91 107.454 347.696 108.037C346.506 108.597 345.911 109.356 345.911 110.312C345.911 111.222 346.506 111.957 347.696 112.517C348.91 113.077 350.52 113.357 352.526 113.357C354.58 113.357 356.201 113.077 357.391 112.517C358.605 111.957 359.211 111.222 359.211 110.312ZM402.539 104.082V116.682H381.539V104.082H402.539ZM393.999 134.077H389.904V123.717H377.934V120.462H406.109V123.717H393.999V134.077ZM398.479 113.427V107.337H385.634V113.427H398.479ZM433.977 123.402H429.917V114.197H425.717V110.907H429.917V102.857H433.977V123.402ZM435.272 131.102L433.417 134.322C431.387 133.972 429.38 133.144 427.397 131.837C425.437 130.554 424.084 129.177 423.337 127.707C422.66 129.177 421.33 130.554 419.347 131.837C417.387 133.121 415.322 133.949 413.152 134.322L411.262 131.032C414.039 130.706 416.395 129.772 418.332 128.232C420.292 126.692 421.272 124.872 421.272 122.772V121.687H425.507V122.772C425.507 124.849 426.44 126.646 428.307 128.162C430.197 129.679 432.519 130.659 435.272 131.102ZM410.632 118.082C409.162 116.659 408.427 114.827 408.427 112.587C408.427 110.347 409.174 108.469 410.667 106.952C412.16 105.436 414.097 104.677 416.477 104.677C418.904 104.677 420.852 105.436 422.322 106.952C423.792 108.446 424.527 110.324 424.527 112.587C424.527 114.827 423.792 116.659 422.322 118.082C420.875 119.506 418.927 120.217 416.477 120.217C414.074 120.217 412.125 119.506 410.632 118.082ZM413.572 109.367C412.825 110.231 412.452 111.292 412.452 112.552C412.452 113.812 412.814 114.839 413.537 115.632C414.284 116.426 415.264 116.822 416.477 116.822C417.714 116.822 418.694 116.426 419.417 115.632C420.14 114.839 420.502 113.812 420.502 112.552C420.502 111.246 420.129 110.172 419.382 109.332C418.659 108.492 417.69 108.072 416.477 108.072C415.287 108.072 414.319 108.504 413.572 109.367ZM464.26 125.467H460.2V102.857H464.26V125.467ZM464.96 133.202H443.33V123.227H447.46V129.982H464.96V133.202ZM439.48 112.867C439.48 110.627 440.25 108.784 441.79 107.337C443.354 105.891 445.395 105.167 447.915 105.167C450.459 105.167 452.5 105.891 454.04 107.337C455.58 108.784 456.35 110.627 456.35 112.867C456.35 115.131 455.58 116.974 454.04 118.397C452.5 119.821 450.459 120.532 447.915 120.532C445.372 120.532 443.33 119.821 441.79 118.397C440.25 116.974 439.48 115.131 439.48 112.867ZM443.68 112.867C443.68 114.127 444.065 115.166 444.835 115.982C445.605 116.776 446.632 117.172 447.915 117.172C449.245 117.172 450.284 116.776 451.03 115.982C451.8 115.166 452.185 114.127 452.185 112.867C452.185 111.654 451.8 110.651 451.03 109.857C450.26 109.064 449.222 108.667 447.915 108.667C446.632 108.667 445.605 109.064 444.835 109.857C444.065 110.651 443.68 111.654 443.68 112.867ZM497.658 118.222H493.143V134.042H489.083V102.857H493.143V114.827H497.658V118.222ZM484.953 106.042C484.65 116.076 479.995 123.531 470.988 128.407L468.503 125.327C471.84 123.787 474.605 121.547 476.798 118.607C478.992 115.667 480.228 112.611 480.508 109.437H470.393V106.042H484.953ZM502.217 122.912V120.287C502.217 119.191 502.462 118.316 502.952 117.662C503.442 116.986 504.352 116.122 505.682 115.072C506.475 114.466 507.023 113.906 507.327 113.392C507.63 112.856 507.782 112.144 507.782 111.257C507.782 110.184 507.455 109.426 506.802 108.982C506.148 108.516 505.133 108.282 503.757 108.282C502.38 108.282 500.852 108.527 499.172 109.017V106.007C500.782 105.307 502.695 104.957 504.912 104.957C507.058 104.957 508.785 105.447 510.092 106.427C511.422 107.407 512.087 108.912 512.087 110.942C512.087 112.366 511.842 113.462 511.352 114.232C510.862 115.002 509.928 115.924 508.552 116.997C507.315 117.954 506.58 118.619 506.347 118.992C506.02 119.436 505.857 119.972 505.857 120.602V122.912H502.217ZM502.007 130.367V126.272H506.277V130.367H502.007Z" fill="white"/>
</g>
<g filter="url(#filter1_d_1048_160)">
<path d="M260.591 21.16V7.72H263.171L266.871 18.84H266.931L270.591 7.72H273.171V21.16H271.391V10.06H271.331L267.611 21.16H265.971L262.251 10.06H262.211V21.16H260.591ZM275.051 21.16L279.951 7.72H281.651L286.511 21.16H284.671L283.311 17.38H278.071L276.731 21.16H275.051ZM280.631 10.08L278.591 15.88H282.771L280.691 10.08H280.631ZM288.404 21.16V7.72H296.184V9.24H290.164V13.74H294.804V15.24H290.164V21.16H288.404ZM298.62 21.16V7.72H300.38V21.16H298.62ZM302.336 21.16L307.236 7.72H308.936L313.796 21.16H311.956L310.596 17.38H305.356L304.016 21.16H302.336ZM307.916 10.08L305.876 15.88H310.056L307.976 10.08H307.916Z" fill="white"/>
</g>
<g filter="url(#filter2_d_1048_160)">
<path d="M268.863 178.426V168.822H272.223C274.332 168.822 275.387 169.629 275.387 171.244C275.387 172.308 274.864 173.008 273.819 173.344V173.386C275.144 173.629 275.807 174.394 275.807 175.682C275.807 176.513 275.522 177.18 274.953 177.684C274.383 178.179 273.553 178.426 272.461 178.426H268.863ZM270.571 177.138H272.223C273.408 177.138 274.001 176.62 274.001 175.584C274.001 175.043 273.842 174.655 273.525 174.422C273.217 174.179 272.75 174.058 272.125 174.058H270.571V177.138ZM270.571 172.91H271.915C273.091 172.91 273.679 172.434 273.679 171.482C273.679 170.978 273.539 170.623 273.259 170.418C272.988 170.203 272.563 170.096 271.985 170.096H270.571V172.91ZM276.606 178.426L280.106 168.822H281.87L285.286 178.426H283.508L282.64 175.99H279.07L278.202 178.426H276.606ZM280.82 170.866L279.476 174.702H282.206L280.862 170.866H280.82ZM291.507 177.824C290.938 178.337 290.084 178.594 288.945 178.594C287.807 178.594 286.85 178.389 286.075 177.978V176.62C286.971 177.012 287.881 177.208 288.805 177.208C290.028 177.208 290.639 176.741 290.639 175.808C290.639 175.416 290.537 175.122 290.331 174.926C290.135 174.73 289.771 174.548 289.239 174.38L288.329 174.128C287.611 173.923 287.065 173.61 286.691 173.19C286.327 172.77 286.145 172.173 286.145 171.398C286.145 170.558 286.416 169.895 286.957 169.41C287.508 168.915 288.311 168.668 289.365 168.668C290.364 168.668 291.19 168.841 291.843 169.186V170.53C291.087 170.213 290.271 170.054 289.393 170.054C288.889 170.054 288.502 170.157 288.231 170.362C287.961 170.567 287.825 170.861 287.825 171.244C287.825 171.627 287.909 171.916 288.077 172.112C288.255 172.299 288.581 172.457 289.057 172.588L289.953 172.868C290.775 173.101 291.381 173.423 291.773 173.834C292.175 174.235 292.375 174.837 292.375 175.64C292.375 176.573 292.086 177.301 291.507 177.824ZM294.156 178.426V168.822H295.892V178.426H294.156ZM302.038 178.58C300.676 178.58 299.612 178.179 298.846 177.376C298.09 176.564 297.712 175.365 297.712 173.778V173.428C297.712 171.795 298.128 170.595 298.958 169.83C299.789 169.055 300.876 168.668 302.22 168.668C303.21 168.668 304.012 168.836 304.628 169.172V170.516C303.872 170.217 303.112 170.068 302.346 170.068C300.498 170.068 299.574 171.127 299.574 173.246V173.736C299.574 174.875 299.794 175.733 300.232 176.312C300.671 176.891 301.38 177.18 302.36 177.18C303.107 177.18 303.896 177.007 304.726 176.662V177.992C303.989 178.384 303.093 178.58 302.038 178.58Z" fill="white"/>
</g>
<defs>
<filter id="filter0_d_1048_160" x="56.5935" y="53.8572" width="459.493" height="88.7101" filterUnits="userSpaceOnUse" color-interpolation-filters="sRGB">
<feFlood flood-opacity="0" result="BackgroundImageFix"/>
<feColorMatrix in="SourceAlpha" type="matrix" values="0 0 0 0 0 0 0 0 0 0 0 0 0 0 0 0 0 0 127 0" result="hardAlpha"/>
<feOffset dy="4"/>
<feGaussianBlur stdDeviation="2"/>
<feComposite in2="hardAlpha" operator="out"/>
<feColorMatrix type="matrix" values="0 0 0 0 0 0 0 0 0 0 0 0 0 0 0 0 0 0 0.25 0"/>
<feBlend mode="normal" in2="BackgroundImageFix" result="effect1_dropShadow_1048_160"/>
<feBlend mode="normal" in="SourceGraphic" in2="effect1_dropShadow_1048_160" result="shape"/>
</filter>
<filter id="filter1_d_1048_160" x="256.591" y="7.71997" width="61.205" height="21.4401" filterUnits="userSpaceOnUse" color-interpolation-filters="sRGB">
<feFlood flood-opacity="0" result="BackgroundImageFix"/>
<feColorMatrix in="SourceAlpha" type="matrix" values="0 0 0 0 0 0 0 0 0 0 0 0 0 0 0 0 0 0 127 0" result="hardAlpha"/>
<feOffset dy="4"/>
<feGaussianBlur stdDeviation="2"/>
<feComposite in2="hardAlpha" operator="out"/>
<feColorMatrix type="matrix" values="0 0 0 0 0 0 0 0 0 0 0 0 0 0 0 0 0 0 0.25 0"/>
<feBlend mode="normal" in2="BackgroundImageFix" result="effect1_dropShadow_1048_160"/>
<feBlend mode="normal" in="SourceGraphic" in2="effect1_dropShadow_1048_160" result="shape"/>
</filter>
<filter id="filter2_d_1048_160" x="264.863" y="168.668" width="43.8638" height="17.926" filterUnits="userSpaceOnUse" color-interpolation-filters="sRGB">
<feFlood flood-opacity="0" result="BackgroundImageFix"/>
<feColorMatrix in="SourceAlpha" type="matrix" values="0 0 0 0 0 0 0 0 0 0 0 0 0 0 0 0 0 0 127 0" result="hardAlpha"/>
<feOffset dy="4"/>
<feGaussianBlur stdDeviation="2"/>
<feComposite in2="hardAlpha" operator="out"/>
<feColorMatrix type="matrix" values="0 0 0 0 0 0 0 0 0 0 0 0 0 0 0 0 0 0 0.25 0"/>
<feBlend mode="normal" in2="BackgroundImageFix" result="effect1_dropShadow_1048_160"/>
<feBlend mode="normal" in="SourceGraphic" in2="effect1_dropShadow_1048_160" result="shape"/>
</filter>
</defs>
</svg>
