<svg width="1440" height="268" viewBox="0 0 1440 268" fill="none" xmlns="http://www.w3.org/2000/svg">
<g opacity="0.4">
<rect x="-41.1542" y="234.301" width="1632" height="33" transform="rotate(-8.25083 -41.1542 234.301)" fill="#E3C55B"/>
<path d="M-2.95677 253.195L-4.92568 239.617L-0.175367 238.928C1.40807 238.699 2.65391 238.882 3.56215 239.478C4.47039 240.074 5.02305 241.051 5.22013 242.41C5.42104 243.796 5.16038 244.925 4.43814 245.797C3.72718 246.655 2.65256 247.188 1.21427 247.397L-1.25986 247.755L-0.522232 252.842L-2.95677 253.195ZM-1.52391 245.935L0.494975 245.642C1.39226 245.512 2.01108 245.227 2.35145 244.786C2.69182 244.346 2.80365 243.724 2.68693 242.919C2.55873 242.035 2.27651 241.436 1.84027 241.122C1.40403 240.808 0.737269 240.716 -0.160012 240.846L-2.21848 241.145L-1.52391 245.935ZM14.269 250.92C12.3953 251.191 10.8266 250.826 9.56304 249.824C8.29944 248.821 7.50788 247.218 7.18833 245.015L7.12519 244.579C6.8133 242.428 7.13206 240.678 8.08145 239.328C9.04404 237.976 10.4688 237.163 12.3557 236.889C14.2163 236.619 15.7783 236.986 17.0419 237.988C18.3187 238.988 19.1169 240.59 19.4364 242.794L19.4996 243.229C19.8115 245.38 19.4861 247.132 18.5235 248.484C17.5741 249.834 16.156 250.646 14.269 250.92ZM14.0755 249.028C15.2367 248.86 16.0539 248.317 16.5272 247.399C17.0117 246.467 17.1507 245.288 16.944 243.863L16.8464 243.19C16.3738 239.931 14.9292 238.469 12.5125 238.806C11.3645 238.973 10.5539 239.515 10.0807 240.432C9.60549 241.336 9.47124 242.501 9.67789 243.926L9.77834 244.619C10.2548 247.905 11.6872 249.374 14.0755 249.028ZM22.9635 249.437L20.9946 235.859L23.4292 235.506L25.1197 247.164L30.8596 246.331L31.138 248.251L22.9635 249.437ZM33.4606 247.914L31.4917 234.336L33.946 233.981L35.915 247.559L33.4606 247.914ZM44.6355 246.516C42.709 246.796 41.1224 246.446 39.8759 245.469C38.6406 244.476 37.8603 242.857 37.535 240.614L37.4632 240.119C37.1284 237.81 37.4697 236.029 38.4872 234.777C39.5028 233.512 40.9606 232.741 42.8607 232.466C44.2594 232.263 45.4287 232.336 46.3685 232.684L46.644 234.585C45.5139 234.317 44.4079 234.262 43.3259 234.419C40.7132 234.798 39.6241 236.485 40.0584 239.48L40.1589 240.173C40.3923 241.783 40.8784 242.952 41.6172 243.68C42.356 244.408 43.4182 244.672 44.8037 244.471C45.8593 244.318 46.9389 243.912 48.0425 243.254L48.3152 245.134C47.3531 245.839 46.1266 246.3 44.6355 246.516ZM50.7781 245.403L48.8092 231.825L57.2806 230.597L57.559 232.517L51.5221 233.392L52.0617 237.113L56.7526 236.433L57.0282 238.333L52.3372 239.013L52.9342 243.13L59.0898 242.238L59.3682 244.158L50.7781 245.403ZM67.3431 243.001L65.3742 229.423L67.8087 229.07L69.4993 240.728L75.2392 239.896L75.5176 241.816L67.3431 243.001ZM77.8402 241.479L75.8713 227.901L78.3256 227.545L80.2945 241.123L77.8402 241.479ZM83.5602 240.65L81.5913 227.072L84.3227 226.676L91.3529 235.437L91.4123 235.429L90.0231 225.849L92.1806 225.536L94.1495 239.114L91.7347 239.464L84.2932 230.095L84.2338 230.104L85.7177 240.337L83.5602 240.65ZM97.3419 238.651L95.3729 225.073L103.844 223.845L104.123 225.765L98.0859 226.64L98.6255 230.361L103.316 229.681L103.592 231.581L98.901 232.261L99.498 236.378L105.654 235.486L105.932 237.406L97.3419 238.651ZM112.735 231.791L112.459 229.891L117.903 229.102L118.178 231.002L112.735 231.791ZM126.548 234.416L124.579 220.838L129.33 220.149C130.913 219.92 132.159 220.103 133.067 220.699C133.975 221.294 134.528 222.272 134.725 223.631C134.926 225.016 134.665 226.146 133.943 227.018C133.232 227.876 132.157 228.409 130.719 228.617L128.245 228.976L128.983 234.063L126.548 234.416ZM127.981 227.155L130 226.863C130.897 226.732 131.516 226.447 131.856 226.007C132.197 225.567 132.309 224.945 132.192 224.14C132.064 223.256 131.781 222.657 131.345 222.343C130.909 222.029 130.242 221.937 129.345 222.067L127.286 222.365L127.981 227.155ZM143.774 232.14C141.9 232.412 140.332 232.047 139.068 231.044C137.804 230.042 137.013 228.439 136.693 226.235L136.63 225.8C136.318 223.649 136.637 221.899 137.586 220.548C138.549 219.196 139.974 218.383 141.861 218.11C143.721 217.84 145.283 218.206 146.547 219.209C147.824 220.209 148.622 221.811 148.941 224.015L149.004 224.45C149.316 226.601 148.991 228.353 148.028 229.705C147.079 231.055 145.661 231.867 143.774 232.14ZM143.58 230.249C144.742 230.08 145.559 229.537 146.032 228.62C146.517 227.687 146.656 226.509 146.449 225.084L146.351 224.411C145.879 221.151 144.434 219.69 142.017 220.027C140.869 220.194 140.059 220.736 139.586 221.653C139.11 222.557 138.976 223.722 139.183 225.147L139.283 225.84C139.76 229.125 141.192 230.595 143.58 230.249ZM152.468 230.657L150.5 217.079L152.934 216.726L154.625 228.384L160.365 227.552L160.643 229.472L152.468 230.657ZM162.966 229.135L160.997 215.557L163.451 215.201L165.42 228.779L162.966 229.135ZM174.14 227.737C172.214 228.016 170.627 227.667 169.381 226.689C168.145 225.696 167.365 224.078 167.04 221.835L166.968 221.34C166.633 219.031 166.975 217.25 167.992 215.998C169.008 214.732 170.465 213.962 172.366 213.686C173.764 213.484 174.934 213.557 175.873 213.905L176.149 215.805C175.019 215.538 173.913 215.483 172.831 215.64C170.218 216.019 169.129 217.706 169.563 220.701L169.664 221.394C169.897 223.004 170.383 224.173 171.122 224.901C171.861 225.629 172.923 225.893 174.309 225.692C175.364 225.539 176.444 225.133 177.547 224.474L177.82 226.355C176.858 227.06 175.631 227.521 174.14 227.737ZM180.283 226.624L178.314 213.046L186.785 211.818L187.064 213.738L181.027 214.613L181.567 218.334L186.258 217.654L186.533 219.554L181.842 220.234L182.439 224.351L188.595 223.459L188.873 225.378L180.283 226.624ZM196.848 224.222L194.879 210.644L197.314 210.291L199.004 221.949L204.744 221.117L205.023 223.037L196.848 224.222ZM207.345 222.7L205.376 209.122L207.831 208.766L209.799 222.344L207.345 222.7ZM213.065 221.87L211.096 208.292L213.828 207.896L220.858 216.658L220.917 216.65L219.528 207.07L221.685 206.757L223.654 220.335L221.24 220.685L213.798 211.316L213.739 211.325L215.223 221.558L213.065 221.87ZM226.847 219.872L224.878 206.294L233.349 205.066L233.628 206.985L227.591 207.861L228.13 211.582L232.821 210.902L233.097 212.802L228.406 213.482L229.003 217.599L235.158 216.706L235.437 218.626L226.847 219.872ZM242.24 213.012L241.964 211.112L247.407 210.323L247.683 212.223L242.24 213.012ZM256.053 215.637L254.084 202.059L258.834 201.37C260.418 201.14 261.664 201.324 262.572 201.919C263.48 202.515 264.033 203.493 264.23 204.852C264.431 206.237 264.17 207.366 263.448 208.239C262.737 209.097 261.662 209.63 260.224 209.838L257.75 210.197L258.488 215.284L256.053 215.637ZM257.486 208.376L259.505 208.083C260.402 207.953 261.021 207.668 261.361 207.228C261.702 206.788 261.813 206.165 261.697 205.361C261.568 204.476 261.286 203.877 260.85 203.563C260.414 203.249 259.747 203.158 258.85 203.288L256.791 203.586L257.486 208.376ZM273.279 213.361C271.405 213.633 269.836 213.268 268.573 212.265C267.309 211.263 266.518 209.66 266.198 207.456L266.135 207.021C265.823 204.87 266.142 203.119 267.091 201.769C268.054 200.417 269.479 199.604 271.365 199.331C273.226 199.061 274.788 199.427 276.052 200.429C277.328 201.43 278.127 203.032 278.446 205.236L278.509 205.671C278.821 207.822 278.496 209.573 277.533 210.926C276.584 212.276 275.166 213.088 273.279 213.361ZM273.085 211.469C274.246 211.301 275.064 210.758 275.537 209.841C276.021 208.908 276.16 207.729 275.954 206.304L275.856 205.631C275.384 202.372 273.939 200.911 271.522 201.248C270.374 201.414 269.564 201.956 269.09 202.874C268.615 203.778 268.481 204.943 268.688 206.368L268.788 207.06C269.265 210.346 270.697 211.816 273.085 211.469ZM281.973 211.878L280.004 198.3L282.439 197.947L284.129 209.605L289.869 208.773L290.148 210.693L281.973 211.878ZM292.47 210.356L290.501 196.778L292.956 196.422L294.925 210L292.47 210.356ZM303.645 208.958C301.719 209.237 300.132 208.888 298.886 207.91C297.65 206.917 296.87 205.299 296.545 203.056L296.473 202.561C296.138 200.252 296.479 198.471 297.497 197.219C298.513 195.953 299.97 195.183 301.871 194.907C303.269 194.704 304.438 194.777 305.378 195.126L305.654 197.026C304.524 196.759 303.418 196.704 302.336 196.861C299.723 197.239 298.634 198.927 299.068 201.922L299.169 202.615C299.402 204.224 299.888 205.394 300.627 206.122C301.366 206.85 302.428 207.113 303.813 206.913C304.869 206.76 305.949 206.354 307.052 205.695L307.325 207.576C306.363 208.281 305.136 208.742 303.645 208.958ZM309.788 207.845L307.819 194.267L316.29 193.038L316.569 194.958L310.532 195.834L311.071 199.555L315.762 198.875L316.038 200.775L311.347 201.455L311.944 205.572L318.1 204.679L318.378 206.599L309.788 207.845ZM326.353 205.443L324.384 191.865L326.819 191.512L328.509 203.17L334.249 202.338L334.527 204.257L326.353 205.443ZM336.85 203.921L334.881 190.343L337.335 189.987L339.304 203.565L336.85 203.921ZM342.57 203.091L340.601 189.513L343.333 189.117L350.363 197.879L350.422 197.87L349.033 188.291L351.19 187.978L353.159 201.556L350.744 201.906L343.303 192.537L343.244 192.545L344.727 202.778L342.57 203.091ZM356.352 201.093L354.383 187.515L362.854 186.286L363.133 188.206L357.096 189.082L357.635 192.803L362.326 192.123L362.602 194.023L357.911 194.703L358.508 198.82L364.663 197.927L364.942 199.847L356.352 201.093ZM371.745 194.233L371.469 192.333L376.912 191.543L377.188 193.443L371.745 194.233ZM385.558 196.858L383.589 183.28L388.339 182.591C389.923 182.361 391.169 182.544 392.077 183.14C392.985 183.736 393.538 184.713 393.735 186.073C393.936 187.458 393.675 188.587 392.953 189.46C392.242 190.317 391.167 190.85 389.729 191.059L387.255 191.418L387.992 196.505L385.558 196.858ZM386.991 189.597L389.01 189.304C389.907 189.174 390.526 188.889 390.866 188.449C391.206 188.009 391.318 187.386 391.202 186.581C391.073 185.697 390.791 185.098 390.355 184.784C389.919 184.47 389.252 184.378 388.355 184.508L386.296 184.807L386.991 189.597ZM402.784 194.582C400.91 194.854 399.341 194.488 398.078 193.486C396.814 192.484 396.023 190.881 395.703 188.677L395.64 188.242C395.328 186.091 395.647 184.34 396.596 182.99C397.559 181.638 398.983 180.825 400.87 180.551C402.731 180.282 404.293 180.648 405.557 181.65C406.833 182.651 407.632 184.253 407.951 186.456L408.014 186.892C408.326 189.043 408.001 190.794 407.038 192.146C406.089 193.497 404.671 194.308 402.784 194.582ZM402.59 192.69C403.751 192.522 404.569 191.979 405.042 191.062C405.526 190.129 405.665 188.95 405.459 187.525L405.361 186.852C404.888 183.593 403.444 182.132 401.027 182.469C399.879 182.635 399.069 183.177 398.595 184.095C398.12 184.999 397.986 186.163 398.193 187.589L398.293 188.281C398.769 191.567 400.202 193.037 402.59 192.69ZM411.478 193.099L409.509 179.521L411.944 179.168L413.634 190.826L419.374 189.994L419.653 191.914L411.478 193.099ZM421.975 191.577L420.006 177.999L422.461 177.643L424.43 191.221L421.975 191.577ZM433.15 190.179C431.224 190.458 429.637 190.109 428.39 189.131C427.155 188.138 426.375 186.52 426.05 184.277L425.978 183.782C425.643 181.473 425.984 179.692 427.002 178.439C428.017 177.174 429.475 176.403 431.375 176.128C432.774 175.925 433.943 175.998 434.883 176.347L435.159 178.247C434.029 177.98 432.923 177.924 431.841 178.081C429.228 178.46 428.139 180.147 428.573 183.143L428.673 183.835C428.907 185.445 429.393 186.614 430.132 187.342C430.871 188.071 431.933 188.334 433.318 188.133C434.374 187.98 435.454 187.574 436.557 186.916L436.83 188.796C435.868 189.502 434.641 189.962 433.15 190.179ZM439.293 189.066L437.324 175.488L445.795 174.259L446.074 176.179L440.037 177.055L440.576 180.776L445.267 180.095L445.543 181.996L440.852 182.676L441.449 186.793L447.604 185.9L447.883 187.82L439.293 189.066ZM455.858 186.664L453.889 173.086L456.323 172.733L458.014 184.391L463.754 183.558L464.032 185.478L455.858 186.664ZM466.355 185.141L464.386 171.563L466.84 171.208L468.809 184.786L466.355 185.141ZM472.075 184.312L470.106 170.734L472.837 170.338L479.868 179.1L479.927 179.091L478.538 169.511L480.695 169.198L482.664 182.776L480.249 183.127L472.808 173.758L472.748 173.766L474.232 183.999L472.075 184.312ZM485.857 182.314L483.888 168.736L492.359 167.507L492.637 169.427L486.601 170.302L487.14 174.024L491.831 173.343L492.107 175.243L487.416 175.924L488.013 180.041L494.168 179.148L494.447 181.068L485.857 182.314ZM501.25 175.454L500.974 173.553L506.417 172.764L506.693 174.664L501.25 175.454ZM515.063 178.078L513.094 164.5L517.844 163.812C519.428 163.582 520.673 163.765 521.582 164.361C522.49 164.957 523.043 165.934 523.24 167.293C523.441 168.679 523.18 169.808 522.458 170.681C521.747 171.538 520.672 172.071 519.234 172.28L516.76 172.639L517.497 177.725L515.063 178.078ZM516.496 170.818L518.514 170.525C519.412 170.395 520.031 170.11 520.371 169.67C520.711 169.23 520.823 168.607 520.706 167.802C520.578 166.918 520.296 166.319 519.86 166.005C519.424 165.691 518.757 165.599 517.86 165.729L515.801 166.028L516.496 170.818ZM532.289 175.803C530.415 176.075 528.846 175.709 527.583 174.707C526.319 173.704 525.527 172.101 525.208 169.898L525.145 169.462C524.833 167.312 525.152 165.561 526.101 164.211C527.064 162.859 528.488 162.046 530.375 161.772C532.236 161.502 533.798 161.869 535.061 162.871C536.338 163.872 537.136 165.474 537.456 167.677L537.519 168.113C537.831 170.263 537.506 172.015 536.543 173.367C535.594 174.717 534.175 175.529 532.289 175.803ZM532.095 173.911C533.256 173.743 534.073 173.2 534.547 172.282C535.031 171.35 535.17 170.171 534.964 168.746L534.866 168.073C534.393 164.814 532.949 163.353 530.532 163.69C529.384 163.856 528.573 164.398 528.1 165.315C527.625 166.22 527.491 167.384 527.697 168.809L527.798 169.502C528.274 172.788 529.707 174.257 532.095 173.911ZM540.983 174.32L539.014 160.742L541.449 160.389L543.139 172.047L548.879 171.214L549.158 173.134L540.983 174.32ZM551.48 172.798L549.511 159.22L551.966 158.864L553.934 172.442L551.48 172.798ZM562.655 171.399C560.728 171.679 559.142 171.33 557.895 170.352C556.66 169.359 555.88 167.741 555.555 165.497L555.483 165.003C555.148 162.693 555.489 160.913 556.507 159.66C557.522 158.395 558.98 157.624 560.88 157.349C562.279 157.146 563.448 157.219 564.388 157.568L564.664 159.468C563.533 159.2 562.427 159.145 561.345 159.302C558.733 159.681 557.644 161.368 558.078 164.363L558.178 165.056C558.412 166.666 558.898 167.835 559.637 168.563C560.376 169.291 561.438 169.555 562.823 169.354C563.879 169.201 564.958 168.795 566.062 168.137L566.335 170.017C565.373 170.722 564.146 171.183 562.655 171.399ZM568.798 170.286L566.829 156.708L575.3 155.48L575.579 157.4L569.542 158.275L570.081 161.996L574.772 161.316L575.048 163.216L570.357 163.897L570.954 168.013L577.109 167.121L577.388 169.041L568.798 170.286ZM585.363 167.884L583.394 154.306L585.828 153.953L587.519 165.611L593.259 164.779L593.537 166.699L585.363 167.884ZM595.86 166.362L593.891 152.784L596.345 152.428L598.314 166.006L595.86 166.362ZM601.58 165.533L599.611 151.955L602.342 151.559L609.372 160.321L609.432 160.312L608.043 150.732L610.2 150.419L612.169 163.997L609.754 164.347L602.313 154.978L602.253 154.987L603.737 165.22L601.58 165.533ZM615.361 163.534L613.392 149.956L621.864 148.728L622.142 150.648L616.105 151.523L616.645 155.244L621.336 154.564L621.611 156.464L616.921 157.144L617.518 161.261L623.673 160.369L623.952 162.289L615.361 163.534ZM630.755 156.674L630.479 154.774L635.922 153.985L636.198 155.885L630.755 156.674ZM644.568 159.299L642.599 145.721L647.349 145.032C648.932 144.803 650.178 144.986 651.087 145.582C651.995 146.178 652.547 147.155 652.745 148.514C652.945 149.9 652.685 151.029 651.963 151.901C651.252 152.759 650.177 153.292 648.739 153.501L646.265 153.859L647.002 158.946L644.568 159.299ZM646 152.038L648.019 151.746C648.917 151.616 649.535 151.33 649.876 150.89C650.216 150.45 650.328 149.828 650.211 149.023C650.083 148.139 649.801 147.54 649.365 147.226C648.928 146.912 648.262 146.82 647.364 146.95L645.306 147.248L646 152.038ZM661.793 157.024C659.92 157.295 658.351 156.93 657.087 155.928C655.824 154.925 655.032 153.322 654.713 151.119L654.65 150.683C654.338 148.532 654.656 146.782 655.606 145.432C656.568 144.079 657.993 143.267 659.88 142.993C661.741 142.723 663.303 143.089 664.566 144.092C665.843 145.092 666.641 146.694 666.961 148.898L667.024 149.333C667.336 151.484 667.011 153.236 666.048 154.588C665.099 155.938 663.68 156.75 661.793 157.024ZM661.6 155.132C662.761 154.963 663.578 154.421 664.052 153.503C664.536 152.571 664.675 151.392 664.468 149.967L664.371 149.294C663.898 146.034 662.454 144.573 660.037 144.91C658.889 145.077 658.078 145.619 657.605 146.536C657.13 147.44 656.996 148.605 657.202 150.03L657.303 150.723C657.779 154.008 659.212 155.478 661.6 155.132ZM670.488 155.541L668.519 141.963L670.954 141.61L672.644 153.268L678.384 152.435L678.662 154.355L670.488 155.541ZM680.985 154.018L679.016 140.44L681.47 140.084L683.439 153.662L680.985 154.018ZM692.16 152.62C690.233 152.9 688.647 152.55 687.4 151.572C686.165 150.579 685.385 148.961 685.059 146.718L684.988 146.223C684.653 143.914 684.994 142.133 686.012 140.881C687.027 139.616 688.485 138.845 690.385 138.569C691.784 138.367 692.953 138.44 693.893 138.788L694.168 140.688C693.038 140.421 691.932 140.366 690.85 140.523C688.238 140.902 687.148 142.589 687.583 145.584L687.683 146.277C687.917 147.887 688.403 149.056 689.142 149.784C689.88 150.512 690.943 150.776 692.328 150.575C693.384 150.422 694.463 150.016 695.567 149.358L695.84 151.238C694.878 151.943 693.651 152.404 692.16 152.62ZM698.302 151.507L696.334 137.929L704.805 136.701L705.083 138.621L699.047 139.496L699.586 143.217L704.277 142.537L704.553 144.437L699.862 145.117L700.459 149.234L706.614 148.342L706.893 150.262L698.302 151.507ZM714.868 149.105L712.899 135.527L715.333 135.174L717.024 146.832L722.764 146L723.042 147.92L714.868 149.105ZM725.365 147.583L723.396 134.005L725.85 133.649L727.819 147.227L725.365 147.583ZM731.085 146.754L729.116 133.176L731.847 132.779L738.877 141.541L738.937 141.533L737.548 131.953L739.705 131.64L741.674 145.218L739.259 145.568L731.818 136.199L731.758 136.208L733.242 146.441L731.085 146.754ZM744.866 144.755L742.897 131.177L751.369 129.949L751.647 131.869L745.61 132.744L746.15 136.465L750.841 135.785L751.116 137.685L746.425 138.365L747.022 142.482L753.178 141.59L753.456 143.509L744.866 144.755ZM760.259 137.895L759.984 135.995L765.427 135.206L765.702 137.106L760.259 137.895ZM774.073 140.52L772.104 126.942L776.854 126.253C778.437 126.024 779.683 126.207 780.591 126.802C781.5 127.398 782.052 128.376 782.249 129.735C782.45 131.12 782.19 132.249 781.467 133.122C780.756 133.98 779.682 134.513 778.244 134.721L775.769 135.08L776.507 140.167L774.073 140.52ZM775.505 133.259L777.524 132.966C778.422 132.836 779.04 132.551 779.381 132.111C779.721 131.671 779.833 131.049 779.716 130.244C779.588 129.36 779.306 128.761 778.87 128.447C778.433 128.133 777.767 128.041 776.869 128.171L774.811 128.469L775.505 133.259ZM791.298 138.244C789.425 138.516 787.856 138.151 786.592 137.148C785.329 136.146 784.537 134.543 784.218 132.339L784.154 131.904C783.843 129.753 784.161 128.003 785.111 126.652C786.073 125.3 787.498 124.487 789.385 124.214C791.246 123.944 792.808 124.31 794.071 125.313C795.348 126.313 796.146 127.915 796.466 130.119L796.529 130.554C796.841 132.705 796.515 134.456 795.553 135.809C794.603 137.159 793.185 137.971 791.298 138.244ZM791.105 136.353C792.266 136.184 793.083 135.641 793.556 134.724C794.041 133.791 794.18 132.613 793.973 131.187L793.876 130.515C793.403 127.255 791.958 125.794 789.542 126.131C788.394 126.298 787.583 126.839 787.11 127.757C786.635 128.661 786.501 129.826 786.707 131.251L786.808 131.944C787.284 135.229 788.716 136.699 791.105 136.353ZM799.993 136.761L798.024 123.183L800.458 122.83L802.149 134.488L807.889 133.656L808.167 135.576L799.993 136.761ZM810.49 135.239L808.521 121.661L810.975 121.305L812.944 134.883L810.49 135.239ZM821.665 133.841C819.738 134.12 818.152 133.771 816.905 132.793C815.67 131.8 814.89 130.182 814.564 127.939L814.493 127.444C814.158 125.135 814.499 123.354 815.516 122.102C816.532 120.836 817.99 120.066 819.89 119.79C821.289 119.587 822.458 119.66 823.398 120.009L823.673 121.909C822.543 121.642 821.437 121.587 820.355 121.744C817.743 122.123 816.653 123.81 817.088 126.805L817.188 127.498C817.422 129.108 817.908 130.277 818.647 131.005C819.385 131.733 820.447 131.997 821.833 131.796C822.889 131.643 823.968 131.237 825.072 130.578L825.344 132.459C824.382 133.164 823.156 133.625 821.665 133.841ZM827.807 132.728L825.838 119.15L834.31 117.922L834.588 119.841L828.551 120.717L829.091 124.438L833.782 123.758L834.057 125.658L829.367 126.338L829.964 130.455L836.119 129.562L836.398 131.482L827.807 132.728ZM844.372 130.326L842.403 116.748L844.838 116.395L846.529 128.053L852.269 127.221L852.547 129.141L844.372 130.326ZM854.869 128.804L852.901 115.226L855.355 114.87L857.324 128.448L854.869 128.804ZM860.59 127.974L858.621 114.396L861.352 114L868.382 122.762L868.442 122.753L867.052 113.174L869.21 112.861L871.179 126.439L868.764 126.789L861.322 117.42L861.263 117.428L862.747 127.661L860.59 127.974ZM874.371 125.976L872.402 112.398L880.874 111.169L881.152 113.089L875.115 113.965L875.655 117.686L880.346 117.006L880.621 118.906L875.93 119.586L876.527 123.703L882.683 122.81L882.961 124.73L874.371 125.976ZM889.764 119.116L889.489 117.216L894.932 116.426L895.207 118.327L889.764 119.116ZM903.577 121.741L901.608 108.163L906.359 107.474C907.942 107.244 909.188 107.427 910.096 108.023C911.005 108.619 911.557 109.597 911.754 110.956C911.955 112.341 911.695 113.47 910.972 114.343C910.261 115.201 909.187 115.734 907.748 115.942L905.274 116.301L906.012 121.388L903.577 121.741ZM905.01 114.48L907.029 114.187C907.926 114.057 908.545 113.772 908.886 113.332C909.226 112.892 909.338 112.269 909.221 111.464C909.093 110.58 908.811 109.981 908.374 109.667C907.938 109.353 907.271 109.261 906.374 109.392L904.316 109.69L905.01 114.48ZM920.803 119.465C918.929 119.737 917.361 119.372 916.097 118.369C914.834 117.367 914.042 115.764 913.722 113.56L913.659 113.125C913.347 110.974 913.666 109.223 914.616 107.873C915.578 106.521 917.003 105.708 918.89 105.435C920.75 105.165 922.313 105.531 923.576 106.533C924.853 107.534 925.651 109.136 925.971 111.34L926.034 111.775C926.346 113.926 926.02 115.677 925.058 117.029C924.108 118.38 922.69 119.192 920.803 119.465ZM920.61 117.573C921.771 117.405 922.588 116.862 923.061 115.945C923.546 115.012 923.685 113.833 923.478 112.408L923.381 111.735C922.908 108.476 921.463 107.015 919.047 107.352C917.899 107.518 917.088 108.06 916.615 108.978C916.14 109.882 916.005 111.047 916.212 112.472L916.313 113.164C916.789 116.45 918.221 117.92 920.61 117.573ZM929.498 117.982L927.529 104.404L929.963 104.051L931.654 115.709L937.394 114.877L937.672 116.797L929.498 117.982ZM939.995 116.46L938.026 102.882L940.48 102.526L942.449 116.104L939.995 116.46ZM951.17 115.062C949.243 115.341 947.657 114.992 946.41 114.014C945.175 113.021 944.394 111.403 944.069 109.16L943.997 108.665C943.663 106.356 944.004 104.575 945.021 103.323C946.037 102.057 947.495 101.287 949.395 101.011C950.794 100.808 951.963 100.881 952.903 101.23L953.178 103.13C952.048 102.863 950.942 102.808 949.86 102.965C947.247 103.343 946.158 105.03 946.593 108.026L946.693 108.719C946.926 110.328 947.413 111.497 948.151 112.226C948.89 112.954 949.952 113.217 951.338 113.016C952.394 112.863 953.473 112.458 954.577 111.799L954.849 113.679C953.887 114.385 952.661 114.846 951.17 115.062ZM957.312 113.949L955.343 100.371L963.815 99.1424L964.093 101.062L958.056 101.938L958.596 105.659L963.287 104.979L963.562 106.879L958.871 107.559L959.468 111.676L965.624 110.783L965.902 112.703L957.312 113.949ZM973.877 111.547L971.908 97.9687L974.343 97.6157L976.033 109.274L981.773 108.441L982.052 110.361L973.877 111.547ZM984.374 110.025L982.405 96.4466L984.86 96.0907L986.829 109.669L984.374 110.025ZM990.094 109.195L988.125 95.6171L990.857 95.221L997.887 103.983L997.946 103.974L996.557 94.3944L998.715 94.0816L1000.68 107.66L998.269 108.01L990.827 98.6407L990.768 98.6493L992.252 108.882L990.094 109.195ZM1003.88 107.197L1001.91 93.6187L1010.38 92.3902L1010.66 94.3102L1004.62 95.1856L1005.16 98.9066L1009.85 98.2264L1010.13 100.127L1005.44 100.807L1006.03 104.924L1012.19 104.031L1012.47 105.951L1003.88 107.197ZM1019.27 100.337L1018.99 98.4365L1024.44 97.6472L1024.71 99.5473L1019.27 100.337ZM1033.08 102.962L1031.11 89.3835L1035.86 88.6947C1037.45 88.4651 1038.69 88.6482 1039.6 89.244C1040.51 89.8399 1041.06 90.8173 1041.26 92.1764C1041.46 93.562 1041.2 94.691 1040.48 95.5637C1039.77 96.4213 1038.69 96.9544 1037.25 97.1629L1034.78 97.5217L1035.52 102.608L1033.08 102.962ZM1034.52 95.7007L1036.53 95.408C1037.43 95.2779 1038.05 94.9928 1038.39 94.5527C1038.73 94.1126 1038.84 93.4902 1038.73 92.6852C1038.6 91.8012 1038.32 91.2021 1037.88 90.8881C1037.44 90.5742 1036.78 90.4822 1035.88 90.6123L1033.82 90.9108L1034.52 95.7007ZM1050.31 100.686C1048.43 100.958 1046.87 100.592 1045.6 99.5899C1044.34 98.5876 1043.55 96.9846 1043.23 94.781L1043.16 94.3455C1042.85 92.1947 1043.17 90.4441 1044.12 89.0939C1045.08 87.7418 1046.51 86.9289 1048.39 86.6553C1050.26 86.3855 1051.82 86.7518 1053.08 87.7542C1054.36 88.7546 1055.16 90.3567 1055.48 92.5603L1055.54 92.9957C1055.85 95.1466 1055.53 96.898 1054.56 98.2502C1053.61 99.6004 1052.2 100.412 1050.31 100.686ZM1050.11 98.7941C1051.28 98.6257 1052.09 98.0829 1052.57 97.1654C1053.05 96.2329 1053.19 95.0541 1052.98 93.629L1052.89 92.9561C1052.41 89.6968 1050.97 88.2357 1048.55 88.5726C1047.4 88.7391 1046.59 89.281 1046.12 90.1985C1045.64 91.1027 1045.51 92.2673 1045.72 93.6924L1045.82 94.3852C1046.29 97.6708 1047.73 99.1405 1050.11 98.7941ZM1059 99.2029L1057.03 85.6249L1059.47 85.2719L1061.16 96.9299L1066.9 96.0976L1067.18 98.0175L1059 99.2029ZM1069.5 97.6807L1067.53 84.1027L1069.99 83.7468L1071.95 97.3248L1069.5 97.6807ZM1080.67 96.2826C1078.75 96.5619 1077.16 96.2127 1075.91 95.2348C1074.68 94.2418 1073.9 92.6237 1073.57 90.3804L1073.5 89.8856C1073.17 87.5764 1073.51 85.7957 1074.53 84.5434C1075.54 83.2779 1077 82.5074 1078.9 82.2318C1080.3 82.029 1081.47 82.102 1082.41 82.4507L1082.68 84.3508C1081.55 84.0836 1080.45 84.0284 1079.36 84.1853C1076.75 84.5641 1075.66 86.2512 1076.1 89.2466L1076.2 89.9393C1076.43 91.5492 1076.92 92.7182 1077.66 93.4464C1078.4 94.1745 1079.46 94.4382 1080.84 94.2373C1081.9 94.0842 1082.98 93.6784 1084.08 93.0199L1084.35 94.9002C1083.39 95.6056 1082.17 96.0664 1080.67 96.2826ZM1086.82 95.1695L1084.85 81.5916L1093.32 80.3631L1093.6 82.2831L1087.56 83.1584L1088.1 86.8795L1092.79 86.1993L1093.07 88.0994L1088.38 88.7797L1088.97 92.8966L1095.13 92.004L1095.41 93.9239L1086.82 95.1695ZM1103.38 92.7675L1101.41 79.1895L1103.85 78.8365L1105.54 90.4945L1111.28 89.6622L1111.56 91.5821L1103.38 92.7675ZM1113.88 91.2453L1111.91 77.6673L1114.36 77.3114L1116.33 90.8894L1113.88 91.2453ZM1119.6 90.4159L1117.63 76.8379L1120.36 76.4418L1127.39 85.2036L1127.45 85.195L1126.06 75.6152L1128.22 75.3024L1130.19 88.8804L1127.77 89.2305L1120.33 79.8614L1120.27 79.8701L1121.76 90.103L1119.6 90.4159ZM1133.38 88.4174L1131.41 74.8394L1139.88 73.611L1140.16 75.5309L1134.12 76.4063L1134.66 80.1274L1139.36 79.4472L1139.63 81.3473L1134.94 82.0275L1135.54 86.1445L1141.69 85.2519L1141.97 87.1718L1133.38 88.4174ZM1148.77 81.5574L1148.5 79.6573L1153.94 78.868L1154.22 80.7681L1148.77 81.5574ZM1162.59 84.1823L1160.62 70.6043L1165.37 69.9155C1166.95 69.6859 1168.2 69.869 1169.11 70.4648C1170.01 71.0606 1170.57 72.0381 1170.76 73.3972C1170.96 74.7827 1170.7 75.9118 1169.98 76.7845C1169.27 77.6421 1168.2 78.1751 1166.76 78.3837L1164.28 78.7425L1165.02 83.8293L1162.59 84.1823ZM1164.02 76.9215L1166.04 76.6288C1166.94 76.4986 1167.56 76.2136 1167.9 75.7735C1168.24 75.3334 1168.35 74.7109 1168.23 73.906C1168.1 73.0219 1167.82 72.4229 1167.38 72.1089C1166.95 71.7949 1166.28 71.703 1165.38 71.8331L1163.33 72.1316L1164.02 76.9215ZM1179.81 81.9067C1177.94 82.1784 1176.37 81.8131 1175.11 80.8107C1173.84 79.8083 1173.05 78.2053 1172.73 76.0017L1172.67 75.5663C1172.36 73.4154 1172.68 71.6649 1173.63 70.3147C1174.59 68.9626 1176.01 68.1497 1177.9 67.8761C1179.76 67.6063 1181.32 67.9726 1182.59 68.9749C1183.86 69.9754 1184.66 71.5774 1184.98 73.7811L1185.04 74.2165C1185.36 76.3673 1185.03 78.1188 1184.07 79.471C1183.12 80.8212 1181.7 81.6331 1179.81 81.9067ZM1179.62 80.0149C1180.78 79.8465 1181.6 79.3036 1182.07 78.3862C1182.56 77.4537 1182.69 76.2749 1182.49 74.8498L1182.39 74.1768C1181.92 70.9176 1180.47 69.4565 1178.06 69.7934C1176.91 69.9599 1176.1 70.5018 1175.62 71.4192C1175.15 72.3234 1175.02 73.4881 1175.22 74.9132L1175.32 75.6059C1175.8 78.8916 1177.23 80.3612 1179.62 80.0149ZM1188.51 80.4236L1186.54 66.8457L1188.97 66.4926L1190.66 78.1507L1196.4 77.3184L1196.68 79.2383L1188.51 80.4236ZM1199 78.9015L1197.04 65.3235L1199.49 64.9676L1201.46 78.5456L1199 78.9015ZM1210.18 77.5033C1208.25 77.7827 1206.67 77.4334 1205.42 76.4555C1204.18 75.4625 1203.4 73.8444 1203.08 71.6012L1203.01 71.1064C1202.67 68.7972 1203.01 67.0165 1204.03 65.7642C1205.05 64.4987 1206.5 63.7281 1208.4 63.4526C1209.8 63.2498 1210.97 63.3227 1211.91 63.6715L1212.19 65.5716C1211.06 65.3043 1209.95 65.2492 1208.87 65.4061C1206.26 65.7849 1205.17 67.472 1205.6 70.4674L1205.7 71.1601C1205.94 72.7699 1206.42 73.939 1207.16 74.6671C1207.9 75.3953 1208.96 75.6589 1210.35 75.458C1211.4 75.305 1212.48 74.8992 1213.59 74.2406L1213.86 76.121C1212.9 76.8263 1211.67 77.2871 1210.18 77.5033ZM1216.32 76.3903L1214.35 62.8123L1222.82 61.5839L1223.1 63.5038L1217.07 64.3792L1217.61 68.1003L1222.3 67.4201L1222.57 69.3202L1217.88 70.0004L1218.48 74.1174L1224.63 73.2248L1224.91 75.1447L1216.32 76.3903ZM1232.89 73.9883L1230.92 60.4103L1233.35 60.0572L1235.04 71.7153L1240.78 70.883L1241.06 72.8029L1232.89 73.9883ZM1243.38 72.4661L1241.42 58.8881L1243.87 58.5322L1245.84 72.1102L1243.38 72.4661ZM1249.1 71.6367L1247.14 58.0587L1249.87 57.6626L1256.9 66.4244L1256.96 66.4158L1255.57 56.836L1257.72 56.5231L1259.69 70.1011L1257.28 70.4513L1249.84 61.0822L1249.78 61.0908L1251.26 71.3238L1249.1 71.6367ZM1262.89 69.6382L1260.92 56.0602L1269.39 54.8318L1269.67 56.7517L1263.63 57.6271L1264.17 61.3482L1268.86 60.668L1269.14 62.5681L1264.44 63.2483L1265.04 67.3653L1271.2 66.4726L1271.48 68.3926L1262.89 69.6382ZM1278.28 62.7782L1278 60.8781L1283.45 60.0888L1283.72 61.9889L1278.28 62.7782ZM1292.09 65.4031L1290.12 51.8251L1294.87 51.1363C1296.46 50.9066 1297.7 51.0898 1298.61 51.6856C1299.52 52.2814 1300.07 53.2589 1300.27 54.618C1300.47 56.0035 1300.21 57.1326 1299.49 58.0053C1298.78 58.8629 1297.7 59.3959 1296.26 59.6045L1293.79 59.9632L1294.53 65.05L1292.09 65.4031ZM1293.52 58.1423L1295.54 57.8495C1296.44 57.7194 1297.06 57.4343 1297.4 56.9943C1297.74 56.5542 1297.85 55.9317 1297.74 55.1268C1297.61 54.2427 1297.33 53.6437 1296.89 53.3297C1296.45 53.0157 1295.79 52.9238 1294.89 53.0539L1292.83 53.3524L1293.52 58.1423ZM1309.32 63.1275C1307.44 63.3992 1305.88 63.0339 1304.61 62.0315C1303.35 61.0291 1302.56 59.4261 1302.24 57.2225L1302.17 56.7871C1301.86 54.6362 1302.18 52.8857 1303.13 51.5355C1304.09 50.1833 1305.52 49.3705 1307.4 49.0968C1309.27 48.8271 1310.83 49.1933 1312.09 50.1957C1313.37 51.1962 1314.17 52.7982 1314.49 55.0018L1314.55 55.4373C1314.86 57.5881 1314.53 59.3396 1313.57 60.6917C1312.62 62.042 1311.2 62.8539 1309.32 63.1275ZM1309.12 61.2357C1310.29 61.0673 1311.1 60.5244 1311.58 59.607C1312.06 58.6745 1312.2 57.4957 1311.99 56.0706L1311.9 55.3976C1311.42 52.1384 1309.98 50.6772 1307.56 51.0142C1306.41 51.1807 1305.6 51.7226 1305.13 52.64C1304.65 53.5442 1304.52 54.7089 1304.73 56.134L1304.83 56.8267C1305.3 60.1124 1306.74 61.582 1309.12 61.2357ZM1318.01 61.6444L1316.04 48.0664L1318.48 47.7134L1320.17 59.3715L1325.91 58.5391L1326.19 60.4591L1318.01 61.6444ZM1328.51 60.1223L1326.54 46.5443L1328.99 46.1884L1330.96 59.7664L1328.51 60.1223ZM1339.68 58.7241C1337.76 59.0035 1336.17 58.6542 1334.92 57.6763C1333.69 56.6833 1332.91 55.0652 1332.58 52.822L1332.51 52.3272C1332.18 50.018 1332.52 48.2373 1333.54 46.9849C1334.55 45.7194 1336.01 44.9489 1337.91 44.6734C1339.31 44.4706 1340.48 44.5435 1341.42 44.8923L1341.69 46.7924C1340.56 46.5251 1339.46 46.4699 1338.37 46.6268C1335.76 47.0057 1334.67 48.6928 1335.11 51.6881L1335.21 52.3809C1335.44 53.9907 1335.93 55.1597 1336.67 55.8879C1337.4 56.6161 1338.47 56.8797 1339.85 56.6788C1340.91 56.5257 1341.99 56.1199 1343.09 55.4614L1343.36 57.3418C1342.4 58.0471 1341.18 58.5079 1339.68 58.7241ZM1345.83 57.6111L1343.86 44.0331L1352.33 42.8047L1352.61 44.7246L1346.57 45.6L1347.11 49.3211L1351.8 48.6409L1352.08 50.541L1347.39 51.2212L1347.98 55.3382L1354.14 54.4455L1354.42 56.3655L1345.83 57.6111ZM1362.39 55.209L1360.42 41.6311L1362.86 41.278L1364.55 52.9361L1370.29 52.1038L1370.57 54.0237L1362.39 55.209ZM1372.89 53.6869L1370.92 40.1089L1373.37 39.753L1375.34 53.331L1372.89 53.6869ZM1378.61 52.8574L1376.64 39.2794L1379.37 38.8834L1386.4 47.6452L1386.46 47.6366L1385.07 38.0568L1387.23 37.7439L1389.2 51.3219L1386.78 51.6721L1379.34 42.303L1379.28 42.3116L1380.77 52.5446L1378.61 52.8574ZM1392.39 50.859L1390.42 37.281L1398.89 36.0526L1399.17 37.9725L1393.13 38.8479L1393.67 42.569L1398.37 41.8888L1398.64 43.7889L1393.95 44.4691L1394.55 48.586L1400.7 47.6934L1400.98 49.6133L1392.39 50.859ZM1407.78 43.999L1407.51 42.0988L1412.95 41.3095L1413.23 43.2097L1407.78 43.999ZM1421.6 46.6239L1419.63 33.0459L1424.38 32.357C1425.96 32.1274 1427.21 32.3105 1428.12 32.9064C1429.02 33.5022 1429.58 34.4797 1429.77 35.8388C1429.97 37.2243 1429.71 38.3534 1428.99 39.2261C1428.28 40.0836 1427.21 40.6167 1425.77 40.8253L1423.29 41.184L1424.03 46.2708L1421.6 46.6239ZM1423.03 39.3631L1425.05 39.0703C1425.95 38.9402 1426.56 38.6551 1426.91 38.215C1427.25 37.775 1427.36 37.1525 1427.24 36.3476C1427.11 35.4635 1426.83 34.8645 1426.39 34.5505C1425.96 34.2365 1425.29 34.1446 1424.39 34.2747L1422.34 34.5732L1423.03 39.3631ZM1438.82 44.3483C1436.95 44.62 1435.38 44.2547 1434.12 43.2523C1432.85 42.2499 1432.06 40.6469 1431.74 38.4433L1431.68 38.0078C1431.37 35.857 1431.69 34.1065 1432.64 32.7563C1433.6 31.4041 1435.02 30.5912 1436.91 30.3176C1438.77 30.0478 1440.33 30.4141 1441.6 31.4165C1442.87 32.417 1443.67 34.019 1443.99 36.2226L1444.05 36.6581C1444.37 38.8089 1444.04 40.5604 1443.08 41.9125C1442.13 43.2627 1440.71 44.0747 1438.82 44.3483ZM1438.63 42.4565C1439.79 42.2881 1440.61 41.7452 1441.08 40.8278C1441.57 39.8953 1441.7 38.7165 1441.5 37.2914L1441.4 36.6184C1440.93 33.3592 1439.48 31.898 1437.07 32.235C1435.92 32.4014 1435.11 32.9434 1434.63 33.8608C1434.16 34.765 1434.02 35.9297 1434.23 37.3548L1434.33 38.0475C1434.81 41.3331 1436.24 42.8028 1438.63 42.4565ZM1447.52 42.8652L1445.55 29.2872L1447.98 28.9342L1449.67 40.5923L1455.41 39.7599L1455.69 41.6798L1447.52 42.8652ZM1458.01 41.343L1456.05 27.7651L1458.5 27.4092L1460.47 40.9871L1458.01 41.343ZM1469.19 39.9449C1467.26 40.2243 1465.68 39.875 1464.43 38.8971C1463.19 37.9041 1462.41 36.286 1462.09 34.0428L1462.02 33.548C1461.68 31.2388 1462.02 29.458 1463.04 28.2057C1464.06 26.9402 1465.51 26.1697 1467.41 25.8942C1468.81 25.6913 1469.98 25.7643 1470.92 26.113L1471.2 28.0132C1470.07 27.7459 1468.96 27.6907 1467.88 27.8476C1465.27 28.2265 1464.18 29.9136 1464.61 32.9089L1464.71 33.6017C1464.95 35.2115 1465.43 36.3805 1466.17 37.1087C1466.91 37.8369 1467.97 38.1005 1469.36 37.8996C1470.41 37.7465 1471.49 37.3407 1472.6 36.6822L1472.87 38.5625C1471.91 39.2679 1470.68 39.7287 1469.19 39.9449ZM1475.33 38.8319L1473.36 25.2539L1481.83 24.0255L1482.11 25.9454L1476.08 26.8208L1476.62 30.5419L1481.31 29.8616L1481.58 31.7618L1476.89 32.442L1477.49 36.5589L1483.64 35.6663L1483.92 37.5862L1475.33 38.8319ZM1491.9 36.4298L1489.93 22.8518L1492.36 22.4988L1494.05 34.1569L1499.79 33.3245L1500.07 35.2445L1491.9 36.4298ZM1502.39 34.9077L1500.42 21.3297L1502.88 20.9738L1504.85 34.5518L1502.39 34.9077ZM1508.11 34.0782L1506.14 20.5002L1508.88 20.1041L1515.91 28.866L1515.97 28.8574L1514.58 19.2775L1516.73 18.9647L1518.7 32.5427L1516.29 32.8928L1508.85 23.5238L1508.79 23.5324L1510.27 33.7654L1508.11 34.0782ZM1521.9 32.0798L1519.93 18.5018L1528.4 17.2734L1528.68 19.1933L1522.64 20.0687L1523.18 23.7898L1527.87 23.1095L1528.15 25.0097L1523.45 25.6899L1524.05 29.8068L1530.21 28.9142L1530.49 30.8341L1521.9 32.0798ZM1537.29 25.2197L1537.01 23.3196L1542.46 22.5303L1542.73 24.4304L1537.29 25.2197Z" fill="black"/>
</g>
<g opacity="0.4">
<rect x="-21.1816" y="58.6721" width="1632" height="33" transform="rotate(3.46767 -21.1816 58.6721)" fill="#E3C55B"/>
<path d="M12.3823 84.9303L13.2122 71.2354L18.0034 71.5257C19.6005 71.6225 20.7832 72.0548 21.5515 72.8227C22.3197 73.5906 22.6624 74.6599 22.5793 76.0307C22.4946 77.4282 22.0101 78.4808 21.1256 79.1886C20.2553 79.8839 19.0948 80.1876 17.6441 80.0997L15.1487 79.9485L14.8378 85.0791L12.3823 84.9303ZM15.26 78.1118L17.2963 78.2352C18.2013 78.2901 18.8651 78.1366 19.2878 77.7749C19.7104 77.4131 19.9464 76.8263 19.9955 76.0144C20.0496 75.1227 19.8949 74.4789 19.5315 74.0828C19.1682 73.6868 18.534 73.4614 17.629 73.4065L15.5528 73.2807L15.26 78.1118ZM29.7113 86.2007C27.8214 86.0862 26.3596 85.4099 25.326 84.1718C24.2923 82.9337 23.8428 81.2033 23.9775 78.9807L24.0041 78.5415C24.1356 76.3722 24.8032 74.7229 26.007 73.5936C27.2242 72.4652 28.7844 71.9586 30.6875 72.0739C32.5641 72.1876 34.0192 72.8636 35.0529 74.1017C36.0999 75.3406 36.556 77.0714 36.4213 79.294L36.3947 79.7332C36.2633 81.9025 35.589 83.5514 34.3718 84.6799C33.168 85.8091 31.6145 86.3161 29.7113 86.2007ZM29.9061 84.3091C31.0772 84.38 31.9877 84.0144 32.6374 83.2123C33.3012 82.3976 33.6767 81.2716 33.7638 79.8342L33.8049 79.1555C34.0041 75.8681 32.8863 74.1441 30.4516 73.9832C29.2937 73.913 28.3899 74.279 27.7402 75.0812C27.0913 75.87 26.7233 76.9831 26.6362 78.4205L26.5939 79.1192C26.3931 82.4331 27.4971 84.1631 29.9061 84.3091ZM38.5258 86.5145L39.3556 72.8196L41.8111 72.9684L41.0986 84.7268L46.888 85.0776L46.7707 87.0141L38.5258 86.5145ZM49.1132 87.156L49.9431 73.4612L52.4186 73.6112L51.5887 87.306L49.1132 87.156ZM60.3392 88.0567C58.3961 87.9389 56.9135 87.2747 55.8915 86.064C54.8837 84.8408 54.4483 83.098 54.5854 80.8354L54.6156 80.3364C54.7568 78.0073 55.4527 76.333 56.7033 75.3134C57.9547 74.2806 59.5387 73.8222 61.4552 73.9383C62.8659 74.0238 63.996 74.3327 64.8453 74.8651L64.7292 76.7816C63.677 76.2904 62.6052 76.0117 61.5139 75.9456C58.8787 75.7859 57.4696 77.2166 57.2865 80.2377L57.2442 80.9364C57.1458 82.5601 57.3843 83.8035 57.9599 84.6666C58.5354 85.5296 59.5218 86.0035 60.9193 86.0882C61.984 86.1527 63.1235 85.9746 64.3379 85.554L64.2229 87.4505C63.1377 87.9457 61.8431 88.1478 60.3392 88.0567ZM66.5798 88.2144L67.4097 74.5196L75.954 75.0373L75.8366 76.9738L69.7478 76.6048L69.5204 80.3579L74.2517 80.6446L74.1356 82.5611L69.4042 82.2744L69.1526 86.4268L75.3612 86.803L75.2439 88.7395L66.5798 88.2144ZM83.2874 89.2269L84.1173 75.532L86.5728 75.6808L85.8603 87.4392L91.6496 87.79L91.5323 89.7265L83.2874 89.2269ZM93.8749 89.8684L94.7047 76.1735L97.1802 76.3235L96.3503 90.0184L93.8749 89.8684ZM99.6441 90.218L100.474 76.5231L103.229 76.6901L108.333 86.6971L108.393 86.7007L108.978 77.0385L111.154 77.1703L110.325 90.8652L107.889 90.7176L102.505 80.0324L102.446 80.0288L101.82 90.3499L99.6441 90.218ZM113.544 91.0603L114.374 77.3654L122.919 77.8832L122.801 79.8196L116.712 79.4507L116.485 83.2038L121.216 83.4905L121.1 85.407L116.369 85.1203L116.117 89.2727L122.326 89.6489L122.209 91.5853L113.544 91.0603ZM130.01 87.4697L130.126 85.5532L135.616 85.8859L135.5 87.8023L130.01 87.4697ZM143.002 92.8453L143.832 79.1505L148.623 79.4408C150.22 79.5376 151.403 79.9699 152.171 80.7378C152.94 81.5057 153.282 82.575 153.199 83.9458C153.114 85.3433 152.63 86.3959 151.745 87.1037C150.875 87.799 149.715 88.1027 148.264 88.0148L145.768 87.8636L145.458 92.9941L143.002 92.8453ZM145.88 86.0269L147.916 86.1503C148.821 86.2052 149.485 86.0517 149.908 85.6899C150.33 85.3282 150.566 84.7414 150.615 83.9295C150.669 83.0378 150.515 82.3939 150.151 81.9979C149.788 81.6019 149.154 81.3764 148.249 81.3216L146.173 81.1958L145.88 86.0269ZM160.331 94.1158C158.441 94.0013 156.979 93.325 155.946 92.0869C154.912 90.8487 154.463 89.1184 154.597 86.8958L154.624 86.4566C154.755 84.2872 155.423 82.6379 156.627 81.5087C157.844 80.3802 159.404 79.8737 161.307 79.989C163.184 80.1027 164.639 80.7786 165.673 82.0168C166.72 83.2557 167.176 84.9864 167.041 87.209L167.014 87.6482C166.883 89.8176 166.209 91.4665 164.992 92.5949C163.788 93.7242 162.234 94.2311 160.331 94.1158ZM160.526 92.2241C161.697 92.2951 162.607 91.9295 163.257 91.1273C163.921 90.3127 164.296 89.1866 164.384 87.7493L164.425 87.0705C164.624 83.7832 163.506 82.0591 161.071 81.8982C159.914 81.8281 159.01 82.1941 158.36 82.9962C157.711 83.7851 157.343 84.8982 157.256 86.3356L157.214 87.0343C157.013 90.3482 158.117 92.0782 160.526 92.2241ZM169.146 94.4295L169.975 80.7347L172.431 80.8835L171.718 92.6419L177.508 92.9927L177.39 94.9292L169.146 94.4295ZM179.733 95.0711L180.563 81.3762L183.038 81.5262L182.208 95.2211L179.733 95.0711ZM190.959 95.9718C189.016 95.854 187.533 95.1898 186.511 93.9791C185.503 92.7559 185.068 91.013 185.205 88.7505L185.235 88.2514C185.377 85.9224 186.072 84.2481 187.323 83.2285C188.574 82.1956 190.158 81.7373 192.075 81.8534C193.486 81.9389 194.616 82.2478 195.465 82.7802L195.349 84.6966C194.297 84.2054 193.225 83.9268 192.134 83.8606C189.498 83.701 188.089 85.1317 187.906 88.1528L187.864 88.8515C187.766 90.4752 188.004 91.7186 188.58 92.5816C189.155 93.4447 190.142 93.9186 191.539 94.0032C192.604 94.0678 193.743 93.8897 194.958 93.469L194.843 95.3656C193.757 95.8608 192.463 96.0629 190.959 95.9718ZM197.2 96.1295L198.029 82.4346L206.574 82.9524L206.456 84.8888L200.368 84.5199L200.14 88.273L204.871 88.5597L204.755 90.4762L200.024 90.1895L199.772 94.3419L205.981 94.7181L205.864 96.6545L197.2 96.1295ZM213.907 97.1419L214.737 83.4471L217.193 83.5958L216.48 95.3543L222.269 95.7051L222.152 97.6415L213.907 97.1419ZM224.495 97.7835L225.325 84.0886L227.8 84.2386L226.97 97.9335L224.495 97.7835ZM230.264 98.1331L231.094 84.4382L233.849 84.6052L238.953 94.6122L239.013 94.6158L239.598 84.9535L241.774 85.0854L240.944 98.7803L238.509 98.6327L233.125 87.9475L233.065 87.9439L232.44 98.2649L230.264 98.1331ZM244.164 98.9754L244.994 85.2805L253.538 85.7983L253.421 87.7347L247.332 87.3658L247.105 91.1189L251.836 91.4056L251.72 93.3221L246.989 93.0354L246.737 97.1877L252.946 97.564L252.828 99.5004L244.164 98.9754ZM260.63 95.3848L260.746 93.4683L266.236 93.8009L266.12 95.7174L260.63 95.3848ZM273.622 100.76L274.452 87.0655L279.243 87.3559C280.84 87.4526 282.023 87.885 282.791 88.6529C283.559 89.4207 283.902 90.4901 283.819 91.8609C283.734 93.2583 283.25 94.311 282.365 95.0188C281.495 95.7141 280.334 96.0177 278.884 95.9298L276.388 95.7786L276.077 100.909L273.622 100.76ZM276.5 93.942L278.536 94.0654C279.441 94.1202 280.105 93.9668 280.527 93.605C280.95 93.2432 281.186 92.6564 281.235 91.8446C281.289 90.9529 281.134 90.309 280.771 89.913C280.408 89.5169 279.774 89.2915 278.869 89.2367L276.792 89.1109L276.5 93.942ZM290.951 102.031C289.061 101.916 287.599 101.24 286.566 100.002C285.532 98.7638 285.082 97.0335 285.217 94.8109L285.244 94.3717C285.375 92.2023 286.043 90.553 287.247 89.4238C288.464 88.2953 290.024 87.7888 291.927 87.9041C293.804 88.0178 295.259 88.6937 296.292 89.9318C297.339 91.1708 297.796 92.9015 297.661 95.1241L297.634 95.5633C297.503 97.7327 296.828 99.3816 295.611 100.51C294.408 101.639 292.854 102.146 290.951 102.031ZM291.146 100.139C292.317 100.21 293.227 99.8446 293.877 99.0424C294.541 98.2277 294.916 97.1017 295.003 95.6644L295.044 94.9856C295.244 91.6983 294.126 89.9742 291.691 89.8133C290.533 89.7431 289.629 90.1091 288.98 90.9113C288.331 91.7002 287.963 92.8133 287.876 94.2507L287.833 94.9494C287.633 98.2633 288.737 99.9932 291.146 100.139ZM299.765 102.345L300.595 88.6497L303.051 88.7985L302.338 100.557L308.128 100.908L308.01 102.844L299.765 102.345ZM310.353 102.986L311.183 89.2913L313.658 89.4413L312.828 103.136L310.353 102.986ZM321.579 103.887C319.636 103.769 318.153 103.105 317.131 101.894C316.123 100.671 315.688 98.9281 315.825 96.6656L315.855 96.1665C315.996 93.8374 316.692 92.1631 317.943 91.1436C319.194 90.1107 320.778 89.6524 322.695 89.7685C324.105 89.854 325.235 90.1629 326.085 90.6952L325.969 92.6117C324.917 92.1205 323.845 91.8418 322.753 91.7757C320.118 91.616 318.709 93.0468 318.526 96.0679L318.484 96.7666C318.385 98.3903 318.624 99.6337 319.199 100.497C319.775 101.36 320.761 101.834 322.159 101.918C323.224 101.983 324.363 101.805 325.577 101.384L325.462 103.281C324.377 103.776 323.083 103.978 321.579 103.887ZM327.819 104.045L328.649 90.3497L337.194 90.8675L337.076 92.8039L330.987 92.4349L330.76 96.1881L335.491 96.4748L335.375 98.3913L330.644 98.1046L330.392 102.257L336.601 102.633L336.483 104.57L327.819 104.045ZM344.527 105.057L345.357 91.3621L347.812 91.5109L347.1 103.269L352.889 103.62L352.772 105.557L344.527 105.057ZM355.114 105.699L355.944 92.0037L358.42 92.1537L357.59 105.849L355.114 105.699ZM360.884 106.048L361.714 92.3533L364.468 92.5202L369.573 102.527L369.632 102.531L370.218 92.8686L372.394 93.0005L371.564 106.695L369.129 106.548L363.745 95.8626L363.685 95.859L363.06 106.18L360.884 106.048ZM374.784 106.89L375.614 93.1956L384.158 93.7133L384.041 95.6498L377.952 95.2808L377.725 99.0339L382.456 99.3206L382.34 101.237L377.608 100.95L377.357 105.103L383.565 105.479L383.448 107.415L374.784 106.89ZM391.25 103.3L391.366 101.383L396.856 101.716L396.74 103.632L391.25 103.3ZM404.242 108.675L405.072 94.9806L409.863 95.2709C411.46 95.3677 412.642 95.8001 413.411 96.5679C414.179 97.3358 414.522 98.4052 414.439 99.776C414.354 101.173 413.869 102.226 412.985 102.934C412.115 103.629 410.954 103.933 409.503 103.845L407.008 103.694L406.697 108.824L404.242 108.675ZM407.119 101.857L409.156 101.98C410.061 102.035 410.724 101.882 411.147 101.52C411.57 101.158 411.806 100.572 411.855 99.7597C411.909 98.868 411.754 98.2241 411.391 97.8281C411.027 97.432 410.393 97.2066 409.488 97.1517L407.412 97.0259L407.119 101.857ZM421.571 109.946C419.681 109.831 418.219 109.155 417.185 107.917C416.152 106.679 415.702 104.949 415.837 102.726L415.863 102.287C415.995 100.117 416.663 98.4681 417.866 97.3388C419.084 96.2104 420.644 95.7038 422.547 95.8192C424.423 95.9329 425.879 96.6088 426.912 97.8469C427.959 99.0858 428.415 100.817 428.281 103.039L428.254 103.478C428.123 105.648 427.448 107.297 426.231 108.425C425.027 109.554 423.474 110.061 421.571 109.946ZM421.765 108.054C422.937 108.125 423.847 107.76 424.497 106.957C425.161 106.143 425.536 105.017 425.623 103.579L425.664 102.901C425.863 99.6134 424.746 97.8893 422.311 97.7284C421.153 97.6582 420.249 98.0242 419.6 98.8264C418.951 99.6153 418.583 100.728 418.496 102.166L418.453 102.864C418.252 106.178 419.356 107.908 421.765 108.054ZM430.385 110.26L431.215 96.5648L433.67 96.7136L432.958 108.472L438.747 108.823L438.63 110.759L430.385 110.26ZM440.973 110.901L441.802 97.2064L444.278 97.3564L443.448 111.051L440.973 110.901ZM452.198 111.802C450.255 111.684 448.773 111.02 447.751 109.809C446.743 108.586 446.308 106.843 446.445 104.581L446.475 104.082C446.616 101.753 447.312 100.078 448.563 99.0587C449.814 98.0258 451.398 97.5674 453.314 97.6836C454.725 97.769 455.855 98.078 456.705 98.6103L456.588 100.527C455.536 100.036 454.465 99.7569 453.373 99.6908C450.738 99.5311 449.329 100.962 449.146 103.983L449.103 104.682C449.005 106.305 449.244 107.549 449.819 108.412C450.395 109.275 451.381 109.749 452.779 109.833C453.843 109.898 454.983 109.72 456.197 109.299L456.082 111.196C454.997 111.691 453.702 111.893 452.198 111.802ZM458.439 111.96L459.269 98.2648L467.813 98.7825L467.696 100.719L461.607 100.35L461.38 104.103L466.111 104.39L465.995 106.306L461.264 106.02L461.012 110.172L467.221 110.548L467.103 112.485L458.439 111.96ZM475.147 112.972L475.977 99.2772L478.432 99.426L477.72 111.184L483.509 111.535L483.392 113.472L475.147 112.972ZM485.734 113.614L486.564 99.9188L489.04 100.069L488.21 113.764L485.734 113.614ZM491.503 113.963L492.333 100.268L495.088 100.435L500.192 110.442L500.252 110.446L500.838 100.784L503.014 100.916L502.184 114.61L499.748 114.463L494.365 103.778L494.305 103.774L493.679 114.095L491.503 113.963ZM505.404 114.806L506.234 101.111L514.778 101.628L514.661 103.565L508.572 103.196L508.344 106.949L513.076 107.236L512.96 109.152L508.228 108.866L507.977 113.018L514.185 113.394L514.068 115.331L505.404 114.806ZM521.869 111.215L521.985 109.298L527.475 109.631L527.359 111.548L521.869 111.215ZM534.861 116.591L535.691 102.896L540.482 103.186C542.08 103.283 543.262 103.715 544.031 104.483C544.799 105.251 545.141 106.32 545.058 107.691C544.974 109.088 544.489 110.141 543.605 110.849C542.734 111.544 541.574 111.848 540.123 111.76L537.628 111.609L537.317 116.739L534.861 116.591ZM537.739 109.772L539.775 109.896C540.68 109.95 541.344 109.797 541.767 109.435C542.19 109.073 542.425 108.487 542.475 107.675C542.529 106.783 542.374 106.139 542.011 105.743C541.647 105.347 541.013 105.122 540.108 105.067L538.032 104.941L537.739 109.772ZM552.19 117.861C550.3 117.747 548.839 117.07 547.805 115.832C546.771 114.594 546.322 112.864 546.457 110.641L546.483 110.202C546.615 108.032 547.282 106.383 548.486 105.254C549.703 104.125 551.263 103.619 553.167 103.734C555.043 103.848 556.498 104.524 557.532 105.762C558.579 107.001 559.035 108.732 558.9 110.954L558.874 111.393C558.742 113.563 558.068 115.212 556.851 116.34C555.647 117.469 554.094 117.976 552.19 117.861ZM552.385 115.969C553.556 116.04 554.467 115.675 555.116 114.873C555.78 114.058 556.156 112.932 556.243 111.495L556.284 110.816C556.483 107.528 555.365 105.804 552.931 105.643C551.773 105.573 550.869 105.939 550.219 106.741C549.57 107.53 549.202 108.643 549.115 110.081L549.073 110.78C548.872 114.093 549.976 115.823 552.385 115.969ZM561.005 118.175L561.835 104.48L564.29 104.629L563.578 116.387L569.367 116.738L569.25 118.674L561.005 118.175ZM571.592 118.816L572.422 105.121L574.898 105.271L574.068 118.966L571.592 118.816ZM582.818 119.717C580.875 119.599 579.393 118.935 578.371 117.724C577.363 116.501 576.927 114.758 577.064 112.496L577.095 111.997C577.236 109.668 577.932 107.993 579.182 106.974C580.434 105.941 582.018 105.483 583.934 105.599C585.345 105.684 586.475 105.993 587.324 106.525L587.208 108.442C586.156 107.951 585.084 107.672 583.993 107.606C581.358 107.446 579.949 108.877 579.766 111.898L579.723 112.597C579.625 114.22 579.863 115.464 580.439 116.327C581.014 117.19 582.001 117.664 583.398 117.748C584.463 117.813 585.603 117.635 586.817 117.214L586.702 119.111C585.617 119.606 584.322 119.808 582.818 119.717ZM589.059 119.875L589.889 106.18L598.433 106.698L598.316 108.634L592.227 108.265L591.999 112.018L596.731 112.305L596.615 114.221L591.883 113.935L591.632 118.087L597.84 118.463L597.723 120.4L589.059 119.875ZM605.767 120.887L606.596 107.192L609.052 107.341L608.339 119.1L614.129 119.45L614.011 121.387L605.767 120.887ZM616.354 121.529L617.184 107.834L619.659 107.984L618.829 121.679L616.354 121.529ZM622.123 121.878L622.953 108.183L625.708 108.35L630.812 118.357L630.872 118.361L631.457 108.699L633.633 108.831L632.804 122.526L630.368 122.378L624.985 111.693L624.925 111.689L624.299 122.01L622.123 121.878ZM636.024 122.721L636.853 109.026L645.398 109.543L645.28 111.48L639.192 111.111L638.964 114.864L643.695 115.151L643.579 117.067L638.848 116.781L638.596 120.933L644.805 121.309L644.688 123.246L636.024 122.721ZM652.489 119.13L652.605 117.213L658.095 117.546L657.979 119.463L652.489 119.13ZM665.481 124.506L666.311 110.811L671.102 111.101C672.699 111.198 673.882 111.63 674.65 112.398C675.419 113.166 675.761 114.235 675.678 115.606C675.593 117.004 675.109 118.056 674.224 118.764C673.354 119.459 672.194 119.763 670.743 119.675L668.248 119.524L667.937 124.654L665.481 124.506ZM668.359 117.687L670.395 117.811C671.3 117.865 671.964 117.712 672.387 117.35C672.809 116.988 673.045 116.402 673.094 115.59C673.148 114.698 672.994 114.054 672.63 113.658C672.267 113.262 671.633 113.037 670.728 112.982L668.652 112.856L668.359 117.687ZM682.81 125.776C680.92 125.662 679.459 124.985 678.425 123.747C677.391 122.509 676.942 120.779 677.076 118.556L677.103 118.117C677.234 115.948 677.902 114.298 679.106 113.169C680.323 112.041 681.883 111.534 683.786 111.649C685.663 111.763 687.118 112.439 688.152 113.677C689.199 114.916 689.655 116.647 689.52 118.869L689.494 119.309C689.362 121.478 688.688 123.127 687.471 124.255C686.267 125.384 684.713 125.891 682.81 125.776ZM683.005 123.884C684.176 123.955 685.087 123.59 685.736 122.788C686.4 121.973 686.776 120.847 686.863 119.41L686.904 118.731C687.103 115.444 685.985 113.719 683.55 113.559C682.393 113.488 681.489 113.854 680.839 114.657C680.19 115.445 679.822 116.559 679.735 117.996L679.693 118.695C679.492 122.009 680.596 123.738 683.005 123.884ZM691.625 126.09L692.455 112.395L694.91 112.544L694.197 124.302L699.987 124.653L699.87 126.589L691.625 126.09ZM702.212 126.731L703.042 113.037L705.517 113.187L704.688 126.881L702.212 126.731ZM713.438 127.632C711.495 127.514 710.012 126.85 708.99 125.639C707.983 124.416 707.547 122.673 707.684 120.411L707.715 119.912C707.856 117.583 708.552 115.908 709.802 114.889C711.054 113.856 712.638 113.398 714.554 113.514C715.965 113.599 717.095 113.908 717.944 114.44L717.828 116.357C716.776 115.866 715.704 115.587 714.613 115.521C711.978 115.361 710.568 116.792 710.385 119.813L710.343 120.512C710.245 122.136 710.483 123.379 711.059 124.242C711.634 125.105 712.621 125.579 714.018 125.664C715.083 125.728 716.222 125.55 717.437 125.129L717.322 127.026C716.237 127.521 714.942 127.723 713.438 127.632ZM719.679 127.79L720.509 114.095L729.053 114.613L728.935 116.549L722.847 116.18L722.619 119.933L727.351 120.22L727.234 122.136L722.503 121.85L722.251 126.002L728.46 126.378L728.343 128.315L719.679 127.79ZM736.386 128.802L737.216 115.107L739.672 115.256L738.959 127.015L744.749 127.365L744.631 129.302L736.386 128.802ZM746.974 129.444L747.804 115.749L750.279 115.899L749.449 129.594L746.974 129.444ZM752.743 129.793L753.573 116.099L756.328 116.265L761.432 126.272L761.492 126.276L762.077 116.614L764.253 116.746L763.423 130.441L760.988 130.293L755.604 119.608L755.544 119.604L754.919 129.925L752.743 129.793ZM766.643 130.636L767.473 116.941L776.017 117.459L775.9 119.395L769.811 119.026L769.584 122.779L774.315 123.066L774.199 124.982L769.468 124.696L769.216 128.848L775.425 129.224L775.307 131.161L766.643 130.636ZM783.109 127.045L783.225 125.129L788.715 125.461L788.599 127.378L783.109 127.045ZM796.101 132.421L796.931 118.726L801.722 119.016C803.319 119.113 804.502 119.545 805.27 120.313C806.038 121.081 806.381 122.15 806.298 123.521C806.213 124.919 805.729 125.971 804.844 126.679C803.974 127.374 802.813 127.678 801.363 127.59L798.867 127.439L798.556 132.57L796.101 132.421ZM798.979 125.602L801.015 125.726C801.92 125.781 802.584 125.627 803.006 125.265C803.429 124.904 803.665 124.317 803.714 123.505C803.768 122.613 803.614 121.969 803.25 121.573C802.887 121.177 802.253 120.952 801.348 120.897L799.271 120.771L798.979 125.602ZM813.43 133.691C811.54 133.577 810.078 132.9 809.045 131.662C808.011 130.424 807.561 128.694 807.696 126.471L807.723 126.032C807.854 123.863 808.522 122.213 809.726 121.084C810.943 119.956 812.503 119.449 814.406 119.564C816.283 119.678 817.738 120.354 818.772 121.592C819.818 122.831 820.275 124.562 820.14 126.784L820.113 127.224C819.982 129.393 819.308 131.042 818.09 132.17C816.887 133.3 815.333 133.807 813.43 133.691ZM813.625 131.8C814.796 131.87 815.706 131.505 816.356 130.703C817.02 129.888 817.395 128.762 817.482 127.325L817.524 126.646C817.723 123.359 816.605 121.634 814.17 121.474C813.012 121.403 812.109 121.769 811.459 122.572C810.81 123.36 810.442 124.474 810.355 125.911L810.313 126.61C810.112 129.924 811.216 131.654 813.625 131.8ZM822.244 134.005L823.074 120.31L825.53 120.459L824.817 132.217L830.607 132.568L830.489 134.505L822.244 134.005ZM832.832 134.646L833.662 120.952L836.137 121.102L835.307 134.796L832.832 134.646ZM844.058 135.547C842.115 135.429 840.632 134.765 839.61 133.554C838.602 132.331 838.167 130.588 838.304 128.326L838.334 127.827C838.475 125.498 839.171 123.823 840.422 122.804C841.673 121.771 843.257 121.313 845.174 121.429C846.585 121.514 847.715 121.823 848.564 122.356L848.448 124.272C847.396 123.781 846.324 123.502 845.232 123.436C842.597 123.276 841.188 124.707 841.005 127.728L840.963 128.427C840.864 130.051 841.103 131.294 841.678 132.157C842.254 133.02 843.24 133.494 844.638 133.579C845.703 133.643 846.842 133.465 848.056 133.044L847.942 134.941C846.856 135.436 845.562 135.638 844.058 135.547ZM850.298 135.705L851.128 122.01L859.673 122.528L859.555 124.464L853.466 124.095L853.239 127.848L857.97 128.135L857.854 130.052L853.123 129.765L852.871 133.917L859.08 134.293L858.963 136.23L850.298 135.705ZM867.006 136.717L867.836 123.022L870.291 123.171L869.579 134.93L875.368 135.28L875.251 137.217L867.006 136.717ZM877.594 137.359L878.423 123.664L880.899 123.814L880.069 137.509L877.594 137.359ZM883.363 137.708L884.193 124.014L886.948 124.181L892.052 134.188L892.112 134.191L892.697 124.529L894.873 124.661L894.043 138.356L891.608 138.208L886.224 127.523L886.164 127.519L885.539 137.84L883.363 137.708ZM897.263 138.551L898.093 124.856L906.637 125.374L906.52 127.31L900.431 126.941L900.204 130.694L904.935 130.981L904.819 132.897L900.088 132.611L899.836 136.763L906.045 137.139L905.927 139.076L897.263 138.551ZM913.729 134.96L913.845 133.044L919.335 133.376L919.219 135.293L913.729 134.96ZM926.721 140.336L927.551 126.641L932.342 126.931C933.939 127.028 935.122 127.46 935.89 128.228C936.658 128.996 937.001 130.065 936.918 131.436C936.833 132.834 936.348 133.886 935.464 134.594C934.594 135.289 933.433 135.593 931.983 135.505L929.487 135.354L929.176 140.485L926.721 140.336ZM929.598 133.517L931.635 133.641C932.54 133.696 933.204 133.542 933.626 133.18C934.049 132.819 934.285 132.232 934.334 131.42C934.388 130.528 934.233 129.884 933.87 129.488C933.507 129.092 932.872 128.867 931.967 128.812L929.891 128.686L929.598 133.517ZM944.05 141.606C942.16 141.492 940.698 140.815 939.664 139.577C938.631 138.339 938.181 136.609 938.316 134.386L938.343 133.947C938.474 131.778 939.142 130.128 940.345 128.999C941.563 127.871 943.123 127.364 945.026 127.479C946.902 127.593 948.358 128.269 949.391 129.507C950.438 130.746 950.894 132.477 950.76 134.699L950.733 135.139C950.602 137.308 949.927 138.957 948.71 140.085C947.506 141.215 945.953 141.722 944.05 141.606ZM944.244 139.715C945.416 139.786 946.326 139.42 946.976 138.618C947.64 137.803 948.015 136.677 948.102 135.24L948.143 134.561C948.343 131.274 947.225 129.55 944.79 129.389C943.632 129.319 942.728 129.685 942.079 130.487C941.43 131.276 941.062 132.389 940.975 133.826L940.932 134.525C940.731 137.839 941.836 139.569 944.244 139.715ZM952.864 141.92L953.694 128.225L956.15 128.374L955.437 140.132L961.226 140.483L961.109 142.42L952.864 141.92ZM963.452 142.562L964.282 128.867L966.757 129.017L965.927 142.712L963.452 142.562ZM974.678 143.462C972.734 143.344 971.252 142.68 970.23 141.47C969.222 140.246 968.787 138.503 968.924 136.241L968.954 135.742C969.095 133.413 969.791 131.739 971.042 130.719C972.293 129.686 973.877 129.228 975.794 129.344C977.204 129.429 978.334 129.738 979.184 130.271L979.068 132.187C978.015 131.696 976.944 131.417 975.852 131.351C973.217 131.191 971.808 132.622 971.625 135.643L971.583 136.342C971.484 137.966 971.723 139.209 972.298 140.072C972.874 140.935 973.86 141.409 975.258 141.494C976.322 141.558 977.462 141.38 978.676 140.959L978.561 142.856C977.476 143.351 976.181 143.553 974.678 143.462ZM980.918 143.62L981.748 129.925L990.292 130.443L990.175 132.379L984.086 132.01L983.859 135.763L988.59 136.05L988.474 137.967L983.743 137.68L983.491 141.832L989.7 142.209L989.582 144.145L980.918 143.62ZM997.626 144.632L998.456 130.938L1000.91 131.086L1000.2 142.845L1005.99 143.196L1005.87 145.132L997.626 144.632ZM1008.21 145.274L1009.04 131.579L1011.52 131.729L1010.69 145.424L1008.21 145.274ZM1013.98 145.624L1014.81 131.929L1017.57 132.096L1022.67 142.103L1022.73 142.106L1023.32 132.444L1025.49 132.576L1024.66 146.271L1022.23 146.123L1016.84 135.438L1016.78 135.434L1016.16 145.755L1013.98 145.624ZM1027.88 146.466L1028.71 132.771L1037.26 133.289L1037.14 135.225L1031.05 134.856L1030.82 138.609L1035.55 138.896L1035.44 140.813L1030.71 140.526L1030.46 144.678L1036.66 145.054L1036.55 146.991L1027.88 146.466ZM1044.35 142.875L1044.46 140.959L1049.95 141.291L1049.84 143.208L1044.35 142.875ZM1057.34 148.251L1058.17 134.556L1062.96 134.846C1064.56 134.943 1065.74 135.375 1066.51 136.143C1067.28 136.911 1067.62 137.981 1067.54 139.351C1067.45 140.749 1066.97 141.801 1066.08 142.509C1065.21 143.204 1064.05 143.508 1062.6 143.42L1060.11 143.269L1059.8 148.4L1057.34 148.251ZM1060.22 141.432L1062.25 141.556C1063.16 141.611 1063.82 141.457 1064.25 141.095C1064.67 140.734 1064.9 140.147 1064.95 139.335C1065.01 138.443 1064.85 137.799 1064.49 137.403C1064.13 137.007 1063.49 136.782 1062.59 136.727L1060.51 136.601L1060.22 141.432ZM1074.67 149.521C1072.78 149.407 1071.32 148.731 1070.28 147.492C1069.25 146.254 1068.8 144.524 1068.94 142.301L1068.96 141.862C1069.09 139.693 1069.76 138.043 1070.97 136.914C1072.18 135.786 1073.74 135.279 1075.65 135.395C1077.52 135.508 1078.98 136.184 1080.01 137.422C1081.06 138.661 1081.51 140.392 1081.38 142.615L1081.35 143.054C1081.22 145.223 1080.55 146.872 1079.33 148C1078.13 149.13 1076.57 149.637 1074.67 149.521ZM1074.86 147.63C1076.04 147.701 1076.95 147.335 1077.6 146.533C1078.26 145.718 1078.63 144.592 1078.72 143.155L1078.76 142.476C1078.96 139.189 1077.84 137.465 1075.41 137.304C1074.25 137.234 1073.35 137.6 1072.7 138.402C1072.05 139.191 1071.68 140.304 1071.59 141.741L1071.55 142.44C1071.35 145.754 1072.46 147.484 1074.86 147.63ZM1083.48 149.835L1084.31 136.14L1086.77 136.289L1086.06 148.047L1091.85 148.398L1091.73 150.335L1083.48 149.835ZM1094.07 150.477L1094.9 136.782L1097.38 136.932L1096.55 150.627L1094.07 150.477ZM1105.3 151.377C1103.35 151.26 1101.87 150.595 1100.85 149.385C1099.84 148.161 1099.41 146.419 1099.54 144.156L1099.57 143.657C1099.71 141.328 1100.41 139.654 1101.66 138.634C1102.91 137.601 1104.5 137.143 1106.41 137.259C1107.82 137.344 1108.95 137.653 1109.8 138.186L1109.69 140.102C1108.64 139.611 1107.56 139.332 1106.47 139.266C1103.84 139.106 1102.43 140.537 1102.24 143.558L1102.2 144.257C1102.1 145.881 1102.34 147.124 1102.92 147.987C1103.49 148.85 1104.48 149.324 1105.88 149.409C1106.94 149.473 1108.08 149.295 1109.3 148.875L1109.18 150.771C1108.1 151.266 1106.8 151.468 1105.3 151.377ZM1111.54 151.535L1112.37 137.84L1120.91 138.358L1120.79 140.294L1114.71 139.925L1114.48 143.679L1119.21 143.965L1119.09 145.882L1114.36 145.595L1114.11 149.747L1120.32 150.124L1120.2 152.06L1111.54 151.535ZM1128.25 152.547L1129.08 138.853L1131.53 139.001L1130.82 150.76L1136.61 151.111L1136.49 153.047L1128.25 152.547ZM1138.83 153.189L1139.66 139.494L1142.14 139.644L1141.31 153.339L1138.83 153.189ZM1144.6 153.539L1145.43 139.844L1148.19 140.011L1153.29 150.018L1153.35 150.021L1153.94 140.359L1156.11 140.491L1155.28 154.186L1152.85 154.038L1147.46 143.353L1147.4 143.349L1146.78 153.67L1144.6 153.539ZM1158.5 154.381L1159.33 140.686L1167.88 141.204L1167.76 143.14L1161.67 142.771L1161.44 146.524L1166.17 146.811L1166.06 148.728L1161.33 148.441L1161.08 152.593L1167.28 152.969L1167.17 154.906L1158.5 154.381ZM1174.97 150.79L1175.08 148.874L1180.57 149.206L1180.46 151.123L1174.97 150.79ZM1187.96 156.166L1188.79 142.471L1193.58 142.761C1195.18 142.858 1196.36 143.29 1197.13 144.058C1197.9 144.826 1198.24 145.896 1198.16 147.266C1198.07 148.664 1197.59 149.716 1196.7 150.424C1195.83 151.12 1194.67 151.423 1193.22 151.335L1190.73 151.184L1190.42 156.315L1187.96 156.166ZM1190.84 149.348L1192.87 149.471C1193.78 149.526 1194.44 149.372 1194.87 149.011C1195.29 148.649 1195.52 148.062 1195.57 147.25C1195.63 146.358 1195.47 145.715 1195.11 145.319C1194.75 144.922 1194.11 144.697 1193.21 144.642L1191.13 144.516L1190.84 149.348ZM1205.29 157.436C1203.4 157.322 1201.94 156.646 1200.9 155.407C1199.87 154.169 1199.42 152.439 1199.56 150.216L1199.58 149.777C1199.71 147.608 1200.38 145.959 1201.58 144.829C1202.8 143.701 1204.36 143.194 1206.27 143.31C1208.14 143.423 1209.6 144.099 1210.63 145.337C1211.68 146.576 1212.13 148.307 1212 150.53L1211.97 150.969C1211.84 153.138 1211.17 154.787 1209.95 155.916C1208.75 157.045 1207.19 157.552 1205.29 157.436ZM1205.48 155.545C1206.66 155.616 1207.57 155.25 1208.22 154.448C1208.88 153.633 1209.25 152.507 1209.34 151.07L1209.38 150.391C1209.58 147.104 1208.46 145.38 1206.03 145.219C1204.87 145.149 1203.97 145.515 1203.32 146.317C1202.67 147.106 1202.3 148.219 1202.21 149.656L1202.17 150.355C1201.97 153.669 1203.08 155.399 1205.48 155.545ZM1214.1 157.75L1214.93 144.055L1217.39 144.204L1216.68 155.962L1222.47 156.313L1222.35 158.25L1214.1 157.75ZM1224.69 158.392L1225.52 144.697L1228 144.847L1227.17 158.542L1224.69 158.392ZM1235.92 159.292C1233.97 159.175 1232.49 158.51 1231.47 157.3C1230.46 156.076 1230.03 154.334 1230.16 152.071L1230.19 151.572C1230.33 149.243 1231.03 147.569 1232.28 146.549C1233.53 145.516 1235.12 145.058 1237.03 145.174C1238.44 145.259 1239.57 145.568 1240.42 146.101L1240.31 148.017C1239.25 147.526 1238.18 147.247 1237.09 147.181C1234.46 147.022 1233.05 148.452 1232.86 151.473L1232.82 152.172C1232.72 153.796 1232.96 155.039 1233.54 155.902C1234.11 156.765 1235.1 157.239 1236.5 157.324C1237.56 157.388 1238.7 157.21 1239.92 156.79L1239.8 158.686C1238.72 159.181 1237.42 159.383 1235.92 159.292ZM1242.16 159.45L1242.99 145.755L1251.53 146.273L1251.41 148.209L1245.33 147.84L1245.1 151.594L1249.83 151.88L1249.71 153.797L1244.98 153.51L1244.73 157.662L1250.94 158.039L1250.82 159.975L1242.16 159.45ZM1258.87 160.463L1259.7 146.768L1262.15 146.916L1261.44 158.675L1267.23 159.026L1267.11 160.962L1258.87 160.463ZM1269.45 161.104L1270.28 147.409L1272.76 147.559L1271.93 161.254L1269.45 161.104ZM1275.22 161.454L1276.05 147.759L1278.81 147.926L1283.91 157.933L1283.97 157.936L1284.56 148.274L1286.73 148.406L1285.9 162.101L1283.47 161.953L1278.08 151.268L1278.02 151.264L1277.4 161.586L1275.22 161.454ZM1289.12 162.296L1289.95 148.601L1298.5 149.119L1298.38 151.055L1292.29 150.686L1292.06 154.439L1296.79 154.726L1296.68 156.643L1291.95 156.356L1291.7 160.508L1297.9 160.885L1297.79 162.821L1289.12 162.296ZM1305.59 158.705L1305.7 156.789L1311.19 157.122L1311.08 159.038L1305.59 158.705ZM1318.58 164.081L1319.41 150.386L1324.2 150.676C1325.8 150.773 1326.98 151.206 1327.75 151.973C1328.52 152.741 1328.86 153.811 1328.78 155.181C1328.69 156.579 1328.21 157.632 1327.32 158.339C1326.45 159.035 1325.29 159.338 1323.84 159.25L1321.35 159.099L1321.04 164.23L1318.58 164.081ZM1321.46 157.263L1323.49 157.386C1324.4 157.441 1325.06 157.287 1325.49 156.926C1325.91 156.564 1326.14 155.977 1326.19 155.165C1326.25 154.273 1326.09 153.63 1325.73 153.234C1325.37 152.838 1324.73 152.612 1323.83 152.557L1321.75 152.431L1321.46 157.263ZM1335.91 165.351C1334.02 165.237 1332.56 164.561 1331.52 163.323C1330.49 162.084 1330.04 160.354 1330.18 158.131L1330.2 157.692C1330.33 155.523 1331 153.874 1332.2 152.744C1333.42 151.616 1334.98 151.109 1336.89 151.225C1338.76 151.338 1340.22 152.014 1341.25 153.252C1342.3 154.491 1342.75 156.222 1342.62 158.445L1342.59 158.884C1342.46 161.053 1341.79 162.702 1340.57 163.831C1339.37 164.96 1337.81 165.467 1335.91 165.351ZM1336.1 163.46C1337.27 163.531 1338.19 163.165 1338.84 162.363C1339.5 161.548 1339.87 160.422 1339.96 158.985L1340 158.306C1340.2 155.019 1339.08 153.295 1336.65 153.134C1335.49 153.064 1334.59 153.43 1333.94 154.232C1333.29 155.021 1332.92 156.134 1332.83 157.571L1332.79 158.27C1332.59 161.584 1333.69 163.314 1336.1 163.46ZM1344.72 165.665L1345.55 151.97L1348.01 152.119L1347.3 163.878L1353.09 164.228L1352.97 166.165L1344.72 165.665ZM1355.31 166.307L1356.14 152.612L1358.62 152.762L1357.79 166.457L1355.31 166.307ZM1366.54 167.207C1364.59 167.09 1363.11 166.425 1362.09 165.215C1361.08 163.992 1360.65 162.249 1360.78 159.986L1360.81 159.487C1360.95 157.158 1361.65 155.484 1362.9 154.464C1364.15 153.431 1365.74 152.973 1367.65 153.089C1369.06 153.175 1370.19 153.483 1371.04 154.016L1370.93 155.932C1369.87 155.441 1368.8 155.162 1367.71 155.096C1365.08 154.937 1363.67 156.367 1363.48 159.388L1363.44 160.087C1363.34 161.711 1363.58 162.954 1364.16 163.817C1364.73 164.68 1365.72 165.154 1367.12 165.239C1368.18 165.303 1369.32 165.125 1370.54 164.705L1370.42 166.601C1369.34 167.096 1368.04 167.299 1366.54 167.207ZM1372.78 167.365L1373.61 153.67L1382.15 154.188L1382.03 156.125L1375.95 155.756L1375.72 159.509L1380.45 159.795L1380.33 161.712L1375.6 161.425L1375.35 165.578L1381.56 165.954L1381.44 167.89L1372.78 167.365ZM1389.49 168.378L1390.32 154.683L1392.77 154.832L1392.06 166.59L1397.85 166.941L1397.73 168.877L1389.49 168.378ZM1400.07 169.019L1400.9 155.324L1403.38 155.474L1402.55 169.169L1400.07 169.019ZM1405.84 169.369L1406.67 155.674L1409.43 155.841L1414.53 165.848L1414.59 165.851L1415.18 156.189L1417.35 156.321L1416.52 170.016L1414.09 169.868L1408.7 159.183L1408.64 159.18L1408.02 169.501L1405.84 169.369ZM1419.74 170.211L1420.57 156.516L1429.12 157.034L1429 158.97L1422.91 158.601L1422.68 162.355L1427.41 162.641L1427.3 164.558L1422.57 164.271L1422.31 168.423L1428.52 168.8L1428.41 170.736L1419.74 170.211ZM1436.21 166.62L1436.32 164.704L1441.81 165.037L1441.7 166.953L1436.21 166.62ZM1449.2 171.996L1450.03 158.301L1454.82 158.592C1456.42 158.688 1457.6 159.121 1458.37 159.889C1459.14 160.656 1459.48 161.726 1459.4 163.097C1459.31 164.494 1458.83 165.547 1457.94 166.254C1457.07 166.95 1455.91 167.253 1454.46 167.166L1451.97 167.014L1451.66 172.145L1449.2 171.996ZM1452.08 165.178L1454.11 165.301C1455.02 165.356 1455.68 165.202 1456.11 164.841C1456.53 164.479 1456.76 163.892 1456.81 163.08C1456.87 162.189 1456.71 161.545 1456.35 161.149C1455.99 160.753 1455.35 160.527 1454.45 160.472L1452.37 160.347L1452.08 165.178ZM1466.53 173.267C1464.64 173.152 1463.18 172.476 1462.14 171.238C1461.11 169.999 1460.66 168.269 1460.79 166.047L1460.82 165.607C1460.95 163.438 1461.62 161.789 1462.82 160.659C1464.04 159.531 1465.6 159.024 1467.51 159.14C1469.38 159.253 1470.84 159.929 1471.87 161.168C1472.92 162.406 1473.37 164.137 1473.24 166.36L1473.21 166.799C1473.08 168.968 1472.41 170.617 1471.19 171.746C1469.99 172.875 1468.43 173.382 1466.53 173.267ZM1466.72 171.375C1467.89 171.446 1468.81 171.08 1469.45 170.278C1470.12 169.463 1470.49 168.337 1470.58 166.9L1470.62 166.221C1470.82 162.934 1469.7 161.21 1467.27 161.049C1466.11 160.979 1465.21 161.345 1464.56 162.147C1463.91 162.936 1463.54 164.049 1463.45 165.486L1463.41 166.185C1463.21 169.499 1464.31 171.229 1466.72 171.375ZM1475.34 173.58L1476.17 159.885L1478.63 160.034L1477.92 171.793L1483.71 172.143L1483.59 174.08L1475.34 173.58ZM1485.93 174.222L1486.76 160.527L1489.24 160.677L1488.41 174.372L1485.93 174.222ZM1497.16 175.123C1495.21 175.005 1493.73 174.341 1492.71 173.13C1491.7 171.907 1491.27 170.164 1491.4 167.901L1491.43 167.402C1491.57 165.073 1492.27 163.399 1493.52 162.379C1494.77 161.346 1496.36 160.888 1498.27 161.004C1499.68 161.09 1500.81 161.399 1501.66 161.931L1501.55 163.847C1500.49 163.356 1499.42 163.078 1498.33 163.011C1495.7 162.852 1494.29 164.282 1494.1 167.304L1494.06 168.002C1493.96 169.626 1494.2 170.869 1494.78 171.732C1495.35 172.595 1496.34 173.069 1497.74 173.154C1498.8 173.219 1499.94 173.04 1501.16 172.62L1501.04 174.516C1499.96 175.012 1498.66 175.214 1497.16 175.123ZM1503.4 175.28L1504.23 161.585L1512.77 162.103L1512.65 164.04L1506.57 163.671L1506.34 167.424L1511.07 167.71L1510.95 169.627L1506.22 169.34L1505.97 173.493L1512.18 173.869L1512.06 175.805L1503.4 175.28ZM1520.1 176.293L1520.93 162.598L1523.39 162.747L1522.68 174.505L1528.47 174.856L1528.35 176.792L1520.1 176.293ZM1530.69 176.934L1531.52 163.239L1534 163.389L1533.17 177.084L1530.69 176.934ZM1536.46 177.284L1537.29 163.589L1540.05 163.756L1545.15 173.763L1545.21 173.767L1545.8 164.104L1547.97 164.236L1547.14 177.931L1544.71 177.783L1539.32 167.098L1539.26 167.095L1538.64 177.416L1536.46 177.284ZM1550.36 178.126L1551.19 164.431L1559.74 164.949L1559.62 166.885L1553.53 166.517L1553.3 170.27L1558.03 170.556L1557.92 172.473L1553.19 172.186L1552.93 176.338L1559.14 176.715L1559.03 178.651L1550.36 178.126ZM1566.83 174.535L1566.94 172.619L1572.43 172.952L1572.32 174.868L1566.83 174.535Z" fill="black"/>
</g>
</svg>
