<svg width="823" height="550" viewBox="0 0 823 550" fill="none" xmlns="http://www.w3.org/2000/svg">
<path d="M11.1445 527.984C11.2539 527.984 12.0117 526.469 13.418 523.438C14.8242 520.398 15.6914 518.629 16.0195 518.129C16.3477 517.629 16.7266 517.293 17.1562 517.121C17.5859 516.941 18.2695 516.852 19.207 516.852C20.1523 516.852 20.625 517.07 20.625 517.508L20.3438 517.859L19.9805 518.246C19.7461 518.551 19.5781 518.906 19.4766 519.312C19.3828 519.711 19.3359 520.371 19.3359 521.293C19.3359 525.215 19.4375 528.074 19.6406 529.871C19.7188 530.574 19.9727 531.129 20.4023 531.535C20.832 531.934 21.0469 532.199 21.0469 532.332L20.7539 532.543C20.3789 532.715 19.6406 532.801 18.5391 532.801C17.4375 532.801 16.7461 532.656 16.4648 532.367L16.3477 532.109C16.3477 531.883 16.4336 531.418 16.6055 530.715C16.7773 530.004 16.8633 529.297 16.8633 528.594C16.8633 523.469 16.6992 520.906 16.3711 520.906C16.207 520.906 15.4609 522.492 14.1328 525.664C12.8047 528.836 11.9883 530.699 11.6836 531.254C11.3867 531.801 10.9922 532.074 10.5 532.074C10.1562 532.074 9.21484 530.199 7.67578 526.449C6.14453 522.691 5.24609 520.812 4.98047 520.812C4.76172 520.812 4.65234 522.73 4.65234 526.566C4.65234 528.27 4.67969 529.316 4.73438 529.707C4.78906 530.098 4.87891 530.566 5.00391 531.113C5.13672 531.66 5.20312 532.023 5.20312 532.203C5.20312 532.383 5.08203 532.531 4.83984 532.648C4.59766 532.766 4.28516 532.824 3.90234 532.824H3.25781C1.96875 532.824 1.32422 532.66 1.32422 532.332C1.32422 532.168 1.54297 531.898 1.98047 531.523C2.42578 531.141 2.68359 530.812 2.75391 530.539C2.83203 530.258 2.93359 528.852 3.05859 526.32C3.18359 523.781 3.24609 522.059 3.24609 521.152C3.24609 520.246 3.19141 519.617 3.08203 519.266C2.97266 518.906 2.71875 518.531 2.32031 518.141C1.92969 517.75 1.73438 517.453 1.73438 517.25C1.73438 517 2.45703 516.875 3.90234 516.875C4.45703 516.875 4.9375 516.953 5.34375 517.109C5.75 517.258 6.14844 517.621 6.53906 518.199C6.9375 518.77 7.76562 520.543 9.02344 523.52C10.2812 526.496 10.9883 527.984 11.1445 527.984ZM33.5273 516.676C34.9258 516.676 35.625 517.461 35.625 519.031C35.625 519.445 35.5352 519.652 35.3555 519.652C35.2539 519.652 35.0117 519.539 34.6289 519.312C34.2539 519.078 33.9414 518.918 33.6914 518.832C32.582 518.449 31.5977 518.258 30.7383 518.258C29.8789 518.258 29.2891 518.469 28.9688 518.891C28.5234 519.477 28.3008 520.555 28.3008 522.125C28.3008 522.688 28.4922 523.105 28.875 523.379C29.2578 523.652 29.6953 523.789 30.1875 523.789C30.6875 523.789 31.1914 523.621 31.6992 523.285C32.2148 522.941 32.4766 522.77 32.4844 522.77C32.875 522.77 33.1406 522.922 33.2812 523.227C33.4297 523.531 33.5039 524.027 33.5039 524.715C33.5039 525.926 33.2266 526.531 32.6719 526.531C32.5234 526.531 32.2148 526.344 31.7461 525.969C31.2773 525.586 30.7812 525.395 30.2578 525.395C29.3594 525.395 28.7617 525.586 28.4648 525.969C28.2695 526.219 28.1719 526.969 28.1719 528.219C28.1719 529.469 28.3945 530.383 28.8398 530.961C29.0898 531.281 29.6875 531.441 30.6328 531.441C31.5781 531.441 32.6797 531.238 33.9375 530.832C34.2891 530.723 34.5703 530.594 34.7812 530.445C34.9922 530.297 35.207 530.141 35.4258 529.977C35.6445 529.805 35.7812 529.719 35.8359 529.719C36.1016 529.719 36.2344 529.852 36.2344 530.117V530.492C36.2344 531.094 36.1289 531.59 35.918 531.98C35.7148 532.363 35.5273 532.609 35.3555 532.719C35.0352 532.922 33.7617 533.023 31.5352 533.023H29.9883L29.4727 533.012C26.5273 533.012 24.8281 532.98 24.375 532.918C23.9219 532.848 23.6953 532.672 23.6953 532.391C23.6953 532.211 23.9062 531.984 24.3281 531.711C24.75 531.438 25.0234 531.094 25.1484 530.68C25.2734 530.266 25.3359 528.645 25.3359 525.816L25.3828 521.234C25.3828 519.734 25.2891 518.805 25.1016 518.445C25.0156 518.281 24.7734 518.094 24.375 517.883C23.9766 517.672 23.7773 517.484 23.7773 517.32C23.7773 517.008 24.0312 516.812 24.5391 516.734C24.75 516.703 26.4102 516.688 29.5195 516.688L33.0352 516.676H33.5273ZM48.5273 527.984C48.6367 527.984 49.3945 526.469 50.8008 523.438C52.207 520.398 53.0742 518.629 53.4023 518.129C53.7305 517.629 54.1094 517.293 54.5391 517.121C54.9688 516.941 55.6523 516.852 56.5898 516.852C57.5352 516.852 58.0078 517.07 58.0078 517.508L57.7266 517.859L57.3633 518.246C57.1289 518.551 56.9609 518.906 56.8594 519.312C56.7656 519.711 56.7188 520.371 56.7188 521.293C56.7188 525.215 56.8203 528.074 57.0234 529.871C57.1016 530.574 57.3555 531.129 57.7852 531.535C58.2148 531.934 58.4297 532.199 58.4297 532.332L58.1367 532.543C57.7617 532.715 57.0234 532.801 55.9219 532.801C54.8203 532.801 54.1289 532.656 53.8477 532.367L53.7305 532.109C53.7305 531.883 53.8164 531.418 53.9883 530.715C54.1602 530.004 54.2461 529.297 54.2461 528.594C54.2461 523.469 54.082 520.906 53.7539 520.906C53.5898 520.906 52.8438 522.492 51.5156 525.664C50.1875 528.836 49.3711 530.699 49.0664 531.254C48.7695 531.801 48.375 532.074 47.8828 532.074C47.5391 532.074 46.5977 530.199 45.0586 526.449C43.5273 522.691 42.6289 520.812 42.3633 520.812C42.1445 520.812 42.0352 522.73 42.0352 526.566C42.0352 528.27 42.0625 529.316 42.1172 529.707C42.1719 530.098 42.2617 530.566 42.3867 531.113C42.5195 531.66 42.5859 532.023 42.5859 532.203C42.5859 532.383 42.4648 532.531 42.2227 532.648C41.9805 532.766 41.668 532.824 41.2852 532.824H40.6406C39.3516 532.824 38.707 532.66 38.707 532.332C38.707 532.168 38.9258 531.898 39.3633 531.523C39.8086 531.141 40.0664 530.812 40.1367 530.539C40.2148 530.258 40.3164 528.852 40.4414 526.32C40.5664 523.781 40.6289 522.059 40.6289 521.152C40.6289 520.246 40.5742 519.617 40.4648 519.266C40.3555 518.906 40.1016 518.531 39.7031 518.141C39.3125 517.75 39.1172 517.453 39.1172 517.25C39.1172 517 39.8398 516.875 41.2852 516.875C41.8398 516.875 42.3203 516.953 42.7266 517.109C43.1328 517.258 43.5312 517.621 43.9219 518.199C44.3203 518.77 45.1484 520.543 46.4062 523.52C47.6641 526.496 48.3711 527.984 48.5273 527.984ZM63.7852 524.328V524.961C63.7852 527 64.2344 528.703 65.1328 530.07C65.5391 530.688 66.043 531.176 66.6445 531.535C67.2539 531.895 67.8789 532.074 68.5195 532.074H68.707C70.0977 532.074 71.2109 531.426 72.0469 530.129C72.375 529.629 72.6562 528.961 72.8906 528.125C73.125 527.289 73.2422 526.398 73.2422 525.453V524.809C73.2422 523.77 73.1094 522.789 72.8438 521.867C71.5156 519.602 70.0508 518.215 68.4492 517.707C67.8711 517.715 67.293 517.852 66.7148 518.117C65.5117 518.68 64.668 519.812 64.1836 521.516C63.918 522.461 63.7852 523.398 63.7852 524.328ZM76.4531 524.445V524.996C76.4531 526.059 76.2656 527.117 75.8906 528.172C75.1172 530.344 73.7422 531.852 71.7656 532.695C70.7578 533.125 69.7461 533.34 68.7305 533.34H68.1797C67.1719 533.34 66.2266 533.137 65.3438 532.73C64.4688 532.324 63.7109 531.793 63.0703 531.137C62.4297 530.473 61.9102 529.602 61.5117 528.523C61.1211 527.445 60.9258 526.375 60.9258 525.312V524.762C60.9258 523.676 61.1133 522.609 61.4883 521.562C61.8633 520.508 62.3906 519.605 63.0703 518.855C63.75 518.105 64.5742 517.52 65.543 517.098C66.5117 516.676 67.5156 516.465 68.5547 516.465H68.8242C71.0508 516.465 72.8398 517.164 74.1914 518.562C74.8633 519.258 75.4062 520.141 75.8203 521.211C76.2422 522.281 76.4531 523.359 76.4531 524.445ZM83.2617 519.594V523.52C83.2617 524.09 83.3242 524.434 83.4492 524.551C83.582 524.66 83.8594 524.715 84.2812 524.715H84.7852C85.9492 524.715 86.8477 524.426 87.4805 523.848C88.1133 523.262 88.4297 522.496 88.4297 521.551V521.07C88.4297 520.102 88.1172 519.336 87.4922 518.773C86.875 518.203 86.0664 517.918 85.0664 517.918H84.3398C83.8477 517.918 83.543 518 83.4258 518.164C83.3164 518.32 83.2617 518.797 83.2617 519.594ZM85.3711 516.688C88.207 516.688 90.0312 517.555 90.8438 519.289C91.0625 519.758 91.1719 520.344 91.1719 521.047C91.1719 522.359 90.582 523.504 89.4023 524.48C88.7461 525.027 88.418 525.484 88.418 525.852C88.418 525.961 88.8047 526.672 89.5781 527.984C90.3516 529.289 90.9141 530.164 91.2656 530.609C91.625 531.055 92.0703 531.387 92.6016 531.605C93.1328 531.816 93.3984 532.016 93.3984 532.203C93.3984 532.758 92.793 533.035 91.582 533.035C90.6992 533.035 90.0391 532.82 89.6016 532.391C89.2969 532.094 88.6875 531.129 87.7734 529.496C86.8594 527.863 86.3438 526.973 86.2266 526.824C85.8125 526.301 85.1836 526.039 84.3398 526.039C83.9805 526.039 83.7344 526.203 83.6016 526.531C83.4688 526.852 83.4023 527.574 83.4023 528.699C83.4023 529.824 83.4766 530.57 83.625 530.938C83.7812 531.305 84.0156 531.656 84.3281 531.992C84.6406 532.32 84.7969 532.512 84.7969 532.566C84.7969 532.832 84.3008 532.965 83.3086 532.965L82.9102 532.953L82.5234 532.93C82.3516 532.922 82.0859 532.918 81.7266 532.918C79.8906 532.918 78.9727 532.762 78.9727 532.449C78.9727 532.137 79.1016 531.902 79.3594 531.746C80.0156 531.34 80.3672 531.094 80.4141 531.008C80.5938 530.68 80.6836 529.777 80.6836 528.301L80.707 527.48L80.7188 526.66C80.7188 526.387 80.7188 526.113 80.7188 525.84L80.6953 524.621C80.6953 521.441 80.6172 519.582 80.4609 519.043C80.3125 518.504 80.0391 518.117 79.6406 517.883C79.25 517.641 79.0547 517.43 79.0547 517.25C79.0547 516.938 79.6797 516.781 80.9297 516.781L81.3281 516.77C81.6016 516.762 81.8711 516.758 82.1367 516.758L84.5508 516.688H85.3711ZM98.8008 532.578C98.8008 532.398 99 532.152 99.3984 531.84C99.8047 531.527 100.082 531.164 100.23 530.75C100.379 530.328 100.453 529.52 100.453 528.324C100.453 527.121 100.117 525.914 99.4453 524.703C97.8594 521.844 96.8047 520.047 96.2812 519.312C96 518.922 95.6133 518.59 95.1211 518.316C94.6367 518.035 94.3945 517.777 94.3945 517.543C94.3945 517.23 94.6523 517.023 95.168 516.922C95.6914 516.812 96.7812 516.758 98.4375 516.758C99.2578 516.758 99.668 516.953 99.668 517.344C99.668 517.367 99.5977 517.484 99.457 517.695C99.3242 517.906 99.2578 518.148 99.2578 518.422C99.2578 519.039 99.9727 520.605 101.402 523.121C101.816 523.855 102.078 524.223 102.188 524.223C102.43 524.223 102.984 523.434 103.852 521.855C104.727 520.27 105.164 519.203 105.164 518.656C105.164 518.469 105.082 518.207 104.918 517.871C104.754 517.535 104.672 517.355 104.672 517.332C104.672 516.887 105.438 516.664 106.969 516.664H107.754C108.676 516.664 109.137 516.828 109.137 517.156C109.137 517.477 108.918 517.781 108.48 518.07C107.816 518.508 107.363 518.898 107.121 519.242C106.387 520.305 105.348 522.18 104.004 524.867C103.449 525.977 103.172 527.5 103.172 529.438C103.172 530.422 103.25 531.043 103.406 531.301C103.57 531.559 103.832 531.797 104.191 532.016C104.559 532.227 104.742 532.465 104.742 532.73C104.742 532.988 104.391 533.117 103.688 533.117L100.734 533.047C99.4453 533.047 98.8008 532.891 98.8008 532.578ZM119.777 524.328V524.961C119.777 527 120.227 528.703 121.125 530.07C121.531 530.688 122.035 531.176 122.637 531.535C123.246 531.895 123.871 532.074 124.512 532.074H124.699C126.09 532.074 127.203 531.426 128.039 530.129C128.367 529.629 128.648 528.961 128.883 528.125C129.117 527.289 129.234 526.398 129.234 525.453V524.809C129.234 523.77 129.102 522.789 128.836 521.867C127.508 519.602 126.043 518.215 124.441 517.707C123.863 517.715 123.285 517.852 122.707 518.117C121.504 518.68 120.66 519.812 120.176 521.516C119.91 522.461 119.777 523.398 119.777 524.328ZM132.445 524.445V524.996C132.445 526.059 132.258 527.117 131.883 528.172C131.109 530.344 129.734 531.852 127.758 532.695C126.75 533.125 125.738 533.34 124.723 533.34H124.172C123.164 533.34 122.219 533.137 121.336 532.73C120.461 532.324 119.703 531.793 119.062 531.137C118.422 530.473 117.902 529.602 117.504 528.523C117.113 527.445 116.918 526.375 116.918 525.312V524.762C116.918 523.676 117.105 522.609 117.48 521.562C117.855 520.508 118.383 519.605 119.062 518.855C119.742 518.105 120.566 517.52 121.535 517.098C122.504 516.676 123.508 516.465 124.547 516.465H124.816C127.043 516.465 128.832 517.164 130.184 518.562C130.855 519.258 131.398 520.141 131.812 521.211C132.234 522.281 132.445 523.359 132.445 524.445ZM145.113 516.641C145.746 516.641 146.207 516.797 146.496 517.109C146.793 517.414 146.941 518.074 146.941 519.09C146.941 519.66 146.812 519.945 146.555 519.945C146.523 519.945 146.273 519.762 145.805 519.395C145.336 519.02 144.938 518.766 144.609 518.633C143.797 518.312 142.789 518.152 141.586 518.152C140.828 518.152 140.297 518.398 139.992 518.891C139.688 519.383 139.535 520.359 139.535 521.82C139.535 522.641 139.684 523.199 139.98 523.496C140.277 523.793 140.719 523.941 141.305 523.941C141.898 523.941 142.465 523.777 143.004 523.449C143.551 523.121 143.84 522.957 143.871 522.957C144.16 522.957 144.363 523.09 144.48 523.355C144.605 523.621 144.668 524.051 144.668 524.645C144.668 525.957 144.34 526.613 143.684 526.613C143.574 526.613 143.289 526.496 142.828 526.262C142.375 526.02 142.043 525.898 141.832 525.898C141.082 525.898 140.516 526.047 140.133 526.344C139.758 526.633 139.57 527.223 139.57 528.113C139.57 529.004 139.648 529.777 139.805 530.434C139.961 531.09 140.086 531.504 140.18 531.676C140.273 531.848 140.383 532.027 140.508 532.215C140.641 532.402 140.707 532.535 140.707 532.613C140.707 532.902 140.18 533.047 139.125 533.047H138.715L138.305 533.035C136.172 533.035 135.105 532.82 135.105 532.391C135.105 532.172 135.312 531.93 135.727 531.664C136.148 531.398 136.406 531.117 136.5 530.82C136.594 530.523 136.641 529.805 136.641 528.664V526.32L136.676 525.066L136.688 523.801V522.523C136.688 520.711 136.617 519.562 136.477 519.078C136.336 518.586 136.145 518.254 135.902 518.082C135.309 517.652 135.012 517.398 135.012 517.32C135.012 517.055 135.172 516.883 135.492 516.805C135.695 516.758 136.355 516.734 137.473 516.734L140.414 516.676L141.691 516.641H145.113ZM163.863 526.051V525.98C163.863 525.246 163.234 523.41 161.977 520.473C161.758 519.965 161.645 519.711 161.637 519.711L161.297 520.496C160 523.52 159.352 525.355 159.352 526.004C159.352 526.113 159.418 526.172 159.551 526.18C159.691 526.188 159.797 526.191 159.867 526.191L160.781 526.215H161.613L161.695 526.203C163.141 526.203 163.863 526.152 163.863 526.051ZM154.09 532.297C154.09 532.102 154.312 531.875 154.758 531.617C155.203 531.359 155.531 531.031 155.742 530.633C155.953 530.234 156.25 529.516 156.633 528.477C157.016 527.43 157.535 526.113 158.191 524.527C158.855 522.941 159.379 521.52 159.762 520.262C160.152 518.996 160.418 518.195 160.559 517.859C160.879 517.094 161.332 516.711 161.918 516.711H162.246C162.395 516.711 162.578 516.793 162.797 516.957C163.242 517.293 163.707 518.012 164.191 519.113C164.355 519.488 164.602 520.133 164.93 521.047C165.258 521.953 165.914 523.73 166.898 526.379C167.883 529.027 168.434 530.469 168.551 530.703C168.746 531.109 169.078 531.438 169.547 531.688C170.016 531.93 170.25 532.125 170.25 532.273C170.25 532.602 170.055 532.805 169.664 532.883C169.398 532.938 168.727 532.965 167.648 532.965L166.969 532.977C165.523 532.977 164.801 532.781 164.801 532.391C164.801 532.32 164.891 532.152 165.07 531.887C165.258 531.621 165.352 531.285 165.352 530.879C165.352 530.473 165.203 529.891 164.906 529.133C164.617 528.375 164.371 527.906 164.168 527.727C163.973 527.547 163.125 527.457 161.625 527.457C160.125 527.457 159.25 527.539 159 527.703C158.75 527.867 158.48 528.309 158.191 529.027C157.902 529.746 157.758 530.332 157.758 530.785C157.758 531.23 157.895 531.625 158.168 531.969C158.449 532.312 158.59 532.492 158.59 532.508C158.59 532.789 158.109 532.93 157.148 532.93C156.195 532.93 155.445 532.895 154.898 532.824C154.359 532.746 154.09 532.57 154.09 532.297ZM173.766 533.281C173.359 533.281 172.988 533.137 172.652 532.848C172.316 532.559 172.148 532.18 172.148 531.711V531.605C172.148 531.152 172.32 530.777 172.664 530.48C173.016 530.184 173.371 530.035 173.73 530.035H173.941C174.059 530.059 174.145 530.07 174.199 530.07C174.473 530.07 174.758 530.219 175.055 530.516C175.352 530.812 175.5 531.156 175.5 531.547V531.711C175.5 532.07 175.355 532.418 175.066 532.754C174.785 533.082 174.461 533.246 174.094 533.246L173.824 533.281H173.766ZM184.523 517.918H183.961C183.102 517.918 182.625 518.09 182.531 518.434C182.484 518.598 182.461 519.758 182.461 521.914V526.297L182.449 526.871C182.449 527.066 182.449 527.262 182.449 527.457L182.438 528.031C182.438 528.227 182.438 528.422 182.438 528.617L182.426 529.379V529.953C182.426 530.766 182.539 531.27 182.766 531.465C182.992 531.652 183.543 531.746 184.418 531.746L184.605 531.734C186.238 531.734 187.543 531.195 188.52 530.117C189.012 529.578 189.398 528.875 189.68 528.008C189.961 527.133 190.102 526.246 190.102 525.348V524.504C190.102 523.668 189.977 522.812 189.727 521.938C189.211 520.172 188.191 518.965 186.668 518.316C186.051 518.051 185.336 517.918 184.523 517.918ZM184.266 516.652H184.875C188.789 516.66 191.363 518.188 192.598 521.234C193.004 522.234 193.207 523.293 193.207 524.41V524.738C193.207 526.035 192.992 527.199 192.562 528.23C191.719 530.246 190.234 531.664 188.109 532.484C187.133 532.859 186.055 533.047 184.875 533.047H183.996L183.703 533.035L183.105 533.023C182.91 533.016 182.711 533.012 182.508 533.012L180.785 532.977C179.035 532.977 178.16 532.848 178.16 532.59C178.16 532.332 178.328 532.117 178.664 531.945C179.242 531.648 179.574 531.414 179.66 531.242C179.848 530.883 179.941 530.062 179.941 528.781V523.227L179.918 521.738L179.895 520.555C179.895 519.508 179.801 518.844 179.613 518.562C179.434 518.281 179.141 518.059 178.734 517.895C178.336 517.723 178.137 517.512 178.137 517.262C178.137 516.965 178.734 516.816 179.93 516.816L181.055 516.793L181.336 516.77L181.617 516.758C183.305 516.688 184.188 516.652 184.266 516.652ZM197.156 533.281C196.75 533.281 196.379 533.137 196.043 532.848C195.707 532.559 195.539 532.18 195.539 531.711V531.605C195.539 531.152 195.711 530.777 196.055 530.48C196.406 530.184 196.762 530.035 197.121 530.035H197.332C197.449 530.059 197.535 530.07 197.59 530.07C197.863 530.07 198.148 530.219 198.445 530.516C198.742 530.812 198.891 531.156 198.891 531.547V531.711C198.891 532.07 198.746 532.418 198.457 532.754C198.176 533.082 197.852 533.246 197.484 533.246L197.215 533.281H197.156ZM217.898 532.566C217.898 532.895 217.336 533.059 216.211 533.059H215.648L215.074 533.047C214.027 533.047 213.305 533.008 212.906 532.93C212.508 532.852 212.309 532.684 212.309 532.426C212.309 532.355 212.438 532.168 212.695 531.863C212.961 531.559 213.16 531.152 213.293 530.645C213.426 530.137 213.492 529.242 213.492 527.961C213.492 526.68 213.352 525.914 213.07 525.664C212.797 525.406 211.684 525.277 209.73 525.277C207.785 525.277 206.652 525.43 206.332 525.734C206.121 525.93 206.016 526.707 206.016 528.066C206.016 529.426 206.062 530.316 206.156 530.738C206.258 531.16 206.391 531.488 206.555 531.723L206.789 531.992C207.031 532.266 207.152 532.426 207.152 532.473C207.152 532.754 206.906 532.922 206.414 532.977C206.195 533 205.316 533.012 203.777 533.012C202.246 533.012 201.48 532.836 201.48 532.484C201.48 532.297 201.781 532.004 202.383 531.605C202.781 531.34 203.02 530.984 203.098 530.539C203.176 530.086 203.215 528.203 203.215 524.891C203.215 521.578 203.156 519.66 203.039 519.137C202.922 518.613 202.629 518.219 202.16 517.953C201.699 517.68 201.469 517.43 201.469 517.203C201.469 516.898 202.445 516.746 204.398 516.746H205.535C206.629 516.746 207.176 516.93 207.176 517.297C207.176 517.328 207.043 517.512 206.777 517.848C206.512 518.176 206.324 518.582 206.215 519.066C206.113 519.543 206.062 520.328 206.062 521.422C206.062 522.516 206.191 523.184 206.449 523.426C206.707 523.668 207.801 523.789 209.73 523.789C211.668 523.789 212.773 523.656 213.047 523.391C213.242 523.203 213.34 522.512 213.34 521.316C213.34 520.113 213.297 519.348 213.211 519.02C213.133 518.691 213.008 518.414 212.836 518.188L212.59 517.918C212.348 517.66 212.227 517.488 212.227 517.402C212.227 517.105 212.441 516.93 212.871 516.875C213.301 516.82 214.258 516.793 215.742 516.793C217.227 516.793 217.969 516.953 217.969 517.273C217.969 517.516 217.828 517.734 217.547 517.93C216.914 518.359 216.57 518.637 216.516 518.762C216.383 519.066 216.316 520.543 216.316 523.191L216.234 528.98C216.234 530.066 216.293 530.766 216.41 531.078C216.527 531.391 216.723 531.629 216.996 531.793C217.598 532.16 217.898 532.418 217.898 532.566Z" fill="#494949"/>
<path d="M726.164 535.01H724.904L724.582 535C723.827 534.974 723.299 534.961 723 534.961L722.688 534.951C722.479 534.945 722.268 534.941 722.053 534.941H721.115C720.451 534.941 720.054 534.925 719.924 534.893C719.54 534.795 719.348 534.619 719.348 534.365V534.15C719.348 533.844 719.624 533.369 720.178 532.725C720.373 532.503 720.988 531.898 722.023 530.908C723.059 529.912 723.755 529.16 724.113 528.652C724.771 527.721 725.1 526.8 725.1 525.889C725.1 525.283 724.898 524.766 724.494 524.336C724.097 523.9 723.605 523.682 723.02 523.682C722.03 523.682 721.333 524.17 720.93 525.146C720.76 525.57 720.611 525.85 720.48 525.986C720.357 526.117 720.158 526.182 719.885 526.182C719.553 526.182 719.387 525.853 719.387 525.195C719.387 524.538 719.781 523.949 720.568 523.428C721.356 522.907 722.329 522.646 723.488 522.646C724.647 522.646 725.536 522.943 726.154 523.535C726.779 524.128 727.092 524.893 727.092 525.83C727.092 526.761 726.743 527.673 726.047 528.564C725.539 529.215 724.65 530.075 723.381 531.143C722.111 532.204 721.477 532.891 721.477 533.203C721.477 533.418 722.102 533.525 723.352 533.525C724.602 533.525 725.376 533.473 725.676 533.369C725.982 533.258 726.311 533.047 726.662 532.734C727.014 532.422 727.212 532.266 727.258 532.266C727.499 532.266 727.619 532.471 727.619 532.881C727.619 533.623 727.518 534.163 727.316 534.502C727.115 534.84 726.73 535.01 726.164 535.01ZM731.701 528.223V529.307C731.701 530.752 731.962 531.94 732.482 532.871C733.003 533.802 733.68 534.268 734.514 534.268C735.34 534.268 735.988 533.854 736.457 533.027C737.004 532.057 737.277 530.82 737.277 529.316V528.535C737.277 527.142 737.04 525.944 736.564 524.941C736.089 523.939 735.415 523.438 734.543 523.438C733.677 523.438 732.987 523.89 732.473 524.795C731.958 525.7 731.701 526.842 731.701 528.223ZM734.445 522.529H734.826C736.148 522.529 737.251 523.115 738.137 524.287C738.56 524.847 738.876 525.534 739.084 526.348C739.292 527.161 739.396 527.949 739.396 528.711V528.916C739.396 529.821 739.27 530.664 739.016 531.445C738.495 533.06 737.661 534.15 736.516 534.717C735.891 535.029 735.262 535.186 734.631 535.186H734.26C733.609 535.186 732.997 535.023 732.424 534.697C731.232 534.02 730.438 532.913 730.041 531.377C729.833 530.57 729.729 529.775 729.729 528.994V528.789C729.729 527.904 729.852 527.064 730.1 526.27C730.581 524.727 731.408 523.636 732.58 522.998C733.153 522.686 733.775 522.529 734.445 522.529ZM748.664 535.01H747.404L747.082 535C746.327 534.974 745.799 534.961 745.5 534.961L745.188 534.951C744.979 534.945 744.768 534.941 744.553 534.941H743.615C742.951 534.941 742.554 534.925 742.424 534.893C742.04 534.795 741.848 534.619 741.848 534.365V534.15C741.848 533.844 742.124 533.369 742.678 532.725C742.873 532.503 743.488 531.898 744.523 530.908C745.559 529.912 746.255 529.16 746.613 528.652C747.271 527.721 747.6 526.8 747.6 525.889C747.6 525.283 747.398 524.766 746.994 524.336C746.597 523.9 746.105 523.682 745.52 523.682C744.53 523.682 743.833 524.17 743.43 525.146C743.26 525.57 743.111 525.85 742.98 525.986C742.857 526.117 742.658 526.182 742.385 526.182C742.053 526.182 741.887 525.853 741.887 525.195C741.887 524.538 742.281 523.949 743.068 523.428C743.856 522.907 744.829 522.646 745.988 522.646C747.147 522.646 748.036 522.943 748.654 523.535C749.279 524.128 749.592 524.893 749.592 525.83C749.592 526.761 749.243 527.673 748.547 528.564C748.039 529.215 747.15 530.075 745.881 531.143C744.611 532.204 743.977 532.891 743.977 533.203C743.977 533.418 744.602 533.525 745.852 533.525C747.102 533.525 747.876 533.473 748.176 533.369C748.482 533.258 748.811 533.047 749.162 532.734C749.514 532.422 749.712 532.266 749.758 532.266C749.999 532.266 750.119 532.471 750.119 532.881C750.119 533.623 750.018 534.163 749.816 534.502C749.615 534.84 749.23 535.01 748.664 535.01ZM759.445 535.01H758.186L757.863 535C757.108 534.974 756.581 534.961 756.281 534.961L755.969 534.951C755.76 534.945 755.549 534.941 755.334 534.941H754.396C753.732 534.941 753.335 534.925 753.205 534.893C752.821 534.795 752.629 534.619 752.629 534.365V534.15C752.629 533.844 752.906 533.369 753.459 532.725C753.654 532.503 754.27 531.898 755.305 530.908C756.34 529.912 757.036 529.16 757.395 528.652C758.052 527.721 758.381 526.8 758.381 525.889C758.381 525.283 758.179 524.766 757.775 524.336C757.378 523.9 756.887 523.682 756.301 523.682C755.311 523.682 754.615 524.17 754.211 525.146C754.042 525.57 753.892 525.85 753.762 525.986C753.638 526.117 753.439 526.182 753.166 526.182C752.834 526.182 752.668 525.853 752.668 525.195C752.668 524.538 753.062 523.949 753.85 523.428C754.637 522.907 755.611 522.646 756.77 522.646C757.928 522.646 758.817 522.943 759.436 523.535C760.061 524.128 760.373 524.893 760.373 525.83C760.373 526.761 760.025 527.673 759.328 528.564C758.82 529.215 757.932 530.075 756.662 531.143C755.393 532.204 754.758 532.891 754.758 533.203C754.758 533.418 755.383 533.525 756.633 533.525C757.883 533.525 758.658 533.473 758.957 533.369C759.263 533.258 759.592 533.047 759.943 532.734C760.295 532.422 760.493 532.266 760.539 532.266C760.78 532.266 760.9 532.471 760.9 532.881C760.9 533.623 760.799 534.163 760.598 534.502C760.396 534.84 760.012 535.01 759.445 535.01ZM764.533 535.225H764.455C764.071 535.225 763.768 535.094 763.547 534.834C763.326 534.567 763.215 534.274 763.215 533.955L763.225 533.906C763.225 533.672 763.326 533.411 763.527 533.125C763.736 532.839 764.025 532.695 764.396 532.695H764.65C764.898 532.695 765.148 532.803 765.402 533.018C765.663 533.232 765.793 533.506 765.793 533.838V534.043C765.793 534.382 765.656 534.665 765.383 534.893C765.116 535.114 764.833 535.225 764.533 535.225ZM777.697 523.76C777.697 523.792 777.665 524.128 777.6 524.766C777.535 525.397 777.502 525.885 777.502 526.23L777.473 527.236V527.637L777.463 527.842V529.062C777.463 531.296 777.515 532.588 777.619 532.939C777.73 533.285 777.997 533.61 778.42 533.916C778.85 534.222 779.064 534.44 779.064 534.57C779.064 534.863 778.69 535.01 777.941 535.01H776.516L776.311 535C774.585 535 773.723 534.854 773.723 534.561C773.723 534.417 773.993 534.183 774.533 533.857C774.885 533.643 775.126 533.317 775.256 532.881C775.393 532.445 775.461 531.182 775.461 529.092C775.461 526.995 775.428 525.771 775.363 525.42C775.298 525.062 775.191 524.827 775.041 524.717C774.898 524.606 774.689 524.551 774.416 524.551C773.752 524.551 773.42 524.44 773.42 524.219V524.111C773.42 523.975 773.609 523.822 773.986 523.652C775.477 522.975 776.512 522.637 777.092 522.637C777.495 522.637 777.697 523.011 777.697 523.76ZM786.037 523.76C786.037 523.792 786.005 524.128 785.939 524.766C785.874 525.397 785.842 525.885 785.842 526.23L785.812 527.236V527.637L785.803 527.842V529.062C785.803 531.296 785.855 532.588 785.959 532.939C786.07 533.285 786.337 533.61 786.76 533.916C787.189 534.222 787.404 534.44 787.404 534.57C787.404 534.863 787.03 535.01 786.281 535.01H784.855L784.65 535C782.925 535 782.062 534.854 782.062 534.561C782.062 534.417 782.333 534.183 782.873 533.857C783.225 533.643 783.465 533.317 783.596 532.881C783.732 532.445 783.801 531.182 783.801 529.092C783.801 526.995 783.768 525.771 783.703 525.42C783.638 525.062 783.531 524.827 783.381 524.717C783.238 524.606 783.029 524.551 782.756 524.551C782.092 524.551 781.76 524.44 781.76 524.219V524.111C781.76 523.975 781.949 523.822 782.326 523.652C783.817 522.975 784.852 522.637 785.432 522.637C785.835 522.637 786.037 523.011 786.037 523.76ZM791.154 535.225H791.076C790.692 535.225 790.389 535.094 790.168 534.834C789.947 534.567 789.836 534.274 789.836 533.955L789.846 533.906C789.846 533.672 789.947 533.411 790.148 533.125C790.357 532.839 790.646 532.695 791.018 532.695H791.271C791.519 532.695 791.77 532.803 792.023 533.018C792.284 533.232 792.414 533.506 792.414 533.838V534.043C792.414 534.382 792.277 534.665 792.004 534.893C791.737 535.114 791.454 535.225 791.154 535.225ZM804.318 523.76C804.318 523.792 804.286 524.128 804.221 524.766C804.156 525.397 804.123 525.885 804.123 526.23L804.094 527.236V527.637L804.084 527.842V529.062C804.084 531.296 804.136 532.588 804.24 532.939C804.351 533.285 804.618 533.61 805.041 533.916C805.471 534.222 805.686 534.44 805.686 534.57C805.686 534.863 805.311 535.01 804.562 535.01H803.137L802.932 535C801.206 535 800.344 534.854 800.344 534.561C800.344 534.417 800.614 534.183 801.154 533.857C801.506 533.643 801.747 533.317 801.877 532.881C802.014 532.445 802.082 531.182 802.082 529.092C802.082 526.995 802.049 525.771 801.984 525.42C801.919 525.062 801.812 524.827 801.662 524.717C801.519 524.606 801.311 524.551 801.037 524.551C800.373 524.551 800.041 524.44 800.041 524.219V524.111C800.041 523.975 800.23 523.822 800.607 523.652C802.098 522.975 803.133 522.637 803.713 522.637C804.117 522.637 804.318 523.011 804.318 523.76ZM811.525 535.938H811.213C810.256 535.938 809.484 535.755 808.898 535.391C808.319 535.026 808.029 534.606 808.029 534.131C808.029 533.649 808.264 533.408 808.732 533.408C809.006 533.408 809.484 533.701 810.168 534.287C810.598 534.658 811.138 534.844 811.789 534.844C812.447 534.844 813.007 534.596 813.469 534.102C813.931 533.607 814.162 532.956 814.162 532.148C814.162 531.341 813.866 530.674 813.273 530.146C812.941 529.854 812.434 529.616 811.75 529.434C811.066 529.264 810.725 529.095 810.725 528.926C810.731 528.757 811.034 528.522 811.633 528.223C812.922 527.585 813.566 526.644 813.566 525.4C813.566 524.938 813.407 524.548 813.088 524.229C812.775 523.903 812.408 523.74 811.984 523.74C811.561 523.74 811.2 523.818 810.9 523.975C810.601 524.124 810.288 524.398 809.963 524.795C809.644 525.192 809.331 525.391 809.025 525.391C808.622 525.391 808.42 525.12 808.42 524.58C808.42 524.033 808.768 523.568 809.465 523.184C810.161 522.793 811.047 522.598 812.121 522.598C814.361 522.598 815.48 523.506 815.48 525.322C815.48 525.876 815.301 526.416 814.943 526.943C814.787 527.178 814.51 527.487 814.113 527.871C813.723 528.249 813.527 528.451 813.527 528.477C813.527 528.49 813.794 528.659 814.328 528.984C815.604 529.746 816.242 530.732 816.242 531.943C816.242 533.148 815.747 534.134 814.758 534.902C814.367 535.208 813.882 535.456 813.303 535.645C812.723 535.84 812.131 535.938 811.525 535.938ZM819.963 535.225H819.885C819.501 535.225 819.198 535.094 818.977 534.834C818.755 534.567 818.645 534.274 818.645 533.955L818.654 533.906C818.654 533.672 818.755 533.411 818.957 533.125C819.165 532.839 819.455 532.695 819.826 532.695H820.08C820.327 532.695 820.578 532.803 820.832 533.018C821.092 533.232 821.223 533.506 821.223 533.838V534.043C821.223 534.382 821.086 534.665 820.812 534.893C820.546 535.114 820.262 535.225 819.963 535.225Z" fill="#828282"/>
<path d="M265 0V550" stroke="#768B82" stroke-opacity="0.5" stroke-width="2"/>
</svg>
