<svg width="937" height="550" viewBox="0 0 937 550" fill="none" xmlns="http://www.w3.org/2000/svg">
<path d="M11.1445 527.984C11.2539 527.984 12.0117 526.469 13.418 523.438C14.8242 520.398 15.6914 518.629 16.0195 518.129C16.3477 517.629 16.7266 517.293 17.1562 517.121C17.5859 516.941 18.2695 516.852 19.207 516.852C20.1523 516.852 20.625 517.07 20.625 517.508L20.3438 517.859L19.9805 518.246C19.7461 518.551 19.5781 518.906 19.4766 519.312C19.3828 519.711 19.3359 520.371 19.3359 521.293C19.3359 525.215 19.4375 528.074 19.6406 529.871C19.7188 530.574 19.9727 531.129 20.4023 531.535C20.832 531.934 21.0469 532.199 21.0469 532.332L20.7539 532.543C20.3789 532.715 19.6406 532.801 18.5391 532.801C17.4375 532.801 16.7461 532.656 16.4648 532.367L16.3477 532.109C16.3477 531.883 16.4336 531.418 16.6055 530.715C16.7773 530.004 16.8633 529.297 16.8633 528.594C16.8633 523.469 16.6992 520.906 16.3711 520.906C16.207 520.906 15.4609 522.492 14.1328 525.664C12.8047 528.836 11.9883 530.699 11.6836 531.254C11.3867 531.801 10.9922 532.074 10.5 532.074C10.1562 532.074 9.21484 530.199 7.67578 526.449C6.14453 522.691 5.24609 520.812 4.98047 520.812C4.76172 520.812 4.65234 522.73 4.65234 526.566C4.65234 528.27 4.67969 529.316 4.73438 529.707C4.78906 530.098 4.87891 530.566 5.00391 531.113C5.13672 531.66 5.20312 532.023 5.20312 532.203C5.20312 532.383 5.08203 532.531 4.83984 532.648C4.59766 532.766 4.28516 532.824 3.90234 532.824H3.25781C1.96875 532.824 1.32422 532.66 1.32422 532.332C1.32422 532.168 1.54297 531.898 1.98047 531.523C2.42578 531.141 2.68359 530.812 2.75391 530.539C2.83203 530.258 2.93359 528.852 3.05859 526.32C3.18359 523.781 3.24609 522.059 3.24609 521.152C3.24609 520.246 3.19141 519.617 3.08203 519.266C2.97266 518.906 2.71875 518.531 2.32031 518.141C1.92969 517.75 1.73438 517.453 1.73438 517.25C1.73438 517 2.45703 516.875 3.90234 516.875C4.45703 516.875 4.9375 516.953 5.34375 517.109C5.75 517.258 6.14844 517.621 6.53906 518.199C6.9375 518.77 7.76562 520.543 9.02344 523.52C10.2812 526.496 10.9883 527.984 11.1445 527.984ZM33.5273 516.676C34.9258 516.676 35.625 517.461 35.625 519.031C35.625 519.445 35.5352 519.652 35.3555 519.652C35.2539 519.652 35.0117 519.539 34.6289 519.312C34.2539 519.078 33.9414 518.918 33.6914 518.832C32.582 518.449 31.5977 518.258 30.7383 518.258C29.8789 518.258 29.2891 518.469 28.9688 518.891C28.5234 519.477 28.3008 520.555 28.3008 522.125C28.3008 522.688 28.4922 523.105 28.875 523.379C29.2578 523.652 29.6953 523.789 30.1875 523.789C30.6875 523.789 31.1914 523.621 31.6992 523.285C32.2148 522.941 32.4766 522.77 32.4844 522.77C32.875 522.77 33.1406 522.922 33.2812 523.227C33.4297 523.531 33.5039 524.027 33.5039 524.715C33.5039 525.926 33.2266 526.531 32.6719 526.531C32.5234 526.531 32.2148 526.344 31.7461 525.969C31.2773 525.586 30.7812 525.395 30.2578 525.395C29.3594 525.395 28.7617 525.586 28.4648 525.969C28.2695 526.219 28.1719 526.969 28.1719 528.219C28.1719 529.469 28.3945 530.383 28.8398 530.961C29.0898 531.281 29.6875 531.441 30.6328 531.441C31.5781 531.441 32.6797 531.238 33.9375 530.832C34.2891 530.723 34.5703 530.594 34.7812 530.445C34.9922 530.297 35.207 530.141 35.4258 529.977C35.6445 529.805 35.7812 529.719 35.8359 529.719C36.1016 529.719 36.2344 529.852 36.2344 530.117V530.492C36.2344 531.094 36.1289 531.59 35.918 531.98C35.7148 532.363 35.5273 532.609 35.3555 532.719C35.0352 532.922 33.7617 533.023 31.5352 533.023H29.9883L29.4727 533.012C26.5273 533.012 24.8281 532.98 24.375 532.918C23.9219 532.848 23.6953 532.672 23.6953 532.391C23.6953 532.211 23.9062 531.984 24.3281 531.711C24.75 531.438 25.0234 531.094 25.1484 530.68C25.2734 530.266 25.3359 528.645 25.3359 525.816L25.3828 521.234C25.3828 519.734 25.2891 518.805 25.1016 518.445C25.0156 518.281 24.7734 518.094 24.375 517.883C23.9766 517.672 23.7773 517.484 23.7773 517.32C23.7773 517.008 24.0312 516.812 24.5391 516.734C24.75 516.703 26.4102 516.688 29.5195 516.688L33.0352 516.676H33.5273ZM48.5273 527.984C48.6367 527.984 49.3945 526.469 50.8008 523.438C52.207 520.398 53.0742 518.629 53.4023 518.129C53.7305 517.629 54.1094 517.293 54.5391 517.121C54.9688 516.941 55.6523 516.852 56.5898 516.852C57.5352 516.852 58.0078 517.07 58.0078 517.508L57.7266 517.859L57.3633 518.246C57.1289 518.551 56.9609 518.906 56.8594 519.312C56.7656 519.711 56.7188 520.371 56.7188 521.293C56.7188 525.215 56.8203 528.074 57.0234 529.871C57.1016 530.574 57.3555 531.129 57.7852 531.535C58.2148 531.934 58.4297 532.199 58.4297 532.332L58.1367 532.543C57.7617 532.715 57.0234 532.801 55.9219 532.801C54.8203 532.801 54.1289 532.656 53.8477 532.367L53.7305 532.109C53.7305 531.883 53.8164 531.418 53.9883 530.715C54.1602 530.004 54.2461 529.297 54.2461 528.594C54.2461 523.469 54.082 520.906 53.7539 520.906C53.5898 520.906 52.8438 522.492 51.5156 525.664C50.1875 528.836 49.3711 530.699 49.0664 531.254C48.7695 531.801 48.375 532.074 47.8828 532.074C47.5391 532.074 46.5977 530.199 45.0586 526.449C43.5273 522.691 42.6289 520.812 42.3633 520.812C42.1445 520.812 42.0352 522.73 42.0352 526.566C42.0352 528.27 42.0625 529.316 42.1172 529.707C42.1719 530.098 42.2617 530.566 42.3867 531.113C42.5195 531.66 42.5859 532.023 42.5859 532.203C42.5859 532.383 42.4648 532.531 42.2227 532.648C41.9805 532.766 41.668 532.824 41.2852 532.824H40.6406C39.3516 532.824 38.707 532.66 38.707 532.332C38.707 532.168 38.9258 531.898 39.3633 531.523C39.8086 531.141 40.0664 530.812 40.1367 530.539C40.2148 530.258 40.3164 528.852 40.4414 526.32C40.5664 523.781 40.6289 522.059 40.6289 521.152C40.6289 520.246 40.5742 519.617 40.4648 519.266C40.3555 518.906 40.1016 518.531 39.7031 518.141C39.3125 517.75 39.1172 517.453 39.1172 517.25C39.1172 517 39.8398 516.875 41.2852 516.875C41.8398 516.875 42.3203 516.953 42.7266 517.109C43.1328 517.258 43.5312 517.621 43.9219 518.199C44.3203 518.77 45.1484 520.543 46.4062 523.52C47.6641 526.496 48.3711 527.984 48.5273 527.984ZM63.7852 524.328V524.961C63.7852 527 64.2344 528.703 65.1328 530.07C65.5391 530.688 66.043 531.176 66.6445 531.535C67.2539 531.895 67.8789 532.074 68.5195 532.074H68.707C70.0977 532.074 71.2109 531.426 72.0469 530.129C72.375 529.629 72.6562 528.961 72.8906 528.125C73.125 527.289 73.2422 526.398 73.2422 525.453V524.809C73.2422 523.77 73.1094 522.789 72.8438 521.867C71.5156 519.602 70.0508 518.215 68.4492 517.707C67.8711 517.715 67.293 517.852 66.7148 518.117C65.5117 518.68 64.668 519.812 64.1836 521.516C63.918 522.461 63.7852 523.398 63.7852 524.328ZM76.4531 524.445V524.996C76.4531 526.059 76.2656 527.117 75.8906 528.172C75.1172 530.344 73.7422 531.852 71.7656 532.695C70.7578 533.125 69.7461 533.34 68.7305 533.34H68.1797C67.1719 533.34 66.2266 533.137 65.3438 532.73C64.4688 532.324 63.7109 531.793 63.0703 531.137C62.4297 530.473 61.9102 529.602 61.5117 528.523C61.1211 527.445 60.9258 526.375 60.9258 525.312V524.762C60.9258 523.676 61.1133 522.609 61.4883 521.562C61.8633 520.508 62.3906 519.605 63.0703 518.855C63.75 518.105 64.5742 517.52 65.543 517.098C66.5117 516.676 67.5156 516.465 68.5547 516.465H68.8242C71.0508 516.465 72.8398 517.164 74.1914 518.562C74.8633 519.258 75.4062 520.141 75.8203 521.211C76.2422 522.281 76.4531 523.359 76.4531 524.445ZM83.2617 519.594V523.52C83.2617 524.09 83.3242 524.434 83.4492 524.551C83.582 524.66 83.8594 524.715 84.2812 524.715H84.7852C85.9492 524.715 86.8477 524.426 87.4805 523.848C88.1133 523.262 88.4297 522.496 88.4297 521.551V521.07C88.4297 520.102 88.1172 519.336 87.4922 518.773C86.875 518.203 86.0664 517.918 85.0664 517.918H84.3398C83.8477 517.918 83.543 518 83.4258 518.164C83.3164 518.32 83.2617 518.797 83.2617 519.594ZM85.3711 516.688C88.207 516.688 90.0312 517.555 90.8438 519.289C91.0625 519.758 91.1719 520.344 91.1719 521.047C91.1719 522.359 90.582 523.504 89.4023 524.48C88.7461 525.027 88.418 525.484 88.418 525.852C88.418 525.961 88.8047 526.672 89.5781 527.984C90.3516 529.289 90.9141 530.164 91.2656 530.609C91.625 531.055 92.0703 531.387 92.6016 531.605C93.1328 531.816 93.3984 532.016 93.3984 532.203C93.3984 532.758 92.793 533.035 91.582 533.035C90.6992 533.035 90.0391 532.82 89.6016 532.391C89.2969 532.094 88.6875 531.129 87.7734 529.496C86.8594 527.863 86.3438 526.973 86.2266 526.824C85.8125 526.301 85.1836 526.039 84.3398 526.039C83.9805 526.039 83.7344 526.203 83.6016 526.531C83.4688 526.852 83.4023 527.574 83.4023 528.699C83.4023 529.824 83.4766 530.57 83.625 530.938C83.7812 531.305 84.0156 531.656 84.3281 531.992C84.6406 532.32 84.7969 532.512 84.7969 532.566C84.7969 532.832 84.3008 532.965 83.3086 532.965L82.9102 532.953L82.5234 532.93C82.3516 532.922 82.0859 532.918 81.7266 532.918C79.8906 532.918 78.9727 532.762 78.9727 532.449C78.9727 532.137 79.1016 531.902 79.3594 531.746C80.0156 531.34 80.3672 531.094 80.4141 531.008C80.5938 530.68 80.6836 529.777 80.6836 528.301L80.707 527.48L80.7188 526.66C80.7188 526.387 80.7188 526.113 80.7188 525.84L80.6953 524.621C80.6953 521.441 80.6172 519.582 80.4609 519.043C80.3125 518.504 80.0391 518.117 79.6406 517.883C79.25 517.641 79.0547 517.43 79.0547 517.25C79.0547 516.938 79.6797 516.781 80.9297 516.781L81.3281 516.77C81.6016 516.762 81.8711 516.758 82.1367 516.758L84.5508 516.688H85.3711ZM98.8008 532.578C98.8008 532.398 99 532.152 99.3984 531.84C99.8047 531.527 100.082 531.164 100.23 530.75C100.379 530.328 100.453 529.52 100.453 528.324C100.453 527.121 100.117 525.914 99.4453 524.703C97.8594 521.844 96.8047 520.047 96.2812 519.312C96 518.922 95.6133 518.59 95.1211 518.316C94.6367 518.035 94.3945 517.777 94.3945 517.543C94.3945 517.23 94.6523 517.023 95.168 516.922C95.6914 516.812 96.7812 516.758 98.4375 516.758C99.2578 516.758 99.668 516.953 99.668 517.344C99.668 517.367 99.5977 517.484 99.457 517.695C99.3242 517.906 99.2578 518.148 99.2578 518.422C99.2578 519.039 99.9727 520.605 101.402 523.121C101.816 523.855 102.078 524.223 102.188 524.223C102.43 524.223 102.984 523.434 103.852 521.855C104.727 520.27 105.164 519.203 105.164 518.656C105.164 518.469 105.082 518.207 104.918 517.871C104.754 517.535 104.672 517.355 104.672 517.332C104.672 516.887 105.438 516.664 106.969 516.664H107.754C108.676 516.664 109.137 516.828 109.137 517.156C109.137 517.477 108.918 517.781 108.48 518.07C107.816 518.508 107.363 518.898 107.121 519.242C106.387 520.305 105.348 522.18 104.004 524.867C103.449 525.977 103.172 527.5 103.172 529.438C103.172 530.422 103.25 531.043 103.406 531.301C103.57 531.559 103.832 531.797 104.191 532.016C104.559 532.227 104.742 532.465 104.742 532.73C104.742 532.988 104.391 533.117 103.688 533.117L100.734 533.047C99.4453 533.047 98.8008 532.891 98.8008 532.578ZM119.777 524.328V524.961C119.777 527 120.227 528.703 121.125 530.07C121.531 530.688 122.035 531.176 122.637 531.535C123.246 531.895 123.871 532.074 124.512 532.074H124.699C126.09 532.074 127.203 531.426 128.039 530.129C128.367 529.629 128.648 528.961 128.883 528.125C129.117 527.289 129.234 526.398 129.234 525.453V524.809C129.234 523.77 129.102 522.789 128.836 521.867C127.508 519.602 126.043 518.215 124.441 517.707C123.863 517.715 123.285 517.852 122.707 518.117C121.504 518.68 120.66 519.812 120.176 521.516C119.91 522.461 119.777 523.398 119.777 524.328ZM132.445 524.445V524.996C132.445 526.059 132.258 527.117 131.883 528.172C131.109 530.344 129.734 531.852 127.758 532.695C126.75 533.125 125.738 533.34 124.723 533.34H124.172C123.164 533.34 122.219 533.137 121.336 532.73C120.461 532.324 119.703 531.793 119.062 531.137C118.422 530.473 117.902 529.602 117.504 528.523C117.113 527.445 116.918 526.375 116.918 525.312V524.762C116.918 523.676 117.105 522.609 117.48 521.562C117.855 520.508 118.383 519.605 119.062 518.855C119.742 518.105 120.566 517.52 121.535 517.098C122.504 516.676 123.508 516.465 124.547 516.465H124.816C127.043 516.465 128.832 517.164 130.184 518.562C130.855 519.258 131.398 520.141 131.812 521.211C132.234 522.281 132.445 523.359 132.445 524.445ZM145.113 516.641C145.746 516.641 146.207 516.797 146.496 517.109C146.793 517.414 146.941 518.074 146.941 519.09C146.941 519.66 146.812 519.945 146.555 519.945C146.523 519.945 146.273 519.762 145.805 519.395C145.336 519.02 144.938 518.766 144.609 518.633C143.797 518.312 142.789 518.152 141.586 518.152C140.828 518.152 140.297 518.398 139.992 518.891C139.688 519.383 139.535 520.359 139.535 521.82C139.535 522.641 139.684 523.199 139.98 523.496C140.277 523.793 140.719 523.941 141.305 523.941C141.898 523.941 142.465 523.777 143.004 523.449C143.551 523.121 143.84 522.957 143.871 522.957C144.16 522.957 144.363 523.09 144.48 523.355C144.605 523.621 144.668 524.051 144.668 524.645C144.668 525.957 144.34 526.613 143.684 526.613C143.574 526.613 143.289 526.496 142.828 526.262C142.375 526.02 142.043 525.898 141.832 525.898C141.082 525.898 140.516 526.047 140.133 526.344C139.758 526.633 139.57 527.223 139.57 528.113C139.57 529.004 139.648 529.777 139.805 530.434C139.961 531.09 140.086 531.504 140.18 531.676C140.273 531.848 140.383 532.027 140.508 532.215C140.641 532.402 140.707 532.535 140.707 532.613C140.707 532.902 140.18 533.047 139.125 533.047H138.715L138.305 533.035C136.172 533.035 135.105 532.82 135.105 532.391C135.105 532.172 135.312 531.93 135.727 531.664C136.148 531.398 136.406 531.117 136.5 530.82C136.594 530.523 136.641 529.805 136.641 528.664V526.32L136.676 525.066L136.688 523.801V522.523C136.688 520.711 136.617 519.562 136.477 519.078C136.336 518.586 136.145 518.254 135.902 518.082C135.309 517.652 135.012 517.398 135.012 517.32C135.012 517.055 135.172 516.883 135.492 516.805C135.695 516.758 136.355 516.734 137.473 516.734L140.414 516.676L141.691 516.641H145.113ZM162.621 533.023H162.27L161.918 533.012H160.172C157.398 533.012 155.902 532.992 155.684 532.953C155.277 532.883 155.074 532.711 155.074 532.438C155.074 532.32 155.285 532.113 155.707 531.816C156.137 531.52 156.414 531.094 156.539 530.539C156.672 529.977 156.738 527.922 156.738 524.375C156.738 520.828 156.691 518.902 156.598 518.598C156.512 518.285 156.285 518.051 155.918 517.895C155.34 517.645 155.051 517.379 155.051 517.098C155.051 516.816 155.488 516.676 156.363 516.676H157.066L157.406 516.688L158.461 516.699C160.352 516.699 161.297 516.84 161.297 517.121C161.297 517.215 161.02 517.531 160.465 518.07C160.152 518.375 159.926 518.898 159.785 519.641C159.652 520.375 159.586 522.34 159.586 525.535C159.586 528.73 159.633 530.477 159.727 530.773C159.828 531.07 160.059 531.277 160.418 531.395C160.637 531.465 161.066 531.5 161.707 531.5C163.09 531.5 164.125 531.32 164.812 530.961C165.203 530.758 165.625 530.34 166.078 529.707C166.531 529.074 166.883 528.758 167.133 528.758C167.391 528.758 167.52 528.922 167.52 529.25V529.555C167.52 531.273 167.309 532.324 166.887 532.707C166.652 532.918 165.23 533.023 162.621 533.023ZM171.094 533.281C170.688 533.281 170.316 533.137 169.98 532.848C169.645 532.559 169.477 532.18 169.477 531.711V531.605C169.477 531.152 169.648 530.777 169.992 530.48C170.344 530.184 170.699 530.035 171.059 530.035H171.27C171.387 530.059 171.473 530.07 171.527 530.07C171.801 530.07 172.086 530.219 172.383 530.516C172.68 530.812 172.828 531.156 172.828 531.547V531.711C172.828 532.07 172.684 532.418 172.395 532.754C172.113 533.082 171.789 533.246 171.422 533.246L171.152 533.281H171.094ZM183.012 518.469C182.371 518.031 181.648 517.812 180.844 517.812C180.047 517.812 179.395 518.023 178.887 518.445C178.379 518.859 178.125 519.445 178.125 520.203C178.125 520.953 178.504 521.617 179.262 522.195C179.715 522.547 180.641 523.023 182.039 523.625C183.438 524.227 184.41 524.781 184.957 525.289C186.004 526.258 186.527 527.266 186.527 528.312V528.734C186.527 530.031 186.012 531.086 184.98 531.898C184.504 532.273 183.91 532.574 183.199 532.801C182.488 533.02 181.777 533.129 181.066 533.129H180.633C179.023 533.129 177.613 532.887 176.402 532.402C175.855 532.184 175.582 531.586 175.582 530.609V530.199C175.582 529.043 175.781 528.465 176.18 528.465C176.453 528.465 176.824 528.836 177.293 529.578C177.762 530.32 178.301 530.879 178.91 531.254C179.527 531.629 180.27 531.816 181.137 531.816C182.004 531.816 182.703 531.59 183.234 531.137C183.766 530.676 184.031 530.109 184.031 529.438C184.031 528.516 183.602 527.738 182.742 527.105C182.375 526.84 181.453 526.367 179.977 525.688C178.5 525 177.477 524.359 176.906 523.766C176.125 522.953 175.734 521.961 175.734 520.789C175.734 519.617 176.152 518.645 176.988 517.871C177.449 517.441 178.023 517.109 178.711 516.875C179.398 516.633 180.102 516.512 180.82 516.512H181.254C181.551 516.512 181.973 516.562 182.52 516.664L182.93 516.746C183.414 516.84 183.676 516.891 183.715 516.898L184.078 516.922L184.43 516.934C184.758 516.957 184.988 516.996 185.121 517.051C185.582 517.238 185.812 517.891 185.812 519.008C185.812 520.125 185.594 520.684 185.156 520.684C184.938 520.684 184.609 520.371 184.172 519.746C183.734 519.121 183.348 518.695 183.012 518.469ZM190.57 533.281C190.164 533.281 189.793 533.137 189.457 532.848C189.121 532.559 188.953 532.18 188.953 531.711V531.605C188.953 531.152 189.125 530.777 189.469 530.48C189.82 530.184 190.176 530.035 190.535 530.035H190.746C190.863 530.059 190.949 530.07 191.004 530.07C191.277 530.07 191.562 530.219 191.859 530.516C192.156 530.812 192.305 531.156 192.305 531.547V531.711C192.305 532.07 192.16 532.418 191.871 532.754C191.59 533.082 191.266 533.246 190.898 533.246L190.629 533.281H190.57ZM204.762 516.676C206.16 516.676 206.859 517.461 206.859 519.031C206.859 519.445 206.77 519.652 206.59 519.652C206.488 519.652 206.246 519.539 205.863 519.312C205.488 519.078 205.176 518.918 204.926 518.832C203.816 518.449 202.832 518.258 201.973 518.258C201.113 518.258 200.523 518.469 200.203 518.891C199.758 519.477 199.535 520.555 199.535 522.125C199.535 522.688 199.727 523.105 200.109 523.379C200.492 523.652 200.93 523.789 201.422 523.789C201.922 523.789 202.426 523.621 202.934 523.285C203.449 522.941 203.711 522.77 203.719 522.77C204.109 522.77 204.375 522.922 204.516 523.227C204.664 523.531 204.738 524.027 204.738 524.715C204.738 525.926 204.461 526.531 203.906 526.531C203.758 526.531 203.449 526.344 202.98 525.969C202.512 525.586 202.016 525.395 201.492 525.395C200.594 525.395 199.996 525.586 199.699 525.969C199.504 526.219 199.406 526.969 199.406 528.219C199.406 529.469 199.629 530.383 200.074 530.961C200.324 531.281 200.922 531.441 201.867 531.441C202.812 531.441 203.914 531.238 205.172 530.832C205.523 530.723 205.805 530.594 206.016 530.445C206.227 530.297 206.441 530.141 206.66 529.977C206.879 529.805 207.016 529.719 207.07 529.719C207.336 529.719 207.469 529.852 207.469 530.117V530.492C207.469 531.094 207.363 531.59 207.152 531.98C206.949 532.363 206.762 532.609 206.59 532.719C206.27 532.922 204.996 533.023 202.77 533.023H201.223L200.707 533.012C197.762 533.012 196.062 532.98 195.609 532.918C195.156 532.848 194.93 532.672 194.93 532.391C194.93 532.211 195.141 531.984 195.562 531.711C195.984 531.438 196.258 531.094 196.383 530.68C196.508 530.266 196.57 528.645 196.57 525.816L196.617 521.234C196.617 519.734 196.523 518.805 196.336 518.445C196.25 518.281 196.008 518.094 195.609 517.883C195.211 517.672 195.012 517.484 195.012 517.32C195.012 517.008 195.266 516.812 195.773 516.734C195.984 516.703 197.645 516.688 200.754 516.688L204.27 516.676H204.762Z" fill="#494949"/>
<path d="M840.164 535.01H838.904L838.582 535C837.827 534.974 837.299 534.961 837 534.961L836.688 534.951C836.479 534.945 836.268 534.941 836.053 534.941H835.115C834.451 534.941 834.054 534.925 833.924 534.893C833.54 534.795 833.348 534.619 833.348 534.365V534.15C833.348 533.844 833.624 533.369 834.178 532.725C834.373 532.503 834.988 531.898 836.023 530.908C837.059 529.912 837.755 529.16 838.113 528.652C838.771 527.721 839.1 526.8 839.1 525.889C839.1 525.283 838.898 524.766 838.494 524.336C838.097 523.9 837.605 523.682 837.02 523.682C836.03 523.682 835.333 524.17 834.93 525.146C834.76 525.57 834.611 525.85 834.48 525.986C834.357 526.117 834.158 526.182 833.885 526.182C833.553 526.182 833.387 525.853 833.387 525.195C833.387 524.538 833.781 523.949 834.568 523.428C835.356 522.907 836.329 522.646 837.488 522.646C838.647 522.646 839.536 522.943 840.154 523.535C840.779 524.128 841.092 524.893 841.092 525.83C841.092 526.761 840.743 527.673 840.047 528.564C839.539 529.215 838.65 530.075 837.381 531.143C836.111 532.204 835.477 532.891 835.477 533.203C835.477 533.418 836.102 533.525 837.352 533.525C838.602 533.525 839.376 533.473 839.676 533.369C839.982 533.258 840.311 533.047 840.662 532.734C841.014 532.422 841.212 532.266 841.258 532.266C841.499 532.266 841.619 532.471 841.619 532.881C841.619 533.623 841.518 534.163 841.316 534.502C841.115 534.84 840.73 535.01 840.164 535.01ZM845.701 528.223V529.307C845.701 530.752 845.962 531.94 846.482 532.871C847.003 533.802 847.68 534.268 848.514 534.268C849.34 534.268 849.988 533.854 850.457 533.027C851.004 532.057 851.277 530.82 851.277 529.316V528.535C851.277 527.142 851.04 525.944 850.564 524.941C850.089 523.939 849.415 523.438 848.543 523.438C847.677 523.438 846.987 523.89 846.473 524.795C845.958 525.7 845.701 526.842 845.701 528.223ZM848.445 522.529H848.826C850.148 522.529 851.251 523.115 852.137 524.287C852.56 524.847 852.876 525.534 853.084 526.348C853.292 527.161 853.396 527.949 853.396 528.711V528.916C853.396 529.821 853.27 530.664 853.016 531.445C852.495 533.06 851.661 534.15 850.516 534.717C849.891 535.029 849.262 535.186 848.631 535.186H848.26C847.609 535.186 846.997 535.023 846.424 534.697C845.232 534.02 844.438 532.913 844.041 531.377C843.833 530.57 843.729 529.775 843.729 528.994V528.789C843.729 527.904 843.852 527.064 844.1 526.27C844.581 524.727 845.408 523.636 846.58 522.998C847.153 522.686 847.775 522.529 848.445 522.529ZM862.664 535.01H861.404L861.082 535C860.327 534.974 859.799 534.961 859.5 534.961L859.188 534.951C858.979 534.945 858.768 534.941 858.553 534.941H857.615C856.951 534.941 856.554 534.925 856.424 534.893C856.04 534.795 855.848 534.619 855.848 534.365V534.15C855.848 533.844 856.124 533.369 856.678 532.725C856.873 532.503 857.488 531.898 858.523 530.908C859.559 529.912 860.255 529.16 860.613 528.652C861.271 527.721 861.6 526.8 861.6 525.889C861.6 525.283 861.398 524.766 860.994 524.336C860.597 523.9 860.105 523.682 859.52 523.682C858.53 523.682 857.833 524.17 857.43 525.146C857.26 525.57 857.111 525.85 856.98 525.986C856.857 526.117 856.658 526.182 856.385 526.182C856.053 526.182 855.887 525.853 855.887 525.195C855.887 524.538 856.281 523.949 857.068 523.428C857.856 522.907 858.829 522.646 859.988 522.646C861.147 522.646 862.036 522.943 862.654 523.535C863.279 524.128 863.592 524.893 863.592 525.83C863.592 526.761 863.243 527.673 862.547 528.564C862.039 529.215 861.15 530.075 859.881 531.143C858.611 532.204 857.977 532.891 857.977 533.203C857.977 533.418 858.602 533.525 859.852 533.525C861.102 533.525 861.876 533.473 862.176 533.369C862.482 533.258 862.811 533.047 863.162 532.734C863.514 532.422 863.712 532.266 863.758 532.266C863.999 532.266 864.119 532.471 864.119 532.881C864.119 533.623 864.018 534.163 863.816 534.502C863.615 534.84 863.23 535.01 862.664 535.01ZM873.445 535.01H872.186L871.863 535C871.108 534.974 870.581 534.961 870.281 534.961L869.969 534.951C869.76 534.945 869.549 534.941 869.334 534.941H868.396C867.732 534.941 867.335 534.925 867.205 534.893C866.821 534.795 866.629 534.619 866.629 534.365V534.15C866.629 533.844 866.906 533.369 867.459 532.725C867.654 532.503 868.27 531.898 869.305 530.908C870.34 529.912 871.036 529.16 871.395 528.652C872.052 527.721 872.381 526.8 872.381 525.889C872.381 525.283 872.179 524.766 871.775 524.336C871.378 523.9 870.887 523.682 870.301 523.682C869.311 523.682 868.615 524.17 868.211 525.146C868.042 525.57 867.892 525.85 867.762 525.986C867.638 526.117 867.439 526.182 867.166 526.182C866.834 526.182 866.668 525.853 866.668 525.195C866.668 524.538 867.062 523.949 867.85 523.428C868.637 522.907 869.611 522.646 870.77 522.646C871.928 522.646 872.817 522.943 873.436 523.535C874.061 524.128 874.373 524.893 874.373 525.83C874.373 526.761 874.025 527.673 873.328 528.564C872.82 529.215 871.932 530.075 870.662 531.143C869.393 532.204 868.758 532.891 868.758 533.203C868.758 533.418 869.383 533.525 870.633 533.525C871.883 533.525 872.658 533.473 872.957 533.369C873.263 533.258 873.592 533.047 873.943 532.734C874.295 532.422 874.493 532.266 874.539 532.266C874.78 532.266 874.9 532.471 874.9 532.881C874.9 533.623 874.799 534.163 874.598 534.502C874.396 534.84 874.012 535.01 873.445 535.01ZM878.533 535.225H878.455C878.071 535.225 877.768 535.094 877.547 534.834C877.326 534.567 877.215 534.274 877.215 533.955L877.225 533.906C877.225 533.672 877.326 533.411 877.527 533.125C877.736 532.839 878.025 532.695 878.396 532.695H878.65C878.898 532.695 879.148 532.803 879.402 533.018C879.663 533.232 879.793 533.506 879.793 533.838V534.043C879.793 534.382 879.656 534.665 879.383 534.893C879.116 535.114 878.833 535.225 878.533 535.225ZM891.697 523.76C891.697 523.792 891.665 524.128 891.6 524.766C891.535 525.397 891.502 525.885 891.502 526.23L891.473 527.236V527.637L891.463 527.842V529.062C891.463 531.296 891.515 532.588 891.619 532.939C891.73 533.285 891.997 533.61 892.42 533.916C892.85 534.222 893.064 534.44 893.064 534.57C893.064 534.863 892.69 535.01 891.941 535.01H890.516L890.311 535C888.585 535 887.723 534.854 887.723 534.561C887.723 534.417 887.993 534.183 888.533 533.857C888.885 533.643 889.126 533.317 889.256 532.881C889.393 532.445 889.461 531.182 889.461 529.092C889.461 526.995 889.428 525.771 889.363 525.42C889.298 525.062 889.191 524.827 889.041 524.717C888.898 524.606 888.689 524.551 888.416 524.551C887.752 524.551 887.42 524.44 887.42 524.219V524.111C887.42 523.975 887.609 523.822 887.986 523.652C889.477 522.975 890.512 522.637 891.092 522.637C891.495 522.637 891.697 523.011 891.697 523.76ZM900.037 523.76C900.037 523.792 900.005 524.128 899.939 524.766C899.874 525.397 899.842 525.885 899.842 526.23L899.812 527.236V527.637L899.803 527.842V529.062C899.803 531.296 899.855 532.588 899.959 532.939C900.07 533.285 900.337 533.61 900.76 533.916C901.189 534.222 901.404 534.44 901.404 534.57C901.404 534.863 901.03 535.01 900.281 535.01H898.855L898.65 535C896.925 535 896.062 534.854 896.062 534.561C896.062 534.417 896.333 534.183 896.873 533.857C897.225 533.643 897.465 533.317 897.596 532.881C897.732 532.445 897.801 531.182 897.801 529.092C897.801 526.995 897.768 525.771 897.703 525.42C897.638 525.062 897.531 524.827 897.381 524.717C897.238 524.606 897.029 524.551 896.756 524.551C896.092 524.551 895.76 524.44 895.76 524.219V524.111C895.76 523.975 895.949 523.822 896.326 523.652C897.817 522.975 898.852 522.637 899.432 522.637C899.835 522.637 900.037 523.011 900.037 523.76ZM905.154 535.225H905.076C904.692 535.225 904.389 535.094 904.168 534.834C903.947 534.567 903.836 534.274 903.836 533.955L903.846 533.906C903.846 533.672 903.947 533.411 904.148 533.125C904.357 532.839 904.646 532.695 905.018 532.695H905.271C905.519 532.695 905.77 532.803 906.023 533.018C906.284 533.232 906.414 533.506 906.414 533.838V534.043C906.414 534.382 906.277 534.665 906.004 534.893C905.737 535.114 905.454 535.225 905.154 535.225ZM918.318 523.76C918.318 523.792 918.286 524.128 918.221 524.766C918.156 525.397 918.123 525.885 918.123 526.23L918.094 527.236V527.637L918.084 527.842V529.062C918.084 531.296 918.136 532.588 918.24 532.939C918.351 533.285 918.618 533.61 919.041 533.916C919.471 534.222 919.686 534.44 919.686 534.57C919.686 534.863 919.311 535.01 918.562 535.01H917.137L916.932 535C915.206 535 914.344 534.854 914.344 534.561C914.344 534.417 914.614 534.183 915.154 533.857C915.506 533.643 915.747 533.317 915.877 532.881C916.014 532.445 916.082 531.182 916.082 529.092C916.082 526.995 916.049 525.771 915.984 525.42C915.919 525.062 915.812 524.827 915.662 524.717C915.519 524.606 915.311 524.551 915.037 524.551C914.373 524.551 914.041 524.44 914.041 524.219V524.111C914.041 523.975 914.23 523.822 914.607 523.652C916.098 522.975 917.133 522.637 917.713 522.637C918.117 522.637 918.318 523.011 918.318 523.76ZM925.525 535.938H925.213C924.256 535.938 923.484 535.755 922.898 535.391C922.319 535.026 922.029 534.606 922.029 534.131C922.029 533.649 922.264 533.408 922.732 533.408C923.006 533.408 923.484 533.701 924.168 534.287C924.598 534.658 925.138 534.844 925.789 534.844C926.447 534.844 927.007 534.596 927.469 534.102C927.931 533.607 928.162 532.956 928.162 532.148C928.162 531.341 927.866 530.674 927.273 530.146C926.941 529.854 926.434 529.616 925.75 529.434C925.066 529.264 924.725 529.095 924.725 528.926C924.731 528.757 925.034 528.522 925.633 528.223C926.922 527.585 927.566 526.644 927.566 525.4C927.566 524.938 927.407 524.548 927.088 524.229C926.775 523.903 926.408 523.74 925.984 523.74C925.561 523.74 925.2 523.818 924.9 523.975C924.601 524.124 924.288 524.398 923.963 524.795C923.644 525.192 923.331 525.391 923.025 525.391C922.622 525.391 922.42 525.12 922.42 524.58C922.42 524.033 922.768 523.568 923.465 523.184C924.161 522.793 925.047 522.598 926.121 522.598C928.361 522.598 929.48 523.506 929.48 525.322C929.48 525.876 929.301 526.416 928.943 526.943C928.787 527.178 928.51 527.487 928.113 527.871C927.723 528.249 927.527 528.451 927.527 528.477C927.527 528.49 927.794 528.659 928.328 528.984C929.604 529.746 930.242 530.732 930.242 531.943C930.242 533.148 929.747 534.134 928.758 534.902C928.367 535.208 927.882 535.456 927.303 535.645C926.723 535.84 926.131 535.938 925.525 535.938ZM933.963 535.225H933.885C933.501 535.225 933.198 535.094 932.977 534.834C932.755 534.567 932.645 534.274 932.645 533.955L932.654 533.906C932.654 533.672 932.755 533.411 932.957 533.125C933.165 532.839 933.455 532.695 933.826 532.695H934.08C934.327 532.695 934.578 532.803 934.832 533.018C935.092 533.232 935.223 533.506 935.223 533.838V534.043C935.223 534.382 935.086 534.665 934.812 534.893C934.546 535.114 934.262 535.225 933.963 535.225Z" fill="#828282"/>
<path d="M254 0V550" stroke="#768B82" stroke-opacity="0.5" stroke-width="2"/>
</svg>
